<?xml version="1.0" encoding="UTF-8" standalone="no"?> <!-- Created with Vectornator for iOS (http://vectornator.io/) --><!DOCTYPE svg PUBLIC "-//W3C//DTD SVG 1.1//EN" "http://www.w3.org/Graphics/SVG/1.1/DTD/svg11.dtd">
<svg style="fill-rule:evenodd;clip-rule:evenodd;stroke-linecap:round;stroke-linejoin:round;" xmlns:vectornator="http://vectornator.io" xmlns:xlink="http://www.w3.org/1999/xlink" xmlns="http://www.w3.org/2000/svg" xml:space="preserve" version="1.1" viewBox="0 0 184.78 220.19">
<metadata>
<vectornator:setting key="RulersVisible" value="1"/>
<vectornator:setting key="DisplayWhiteBackground" value="0"/>
<vectornator:setting key="Units" value="Points"/>
<vectornator:setting key="DynamicGuides" value="1"/>
<vectornator:setting key="GuidesVisible" value="1"/>
<vectornator:setting key="CMYKEnabledKey" value="0"/>
<vectornator:setting key="SnapToGuides" value="1"/>
<vectornator:setting key="GridSpacing" value="16"/>
</metadata>
<defs/>
<g id="Layer 1" vectornator:layerName="Layer 1">
<g opacity="1">
<path d="M128.7+53.967C128.829+53.455+129.001+52.985+129.131+52.473C135.247+30.7403+132.404+18.7435+120.645+16.4376C122.023+20.7925+122.799+25.3614+123.013+30.0573C123.445+40.3902+121.721+50.765+117.803+61.0548C118.233+61.3538+118.707+61.6528+119.137+61.9938L128.7+53.967Z" opacity="1" fill="#ffa042"/>
<path d="M145.283+184.572L136.927+162.542L115.047+180.558L95.0168+214.203C115.047+208.78+127.795+198.832+133.265+184.444C135.462+193.709+135.247+201.992+132.619+209.25C132.318+210.061+132.016+210.83+131.672+211.598C141.535+205.407+146.058+196.356+145.283+184.572" opacity="1" fill="#ffa042"/>
<path d="M67.0202+61.0547C63.1013+50.7649+61.3773+40.3901+61.8083+30.0572C61.9803+25.3613+62.7993+20.7924+64.1343+16.4375C52.3754+18.7434+49.5325+30.7412+55.6924+52.4729C55.7784+52.9849+55.9934+53.4549+56.1234+53.9668L65.6852+61.9937C66.1162+61.6527+66.5892+61.3537+67.0202+61.0547" opacity="1" fill="#ffa042"/>
<path d="M47.853+162.541L39.4972+184.572C38.7222+196.356+43.2871+205.408+53.1509+211.598C52.8069+210.829+52.5049+210.061+52.1599+209.249C49.533+201.992+49.317+193.709+51.514+184.444C57.0279+198.833+69.7337+208.78+89.7623+214.202L69.7337+180.559L47.853+162.541Z" opacity="1" fill="#ffa042"/>
<path d="M111.342+0C114.486+3.92794+117.028+8.02687+118.965+12.3388C121.507+17.8897+122.971+23.7816+123.446+30.0575C124.307+40.7313+122.842+51.3622+119.095+61.994C118.577+61.652+118.104+61.311+117.63+61.012C114.4+58.877+110.91+57.1691+107.163+56.1021C106.087+52.5151+104.062+49.8262+101.004+47.9042C99.1954+46.8372+97.1704+46.1542+94.9745+45.7703C94.1555+45.6843+93.2945+45.5993+92.3895+45.5993C89.1596+45.6413+86.2736+46.4102+83.7756+47.9042C80.6747+49.8262+78.6497+52.5151+77.5727+56.1021C73.8258+57.2541+70.3369+58.877+67.0199+61.055C66.5899+61.353+66.1159+61.652+65.6849+61.994C61.938+51.3622+60.473+40.7313+61.292+30.0575C61.636+25.3616+62.627+20.7927+64.135+16.4377C66.1589+10.6308+69.2599+5.12392+73.3948+0C58.1471+8.02687+46.7332+19.4267+39.1524+34.2844C38.9804+34.4554+38.9374+34.7544+38.8074+34.9674C33.8545+45.8543+33.5105+55.8881+37.6444+65.0679C33.3375+68.0569+31.1835+72.5818+31.2275+78.6447C31.3995+85.0066+34.0264+90.5995+39.2814+95.4664C39.2814+95.5094+39.2814+95.5094+39.2384+95.5954C37.8174+98.9254+36.5254+102.212+35.3624+105.543C22.1386+106.141+12.9648+111.947+7.96787+123.048L0+142.731L4.17693+145.421C7.45088+142.944+11.0258+140.639+15.0318+138.547C22.4836+134.662+27.7385+133.167+30.7535+134.106L17.7017+153.106L19.8127+154.429L9.69084+167.024L11.6728+169.031L3.22995+184.786C2.75596+188.244+3.48894+192.001+5.51291+196.143C7.53688+200.327+10.5518+204.212+14.4288+207.799C23.6896+216.251+34.5434+220.393+47.0342+220.18L47.2932+220.18C49.6622+219.752+51.7292+219.112+53.4521+218.258C54.4001+217.788+55.3041+217.276+55.9931+216.678C55.9071+216.593+55.7781+216.422+55.7351+216.251C55.4341+215.825+55.1321+215.355+54.9171+214.929L53.1941+211.641C48.6282+202.035+47.9822+190.72+51.2562+177.698C53.3231+186.92+57.9751+194.776+65.3839+201.394C71.9308+207.201+80.0717+211.471+89.7625+214.203C90.5375+214.416+91.3565+214.63+92.0885+214.844L92.3465+214.758L92.3895+214.758L92.6485+214.844C93.4235+214.63+94.1555+214.416+94.9745+214.203C104.665+211.471+112.849+207.201+119.353+201.394C126.762+194.776+131.456+186.92+133.481+177.698C137.315+192.898+135.893+205.749+129.044+216.251C128.915+216.379+128.829+216.55+128.743+216.678C130.854+218.258+133.739+219.454+137.444+220.18L137.745+220.18C150.194+220.393+161.047+216.251+170.308+207.799C174.228+204.212+177.242+200.327+179.267+196.143C181.248+192.001+182.024+188.244+181.507+184.786L173.065+169.031L175.046+167.024L164.88+154.429L167.034+153.106L153.983+134.106C157.041+133.167+162.296+134.662+169.747+138.547C173.71+140.639+177.328+142.944+180.559+145.421L184.78+142.731L176.769+123.048C171.772+111.947+162.641+106.141+149.375+105.543C148.212+102.212+146.92+98.9254+145.498+95.5954C145.455+95.5094+145.455+95.5094+145.455+95.4664C150.667+90.5995+153.381+85.0066+153.467+78.6447C153.596+72.5818+151.443+68.0569+147.135+65.0679C151.271+55.8881+150.883+45.8543+145.929+34.9674C145.843+34.7544+145.757+34.4554+145.628+34.2844C141.148+25.5746+135.333+17.9747+128.183+11.6128L125.858+9.60684C122.928+7.12988+119.783+4.90992+116.338+2.81795C114.701+1.79297+113.065+0.896985+111.342+0" opacity="1" fill="#000000"/>
<path d="M102.77+60.6704C101.435+60.4144+100.013+60.1574+98.6352+60.0294C104.751+67.9713+107.379+76.7661+106.302+86.33C106.302+86.629+106.216+86.885+106.216+87.141C106.043+88.6779+105.743+90.2149+105.355+91.7949L105.139+92.4779L105.139+92.5209L104.967+93.2039C104.106+92.9049+103.201+92.6919+102.296+92.4359C99.0662+91.5819+95.8352+91.1969+92.5193+91.1549C89.2023+91.1969+85.9724+91.5819+82.7415+92.4359C81.8805+92.6919+80.9325+92.9049+80.0715+93.2039L79.8985+92.5209L79.8985+92.4779L79.6835+91.7949C79.2955+90.2149+79.0375+88.6779+78.8655+87.141C78.8225+86.885+78.7355+86.629+78.7355+86.33C77.6595+76.7661+80.2865+67.9713+86.4024+60.0294C85.0244+60.1574+83.6034+60.4144+82.2685+60.6704C78.3915+61.5244+74.6876+62.9334+71.1116+64.9403C70.8966+65.0673+70.6386+65.2813+70.4657+65.3663C70.1217+65.5373+69.9057+65.7083+69.6477+65.8363C67.3217+67.2883+65.0827+69.0383+62.8858+71.0022C62.7988+71.0872+62.6698+71.1732+62.5838+71.3012C61.2058+72.5392+59.9138+73.8632+58.6648+75.2722C51.772+83+46.044+93.2039+41.3921+106.013C43.0291+106.781+44.6231+107.55+46.259+108.191C49.016+109.429+51.816+110.539+54.6159+111.521C66.8917+115.919+79.1665+118.138+91.4853+118.309C91.8733+118.223+92.2173+118.223+92.5193+118.309C92.8643+118.223+93.1653+118.223+93.5523+118.309C105.872+118.138+118.147+115.919+130.423+111.521C133.223+110.539+136.023+109.429+138.823+108.191C140.416+107.55+142.052+106.781+143.646+106.013C138.995+93.2039+133.266+83+126.417+75.2722C125.125+73.8632+123.833+72.5392+122.455+71.3012C122.369+71.1732+122.24+71.0872+122.153+71.0022C119.957+69.0383+117.716+67.2883+115.391+65.8363C115.132+65.7083+114.916+65.5373+114.616+65.3663C114.4+65.2813+114.141+65.0673+113.969+64.9403C110.351+62.9334+106.647+61.5244+102.77+60.6704" opacity="1" fill="#ff0a1c"/>
<path d="M96.2662+61.7802C95.8352+61.1392+95.3622+60.4992+94.8883+59.9022C94.1563+59.9022+93.2943+59.9442+92.5193+59.9442C91.7443+59.9442+90.9253+59.9022+90.1503+59.9022C89.6763+60.4992+89.2023+61.1392+88.7714+61.7802L96.2662+61.7802Z" opacity="1" fill="#ff0a1c"/>
<path d="M102.296+88.8067C103.028+84.3667+103.028+80.0968+102.253+75.9549C101.349+70.96+99.3675+66.263+96.2665+61.7801L88.7717+61.7801C85.7137+66.263+83.6897+70.96+82.8278+75.9549C82.0098+80.0968+82.0098+84.3667+82.7418+88.8067C85.9717+87.9947+89.2027+87.5687+92.5196+87.5257C95.8355+87.5687+99.0665+87.9947+102.296+88.8067" opacity="1" fill="#ff0a1c"/>
<path d="M92.5193+50.9782C87.3504+51.8322+84.1204+54.1811+82.7415+58.1081C84.1204+54.3941+87.3504+52.6441+92.5193+52.7711C97.6882+52.6441+100.918+54.3941+102.296+58.1081C100.918+54.1811+97.6882+51.8322+92.5193+50.9782" opacity="1" fill="#ff0a1c"/>
<path d="M92.5193+52.7715C87.3504+52.6435+84.1204+54.3945+82.7415+58.1085C85.9294+57.5535+89.2024+57.3825+92.5193+57.6385C95.8782+57.3825+99.1092+57.5535+102.296+58.1085C100.918+54.3945+97.6882+52.6435+92.5193+52.7715" opacity="1" fill="#ff0a1c"/>
<path d="M64.2205+136.028C66.9344+139.187+70.7674+140.041+75.7203+138.547C74.2993+137.778+72.4473+137.138+70.2074+136.583C67.8814+136.07+65.9004+135.857+64.2205+136.028" opacity="1" fill="#ff0a1c"/>
<path d="M75.6348+147.982C71.6288+148.366+68.5279+147.769+66.1589+146.146C68.9159+146.488+71.6718+146.189+74.4718+145.335C77.1417+144.481+79.8987+143.072+82.6126+141.151C72.5768+144.481+63.962+143.072+56.8551+136.796C56.5531+136.582+56.2951+136.326+56.0371+136.07C55.9931+136.454+55.9931+136.881+55.9931+137.223C55.4341+145.207+57.4581+150.331+61.981+152.508C66.6759+154.771+71.1978+153.234+75.6348+147.982" opacity="1" fill="#ff0a1c"/>
<path d="M85.1537+145.506C85.1967+146.488+85.6277+147.47+86.4027+148.452C88.0827+150.587+88.8587+152.764+88.7287+154.985C87.2647+151.654+85.0247+149.605+81.9238+148.751C80.5878+148.409+79.3818+148.409+78.4348+148.665C77.0988+149.049+76.0659+150.031+75.4199+151.654C74.6439+153.575+74.8599+155.326+76.0659+156.82C77.3578+158.485+79.3388+159.297+82.0958+159.339C81.5358+158.016+81.5358+156.564+81.9238+155.07L81.9658+154.942C82.0098+154.728+82.0958+154.6+82.1818+154.472C82.5268+154.131+83.0867+154.258+83.9047+154.856C84.8087+155.497+85.3257+156.607+85.5417+158.187C85.9717+162.456+88.3417+164.719+92.5196+164.975C96.7395+164.719+99.0665+162.456+99.5395+158.187C99.7125+156.607+100.229+155.497+101.133+154.856C101.951+154.258+102.555+154.131+102.856+154.472C102.943+154.6+103.028+154.728+103.071+154.942L103.114+155.07C103.502+156.564+103.502+158.016+102.943+159.339C105.699+159.297+107.68+158.485+108.973+156.82C110.179+155.326+110.394+153.575+109.618+151.654C108.973+150.031+107.982+149.049+106.604+148.665C105.655+148.409+104.493+148.409+103.114+148.751C100.013+149.605+97.7745+151.654+96.3095+154.985C96.1805+152.764+96.9555+150.587+98.6355+148.452C99.4105+147.47+99.8415+146.488+99.9275+145.506C99.9275+144.609+99.5395+143.84+98.9805+143.286C97.3435+141.706+95.1895+142.048+92.5196+144.353C89.8486+142.048+87.6957+141.706+86.1017+143.286C85.4987+143.84+85.1537+144.609+85.1537+145.506" opacity="1" fill="#ff0a1c"/>
<path d="M61.0764+130.477C71.6292+133.252+82.0961+134.576+92.5189+134.576C102.943+134.576+113.41+133.252+123.962+130.477C133.653+128.043+138.736+123.048+139.339+115.32C139.468+115.021+139.468+114.594+139.468+114.039C139.382+113.441+139.382+113.015+139.382+112.758C122.842+118.992+107.25+122.151+92.5189+122.109C77.7881+122.151+62.1964+118.992+45.6567+112.758C45.6567+113.015+45.6567+113.441+45.6137+114.039C45.5707+114.594+45.6137+115.021+45.6997+115.32C46.3026+123.048+51.4286+128.043+61.0764+130.477" opacity="1" fill="#e9a043"/>
<path d="M20.8896+118.992C21.7515+118.565+22.5695+118.437+23.2155+118.522C23.9045+118.65+24.2065+118.992+24.2065+119.59C24.2065+120.187+23.9045+120.828+23.2155+121.511C22.5695+122.237+21.7515+122.792+20.8896+123.219C19.9426+123.646+19.1666+123.774+18.5206+123.646C17.8746+123.517+17.5306+123.219+17.5306+122.621C17.5306+122.023+17.8746+121.383+18.5206+120.657C19.1666+119.974+19.9426+119.419+20.8896+118.992M41.4352+113.612C41.3922+112.758+41.3492+111.904+41.3922+111.05C30.7534+110.837+22.9575+113.228+17.8746+118.309C15.8496+120.273+14.2567+122.706+13.1367+125.567L8.78576+136.369C15.3337+130.904+21.9665+128.257+28.6424+128.171C35.3193+128.129+39.6263+131.502+41.5642+138.162C43.5022+144.866+43.2442+155.027+40.7462+168.603C37.0853+188.842+38.7223+204.169+45.6562+214.63C45.6562+214.673+45.4412+212.538+45.0532+208.311C41.5642+201.693+41.5642+190.037+44.9242+173.258L45.0962+172.361C45.3112+171.379+45.4842+170.439+45.6992+169.543C45.6992+169.457+45.6992+169.372+45.7852+169.372L45.6562+169.201L45.8282+169.244C50.3941+152.807+50.7391+140.638+46.7331+132.783L55.347+133.252C53.366+132.612+51.5141+131.758+49.9201+130.733C47.0351+128.812+44.9242+126.293+43.5022+123.091C42.2962+120.358+41.5642+117.241+41.4352+113.612" opacity="1" fill="#ff0a1c"/>
<path d="M45.7857+169.372C45.7857+169.33+45.7857+169.33+45.8287+169.244L45.6567+169.202L45.7857+169.372Z" opacity="1" fill="#ff0a1c"/>
<path d="M37.817+138.547C37.688+138.291+37.602+137.992+37.473+137.693C37.214+137.052+36.87+136.455+36.525+135.943L25.3262+152.678C27.5662+153.788+29.5041+155.069+31.2271+156.564C32.4761+157.46+33.5101+158.485+34.458+159.552C34.931+160.065+35.362+160.662+35.836+161.26C36.396+162.028+36.956+162.797+37.386+163.651C39.411+152.123+39.583+143.712+37.817+138.547" opacity="1" fill="#ff0a1c"/>
<path d="M34.9313+164.804C34.4573+164.206+33.9833+163.609+33.5533+163.011C32.5194+161.773+31.3564+160.662+30.1504+159.638C28.6424+158.4+27.0495+157.375+25.3685+156.393L17.2286+166.982C19.2096+170.355+21.3205+173.642+23.5165+176.716C25.1975+179.107+26.9625+181.413+28.8154+183.676C29.9344+184.957+31.0554+186.28+32.2174+187.561C32.9074+188.372+33.6393+189.183+34.4143+189.909C34.2423+183.334+34.9313+175.948+36.6113+167.75C36.6543+167.665+36.6543+167.579+36.6973+167.494C36.1803+166.554+35.5343+165.616+34.9313+164.804" opacity="1" fill="#ff0a1c"/>
<path d="M79.3818+162.926C78.6068+162.755+77.7888+162.584+77.1418+162.456C67.236+160.834+61.9381+163.353+61.1191+170.012C59.9131+179.704+61.9381+187.048+67.15+191.873L67.236+191.745L67.451+191.702C66.159+189.482+66.072+185.895+67.15+180.9L69.26+170.866C70.8539+166.469+74.2139+163.822+79.3818+162.926" opacity="1" fill="#ff0a1c"/>
<path d="M67.7526+192.215C67.6666+192.044+67.5376+191.873+67.4506+191.702L67.2356+191.745C67.4506+191.873+67.6236+192.001+67.7526+192.215" opacity="1" fill="#ff0a1c"/>
<path d="M67.7526+192.215C67.6236+192.001+67.4506+191.873+67.2356+191.745L67.1496+191.873C67.2356+192.001+67.4506+192.215+67.6236+192.3L67.7526+192.215Z" opacity="1" fill="#ff0a1c"/>
<path d="M72.9209+179.491L72.9209+179.192L71.6719+185.383L71.8009+185.554L71.8009+185.596L71.6719+185.596C71.3279+194.734+78.3048+201.821+92.5196+206.945C106.733+201.821+113.71+194.734+113.366+185.596L113.236+185.596L113.236+185.554L113.366+185.383L112.116+179.192L112.116+179.491C112.03+179.79+112.03+180.046+112.03+180.302C111.816+181.54+111.385+182.651+110.738+183.633C109.016+186.066+105.828+187.432+101.09+187.689L100.788+187.689C99.1515+187.731+97.6015+187.731+96.1375+187.774L96.1375+189.268L96.1375+190.293L96.1375+193.068C96.1805+194.776+95.8785+196.1+95.2755+196.996C95.2325+197.124+95.1895+197.21+95.0176+197.338C94.7586+197.722+94.3706+197.978+93.9406+198.192C93.5096+198.363+93.0786+198.448+92.5196+198.619C92.0026+198.448+91.5286+198.363+91.1406+198.192C90.6666+197.978+90.2796+197.722+90.0206+197.338C89.8916+197.21+89.8056+197.124+89.7626+196.996C89.1596+196.1+88.8587+194.776+88.9006+193.068L88.9006+190.293L88.9006+189.268L88.9006+187.774C87.4797+187.731+85.8857+187.731+84.2497+187.689L83.9477+187.689C79.2098+187.432+76.0229+186.066+74.2989+183.633C73.6529+182.651+73.2659+181.54+73.0499+180.302C73.0069+180.046+73.0069+179.79+72.9209+179.491" opacity="1" fill="#ff0a1c"/>
<path d="M71.8013+185.554L71.6723+185.383L71.6723+185.596L71.8013+185.596L71.8013+185.554Z" opacity="1" fill="#ff0a1c"/>
<path d="M113.237+185.597L113.367+185.597L113.367+185.384L113.237+185.555L113.237+185.597Z" opacity="1" fill="#ff0a1c"/>
<path d="M92.5193+178.723L82.4835+178.723L85.1534+183.121L92.5193+183.121L99.9272+183.121L102.555+178.723L92.5193+178.723Z" opacity="1" fill="#ff0a1c"/>
<path d="M80.0283+169.073L76.7113+174.837L108.327+174.837L105.01+169.073L80.0283+169.073Z" opacity="1" fill="#ff0a1c"/>
<path d="M17.0132+171.721L8.65736+187.049C9.30334+191.575+11.2413+195.843+14.5583+199.771C15.9792+201.564+17.7882+203.272+19.8132+204.895C23.0431+207.499+26.4891+209.591+30.28+211.256C32.519+212.281+34.8879+213.092+37.3009+213.69C38.7219+214.032+40.1858+214.33+41.5648+214.544C37.9469+209.42+35.7069+203.101+34.8019+195.63C34.0699+194.989+33.424+194.306+32.735+193.58C31.141+191.959+29.677+190.208+28.212+188.458C25.9721+185.853+23.9051+183.121+22.0961+180.346C20.2432+177.57+18.5202+174.667+17.0132+171.721" opacity="1" fill="#e9a043"/>
<path d="M161.823+118.522C162.511+118.437+163.287+118.564+164.149+118.992C165.096+119.418+165.872+119.974+166.517+120.657C167.164+121.382+167.509+122.023+167.509+122.621C167.509+123.218+167.164+123.517+166.517+123.646C165.872+123.773+165.096+123.646+164.149+123.218C163.287+122.792+162.511+122.236+161.823+121.511C161.134+120.828+160.832+120.187+160.832+119.589C160.832+118.992+161.134+118.65+161.823+118.522M171.902+125.567C170.782+122.706+169.188+120.272+167.164+118.309C162.081+113.229+154.285+110.837+143.646+111.051C143.689+111.905+143.646+112.759+143.603+113.613C143.473+117.242+142.741+120.358+141.535+123.09C140.157+126.293+138.004+128.812+135.118+130.733C133.524+131.758+131.715+132.611+129.69+133.252L138.304+132.782C134.299+140.638+134.643+152.807+139.253+169.245L139.382+169.202L139.253+169.373C139.339+169.373+139.339+169.458+139.339+169.543C139.554+170.44+139.769+171.379+139.941+172.361L140.157+173.258C143.473+190.037+143.473+201.693+139.985+208.311C139.597+212.538+139.382+214.672+139.382+214.629C146.359+204.169+147.953+188.841+144.292+168.604C141.794+155.027+141.535+144.865+143.473+138.162C145.412+131.501+149.719+128.128+156.395+128.171C163.072+128.256+169.705+130.904+176.253+136.369L171.902+125.567Z" opacity="1" fill="#ff0a1c"/>
<path d="M139.253+169.244L139.253+169.372L139.382+169.202L139.253+169.244Z" opacity="1" fill="#ff0a1c"/>
<path d="M161.564+176.716C163.717+173.642+165.829+170.355+167.81+166.982L159.668+156.393C157.989+157.375+156.395+158.4+154.888+159.638C153.682+160.662+152.519+161.773+151.528+163.011C151.097+163.609+150.581+164.206+150.15+164.804C149.503+165.615+148.858+166.554+148.34+167.494C148.383+167.579+148.383+167.665+148.427+167.75C150.107+175.947+150.795+183.334+150.667+189.909C151.399+189.183+152.131+188.372+152.82+187.561C153.983+186.28+155.103+184.957+156.223+183.675C158.075+181.413+159.841+179.107+161.564+176.716" opacity="1" fill="#ff0a1c"/>
<path d="M168.025+171.721C166.517+174.667+164.837+177.57+162.986+180.346C161.133+183.121+159.066+185.853+156.826+188.458C155.405+190.208+153.897+191.959+152.303+193.58C151.614+194.306+150.968+194.989+150.236+195.63C149.332+203.101+147.091+209.42+143.473+214.544C144.895+214.33+146.359+214.032+147.738+213.69C150.15+213.092+152.519+212.281+154.758+211.256C158.549+209.591+161.995+207.499+165.225+204.895C167.25+203.272+169.059+201.564+170.523+199.771C173.84+195.843+175.778+191.575+176.381+187.049L168.025+171.721Z" opacity="1" fill="#e9a043"/>
<path d="M129.044+137.223C129.044+136.882+129.044+136.454+129.001+136.07C128.743+136.327+128.484+136.582+128.183+136.796C121.076+143.073+112.461+144.481+102.426+141.151C105.139+143.073+107.896+144.481+110.566+145.335C113.366+146.189+116.122+146.488+118.879+146.146C116.553+147.769+113.409+148.367+109.403+147.982C113.84+153.234+118.362+154.771+123.058+152.508C127.58+150.331+129.605+145.207+129.044+137.223" opacity="1" fill="#ff0a1c"/>
<path d="M147.565+137.693C147.436+137.992+147.35+138.291+147.221+138.547C145.455+143.712+145.628+152.123+147.652+163.651C148.083+162.797+148.642+162.028+149.246+161.26C149.676+160.662+150.15+160.065+150.624+159.552C151.571+158.485+152.605+157.46+153.811+156.564C155.534+155.069+157.472+153.788+159.712+152.678L148.513+135.943C148.169+136.455+147.867+137.052+147.565+137.693" opacity="1" fill="#ff0a1c"/>
<path d="M120.818+136.028C119.138+135.857+117.157+136.07+114.831+136.583C112.591+137.138+110.739+137.778+109.318+138.547C114.271+140.041+118.104+139.187+120.818+136.028" opacity="1" fill="#ff0a1c"/>
<path d="M107.939+162.456C107.25+162.584+106.431+162.755+105.656+162.926C110.825+163.822+114.185+166.469+115.779+170.867L117.932+180.901C118.965+185.895+118.879+189.481+117.63+191.702L117.803+191.745L117.932+191.531L118.104+191.702C123.187+186.834+125.126+179.62+123.919+170.013C123.144+163.352+117.803+160.833+107.939+162.456" opacity="1" fill="#ff0a1c"/>
<path d="M117.285+192.215C117.458+192.001+117.63+191.873+117.803+191.745L117.63+191.702C117.501+191.873+117.415+192.044+117.285+192.215" opacity="1" fill="#ff0a1c"/>
<path d="M117.803+191.745C117.63+191.873+117.458+192.001+117.285+192.215L117.458+192.3C117.63+192.215+117.803+192.001+117.932+191.873C117.975+191.83+118.061+191.745+118.104+191.702L117.932+191.532L117.803+191.745Z" opacity="1" fill="#ff0a1c"/>
<path d="M96.2662+61.7802C95.8352+61.1392+95.3622+60.4992+94.8883+59.9022C94.1563+59.9022+93.2943+59.9442+92.5193+59.9442C91.7443+59.9442+90.9253+59.9022+90.1503+59.9022C89.6763+60.4992+89.2023+61.1392+88.7714+61.7802L96.2662+61.7802Z" opacity="1" fill="#ffa042"/>
<path d="M114.616+65.3667C114.4+65.2817+114.141+65.0677+113.97+64.9397C110.351+62.9327+106.647+61.5237+102.77+60.6707C101.435+60.4138+100.013+60.1578+98.6359+60.0298C104.752+67.9706+107.38+76.7665+106.303+86.3303C108.499+78.7305+107.68+70.9596+103.933+63.0187C107.466+62.9327+110.955+63.7017+114.616+65.3667" opacity="1" fill="#ffa042"/>
<path d="M138.822+108.19C140.416+107.549+142.052+106.781+143.646+106.012C138.994+93.2044+133.265+82.9995+126.417+75.2727C133.524+84.3665+137.659+95.3813+138.822+108.19" opacity="1" fill="#ffa042"/>
<path d="M176.381+187.048L168.025+171.721C166.517+174.666+164.837+177.569+162.985+180.345C161.133+183.12+159.066+185.853+156.826+188.457C155.405+190.208+153.898+191.958+152.304+193.581C151.658+202.205+150.151+208.908+147.738+213.691C150.151+213.092+152.52+212.281+154.759+211.256C158.55+209.591+161.994+207.5+165.225+204.895C167.249+203.273+169.059+201.565+170.523+199.772C173.84+195.843+175.777+191.574+176.381+187.048" opacity="1" fill="#ffa042"/>
<path d="M147.738+213.69C150.15+208.908+151.658+202.205+152.303+193.581C151.614+194.307+150.968+194.99+150.236+195.63C149.332+203.101+147.092+209.42+143.473+214.544C144.895+214.33+146.359+214.031+147.738+213.69" opacity="1" fill="#fffcab"/>
<path d="M147.565+137.693C147.436+137.992+147.35+138.291+147.221+138.547C145.455+143.712+145.628+152.123+147.652+163.651C148.083+162.797+148.642+162.028+149.246+161.26C147.35+153.318+146.79+145.463+147.565+137.693" opacity="1" fill="#ffa042"/>
<path d="M129.69+133.252L138.304+132.782C134.298+140.638+134.643+152.85+139.253+169.373L139.381+169.202C136.065+149.519+137.142+135.729+142.612+127.744C140.416+129.367+137.874+130.391+135.118+130.733C133.524+131.758+131.714+132.611+129.69+133.252" opacity="1" fill="#ffa042"/>
<path d="M102.425+141.151C105.139+143.072+107.896+144.481+110.567+145.335C119.009+145.676+124.909+142.816+128.183+136.796C121.076+143.072+112.461+144.481+102.425+141.151" opacity="1" fill="#ffa042"/>
<path d="M120.818+136.028C119.138+135.857+117.157+136.07+114.831+136.583C112.591+137.138+110.739+137.778+109.318+138.547C114.271+140.041+118.104+139.187+120.818+136.028" opacity="1" fill="#ffa042"/>
<path d="M121.119+168.134C121.119+168.176+121.119+168.262+121.162+168.347C122.583+172.489+122.971+176.801+122.239+181.327C121.679+185.468+120.215+188.927+117.931+191.531L117.803+191.745C117.63+191.873+117.458+192.001+117.285+192.215L117.458+192.3C123.014+187.432+125.168+180.046+123.919+170.012C123.143+163.353+117.803+160.834+107.939+162.456C115.219+162.114+119.568+163.865+120.989+167.878C121.033+167.963+121.076+168.091+121.119+168.134" opacity="1" fill="#ffa042"/>
<path d="M117.285+192.215C117.458+192.001+117.63+191.873+117.803+191.745L117.63+191.702C117.501+191.873+117.415+192.044+117.285+192.215" opacity="1" fill="#ffa042"/>
<path d="M96.1373+187.774L96.1373+189.268L96.1373+190.293L96.1373+193.068C96.1803+194.776+95.8783+196.1+95.2763+196.996C96.6113+195.886+97.3863+193.495+97.6013+189.823L97.6013+189.738L100.788+189.738L101.564+189.738C101.78+189.695+101.951+189.695+102.124+189.695L102.813+189.567C108.542+188.67+111.6+185.596+112.031+180.302C111.816+181.54+111.385+182.65+110.739+183.632C109.016+186.066+105.828+187.432+101.09+187.689L100.788+187.689C99.1523+187.731+97.6013+187.731+96.1373+187.774" opacity="1" fill="#ffa042"/>
<path d="M113.367+185.597L113.367+185.384L113.237+185.555L113.237+185.597L113.367+185.597Z" opacity="1" fill="#ffa042"/>
<path d="M150.15+164.804C149.504+165.616+148.858+166.554+148.34+167.494C148.383+167.579+148.383+167.665+148.427+167.75C150.107+175.948+150.796+183.334+150.667+189.909C151.399+189.183+152.131+188.372+152.82+187.561C152.734+180.132+151.873+172.745+150.322+165.316L150.15+164.804Z" opacity="1" fill="#ffa042"/>
<path d="M71.1119+64.9399C70.897+65.0679+70.638+65.2809+70.466+65.3669C74.0839+63.7019+77.6158+62.9329+81.1048+63.0189C77.3578+70.9598+76.5389+78.7306+78.7358+86.3305C77.6588+76.7667+80.2868+67.9708+86.4027+60.0299C85.0247+60.1579+83.6027+60.4139+82.2678+60.6699C78.3918+61.5239+74.6869+62.9329+71.1119+64.9399" opacity="1" fill="#ffa042"/>
<path d="M92.5193+50.9782C87.3504+51.8322+84.1204+54.1811+82.7415+58.1081C84.1204+54.3941+87.3504+52.6441+92.5193+52.7711C97.6882+52.6441+100.918+54.3941+102.296+58.1081C100.918+54.1811+97.6882+51.8322+92.5193+50.9782" opacity="1" fill="#ffa042"/>
<path d="M46.2592+108.19C47.3792+95.3813+51.5142+84.3665+58.664+75.2727C51.7722+82.9995+46.0443+93.2044+41.3923+106.012C43.0293+106.781+44.6223+107.549+46.2592+108.19" opacity="1" fill="#ffa042"/>
<path d="M74.4717+145.335C77.1416+144.481+79.8986+143.072+82.6125+141.151C72.5767+144.481+63.9619+143.072+56.855+136.796C60.1289+142.816+66.0298+145.676+74.4717+145.335" opacity="1" fill="#ffa042"/>
<path d="M75.7207+138.547C74.2997+137.778+72.4477+137.138+70.2078+136.583C67.8818+136.07+65.9008+135.857+64.2209+136.028C66.9338+139.187+70.7677+140.041+75.7207+138.547" opacity="1" fill="#ffa042"/>
<path d="M46.7329+132.783L55.3478+133.253C53.3658+132.612+51.5139+131.759+49.9209+130.734C47.1639+130.392+44.623+129.367+42.469+127.745C47.8959+135.729+48.9729+149.519+45.656+169.202L45.786+169.372C50.3949+152.849+50.7389+140.638+46.7329+132.783" opacity="1" fill="#ffa042"/>
<path d="M37.817+138.547C37.688+138.291+37.602+137.992+37.473+137.693C38.291+145.463+37.688+153.318+35.836+161.26C36.396+162.028+36.956+162.797+37.386+163.651C39.411+152.123+39.583+143.712+37.817+138.547" opacity="1" fill="#ffa042"/>
<path d="M36.611+167.75C36.654+167.665+36.654+167.579+36.697+167.494C36.18+166.554+35.534+165.615+34.931+164.804L34.716+165.316C33.1651+172.745+32.3041+180.132+32.2171+187.561C32.9071+188.372+33.639+189.183+34.414+189.909C34.242+183.334+34.931+175.947+36.611+167.75" opacity="1" fill="#ffa042"/>
<path d="M63.9192+168.134C63.9622+168.091+64.0052+167.963+64.0482+167.878C65.5131+163.865+69.8201+162.114+77.1419+162.456C67.2351+160.834+61.9382+163.353+61.1192+170.012C59.8702+180.046+62.0232+187.432+67.6231+192.3L67.7521+192.215C67.6231+192.001+67.4511+191.873+67.2351+191.745L67.1071+191.531C64.8231+188.927+63.4022+185.468+62.7992+181.327C62.0672+176.801+62.4552+172.489+63.8762+168.347C63.9192+168.262+63.9192+168.176+63.9192+168.134" opacity="1" fill="#ffa042"/>
<path d="M67.2355+191.745C67.4505+191.873+67.6235+192.001+67.7525+192.215C67.6665+192.044+67.5375+191.873+67.4505+191.702L67.2355+191.745Z" opacity="1" fill="#ffa042"/>
<path d="M74.2994+183.633C73.6534+182.651+73.2654+181.541+73.0504+180.302C73.4384+185.597+76.4964+188.671+82.2253+189.568L82.9143+189.696C83.0863+189.696+83.2583+189.696+83.4742+189.738L84.2492+189.738L87.4802+189.738L87.4802+189.824C87.6522+193.496+88.4272+195.887+89.7621+196.997C89.1592+196.1+88.8582+194.777+88.9012+193.069L88.9012+190.294L88.9012+189.269L88.9012+187.775C87.4802+187.732+85.8862+187.732+84.2492+187.689L83.9472+187.689C79.2103+187.433+76.0224+186.067+74.2994+183.633" opacity="1" fill="#ffa042"/>
<path d="M71.8013+185.554L71.6723+185.383L71.6723+185.596L71.8013+185.596L71.8013+185.554Z" opacity="1" fill="#ffa042"/>
<path d="M45.6563+112.758C55.3041+119.632+70.8969+123.56+92.5195+124.457C114.141+123.56+129.777+119.632+139.382+112.758C122.842+118.992+107.249+122.151+92.5195+122.109C77.7887+122.151+62.196+118.992+45.6563+112.758" opacity="1" fill="#fffcab"/>
<path d="M17.0132+171.721L8.65736+187.049C9.30334+191.575+11.2413+195.843+14.5583+199.771C15.9792+201.564+17.7882+203.272+19.8132+204.895C23.0431+207.499+26.4891+209.591+30.28+211.256C32.519+212.281+34.8879+213.092+37.3009+213.69C34.9309+208.908+33.381+202.205+32.735+193.58C31.141+191.959+29.677+190.208+28.212+188.458C25.9721+185.853+23.9051+183.121+22.0961+180.346C20.2432+177.57+18.5202+174.667+17.0132+171.721" opacity="1" fill="#ffa042"/>
<path d="M34.8019+195.63C34.0699+194.989+33.424+194.306+32.735+193.581C33.381+202.205+34.9309+208.908+37.3009+213.691C38.7219+214.032+40.1858+214.331+41.5648+214.544C37.9469+209.421+35.7069+203.102+34.8019+195.63" opacity="1" fill="#fffcab"/>
<path d="M119.827+6.19082C123.445+12.5527+125.513+20.1526+126.115+29.0334C126.676+37.5723+125.857+46.4102+123.617+55.589C121.377+64.8119+118.017+73.2657+113.539+80.9936C108.931+88.7635+103.374+95.0404+96.8268+99.8643C95.5338+98.2423+94.1129+96.7483+92.5189+95.3384C90.9259+96.7483+89.5039+98.2423+88.212+99.8643C81.6651+95.0404+76.1512+88.7635+71.4992+80.9936C67.0203+73.2657+63.6604+64.8119+61.4204+55.589C59.1814+46.4102+58.3624+37.5723+58.9224+29.0334C59.5254+20.1526+61.5934+12.5527+65.2113+6.19082C52.8925+16.8646+44.5367+27.6245+40.0998+38.4683C35.8788+48.9291+35.9218+58.023+40.1857+65.6228C30.7959+71.9847+31.2699+82.6586+41.7367+97.8153C43.3737+90.4714+45.4407+86.2875+47.9826+85.1775C50.7386+84.0245+54.1845+87.0555+58.2335+94.3564C66.4603+110.709+74.9452+122.621+83.603+130.178C86.274+131.673+89.2029+132.398+92.5189+132.313C95.8358+132.398+98.7648+131.673+101.435+130.178C110.093+122.621+118.577+110.709+126.805+94.3564C130.853+87.0555+134.299+84.0245+137.056+85.1775C139.598+86.2875+141.665+90.4714+143.345+97.8153C153.768+82.6586+154.242+71.9847+144.895+65.6228C149.159+58.023+149.159+48.9291+144.938+38.4683C140.545+27.6245+132.145+16.8646+119.827+6.19082" opacity="1" fill="#000000"/>
<path d="M127.727+19.277C128.588+23.162+129.277+27.0049+129.622+30.8478C130.095+39.6427+128.631+49.8045+125.358+61.2893C120.275+78.9651+111.661+92.4138+99.5142+101.637C100.547+103.046+101.237+104.113+101.581+104.711C103.52+108.169+104.812+111.286+105.457+114.06C105.975+115.896+106.319+117.775+106.449+119.696C112.263+112.012+118.079+102.747+123.893+91.9868C131.431+79.4781+137.59+77.2141+142.499+85.284C143.103+86.2659+143.705+87.3759+144.223+88.6569C150.166+78.5381+148.874+71.1512+140.261+66.3703C147.884+52.4515+144.438+37.2517+129.966+20.814C129.062+19.789+128.201+18.85+127.296+17.8251C127.425+18.21+127.511+18.551+127.64+18.936C127.64+19.064+127.683+19.106+127.727+19.277" opacity="1" fill="#ffa042"/>
<path d="M55.494+30.8476C55.838+27.0046+56.485+23.1617+57.346+19.2768C57.432+19.1058+57.475+19.0638+57.475+18.9358C57.604+18.5518+57.691+18.2098+57.82+17.8258C56.872+18.8498+56.011+19.7888+55.149+20.8137C40.6772+37.2515+37.2313+52.4512+44.8122+66.37C36.1973+71.1519+34.9053+78.5378+40.8922+88.6566C41.4092+87.3757+42.0122+86.2657+42.6152+85.2847C47.5251+77.2148+53.685+79.4778+61.1799+91.9876C67.0368+102.746+72.8517+112.011+78.6666+119.696C78.7956+117.775+79.0976+115.896+79.6146+114.06C80.3036+111.285+81.5956+108.168+83.5345+104.71C83.8355+104.112+84.5675+103.045+85.5585+101.636C73.4547+92.4136+64.8408+78.9648+59.7579+61.2891C56.441+49.8043+55.02+39.6424+55.494+30.8476" opacity="1" fill="#ffa042"/>
<path d="M92.5788+107.101C94.4748+109.15+95.8957+111.371+96.9727+113.634C96.9727+113.762+97.0577+113.847+97.0577+113.975C97.5327+115+97.8337+115.939+97.9207+116.707C98.3077+118.971+98.0067+120.849+96.9727+122.344C96.4557+123.027+95.8957+123.539+95.2068+123.838C94.3888+124.094+93.6128+124.308+92.7518+124.308L92.5788+124.308L92.5358+124.308L92.3208+124.308C91.4588+124.308+90.6838+124.094+89.9088+123.838C89.2198+123.539+88.6599+123.027+88.1429+122.344C87.1089+120.849+86.8079+118.971+87.1519+116.707C87.2809+115.939+87.5829+115+88.0139+113.975C88.0569+113.847+88.0999+113.762+88.1429+113.634C89.1768+111.371+90.5978+109.15+92.5358+107.101L92.5788+107.101ZM83.0599+116.323C82.629+118.843+82.759+121.02+83.3619+122.898C83.6199+123.71+84.0509+124.521+84.5679+125.247C85.8599+126.955+87.5829+127.979+89.7798+128.236C90.7268+128.449+91.6748+128.492+92.5358+128.535C93.3968+128.492+94.3888+128.449+95.3357+128.236C97.4897+127.979+99.2127+126.955+100.505+125.247C101.064+124.521+101.452+123.71+101.711+122.898C102.357+121.02+102.486+118.843+102.056+116.323C101.797+115+101.323+113.42+100.548+111.499C98.7817+107.571+96.1107+103.813+92.5358+100.227C88.9609+103.813+86.2909+107.571+84.5679+111.499C83.7919+113.42+83.2759+115+83.0599+116.323" opacity="1" fill="#ffa042"/>
<path d="M140.243+66.9037C139.123+67.9707+137.013+68.4837+133.739+68.3987C145.153+71.1736+148.642+78.0905+144.206+89.1903C150.15+79.0715+148.858+71.6856+140.243+66.9037" opacity="1" fill="#fffcab"/>
<path d="M129.605+31.3813C130.079+40.1762+128.614+50.338+125.34+61.8228C120.258+79.4985+111.643+92.9473+99.4971+102.17C100.531+103.579+101.219+104.646+101.564+105.244C106.173+102.511+110.61+98.0282+114.831+91.6673C118.793+85.7754+122.11+79.1575+124.738+71.7707C129.432+58.6639+131.069+45.2141+129.605+31.3813" opacity="1" fill="#fffcab"/>
<path d="M51.2988+68.3983C48.0688+68.4833+45.9149+67.9713+44.7949+66.9033C36.18+71.6862+34.888+79.0721+40.8749+89.19C36.396+78.0901+39.885+71.1733+51.2988+68.3983" opacity="1" fill="#fffcab"/>
<path d="M55.4769+31.3813C54.0129+45.2141+55.6489+58.6639+60.3008+71.7707C62.9288+79.1575+66.2447+85.7754+70.2077+91.6673C74.4286+98.0282+78.8655+102.511+83.5174+105.244C83.8184+104.646+84.5504+103.579+85.5414+102.17C73.4376+92.9473+64.8238+79.4985+59.7408+61.8228C56.4249+50.338+55.0029+40.1762+55.4769+31.3813" opacity="1" fill="#fffcab"/>
<path d="M83.0433+116.858C82.6124+119.376+82.7414+121.553+83.3443+123.432C82.3114+116.73+85.3693+110.283+92.5192+103.878C99.7121+110.283+102.77+116.73+101.694+123.432C102.339+121.553+102.469+119.376+102.038+116.858C101.78+115.534+101.306+113.954+100.531+112.033C98.7641+108.105+96.0941+104.348+92.5192+100.761C88.9443+104.348+86.2733+108.105+84.5503+112.033C83.7753+113.954+83.2583+115.534+83.0433+116.858" opacity="1" fill="#fffcab"/>
<path d="M88.1258+122.877C87.0918+121.382+86.7908+119.504+87.1348+117.241C87.2648+116.473+87.5658+115.534+87.9968+114.509C85.3258+119.803+85.6268+123.432+88.8578+125.481C89.9777+126.207+91.1407+126.591+92.5197+126.634C93.8967+126.591+95.1037+126.207+96.1806+125.481C99.4536+123.432+99.7556+119.803+97.0416+114.509C97.5156+115.534+97.8166+116.473+97.9026+117.241C98.2906+119.504+97.9886+121.382+96.9556+122.877C96.4386+123.56+95.8786+124.072+95.1887+124.371C94.3707+124.627+93.5967+124.841+92.7337+124.841L92.5627+124.841L92.5197+124.841L92.3037+124.841C91.4417+124.841+90.6667+124.627+89.8917+124.371C89.2028+124.072+88.6428+123.56+88.1258+122.877" opacity="1" fill="#fffcab"/>
</g>
</g>
</svg>
