<svg xmlns:vectornator="http://vectornator.io" xmlns="http://www.w3.org/2000/svg" viewBox="0 0 127.13 127.13" fill-rule="evenodd" clip-rule="evenodd" stroke-linecap="round" stroke-linejoin="round"><g vectornator:layerName="logo"><path d="M127.134 63.557c0-17.573-6.196-32.536-18.629-44.928C96.113 6.196 81.15 0 63.577 0 46.004 0 31.021 6.196 18.609 18.629 6.196 31.021 0 45.984 0 63.557c0 17.573 6.196 32.556 18.609 44.968 12.412 12.413 27.395 18.609 44.968 18.609 17.573 0 32.536-6.196 44.928-18.609 12.433-12.412 18.629-27.395 18.629-44.968" fill="#ffa042"/><path d="M123.887 63.557c0-16.656-5.897-30.882-17.673-42.637C94.459 9.145 80.234 3.247 63.577 3.247 46.9 3.247 32.715 9.145 20.94 20.92 9.165 32.675 3.267 46.901 3.267 63.557c0 16.676 5.898 30.882 17.673 42.637 11.775 11.775 25.96 17.673 42.637 17.673 16.657 0 30.882-5.898 42.637-17.673 11.776-11.755 17.673-25.961 17.673-42.637"/><path d="M64.063 31.813c-2.44.395-3.976 1.494-4.626 3.312a19.002 19.002 0 014.626-.219 18.696 18.696 0 014.593.219c-.65-1.818-2.155-2.917-4.594-3.313zm-1.126 4.125c-.223.276-.452.578-.656.874-1.443 2.076-2.405 4.251-2.812 6.563-.386 1.916-.377 3.883-.032 5.938a20.295 20.295 0 014.626-.594 20.02 20.02 0 014.593.593c.346-2.054.366-4.021 0-5.937-.427-2.312-1.38-4.487-2.844-6.563a14.56 14.56 0 00-.656-.874c-.346 0-.727.03-1.094.03-.364 0-.76-.03-1.124-.03zm-1.78.062c-.652.059-1.307.194-1.938.313a19.404 19.404 0 00-5.282 1.968c-.1.06-.2.149-.28.188-.163.079-.285.16-.407.218-.656.402-1.276.942-1.906 1.438a42.042 42.042 0 002.781 5.594 32.322 32.322 0 003.906 5.125L58 50.719a16.794 16.794 0 01-.406-2.157c-.02-.117-.063-.236-.063-.374-.508-4.427.738-8.514 3.625-12.188zm5.78 0c2.888 3.674 4.135 7.761 3.626 12.188 0 .137-.063.256-.063.374a16.828 16.828 0 01-.406 2.157l-.063.187a31.3 31.3 0 003.938-5.187 42.09 42.09 0 002.781-5.594c-.63-.496-1.25-1.036-1.906-1.438-.122-.058-.234-.14-.375-.218-.102-.04-.2-.129-.281-.188a19.825 19.825 0 00-5.313-1.968c-.63-.119-1.287-.254-1.938-.313zM44.564 47.906a49.36 49.36 0 00-4.657 9.375c.772.356 1.54.704 2.313 1a50.719 50.719 0 003.937 1.563c2.584.907 5.163 1.523 7.75 2.031-2.04-2.797-4.05-6.138-6.031-10-1.226-2.168-2.331-3.418-3.313-3.969zm38.968 0c-.981.551-2.087 1.8-3.312 3.969-1.982 3.862-3.991 7.203-6.031 10 2.586-.508 5.166-1.124 7.75-2.031a54.966 54.966 0 003.968-1.563 37.828 37.828 0 002.281-1c-1.339-3.615-2.935-6.644-4.656-9.375zm-19.469 2.5c-1.564.02-3.1.199-4.624.594-.305.088-.625.162-.938.25 1.116 1.154 2.254 2.264 3.531 3.188.61-.752 1.28-1.442 2.032-2.094.751.652 1.42 1.343 2.03 2.093 1.278-.923 2.413-2.033 3.532-3.187-.319-.09-.647-.161-.969-.25a19.03 19.03 0 00-4.594-.594zm-24.156 9.219c-5.02-.099-8.694.993-11.093 3.344-.955.908-1.691 2.052-2.22 3.375l-2.062 5c3.09-2.53 6.224-3.774 9.375-3.813 3.151-.02 5.179 1.543 6.094 4.625.915 3.101.804 7.811-.375 14.094-1.728 9.364-.96 16.441 2.313 21.281 0 .02-.099-.95-.282-2.906-1.647-3.062-1.648-8.454-.062-16.219l.062-.406c.102-.454.18-.898.282-1.313 0-.04.021-.093.062-.093l-.063-.063H42c2.154-7.606 2.328-13.24.438-16.875l4.062.219c-.935-.297-1.81-.682-2.563-1.156a8.1 8.1 0 01-3.03-3.531c-.57-1.265-.908-2.696-.97-4.376-.02-.395-.05-.792-.03-1.187zm48.282 0c.019.395-.01.792-.032 1.188-.06 1.68-.4 3.11-.969 4.374-.65 1.483-1.668 2.644-3.03 3.532-.752.475-1.607.86-2.563 1.156l4.062-.219c-1.889 3.635-1.737 9.27.438 16.875h.062l-.062.063c.04 0 .062.055.062.094.101.415.2.857.281 1.312l.094.406c1.565 7.764 1.553 13.157-.094 16.219a227.773 227.773 0 01-.28 2.906c3.292-4.84 4.039-11.916 2.312-21.281-1.18-6.282-1.29-10.992-.375-14.094.915-3.082 2.944-4.645 6.094-4.625 3.151.04 6.284 1.284 9.374 3.813l-2.062-5c-.528-1.323-1.264-2.466-2.219-3.375-2.399-2.351-6.074-3.443-11.094-3.344zm-56.844 3.438c.325.06.468.223.468.5 0 .276-.143.589-.468.906-.306.335-.688.583-1.094.781-.447.197-.82.246-1.125.188-.305-.06-.469-.192-.469-.47 0-.276.164-.57.469-.906a3.531 3.531 0 011.125-.78c.406-.199.788-.258 1.094-.22zm65.406 0c.325-.04.687.02 1.094.218.447.197.82.465 1.125.782.305.335.468.629.469.906 0 .276-.164.41-.47.469-.304.058-.677.01-1.124-.188a3.778 3.778 0 01-1.094-.781c-.325-.316-.469-.63-.469-.906 0-.277.144-.44.469-.5zm-59.125 8.062l-5.281 7.75a13.094 13.094 0 012.781 1.813 9.253 9.253 0 011.531 1.374c.223.237.433.506.657.782.264.356.514.73.718 1.125.955-5.335 1.02-9.234.188-11.625-.061-.12-.096-.268-.157-.406a4.44 4.44 0 00-.437-.813zm52.844 0c-.163.237-.295.516-.438.813-.062.138-.095.287-.156.406-.833 2.39-.767 6.29.188 11.625.203-.395.465-.77.75-1.125a8.59 8.59 0 01.656-.781c.448-.495.93-.96 1.5-1.376a13.142 13.142 0 012.781-1.812l-5.281-7.75zm-43.625.063c-.02.177-.032.373-.032.53-.264 3.696.678 6.087 2.813 7.094 2.215 1.047 4.375.337 6.469-2.093-1.891.178-3.382-.124-4.5-.875 1.3.159 2.616.02 3.937-.375 1.26-.395 2.563-1.049 3.844-1.938-4.736 1.541-8.802.904-12.156-2-.142-.099-.252-.226-.375-.344zm3.843 0c1.282 1.462 3.1 1.847 5.438 1.156-.671-.356-1.537-.65-2.594-.906-1.098-.237-2.05-.33-2.843-.25zm26.72 0c-.794-.08-1.716.013-2.813.25-1.058.257-1.954.55-2.625.906 2.338.69 4.157.306 5.437-1.156zm3.874 0a3.53 3.53 0 01-.406.343c-3.355 2.904-7.42 3.541-12.156 2 1.28.89 2.584 1.543 3.844 1.938 1.322.395 2.636.534 3.937.375-1.098.75-2.578 1.053-4.469.875 2.094 2.43 4.222 3.14 6.438 2.094 2.134-1.008 3.077-3.4 2.812-7.094 0-.158.021-.353 0-.531zm-18.937 2.906c-.506-.082-.936.072-1.313.437a1.38 1.38 0 00-.468 1.031c.02.456.227.89.593 1.344.792.988 1.156 2.003 1.094 3.031-.691-1.54-1.724-2.48-3.188-2.874-.63-.159-1.209-.15-1.656-.032-.63.178-1.132.624-1.437 1.375-.366.89-.257 1.684.312 2.375.61.771 1.543 1.168 2.844 1.188-.265-.612-.246-1.308-.063-2v-.031a.546.546 0 01.094-.22c.162-.157.426-.12.813.157.426.296.68.832.781 1.563.203 1.974 1.34 3.007 3.313 3.124 1.992-.117 3.088-1.15 3.312-3.124.081-.731.323-1.267.75-1.563.386-.277.67-.314.813-.156.04.059.072.12.093.219l.031.03c.184.693.17 1.389-.093 2 1.3-.02 2.233-.416 2.844-1.187.569-.69.679-1.486.312-2.375-.304-.75-.787-1.197-1.438-1.375-.447-.119-.974-.127-1.624.031-1.465.395-2.527 1.335-3.22 2.876-.06-1.029.301-2.044 1.094-3.032.367-.454.554-.889.594-1.344 0-.415-.173-.775-.437-1.03-.773-.732-1.77-.567-3.031.5-.63-.534-1.214-.857-1.72-.938zm-30 6.5L28.53 85.5c.935 1.56 1.9 3.078 2.938 4.5a54.662 54.662 0 002.5 3.219c.529.593 1.076 1.22 1.625 1.812.325.376.665.727 1.031 1.063-.081-3.042.24-6.456 1.031-10.25l.063-.125c-.244-.435-.56-.844-.844-1.219a23.111 23.111 0 01-.656-.844 13.066 13.066 0 00-1.594-1.562c-.711-.573-1.488-1.046-2.281-1.5zm63.406 0c-.792.454-1.539.926-2.25 1.5-.57.474-1.127.99-1.594 1.562-.203.277-.453.567-.656.844-.304.375-.6.785-.844 1.219.02.04.01.086.031.125.794 3.794 1.124 7.208 1.063 10.25.345-.336.675-.687 1-1.063.549-.593 1.097-1.22 1.625-1.812a65.036 65.036 0 002.5-3.219 66.746 66.746 0 002.969-4.5l-3.844-4.906zm-42.063 2.594c-2.693.155-4.179 1.407-4.468 3.718-.57 4.484.383 7.862 2.843 10.094l.063-.031.094-.031c-.61-1.028-.666-2.688-.157-5l1-4.657c.753-2.035 2.343-3.241 4.782-3.656-.366-.079-.758-.16-1.063-.219-1.169-.188-2.195-.27-3.093-.219zm20.72 0c-.897-.052-1.93.03-3.094.218-.326.06-.697.14-1.063.219 2.439.415 4.03 1.621 4.781 3.656l1 4.656c.487 2.312.464 3.974-.125 5l.063.032.062-.125.094.094c2.398-2.252 3.319-5.587 2.75-10.032-.275-2.311-1.779-3.563-4.469-3.719zm-16.25 3.28l-1.563 2.657H71.5l-1.563-2.656h-11.78zm1.156 4.47l1.25 2.03h6.968l1.25-2.03h-9.47zm-4.5.218L54.218 94l.062.094h-.062c-.163 4.228 3.136 7.535 9.843 9.906 6.709-2.371 9.976-5.678 9.813-9.906h-.063l.063-.094-.563-2.844v.125c-.04.138-.062.257-.062.375a3.918 3.918 0 01-.594 1.531c-.813 1.126-2.327 1.758-4.562 1.876h-.156c-.773.02-1.498.042-2.188.062v2.437c.021.79-.121 1.399-.406 1.813-.02.06-.043.097-.125.156a1.238 1.238 0 01-.5.406c-.203.08-.391.109-.656.188-.245-.079-.474-.109-.657-.188-.224-.097-.409-.228-.531-.406-.061-.059-.104-.096-.125-.156-.284-.414-.427-1.022-.406-1.813v-2.436c-.671-.02-1.415-.043-2.188-.063H60c-2.236-.117-3.75-.75-4.563-1.874-.303-.456-.46-.959-.562-1.532-.02-.118-.022-.237-.063-.375v-.125z" fill="#ff0a1c"/><path d="M50.656 15.844a24.279 24.279 0 00-1.343 6.281c-.387 4.939.294 9.861 2.062 14.781.203-.159.422-.3.625-.437-1.85-4.762-2.642-9.564-2.438-14.344a23.966 23.966 0 011.094-6.281zm26.75.5c.559 1.865.939 3.78 1.031 5.781.204 4.78-.618 9.582-2.468 14.344.193.13.428.258.625.406 1.76-4.91 2.467-9.82 2.062-14.75-.156-2.024-.626-3.924-1.25-5.781zM64.062 31.812c-2.438.396-3.974 1.495-4.624 3.313.65-1.718 2.185-2.528 4.624-2.469 2.44-.059 3.944.751 4.594 2.469-.65-1.818-2.155-2.917-4.594-3.313zm-1.124 4.125c-.224.278-.453.58-.657.876h3.532a14.56 14.56 0 00-.657-.876c-.346 0-.727.032-1.094.032-.364 0-.76-.032-1.124-.032zM61.156 36c-.65.059-1.306.194-1.937.313a19.36 19.36 0 00-5.282 1.968c-.101.06-.2.149-.28.188 1.707-.77 3.353-1.134 5-1.094-1.769 3.675-2.162 7.295-1.126 10.813-.508-4.427.738-8.514 3.625-12.188zm5.782 0c2.886 3.674 4.133 7.761 3.624 12.188 1.038-3.518.645-7.139-1.124-10.813 1.666-.04 3.302.323 5.03 1.094a1.671 1.671 0 01-.312-.188 19.59 19.59 0 00-5.281-1.968c-.63-.12-1.287-.254-1.938-.313zM44.593 47.906c-1.732 2.734-3.347 5.754-4.688 9.375.772.356 1.54.704 2.313 1 .332-3.735 1.29-7.099 2.75-10.156-.128-.097-.252-.148-.375-.219zm38.906 0c-.124.072-.247.122-.375.219a29.735 29.735 0 012.781 10.156 37.892 37.892 0 002.281-1c-1.341-3.623-2.962-6.64-4.687-9.375zm-41.563 12.5c0 .118-.01.317-.03.594-.02.256-.01.456.03.594.285 3.576 2.729 5.874 7.282 7 4.98 1.284 9.925 1.906 14.843 1.906 4.92 0 9.833-.622 14.813-1.906 4.573-1.126 6.997-3.424 7.281-7 .061-.138.063-.338.063-.594a4.933 4.933 0 01-.063-.594c-4.733 1.75-9.28 2.908-13.687 3.594-1.396 1.7-2.802 3.256-4.219 4.469-1.26.69-2.653 1.009-4.219.969-1.565.04-2.927-.278-4.187-.97C58.427 67.257 57.02 65.7 55.625 64c-4.411-.686-8.96-1.846-13.688-3.594zm-1.5 6.938c2.563 3.694 3.066 10.08 1.5 19.187l.063.063c2.175-7.646 2.328-13.303.438-16.938l4.062.219c-.935-.297-1.81-.682-2.563-1.156a7.311 7.311 0 01-3.5-1.375zm47.25 0a7.51 7.51 0 01-3.53 1.375 10.76 10.76 0 01-2.563 1.156l4.062-.219c-1.889 3.635-1.737 9.292.438 16.938l.062-.063c-1.565-9.108-1.05-15.492 1.531-19.187zm-37 3.812c1.282 1.462 3.1 1.879 5.438 1.188-.671-.356-1.537-.65-2.594-.906-1.098-.237-2.05-.36-2.843-.282zm26.72.031c-.794-.078-1.716.014-2.813.25-1.058.258-1.954.55-2.625.907 2.338.69 4.157.306 5.437-1.156zm-30.188.344c1.544 2.785 4.328 4.096 8.312 3.938 1.26-.395 2.563-1.049 3.844-1.938-4.737 1.541-8.802.904-12.156-2zm33.656 0c-3.354 2.904-7.42 3.541-12.156 2 1.28.89 2.583 1.543 3.844 1.938 3.983.158 6.767-1.152 8.312-3.938zm-42.813.406c.388 3.596.125 7.232-.75 10.907.265.356.515.73.72 1.125.954-5.335 1.02-9.234.187-11.625-.061-.12-.096-.268-.157-.406zm51.97 0c-.063.139-.096.288-.157.407-.833 2.39-.767 6.29.188 11.625.203-.395.465-.77.75-1.125-.895-3.675-1.148-7.311-.782-10.906zm-36.344 11.25c-2.694.156-4.18 1.408-4.47 3.72-.59 4.641.451 8.06 3.094 10.312l.063-.063c-.061-.099-.148-.127-.25-.187l-.063-.125c-1.076-1.205-1.746-2.803-2.03-4.719-.346-2.094-.17-4.084.5-6a.227.227 0 00.03-.094c.02-.02.043-.086.063-.125.691-1.858 2.7-2.659 6.156-2.5-1.169-.188-2.195-.27-3.093-.219zm20.718 0c-.897-.051-1.93.032-3.094.22 3.437-.16 5.519.641 6.188 2.5.021.038.041.104.063.124 0 .02-.022.055 0 .094.67 1.916.846 3.906.5 6-.264 1.916-.955 3.514-2.032 4.719l-.062.125c-.081.06-.137.088-.219.187l.063.063c2.623-2.252 3.652-5.67 3.062-10.313-.275-2.311-1.779-3.563-4.469-3.719zM36.875 84.5l-.094.219c-.73 3.438-1.147 6.874-1.187 10.312.325.375.666.727 1.031 1.063-.081-3.043.24-6.457 1.031-10.25l.063-.125c-.244-.434-.56-.844-.844-1.219zm54.375 0c-.305.375-.6.784-.844 1.219.02.039.01.086.031.125.793 3.794 1.124 7.208 1.063 10.25.345-.336.675-.687 1-1.063a52.406 52.406 0 00-1.156-10.312l-.094-.219zm-62.844 3.188L24.47 94.78c.305 2.094 1.216 4.058 2.781 5.875.671.83 1.545 1.624 2.5 2.375a21.72 21.72 0 004.938 2.938 19.11 19.11 0 003.312 1.125c-1.117-2.213-1.85-5.29-2.156-9.281-.752-.75-1.465-1.566-2.157-2.376a35.618 35.618 0 01-2.874-3.75 40.297 40.297 0 01-2.407-4zm71.281 0a39.888 39.888 0 01-2.374 4 38.886 38.886 0 01-2.907 3.75c-.67.81-1.404 1.624-2.156 2.374-.306 3.991-1.017 7.069-2.156 9.282a19.532 19.532 0 003.344-1.125 21.734 21.734 0 004.937-2.938c.956-.751 1.809-1.545 2.5-2.375 1.566-1.817 2.465-3.78 2.75-5.875l-3.938-7.094zm-55.124 2.78c-1.365 5.321-1.178 9.975.343 14.063-1.073-3.24-1.205-6.892-.218-10.969 2.601 6.658 8.61 11.273 18.062 13.782-4.573-1.264-8.411-3.251-11.5-5.938-3.497-3.062-5.712-6.67-6.688-10.937zm38.812 0c-.955 4.268-3.16 7.876-6.656 10.938-3.07 2.687-6.926 4.674-11.5 5.938 9.453-2.509 15.48-7.124 18.062-13.781 1.016 4.2.89 7.971-.281 11.281 1.626-4.152 1.781-8.912.375-14.375zm-28.5 1.188c.182 2.45 1.61 3.867 4.313 4.281L59.5 96c.082 0 .18.011.281.031h1.875v.031c.082 1.698.463 2.799 1.094 3.313-.285-.415-.426-1.022-.406-1.813v-2.436c-.671-.021-1.416-.043-2.188-.063H60c-2.237-.118-3.75-.748-4.563-1.874-.304-.456-.461-.959-.562-1.532zm18.375 0c-.102.573-.289 1.077-.594 1.531-.813 1.127-2.327 1.758-4.562 1.876h-.156c-.773.02-1.498.042-2.188.062v2.437c.021.79-.121 1.399-.406 1.813.63-.514.993-1.614 1.094-3.313v-.03h1.874c.103-.02.2-.032.282-.032l.312-.063c2.704-.415 4.141-1.83 4.344-4.28z" fill="#ffa042"/><path d="M41.938 60.406c3.344 2.337 8.234 3.934 14.624 4.782-.316-.36-.622-.804-.937-1.188-4.411-.686-8.96-1.846-13.688-3.594zm44.218 0c-4.733 1.75-9.28 2.908-13.687 3.594-.316.384-.621.829-.938 1.188 6.403-.847 11.29-2.441 14.625-4.782zM35.844 97.813c.305 3.99 1.038 7.069 2.156 9.281.671.158 1.35.307 2 .406-1.707-2.371-2.76-5.292-3.188-8.75a14.21 14.21 0 01-.968-.938zm56.406 0a14.21 14.21 0 01-.969.937c-.427 3.457-1.48 6.379-3.187 8.75a23.09 23.09 0 002.031-.406c1.139-2.213 1.82-5.291 2.125-9.281z" fill="#fffcab"/><path d="M47.688 16.469c-.448.474-.875.9-1.282 1.375-6.83 7.606-8.453 14.654-4.875 21.093-4.066 2.214-4.67 5.631-1.843 10.313.243-.592.528-1.108.812-1.563 2.318-3.732 5.212-2.695 8.75 3.094 2.764 4.978 5.505 9.288 8.25 12.844A12.71 12.71 0 0157.969 61c.325-1.284.928-2.712 1.843-4.313.143-.276.471-.785.938-1.437-5.712-4.267-9.757-10.476-12.156-18.656-1.566-5.314-2.255-10.024-2.032-14.094.163-1.778.469-3.546.876-5.344.04-.079.062-.097.062-.156.061-.178.127-.354.188-.531zm32.78 0c.06.177.096.353.157.531 0 .059.01.077.031.156.406 1.798.742 3.566.906 5.344.224 4.07-.454 8.78-2 14.094-2.398 8.18-6.486 14.389-12.218 18.656.487.652.806 1.16.969 1.438.913 1.6 1.54 3.028 1.843 4.312.244.85.407 1.736.469 2.625 2.744-3.556 5.475-7.866 8.219-12.844 3.558-5.789 6.463-6.826 8.781-3.093.284.454.57.97.813 1.562 2.805-4.682 2.222-8.1-1.844-10.313 3.599-6.44 1.956-13.487-4.875-21.093-.427-.474-.823-.901-1.25-1.375zM64.063 54.594c-1.688 1.66-2.968 3.4-3.78 5.218-.366.89-.587 1.638-.688 2.25-.204 1.166-.16 2.162.125 3.032a4 4 0 00.562 1.094c.61.79 1.432 1.257 2.469 1.374.447.1.906.137 1.313.157.406-.02.865-.057 1.312-.156 1.016-.118 1.829-.585 2.438-1.376a3.52 3.52 0 00.562-1.093c.304-.87.39-1.866.188-3.031-.123-.614-.353-1.361-.72-2.25-.832-1.819-2.094-3.56-3.78-5.22zm0 3.187a12.135 12.135 0 012.094 3.032c0 .058.031.097.031.156.225.474.366.895.407 1.25.183 1.047.051 1.934-.438 2.625-.243.316-.519.548-.844.687-.385.118-.749.219-1.156.219h-.187c-.406 0-.79-.1-1.157-.219-.325-.139-.6-.371-.843-.687-.488-.691-.6-1.578-.438-2.625.061-.355.203-.776.407-1.25.02-.06.01-.098.03-.157a11.165 11.165 0 012.094-3.03z" fill="#ffa042"/><path d="M46.563 22.75c-.692 6.401.086 12.623 2.28 18.688 1.24 3.417 2.818 6.492 4.688 9.218 1.992 2.944 4.087 5.017 6.282 6.282.142-.278.469-.786.937-1.438-5.712-4.267-9.758-10.476-12.156-18.656-1.566-5.314-2.255-10.024-2.032-14.094zm35 0c.224 4.07-.487 8.78-2.032 14.094-2.398 8.18-6.455 14.389-12.187 18.656.488.652.806 1.16.969 1.438 2.174-1.266 4.289-3.338 6.28-6.282 1.87-2.726 3.418-5.8 4.657-9.218 2.216-6.065 3.002-12.287 2.313-18.688zM41.53 39.188c-4.065 2.212-4.67 5.629-1.843 10.312-2.116-5.137-.481-8.341 4.906-9.625-1.525.04-2.534-.194-3.063-.688zm45.032 0c-.529.493-1.518.727-3.063.687 5.386 1.285 7.031 4.488 4.938 9.625 2.805-4.683 2.19-8.1-1.876-10.313zm-22.5 15.656c-1.688 1.659-2.968 3.4-3.782 5.218-.365.89-.617 1.639-.718 2.25-.204 1.166-.13 2.163.156 3.032-.488-3.101.97-6.099 4.343-9.063 3.395 2.964 4.821 5.962 4.313 9.063.305-.87.36-1.865.156-3.031-.12-.613-.32-1.361-.687-2.25-.834-1.819-2.093-3.56-3.781-5.22zm-2.157 6.375c-.203.474-.345.894-.406 1.25-.014.09.01.161 0 .25.14-.504.1-.907.406-1.5zm-.406 1.5c-.44 1.575-.343 2.843.813 3.562a3.37 3.37 0 001.75.531 3.208 3.208 0 001.718-.53c1.17-.72 1.262-1.988.813-3.563.115.927.008 1.744-.438 2.375-.244.316-.519.548-.844.687-.386.118-.749.219-1.156.219h-.218c-.407 0-.76-.1-1.126-.219-.325-.139-.6-.371-.843-.687-.446-.631-.568-1.448-.469-2.375zm5.094 0c-.011-.089.016-.16 0-.25-.04-.356-.182-.776-.406-1.25.31.593.262.996.406 1.5z" fill="#fffcab"/></g></svg>