<?xml version="1.0" encoding="UTF-8" standalone="no"?> <!-- Created with Vectornator for iOS (http://vectornator.io/) --><!DOCTYPE svg PUBLIC "-//W3C//DTD SVG 1.1//EN" "http://www.w3.org/Graphics/SVG/1.1/DTD/svg11.dtd">
<svg style="fill-rule:evenodd;clip-rule:evenodd;stroke-linecap:round;stroke-linejoin:round;" xmlns:vectornator="http://vectornator.io" xmlns:xlink="http://www.w3.org/1999/xlink" xmlns="http://www.w3.org/2000/svg" xml:space="preserve" version="1.1" viewBox="0 0 220.19 220.19">
<metadata>
<vectornator:setting key="RulersVisible" value="1"/>
<vectornator:setting key="DisplayWhiteBackground" value="0"/>
<vectornator:setting key="Units" value="Points"/>
<vectornator:setting key="DynamicGuides" value="1"/>
<vectornator:setting key="GuidesVisible" value="1"/>
<vectornator:setting key="CMYKEnabledKey" value="0"/>
<vectornator:setting key="SnapToGuides" value="1"/>
<vectornator:setting key="GridSpacing" value="16"/>
</metadata>
<defs/>
<g id="Layer 1" vectornator:layerName="Layer 1">
<g opacity="1">
<path d="M146.405+53.967C146.534+53.455+146.706+52.985+146.836+52.473C152.952+30.7403+150.109+18.7435+138.35+16.4376C139.728+20.7925+140.504+25.3614+140.718+30.0573C141.15+40.3902+139.426+50.765+135.508+61.0548C135.938+61.3538+136.412+61.6528+136.842+61.9938L146.405+53.967Z" opacity="1" fill="#ffa042"/>
<path d="M162.988+184.572L154.632+162.542L132.752+180.558L112.722+214.203C132.752+208.78+145.5+198.832+150.97+184.444C153.167+193.709+152.952+201.992+150.324+209.25C150.023+210.061+149.721+210.83+149.377+211.598C159.24+205.407+163.763+196.356+162.988+184.572" opacity="1" fill="#ffa042"/>
<path d="M84.7252+61.0547C80.8063+50.7649+79.0823+40.3901+79.5133+30.0572C79.6853+25.3613+80.5043+20.7924+81.8393+16.4375C70.0804+18.7434+67.2375+30.7412+73.3974+52.4729C73.4834+52.9849+73.6984+53.4549+73.8284+53.9668L83.3902+61.9937C83.8212+61.6527+84.2942+61.3537+84.7252+61.0547" opacity="1" fill="#ffa042"/>
<path d="M65.558+162.541L57.2022+184.572C56.4272+196.356+60.9921+205.408+70.8559+211.598C70.5119+210.829+70.2099+210.061+69.865+209.249C67.238+201.992+67.022+193.709+69.219+184.444C74.7329+198.833+87.4387+208.78+107.467+214.202L87.4387+180.559L65.558+162.541Z" opacity="1" fill="#ffa042"/>
<path d="M129.047+0C132.191+3.92794+134.733+8.02687+136.67+12.3388C139.212+17.8897+140.676+23.7816+141.151+30.0575C142.012+40.7313+140.547+51.3622+136.8+61.994C136.282+61.652+135.809+61.311+135.335+61.012C132.105+58.877+128.615+57.1691+124.868+56.1021C123.792+52.5151+121.767+49.8262+118.709+47.9042C116.9+46.8372+114.875+46.1542+112.679+45.7703C111.86+45.6843+110.999+45.5993+110.095+45.5993C106.865+45.6413+103.979+46.4102+101.481+47.9042C98.3797+49.8262+96.3547+52.5151+95.2777+56.1021C91.5308+57.2541+88.0419+58.877+84.7249+61.055C84.2949+61.353+83.8209+61.652+83.3899+61.994C79.643+51.3622+78.178+40.7313+78.997+30.0575C79.341+25.3616+80.332+20.7927+81.84+16.4377C83.8639+10.6308+86.9649+5.12392+91.0998+0C75.8521+8.02687+64.4382+19.4267+56.8574+34.2844C56.6854+34.4554+56.6424+34.7544+56.5124+34.9674C51.5595+45.8543+51.2155+55.8881+55.3494+65.0679C51.0425+68.0569+48.8885+72.5818+48.9325+78.6447C49.1045+85.0066+51.7314+90.5995+56.9864+95.4664C56.9864+95.5094+56.9864+95.5094+56.9434+95.5954C55.5224+98.9254+54.2304+102.212+53.0674+105.543C39.8436+106.141+30.6698+111.947+25.6729+123.048L17.705+142.731L21.8819+145.421C25.1559+142.944+28.7308+140.639+32.7368+138.547C40.1886+134.662+45.4435+133.167+48.4585+134.106L35.4067+153.106L37.5177+154.429L27.3958+167.024L29.3778+169.031L20.935+184.786C20.461+188.244+21.1939+192.001+23.2179+196.143C25.2419+200.327+28.2568+204.212+32.1338+207.799C41.3946+216.251+52.2484+220.393+64.7392+220.18L64.9982+220.18C67.3672+219.752+69.4342+219.112+71.1571+218.258C72.1051+217.788+73.0091+217.276+73.6981+216.678C73.6121+216.593+73.4831+216.422+73.4401+216.251C73.1391+215.825+72.8371+215.355+72.6221+214.929L70.8991+211.641C66.3332+202.035+65.6872+190.72+68.9612+177.698C71.0281+186.92+75.6801+194.776+83.0889+201.394C89.6358+207.201+97.7767+211.471+107.468+214.203C108.243+214.416+109.062+214.63+109.794+214.844L110.051+214.758L110.095+214.758L110.353+214.844C111.128+214.63+111.86+214.416+112.679+214.203C122.37+211.471+130.554+207.201+137.058+201.394C144.467+194.776+149.161+186.92+151.186+177.698C155.02+192.898+153.598+205.749+146.749+216.251C146.62+216.379+146.534+216.55+146.448+216.678C148.559+218.258+151.444+219.454+155.149+220.18L155.45+220.18C167.899+220.393+178.752+216.251+188.013+207.799C191.933+204.212+194.947+200.327+196.972+196.143C198.953+192.001+199.729+188.244+199.212+184.786L190.77+169.031L192.751+167.024L182.585+154.429L184.739+153.106L171.688+134.106C174.746+133.167+180.001+134.662+187.452+138.547C191.415+140.639+195.033+142.944+198.264+145.421L202.485+142.731L194.474+123.048C189.477+111.947+180.346+106.141+167.08+105.543C165.917+102.212+164.625+98.9254+163.203+95.5954C163.16+95.5094+163.16+95.5094+163.16+95.4664C168.372+90.5995+171.086+85.0066+171.172+78.6447C171.301+72.5818+169.148+68.0569+164.84+65.0679C168.976+55.8881+168.588+45.8543+163.634+34.9674C163.548+34.7544+163.462+34.4554+163.333+34.2844C158.853+25.5746+153.038+17.9747+145.888+11.6128L143.563+9.60684C140.633+7.12988+137.488+4.90992+134.043+2.81795C132.406+1.79297+130.77+0.896985+129.047+0" opacity="1" fill="#000000"/>
<path d="M120.475+60.6704C119.14+60.4144+117.718+60.1574+116.34+60.0294C122.456+67.9713+125.084+76.7661+124.007+86.33C124.007+86.629+123.921+86.885+123.921+87.141C123.748+88.6779+123.448+90.2149+123.06+91.7949L122.844+92.4779L122.844+92.5209L122.672+93.2039C121.811+92.9049+120.906+92.6919+120.001+92.4359C116.771+91.5819+113.54+91.1969+110.224+91.1549C106.907+91.1969+103.677+91.5819+100.446+92.4359C99.5855+92.6919+98.6375+92.9049+97.7765+93.2039L97.6035+92.5209L97.6035+92.4779L97.3885+91.7949C97.0005+90.2149+96.7425+88.6779+96.5705+87.141C96.5275+86.885+96.4405+86.629+96.4405+86.33C95.3645+76.7661+97.9915+67.9713+104.107+60.0294C102.729+60.1574+101.308+60.4144+99.9735+60.6704C96.0965+61.5244+92.3926+62.9334+88.8166+64.9403C88.6016+65.0673+88.3436+65.2813+88.1707+65.3663C87.8267+65.5373+87.6107+65.7083+87.3527+65.8363C85.0267+67.2883+82.7877+69.0383+80.5908+71.0022C80.5038+71.0872+80.3748+71.1732+80.2888+71.3012C78.9108+72.5392+77.6188+73.8632+76.3698+75.2722C69.477+83+63.749+93.2039+59.0971+106.013C60.7341+106.781+62.3281+107.55+63.964+108.191C66.721+109.429+69.521+110.539+72.3209+111.521C84.5967+115.919+96.8715+118.138+109.19+118.309C109.578+118.223+109.922+118.223+110.224+118.309C110.569+118.223+110.87+118.223+111.257+118.309C123.577+118.138+135.852+115.919+148.128+111.521C150.928+110.539+153.728+109.429+156.528+108.191C158.121+107.55+159.757+106.781+161.351+106.013C156.7+93.2039+150.971+83+144.122+75.2722C142.83+73.8632+141.538+72.5392+140.16+71.3012C140.074+71.1732+139.945+71.0872+139.858+71.0022C137.662+69.0383+135.421+67.2883+133.096+65.8363C132.837+65.7083+132.621+65.5373+132.321+65.3663C132.105+65.2813+131.846+65.0673+131.674+64.9403C128.056+62.9334+124.352+61.5244+120.475+60.6704" opacity="1" fill="#ff0a1c"/>
<path d="M113.971+61.7802C113.54+61.1392+113.067+60.4992+112.593+59.9022C111.861+59.9022+110.999+59.9442+110.224+59.9442C109.449+59.9442+108.63+59.9022+107.855+59.9022C107.381+60.4992+106.907+61.1392+106.476+61.7802L113.971+61.7802Z" opacity="1" fill="#ff0a1c"/>
<path d="M120.001+88.8067C120.733+84.3667+120.733+80.0968+119.958+75.9549C119.054+70.96+117.072+66.263+113.972+61.7801L106.477+61.7801C103.419+66.263+101.395+70.96+100.533+75.9549C99.7148+80.0968+99.7148+84.3667+100.447+88.8067C103.677+87.9947+106.908+87.5687+110.225+87.5257C113.541+87.5687+116.771+87.9947+120.001+88.8067" opacity="1" fill="#ff0a1c"/>
<path d="M110.224+50.9782C105.055+51.8322+101.825+54.1811+100.446+58.1081C101.825+54.3941+105.055+52.6441+110.224+52.7711C115.393+52.6441+118.623+54.3941+120.001+58.1081C118.623+54.1811+115.393+51.8322+110.224+50.9782" opacity="1" fill="#ff0a1c"/>
<path d="M110.224+52.7715C105.055+52.6435+101.825+54.3945+100.446+58.1085C103.634+57.5535+106.907+57.3825+110.224+57.6385C113.583+57.3825+116.814+57.5535+120.001+58.1085C118.623+54.3945+115.393+52.6435+110.224+52.7715" opacity="1" fill="#ff0a1c"/>
<path d="M81.9255+136.028C84.6394+139.187+88.4724+140.041+93.4253+138.547C92.0043+137.778+90.1523+137.138+87.9124+136.583C85.5864+136.07+83.6054+135.857+81.9255+136.028" opacity="1" fill="#ff0a1c"/>
<path d="M93.3398+147.982C89.3338+148.366+86.2329+147.769+83.8639+146.146C86.6209+146.488+89.3768+146.189+92.1768+145.335C94.8467+144.481+97.6037+143.072+100.318+141.151C90.2818+144.481+81.667+143.072+74.5601+136.796C74.2581+136.582+74.0001+136.326+73.7421+136.07C73.6981+136.454+73.6981+136.881+73.6981+137.223C73.1391+145.207+75.1631+150.331+79.686+152.508C84.3809+154.771+88.9028+153.234+93.3398+147.982" opacity="1" fill="#ff0a1c"/>
<path d="M102.859+145.506C102.902+146.488+103.333+147.47+104.108+148.452C105.788+150.587+106.564+152.764+106.434+154.985C104.97+151.654+102.73+149.605+99.6288+148.751C98.2928+148.409+97.0868+148.409+96.1398+148.665C94.8038+149.049+93.7709+150.031+93.1249+151.654C92.3489+153.575+92.5649+155.326+93.7709+156.82C95.0628+158.485+97.0438+159.297+99.8008+159.339C99.2408+158.016+99.2408+156.564+99.6288+155.07L99.6708+154.942C99.7148+154.728+99.8008+154.6+99.8868+154.472C100.232+154.131+100.792+154.258+101.61+154.856C102.514+155.497+103.031+156.607+103.247+158.187C103.677+162.456+106.047+164.719+110.225+164.975C114.445+164.719+116.771+162.456+117.244+158.187C117.417+156.607+117.934+155.497+118.838+154.856C119.656+154.258+120.26+154.131+120.561+154.472C120.648+154.6+120.733+154.728+120.776+154.942L120.819+155.07C121.207+156.564+121.207+158.016+120.648+159.339C123.404+159.297+125.385+158.485+126.678+156.82C127.884+155.326+128.099+153.575+127.323+151.654C126.678+150.031+125.687+149.049+124.309+148.665C123.36+148.409+122.198+148.409+120.819+148.751C117.718+149.605+115.48+151.654+114.015+154.985C113.886+152.764+114.661+150.587+116.34+148.452C117.115+147.47+117.546+146.488+117.632+145.506C117.632+144.609+117.244+143.84+116.685+143.286C115.049+141.706+112.895+142.048+110.225+144.353C107.554+142.048+105.401+141.706+103.807+143.286C103.204+143.84+102.859+144.609+102.859+145.506" opacity="1" fill="#ff0a1c"/>
<path d="M78.7814+130.477C89.3342+133.252+99.8011+134.576+110.224+134.576C120.648+134.576+131.115+133.252+141.667+130.477C151.358+128.043+156.441+123.048+157.044+115.32C157.173+115.021+157.173+114.594+157.173+114.039C157.087+113.441+157.087+113.015+157.087+112.758C140.547+118.992+124.955+122.151+110.224+122.109C95.4931+122.151+79.9014+118.992+63.3617+112.758C63.3617+113.015+63.3617+113.441+63.3187+114.039C63.2757+114.594+63.3187+115.021+63.4047+115.32C64.0076+123.048+69.1336+128.043+78.7814+130.477" opacity="1" fill="#e9a043"/>
<path d="M38.5946+118.992C39.4565+118.565+40.2745+118.437+40.9205+118.522C41.6095+118.65+41.9115+118.992+41.9115+119.59C41.9115+120.187+41.6095+120.828+40.9205+121.511C40.2745+122.237+39.4565+122.792+38.5946+123.219C37.6476+123.646+36.8716+123.774+36.2256+123.646C35.5796+123.517+35.2356+123.219+35.2356+122.621C35.2356+122.023+35.5796+121.383+36.2256+120.657C36.8716+119.974+37.6476+119.419+38.5946+118.992M59.1402+113.612C59.0972+112.758+59.0542+111.904+59.0972+111.05C48.4584+110.837+40.6625+113.228+35.5796+118.309C33.5546+120.273+31.9617+122.706+30.8417+125.567L26.4908+136.369C33.0387+130.904+39.6715+128.257+46.3474+128.171C53.0243+128.129+57.3313+131.502+59.2692+138.162C61.2072+144.866+60.9492+155.027+58.4512+168.603C54.7903+188.842+56.4273+204.169+63.3612+214.63C63.3612+214.673+63.1462+212.538+62.7582+208.311C59.2692+201.693+59.2692+190.037+62.6292+173.258L62.8012+172.361C63.0162+171.379+63.1892+170.439+63.4042+169.543C63.4042+169.457+63.4042+169.372+63.4902+169.372L63.3612+169.201L63.5332+169.244C68.0991+152.807+68.4441+140.638+64.4381+132.783L73.052+133.252C71.071+132.612+69.2191+131.758+67.6251+130.733C64.7401+128.812+62.6292+126.293+61.2072+123.091C60.0012+120.358+59.2692+117.241+59.1402+113.612" opacity="1" fill="#ff0a1c"/>
<path d="M63.4907+169.372C63.4907+169.33+63.4907+169.33+63.5337+169.244L63.3617+169.202L63.4907+169.372Z" opacity="1" fill="#ff0a1c"/>
<path d="M55.522+138.547C55.393+138.291+55.307+137.992+55.178+137.693C54.919+137.052+54.575+136.455+54.23+135.943L43.0312+152.678C45.2712+153.788+47.2091+155.069+48.9321+156.564C50.1811+157.46+51.2151+158.485+52.163+159.552C52.636+160.065+53.067+160.662+53.541+161.26C54.101+162.028+54.661+162.797+55.091+163.651C57.116+152.123+57.288+143.712+55.522+138.547" opacity="1" fill="#ff0a1c"/>
<path d="M52.6363+164.804C52.1623+164.206+51.6883+163.609+51.2583+163.011C50.2244+161.773+49.0614+160.662+47.8554+159.638C46.3474+158.4+44.7545+157.375+43.0735+156.393L34.9336+166.982C36.9146+170.355+39.0255+173.642+41.2215+176.716C42.9025+179.107+44.6675+181.413+46.5204+183.676C47.6394+184.957+48.7604+186.28+49.9224+187.561C50.6124+188.372+51.3443+189.183+52.1193+189.909C51.9473+183.334+52.6363+175.948+54.3163+167.75C54.3593+167.665+54.3593+167.579+54.4023+167.494C53.8853+166.554+53.2393+165.616+52.6363+164.804" opacity="1" fill="#ff0a1c"/>
<path d="M97.0868+162.926C96.3118+162.755+95.4938+162.584+94.8468+162.456C84.941+160.834+79.6431+163.353+78.8241+170.012C77.6181+179.704+79.6431+187.048+84.855+191.873L84.941+191.745L85.156+191.702C83.864+189.482+83.777+185.895+84.855+180.9L86.965+170.866C88.5589+166.469+91.9189+163.822+97.0868+162.926" opacity="1" fill="#ff0a1c"/>
<path d="M85.4576+192.215C85.3716+192.044+85.2426+191.873+85.1556+191.702L84.9406+191.745C85.1556+191.873+85.3286+192.001+85.4576+192.215" opacity="1" fill="#ff0a1c"/>
<path d="M85.4576+192.215C85.3286+192.001+85.1556+191.873+84.9406+191.745L84.8546+191.873C84.9406+192.001+85.1556+192.215+85.3286+192.3L85.4576+192.215Z" opacity="1" fill="#ff0a1c"/>
<path d="M90.6259+179.491L90.6259+179.192L89.3769+185.383L89.5059+185.554L89.5059+185.596L89.3769+185.596C89.0329+194.734+96.0098+201.821+110.225+206.945C124.438+201.821+131.415+194.734+131.071+185.596L130.941+185.596L130.941+185.554L131.071+185.383L129.821+179.192L129.821+179.491C129.735+179.79+129.735+180.046+129.735+180.302C129.521+181.54+129.09+182.651+128.443+183.633C126.721+186.066+123.533+187.432+118.795+187.689L118.493+187.689C116.856+187.731+115.307+187.731+113.843+187.774L113.843+189.268L113.843+190.293L113.843+193.068C113.886+194.776+113.584+196.1+112.981+196.996C112.938+197.124+112.895+197.21+112.723+197.338C112.464+197.722+112.076+197.978+111.646+198.192C111.215+198.363+110.784+198.448+110.225+198.619C109.708+198.448+109.234+198.363+108.846+198.192C108.372+197.978+107.985+197.722+107.726+197.338C107.597+197.21+107.511+197.124+107.468+196.996C106.865+196.1+106.564+194.776+106.606+193.068L106.606+190.293L106.606+189.268L106.606+187.774C105.185+187.731+103.591+187.731+101.955+187.689L101.653+187.689C96.9148+187.432+93.7279+186.066+92.0039+183.633C91.3579+182.651+90.9709+181.54+90.7549+180.302C90.7119+180.046+90.7119+179.79+90.6259+179.491" opacity="1" fill="#ff0a1c"/>
<path d="M89.5063+185.554L89.3773+185.383L89.3773+185.596L89.5063+185.596L89.5063+185.554Z" opacity="1" fill="#ff0a1c"/>
<path d="M130.942+185.597L131.072+185.597L131.072+185.384L130.942+185.555L130.942+185.597Z" opacity="1" fill="#ff0a1c"/>
<path d="M110.224+178.723L100.188+178.723L102.858+183.121L110.224+183.121L117.632+183.121L120.26+178.723L110.224+178.723Z" opacity="1" fill="#ff0a1c"/>
<path d="M97.7333+169.073L94.4163+174.837L126.032+174.837L122.715+169.073L97.7333+169.073Z" opacity="1" fill="#ff0a1c"/>
<path d="M34.7182+171.721L26.3624+187.049C27.0083+191.575+28.9463+195.843+32.2633+199.771C33.6842+201.564+35.4932+203.272+37.5182+204.895C40.7481+207.499+44.1941+209.591+47.985+211.256C50.224+212.281+52.5929+213.092+55.0059+213.69C56.4269+214.032+57.8908+214.33+59.2698+214.544C55.6519+209.42+53.4119+203.101+52.5069+195.63C51.7749+194.989+51.129+194.306+50.44+193.58C48.846+191.959+47.382+190.208+45.917+188.458C43.6771+185.853+41.6101+183.121+39.8011+180.346C37.9482+177.57+36.2252+174.667+34.7182+171.721" opacity="1" fill="#e9a043"/>
<path d="M179.528+118.522C180.216+118.437+180.992+118.564+181.854+118.992C182.801+119.418+183.577+119.974+184.222+120.657C184.869+121.382+185.214+122.023+185.214+122.621C185.214+123.218+184.869+123.517+184.222+123.646C183.577+123.773+182.801+123.646+181.854+123.218C180.992+122.792+180.216+122.236+179.528+121.511C178.839+120.828+178.537+120.187+178.537+119.589C178.537+118.992+178.839+118.65+179.528+118.522M189.607+125.567C188.487+122.706+186.893+120.272+184.869+118.309C179.786+113.229+171.99+110.837+161.351+111.051C161.394+111.905+161.351+112.759+161.308+113.613C161.178+117.242+160.446+120.358+159.24+123.09C157.862+126.293+155.709+128.812+152.823+130.733C151.229+131.758+149.42+132.611+147.395+133.252L156.009+132.782C152.004+140.638+152.348+152.807+156.958+169.245L157.087+169.202L156.958+169.373C157.044+169.373+157.044+169.458+157.044+169.543C157.259+170.44+157.474+171.379+157.646+172.361L157.862+173.258C161.178+190.037+161.178+201.693+157.69+208.311C157.302+212.538+157.087+214.672+157.087+214.629C164.064+204.169+165.658+188.841+161.997+168.604C159.499+155.027+159.24+144.865+161.178+138.162C163.117+131.501+167.424+128.128+174.1+128.171C180.777+128.256+187.41+130.904+193.958+136.369L189.607+125.567Z" opacity="1" fill="#ff0a1c"/>
<path d="M156.958+169.244L156.958+169.372L157.087+169.202L156.958+169.244Z" opacity="1" fill="#ff0a1c"/>
<path d="M179.269+176.716C181.422+173.642+183.534+170.355+185.515+166.982L177.373+156.393C175.694+157.375+174.1+158.4+172.593+159.638C171.387+160.662+170.224+161.773+169.233+163.011C168.802+163.609+168.286+164.206+167.855+164.804C167.208+165.615+166.563+166.554+166.045+167.494C166.088+167.579+166.088+167.665+166.132+167.75C167.812+175.947+168.5+183.334+168.372+189.909C169.104+189.183+169.836+188.372+170.525+187.561C171.688+186.28+172.808+184.957+173.928+183.675C175.78+181.413+177.546+179.107+179.269+176.716" opacity="1" fill="#ff0a1c"/>
<path d="M185.73+171.721C184.222+174.667+182.542+177.57+180.691+180.346C178.838+183.121+176.771+185.853+174.531+188.458C173.11+190.208+171.602+191.959+170.008+193.58C169.319+194.306+168.673+194.989+167.941+195.63C167.037+203.101+164.796+209.42+161.178+214.544C162.6+214.33+164.064+214.032+165.443+213.69C167.855+213.092+170.224+212.281+172.463+211.256C176.254+209.591+179.7+207.499+182.93+204.895C184.955+203.272+186.764+201.564+188.228+199.771C191.545+195.843+193.483+191.575+194.086+187.049L185.73+171.721Z" opacity="1" fill="#e9a043"/>
<path d="M146.749+137.223C146.749+136.882+146.749+136.454+146.706+136.07C146.448+136.327+146.189+136.582+145.888+136.796C138.781+143.073+130.166+144.481+120.131+141.151C122.844+143.073+125.601+144.481+128.271+145.335C131.071+146.189+133.827+146.488+136.584+146.146C134.258+147.769+131.114+148.367+127.108+147.982C131.545+153.234+136.067+154.771+140.763+152.508C145.285+150.331+147.31+145.207+146.749+137.223" opacity="1" fill="#ff0a1c"/>
<path d="M165.27+137.693C165.141+137.992+165.055+138.291+164.926+138.547C163.16+143.712+163.333+152.123+165.357+163.651C165.788+162.797+166.347+162.028+166.951+161.26C167.381+160.662+167.855+160.065+168.329+159.552C169.276+158.485+170.31+157.46+171.516+156.564C173.239+155.069+175.177+153.788+177.417+152.678L166.218+135.943C165.874+136.455+165.572+137.052+165.27+137.693" opacity="1" fill="#ff0a1c"/>
<path d="M138.523+136.028C136.843+135.857+134.862+136.07+132.536+136.583C130.296+137.138+128.444+137.778+127.023+138.547C131.976+140.041+135.809+139.187+138.523+136.028" opacity="1" fill="#ff0a1c"/>
<path d="M125.644+162.456C124.955+162.584+124.136+162.755+123.361+162.926C128.53+163.822+131.89+166.469+133.484+170.867L135.637+180.901C136.67+185.895+136.584+189.481+135.335+191.702L135.508+191.745L135.637+191.531L135.809+191.702C140.892+186.834+142.831+179.62+141.624+170.013C140.849+163.352+135.508+160.833+125.644+162.456" opacity="1" fill="#ff0a1c"/>
<path d="M134.99+192.215C135.163+192.001+135.335+191.873+135.508+191.745L135.335+191.702C135.206+191.873+135.12+192.044+134.99+192.215" opacity="1" fill="#ff0a1c"/>
<path d="M135.508+191.745C135.335+191.873+135.163+192.001+134.99+192.215L135.163+192.3C135.335+192.215+135.508+192.001+135.637+191.873C135.68+191.83+135.766+191.745+135.809+191.702L135.637+191.532L135.508+191.745Z" opacity="1" fill="#ff0a1c"/>
<path d="M113.971+61.7802C113.54+61.1392+113.067+60.4992+112.593+59.9022C111.861+59.9022+110.999+59.9442+110.224+59.9442C109.449+59.9442+108.63+59.9022+107.855+59.9022C107.381+60.4992+106.907+61.1392+106.476+61.7802L113.971+61.7802Z" opacity="1" fill="#ffa042"/>
<path d="M132.321+65.3667C132.105+65.2817+131.846+65.0677+131.675+64.9397C128.056+62.9327+124.352+61.5237+120.475+60.6707C119.14+60.4138+117.718+60.1578+116.341+60.0298C122.457+67.9706+125.085+76.7665+124.008+86.3303C126.204+78.7305+125.385+70.9596+121.638+63.0187C125.171+62.9327+128.66+63.7017+132.321+65.3667" opacity="1" fill="#ffa042"/>
<path d="M156.527+108.19C158.121+107.549+159.757+106.781+161.351+106.012C156.699+93.2044+150.97+82.9995+144.122+75.2727C151.229+84.3665+155.364+95.3813+156.527+108.19" opacity="1" fill="#ffa042"/>
<path d="M194.086+187.048L185.73+171.721C184.222+174.666+182.542+177.569+180.69+180.345C178.838+183.12+176.771+185.853+174.531+188.457C173.11+190.208+171.603+191.958+170.009+193.581C169.363+202.205+167.856+208.908+165.443+213.691C167.856+213.092+170.225+212.281+172.464+211.256C176.255+209.591+179.699+207.5+182.93+204.895C184.954+203.273+186.764+201.565+188.228+199.772C191.545+195.843+193.482+191.574+194.086+187.048" opacity="1" fill="#ffa042"/>
<path d="M165.443+213.69C167.855+208.908+169.363+202.205+170.008+193.581C169.319+194.307+168.673+194.99+167.941+195.63C167.037+203.101+164.797+209.42+161.178+214.544C162.6+214.33+164.064+214.031+165.443+213.69" opacity="1" fill="#fffcab"/>
<path d="M165.27+137.693C165.141+137.992+165.055+138.291+164.926+138.547C163.16+143.712+163.333+152.123+165.357+163.651C165.788+162.797+166.347+162.028+166.951+161.26C165.055+153.318+164.495+145.463+165.27+137.693" opacity="1" fill="#ffa042"/>
<path d="M147.395+133.252L156.009+132.782C152.003+140.638+152.348+152.85+156.958+169.373L157.086+169.202C153.77+149.519+154.847+135.729+160.317+127.744C158.121+129.367+155.579+130.391+152.823+130.733C151.229+131.758+149.419+132.611+147.395+133.252" opacity="1" fill="#ffa042"/>
<path d="M120.13+141.151C122.844+143.072+125.601+144.481+128.272+145.335C136.714+145.676+142.614+142.816+145.888+136.796C138.781+143.072+130.166+144.481+120.13+141.151" opacity="1" fill="#ffa042"/>
<path d="M138.523+136.028C136.843+135.857+134.862+136.07+132.536+136.583C130.296+137.138+128.444+137.778+127.023+138.547C131.976+140.041+135.809+139.187+138.523+136.028" opacity="1" fill="#ffa042"/>
<path d="M138.824+168.134C138.824+168.176+138.824+168.262+138.867+168.347C140.288+172.489+140.676+176.801+139.944+181.327C139.384+185.468+137.92+188.927+135.636+191.531L135.508+191.745C135.335+191.873+135.163+192.001+134.99+192.215L135.163+192.3C140.719+187.432+142.873+180.046+141.624+170.012C140.848+163.353+135.508+160.834+125.644+162.456C132.924+162.114+137.273+163.865+138.694+167.878C138.738+167.963+138.781+168.091+138.824+168.134" opacity="1" fill="#ffa042"/>
<path d="M134.99+192.215C135.163+192.001+135.335+191.873+135.508+191.745L135.335+191.702C135.206+191.873+135.12+192.044+134.99+192.215" opacity="1" fill="#ffa042"/>
<path d="M113.842+187.774L113.842+189.268L113.842+190.293L113.842+193.068C113.885+194.776+113.583+196.1+112.981+196.996C114.316+195.886+115.091+193.495+115.306+189.823L115.306+189.738L118.493+189.738L119.269+189.738C119.485+189.695+119.656+189.695+119.829+189.695L120.518+189.567C126.247+188.67+129.305+185.596+129.736+180.302C129.521+181.54+129.09+182.65+128.444+183.632C126.721+186.066+123.533+187.432+118.795+187.689L118.493+187.689C116.857+187.731+115.306+187.731+113.842+187.774" opacity="1" fill="#ffa042"/>
<path d="M131.072+185.597L131.072+185.384L130.942+185.555L130.942+185.597L131.072+185.597Z" opacity="1" fill="#ffa042"/>
<path d="M167.855+164.804C167.209+165.616+166.563+166.554+166.045+167.494C166.088+167.579+166.088+167.665+166.132+167.75C167.812+175.948+168.501+183.334+168.372+189.909C169.104+189.183+169.836+188.372+170.525+187.561C170.439+180.132+169.578+172.745+168.027+165.316L167.855+164.804Z" opacity="1" fill="#ffa042"/>
<path d="M88.8169+64.9399C88.602+65.0679+88.343+65.2809+88.171+65.3669C91.7889+63.7019+95.3208+62.9329+98.8098+63.0189C95.0628+70.9598+94.2439+78.7306+96.4408+86.3305C95.3638+76.7667+97.9918+67.9708+104.108+60.0299C102.73+60.1579+101.308+60.4139+99.9728+60.6699C96.0968+61.5239+92.3919+62.9329+88.8169+64.9399" opacity="1" fill="#ffa042"/>
<path d="M110.224+50.9782C105.055+51.8322+101.825+54.1811+100.446+58.1081C101.825+54.3941+105.055+52.6441+110.224+52.7711C115.393+52.6441+118.623+54.3941+120.001+58.1081C118.623+54.1811+115.393+51.8322+110.224+50.9782" opacity="1" fill="#ffa042"/>
<path d="M63.9643+108.19C65.0842+95.3813+69.2192+84.3665+76.369+75.2727C69.4772+82.9995+63.7493+93.2044+59.0973+106.012C60.7343+106.781+62.3273+107.549+63.9643+108.19" opacity="1" fill="#ffa042"/>
<path d="M92.1767+145.335C94.8466+144.481+97.6036+143.072+100.318+141.151C90.2817+144.481+81.6669+143.072+74.56+136.796C77.8339+142.816+83.7348+145.676+92.1767+145.335" opacity="1" fill="#ffa042"/>
<path d="M93.4257+138.547C92.0047+137.778+90.1527+137.138+87.9128+136.583C85.5868+136.07+83.6058+135.857+81.9259+136.028C84.6388+139.187+88.4728+140.041+93.4257+138.547" opacity="1" fill="#ffa042"/>
<path d="M64.4379+132.783L73.0528+133.253C71.0708+132.612+69.2189+131.759+67.6259+130.734C64.8689+130.392+62.328+129.367+60.174+127.745C65.6009+135.729+66.6779+149.519+63.361+169.202L63.491+169.372C68.0999+152.849+68.4439+140.638+64.4379+132.783" opacity="1" fill="#ffa042"/>
<path d="M55.522+138.547C55.393+138.291+55.307+137.992+55.178+137.693C55.996+145.463+55.393+153.318+53.541+161.26C54.101+162.028+54.661+162.797+55.091+163.651C57.116+152.123+57.288+143.712+55.522+138.547" opacity="1" fill="#ffa042"/>
<path d="M54.316+167.75C54.359+167.665+54.359+167.579+54.402+167.494C53.885+166.554+53.239+165.615+52.636+164.804L52.421+165.316C50.8701+172.745+50.0091+180.132+49.9221+187.561C50.6121+188.372+51.344+189.183+52.119+189.909C51.947+183.334+52.636+175.947+54.316+167.75" opacity="1" fill="#ffa042"/>
<path d="M81.6242+168.134C81.6672+168.091+81.7102+167.963+81.7532+167.878C83.2181+163.865+87.5251+162.114+94.8469+162.456C84.9401+160.834+79.6432+163.353+78.8242+170.012C77.5752+180.046+79.7282+187.432+85.3281+192.3L85.4571+192.215C85.3281+192.001+85.1561+191.873+84.9401+191.745L84.8121+191.531C82.5282+188.927+81.1072+185.468+80.5042+181.327C79.7722+176.801+80.1602+172.489+81.5812+168.347C81.6242+168.262+81.6242+168.176+81.6242+168.134" opacity="1" fill="#ffa042"/>
<path d="M84.9405+191.745C85.1555+191.873+85.3285+192.001+85.4575+192.215C85.3715+192.044+85.2425+191.873+85.1555+191.702L84.9405+191.745Z" opacity="1" fill="#ffa042"/>
<path d="M92.0044+183.633C91.3584+182.651+90.9704+181.541+90.7554+180.302C91.1434+185.597+94.2014+188.671+99.9303+189.568L100.619+189.696C100.791+189.696+100.963+189.696+101.179+189.738L101.954+189.738L105.185+189.738L105.185+189.824C105.357+193.496+106.132+195.887+107.467+196.997C106.864+196.1+106.563+194.777+106.606+193.069L106.606+190.294L106.606+189.269L106.606+187.775C105.185+187.732+103.591+187.732+101.954+187.689L101.652+187.689C96.9153+187.433+93.7274+186.067+92.0044+183.633" opacity="1" fill="#ffa042"/>
<path d="M89.5063+185.554L89.3773+185.383L89.3773+185.596L89.5063+185.596L89.5063+185.554Z" opacity="1" fill="#ffa042"/>
<path d="M63.3613+112.758C73.0091+119.632+88.6019+123.56+110.224+124.457C131.846+123.56+147.482+119.632+157.087+112.758C140.547+118.992+124.954+122.151+110.224+122.109C95.4937+122.151+79.901+118.992+63.3613+112.758" opacity="1" fill="#fffcab"/>
<path d="M34.7182+171.721L26.3624+187.049C27.0083+191.575+28.9463+195.843+32.2633+199.771C33.6842+201.564+35.4932+203.272+37.5182+204.895C40.7481+207.499+44.1941+209.591+47.985+211.256C50.224+212.281+52.5929+213.092+55.0059+213.69C52.6359+208.908+51.086+202.205+50.44+193.58C48.846+191.959+47.382+190.208+45.917+188.458C43.6771+185.853+41.6101+183.121+39.8011+180.346C37.9482+177.57+36.2252+174.667+34.7182+171.721" opacity="1" fill="#ffa042"/>
<path d="M52.5069+195.63C51.7749+194.989+51.129+194.306+50.44+193.581C51.086+202.205+52.6359+208.908+55.0059+213.691C56.4269+214.032+57.8908+214.331+59.2698+214.544C55.6519+209.421+53.4119+203.102+52.5069+195.63" opacity="1" fill="#fffcab"/>
<path d="M137.532+6.19082C141.15+12.5527+143.218+20.1526+143.82+29.0334C144.381+37.5723+143.562+46.4102+141.322+55.589C139.082+64.8119+135.722+73.2657+131.244+80.9936C126.636+88.7635+121.079+95.0404+114.532+99.8643C113.239+98.2423+111.818+96.7483+110.224+95.3384C108.631+96.7483+107.209+98.2423+105.917+99.8643C99.3701+95.0404+93.8562+88.7635+89.2042+80.9936C84.7253+73.2657+81.3654+64.8119+79.1254+55.589C76.8864+46.4102+76.0675+37.5723+76.6274+29.0334C77.2304+20.1526+79.2984+12.5527+82.9163+6.19082C70.5975+16.8646+62.2417+27.6245+57.8048+38.4683C53.5838+48.9291+53.6268+58.023+57.8907+65.6228C48.5009+71.9847+48.9749+82.6586+59.4417+97.8153C61.0787+90.4714+63.1457+86.2875+65.6876+85.1775C68.4436+84.0245+71.8895+87.0555+75.9385+94.3564C84.1653+110.709+92.6502+122.621+101.308+130.178C103.979+131.673+106.908+132.398+110.224+132.313C113.541+132.398+116.47+131.673+119.14+130.178C127.798+122.621+136.282+110.709+144.51+94.3564C148.558+87.0555+152.004+84.0245+154.761+85.1775C157.303+86.2875+159.37+90.4714+161.05+97.8153C171.473+82.6586+171.947+71.9847+162.6+65.6228C166.864+58.023+166.864+48.9291+162.643+38.4683C158.25+27.6245+149.85+16.8646+137.532+6.19082" opacity="1" fill="#000000"/>
<path d="M145.432+19.277C146.293+23.162+146.982+27.0049+147.327+30.8478C147.8+39.6427+146.336+49.8045+143.063+61.2893C137.98+78.9651+129.366+92.4138+117.219+101.637C118.252+103.046+118.942+104.113+119.286+104.711C121.225+108.169+122.517+111.286+123.162+114.06C123.68+115.896+124.024+117.775+124.154+119.696C129.968+112.012+135.784+102.747+141.598+91.9868C149.136+79.4781+155.295+77.2141+160.204+85.284C160.808+86.2659+161.41+87.3759+161.928+88.6569C167.871+78.5381+166.579+71.1512+157.966+66.3703C165.589+52.4515+162.143+37.2517+147.671+20.814C146.767+19.789+145.906+18.85+145.001+17.8251C145.13+18.21+145.216+18.551+145.345+18.936C145.345+19.064+145.388+19.106+145.432+19.277" opacity="1" fill="#ffa042"/>
<path d="M73.199+30.8476C73.543+27.0046+74.19+23.1617+75.051+19.2768C75.137+19.1058+75.18+19.0638+75.18+18.9358C75.309+18.5518+75.396+18.2098+75.525+17.8258C74.577+18.8498+73.716+19.7888+72.854+20.8137C58.3822+37.2515+54.9363+52.4512+62.5172+66.37C53.9023+71.1519+52.6103+78.5378+58.5972+88.6566C59.1142+87.3757+59.7172+86.2657+60.3202+85.2847C65.2301+77.2148+71.39+79.4778+78.8849+91.9876C84.7418+102.746+90.5567+112.011+96.3716+119.696C96.5006+117.775+96.8026+115.896+97.3196+114.06C98.0086+111.285+99.3006+108.168+101.24+104.71C101.541+104.112+102.273+103.045+103.264+101.636C91.1597+92.4136+82.5458+78.9648+77.4629+61.2891C74.146+49.8043+72.725+39.6424+73.199+30.8476" opacity="1" fill="#ffa042"/>
<path d="M110.284+107.101C112.18+109.15+113.601+111.371+114.678+113.634C114.678+113.762+114.763+113.847+114.763+113.975C115.238+115+115.539+115.939+115.626+116.707C116.013+118.971+115.712+120.849+114.678+122.344C114.161+123.027+113.601+123.539+112.912+123.838C112.094+124.094+111.318+124.308+110.457+124.308L110.284+124.308L110.241+124.308L110.026+124.308C109.164+124.308+108.389+124.094+107.614+123.838C106.925+123.539+106.365+123.027+105.848+122.344C104.814+120.849+104.513+118.971+104.857+116.707C104.986+115.939+105.288+115+105.719+113.975C105.762+113.847+105.805+113.762+105.848+113.634C106.882+111.371+108.303+109.15+110.241+107.101L110.284+107.101ZM100.765+116.323C100.334+118.843+100.464+121.02+101.067+122.898C101.325+123.71+101.756+124.521+102.273+125.247C103.565+126.955+105.288+127.979+107.485+128.236C108.432+128.449+109.38+128.492+110.241+128.535C111.102+128.492+112.094+128.449+113.041+128.236C115.195+127.979+116.918+126.955+118.21+125.247C118.769+124.521+119.157+123.71+119.416+122.898C120.062+121.02+120.191+118.843+119.761+116.323C119.502+115+119.028+113.42+118.253+111.499C116.487+107.571+113.816+103.813+110.241+100.227C106.666+103.813+103.996+107.571+102.273+111.499C101.497+113.42+100.981+115+100.765+116.323" opacity="1" fill="#ffa042"/>
<path d="M157.948+66.9037C156.828+67.9707+154.718+68.4837+151.444+68.3987C162.858+71.1736+166.347+78.0905+161.911+89.1903C167.855+79.0715+166.563+71.6856+157.948+66.9037" opacity="1" fill="#fffcab"/>
<path d="M147.31+31.3813C147.784+40.1762+146.319+50.338+143.045+61.8228C137.963+79.4985+129.348+92.9473+117.202+102.17C118.236+103.579+118.924+104.646+119.269+105.244C123.878+102.511+128.315+98.0282+132.536+91.6673C136.498+85.7754+139.815+79.1575+142.443+71.7707C147.137+58.6639+148.774+45.2141+147.31+31.3813" opacity="1" fill="#fffcab"/>
<path d="M69.0038+68.3983C65.7738+68.4833+63.6199+67.9713+62.4999+66.9033C53.885+71.6862+52.593+79.0721+58.5799+89.19C54.101+78.0901+57.59+71.1733+69.0038+68.3983" opacity="1" fill="#fffcab"/>
<path d="M73.1819+31.3813C71.7179+45.2141+73.3539+58.6639+78.0058+71.7707C80.6338+79.1575+83.9497+85.7754+87.9127+91.6673C92.1336+98.0282+96.5705+102.511+101.222+105.244C101.523+104.646+102.255+103.579+103.246+102.17C91.1426+92.9473+82.5288+79.4985+77.4458+61.8228C74.1299+50.338+72.7079+40.1762+73.1819+31.3813" opacity="1" fill="#fffcab"/>
<path d="M100.748+116.858C100.317+119.376+100.446+121.553+101.049+123.432C100.016+116.73+103.074+110.283+110.224+103.878C117.417+110.283+120.475+116.73+119.399+123.432C120.044+121.553+120.174+119.376+119.743+116.858C119.485+115.534+119.011+113.954+118.236+112.033C116.469+108.105+113.799+104.348+110.224+100.761C106.649+104.348+103.978+108.105+102.255+112.033C101.48+113.954+100.963+115.534+100.748+116.858" opacity="1" fill="#fffcab"/>
<path d="M105.831+122.877C104.797+121.382+104.496+119.504+104.84+117.241C104.97+116.473+105.271+115.534+105.702+114.509C103.031+119.803+103.332+123.432+106.563+125.481C107.683+126.207+108.846+126.591+110.225+126.634C111.602+126.591+112.809+126.207+113.886+125.481C117.159+123.432+117.461+119.803+114.747+114.509C115.221+115.534+115.522+116.473+115.608+117.241C115.996+119.504+115.694+121.382+114.661+122.877C114.144+123.56+113.584+124.072+112.894+124.371C112.076+124.627+111.302+124.841+110.439+124.841L110.268+124.841L110.225+124.841L110.009+124.841C109.147+124.841+108.372+124.627+107.597+124.371C106.908+124.072+106.348+123.56+105.831+122.877" opacity="1" fill="#fffcab"/>
</g>
</g>
</svg>
