<svg xmlns:vectornator="http://vectornator.io" xmlns="http://www.w3.org/2000/svg" viewBox="0 0 185.4 225.99" fill-rule="evenodd" clip-rule="evenodd" stroke-linecap="round" stroke-linejoin="round"><g vectornator:layerName="logo"><path d="M63.808 18.594c-1.208 3.935-2.117 7.984-2.437 12.218-.86 10.982.62 21.895 4.343 32.782.478-.334.929-.604 1.407-.938-3.963-10.6-5.728-21.197-5.25-31.843.165-4.207.866-8.266 1.937-12.22zm57.5 0c1.069 3.952 1.759 8.011 1.969 12.218.429 10.647-1.334 21.244-5.25 31.844.452.317.865.565 1.312.875 3.802-10.865 5.217-21.759 4.407-32.718-.321-4.235-1.23-8.284-2.438-12.22zM51.339 182.406c-3.295 13.141-2.69 24.562 1.657 34.282a21.32 21.32 0 01-.75-1.938c-2.674-7.449-2.884-15.888-.688-25.438 5.491 14.802 18.243 24.977 38.344 30.563l-.094-.156c-9.629-2.815-17.792-7.095-24.344-13.031-7.4-6.78-12.12-14.781-14.125-24.282zm82.438 0c-2.054 9.501-6.725 17.502-14.125 24.282-6.541 5.926-14.698 10.216-24.344 13.031l-.094.156c20.102-5.587 32.854-15.762 38.344-30.563 2.229 9.486 1.983 17.869-.594 25.282 3.549-9.257 3.836-19.983.813-32.188z" fill="#ffa042"/><path d="M96.448 63.408c-.43-.668-.907-1.337-1.337-1.958-.81 0-1.67.048-2.434.096a39.74 39.74 0 00-2.388-.096c-.43.62-.907 1.29-1.385 1.958-3.103 4.584-5.06 9.406-5.968 14.515-.764 4.249-.764 8.642-.048 13.226 3.247-.908 6.494-1.29 9.79-1.337 3.34.048 6.587.429 9.833 1.337.717-4.584.717-8.977-.046-13.226-.908-5.11-2.913-9.931-6.017-14.515" fill="#ff0a1c"/><path d="M86.558 61.594c-1.385.19-2.82.417-4.156.656-3.916.859-7.638 2.29-11.219 4.438l.063.062c-.24.096-.481.2-.72.344-.285.19-.541.326-.78.469-1.38.9-2.678 2.058-4 3.124a97.864 97.864 0 005.875 12.438c2.49 4.287 5.27 8.097 8.312 11.5l-.156-.406c-.334-1.623-.67-3.175-.813-4.75-.048-.335-.077-.557-.125-.844-1.05-9.835 1.56-18.82 7.72-27.031zm12.219 0c6.207 8.212 8.784 17.196 7.781 27.031-.048.287-.125.509-.125.844-.191 1.575-.477 3.127-.812 4.75l-.157.406a68.44 68.44 0 008.282-11.5 94.777 94.777 0 005.906-12.438c-1.331-1.066-2.65-2.224-4-3.124-.239-.144-.495-.278-.781-.47-.287-.143-.528-.247-.719-.343l.062-.063a37.94 37.94 0 00-11.218-4.437 110.943 110.943 0 00-4.22-.656zM51.152 87.906c-3.65 6.048-6.908 12.931-9.75 20.906 1.623.764 3.25 1.581 4.875 2.25 2.769 1.241 5.59 2.326 8.406 3.376a113.21 113.21 0 0016.594 4.718c-4.387-6.254-8.703-13.657-12.969-22.312-2.686-4.873-5.056-7.756-7.156-8.938zm83.062 0c-2.11 1.182-4.47 4.065-7.125 8.938-4.261 8.646-8.58 16.031-12.968 22.281 5.525-1.136 11.079-2.653 16.625-4.687 2.817-1.05 5.605-2.135 8.375-3.376 1.575-.669 3.251-1.485 4.875-2.25-2.843-7.975-6.129-14.858-9.782-20.906zm-41.53 5.625A40.23 40.23 0 0080.776 95.5c2.382 2.562 4.883 4.931 7.594 6.969 1.289-1.623 2.783-3.193 4.312-4.625 1.575 1.432 3.008 3.002 4.344 4.625 2.699-2.029 5.192-4.389 7.562-6.938-.678-.234-1.347-.468-2.062-.656a40.401 40.401 0 00-9.844-1.344z" fill="#ff0a1c"/><path d="M114.162 66.75c.191.096.43.191.717.334a11.584 11.584 0 00-.669-.382l-.048.048zM71.238 66.75l-.048-.048a3.065 3.065 0 00-.668.382c.238-.143.477-.238.716-.334M162.195 121.658c.716-.143 1.479.048 2.387.525a6.008 6.008 0 012.34 1.671c.669.717 1.002 1.385 1.002 2.006 0 .62-.333.907-1.002 1.05-.622.096-1.385 0-2.34-.43a9.651 9.651 0 01-2.387-1.766c-.621-.716-.955-1.337-.955-1.91 0-.621.334-1.05.955-1.146m10.122 7.21c-1.099-2.913-2.722-5.396-4.726-7.401-5.062-5.252-12.94-7.735-23.587-7.496.047.907 0 1.767-.048 2.626-.144 3.724-.86 6.923-2.053 9.692-1.433 3.343-3.581 5.921-6.446 7.879a25.279 25.279 0 01-5.491 2.578l8.642-.478c-4.011 8.07-3.677 20.579 1.003 37.481l.143-.048-.143.096c.048.048.048.143.048.191.19.955.43 1.958.62 2.913l.191.955c3.342 17.188 3.342 29.173-.143 35.952-.43 4.393-.621 6.542-.573 6.542 6.923-10.743 8.546-26.5 4.87-47.269-2.483-13.99-2.721-24.399-.812-31.274 1.958-6.828 6.303-10.265 12.987-10.265 6.685.095 13.322 2.817 19.959 8.45l-4.441-11.124z" fill="#ff0a1c"/><path d="M139.611 173.749v.048l.143-.096-.143.048z" fill="#ff0a1c"/><path d="M168.45 176.232a90.399 90.399 0 01-5.062 8.881 99.074 99.074 0 01-6.207 8.355c-1.958 2.531-4.201 4.966-6.588 7.353-.908 7.64-3.2 14.133-6.781 19.433a46.381 46.381 0 0011.317-3.39 47.13 47.13 0 0010.504-6.541c2.052-1.671 3.819-3.438 5.299-5.252 3.295-4.059 5.252-8.403 5.873-13.131l-8.355-15.708z" fill="#ffa042"/><path d="M161.956 181.389c2.148-3.199 4.298-6.542 6.303-9.979l-8.212-10.886c-1.672.954-3.295 2.053-4.728 3.342h-.048c-1.193 1.05-2.386 2.148-3.389 3.485a29.512 29.512 0 00-3.199 4.536c.047.096.047.191.095.335 1.671 8.355 2.436 15.947 2.244 22.727 1.958-2.053 3.772-4.202 5.538-6.446 1.911-2.292 3.677-4.679 5.396-7.114M155.272 163.866h.048-.048z" fill="#ff0a1c"/><path d="M139.754 117.075c0-.621-.048-1.098-.048-1.385-16.567 6.494-32.228 9.693-47.03 9.645-14.753.048-30.414-3.151-46.982-9.645 0 .287-.047.764-.095 1.385-.048.525 0 .955.095 1.289.62 7.926 5.73 13.083 15.47 15.565 10.552 2.817 21.056 4.25 31.513 4.25 10.504 0 20.96-1.433 31.559-4.25 9.741-2.482 14.802-7.639 15.423-15.565.095-.334.143-.764.095-1.289" fill="#ffa042"/><path d="M129.25 139.659c-.238.239-.478.525-.764.764-7.162 6.398-15.757 7.878-25.879 4.44 2.77 2.005 5.492 3.39 8.213 4.297 2.769.86 5.538 1.194 8.356.86-2.388 1.623-5.539 2.292-9.55 1.862 4.44 5.395 8.977 6.971 13.703 4.679 4.536-2.244 6.59-7.496 6.017-15.756 0-.334 0-.764-.096-1.146M148.874 139.516c-.525.812-.907 1.671-1.289 2.674-1.767 5.347-1.624 13.942.382 25.83a22.686 22.686 0 013.008-4.249 24.661 24.661 0 013.199-3.104c1.719-1.48 3.723-2.817 5.968-3.963l-11.268-17.188zM98.788 152.359c.86-1.003 1.289-2.005 1.289-3.008 0-.908-.334-1.719-.907-2.292-1.67-1.671-3.82-1.242-6.493 1.098-2.675-2.34-4.823-2.769-6.447-1.098-.62.573-.954 1.384-.954 2.292.047 1.003.477 2.005 1.29 3.008 1.622 2.196 2.434 4.44 2.338 6.684-1.432-3.39-3.724-5.538-6.827-6.35-1.385-.382-2.579-.382-3.534-.095-1.337.382-2.339 1.432-3.007 3.055-.765 2.006-.574 3.772.668 5.3 1.241 1.719 3.247 2.531 6.016 2.578-.525-1.384-.573-2.864-.143-4.392v-.143c.095-.191.143-.335.238-.43.335-.382.908-.239 1.767.382.86.62 1.433 1.814 1.576 3.39.477 4.393 2.817 6.732 7.02 7.019 4.2-.287 6.588-2.626 7.065-7.019.143-1.576.668-2.77 1.575-3.39.812-.621 1.433-.764 1.767-.382.096.095.143.239.191.43l.048.143c.382 1.528.382 3.008-.143 4.392 2.769-.047 4.726-.859 6.015-2.578 1.195-1.528 1.433-3.294.669-5.3-.669-1.623-1.671-2.673-3.056-3.055-.955-.287-2.148-.287-3.485.095-3.103.812-5.395 2.96-6.828 6.35-.096-2.244.621-4.488 2.292-6.684" fill="#ff0a1c"/><path d="M121.086 139.611c-1.672-.143-3.677.048-5.969.621-2.292.525-4.154 1.193-5.586 1.958 5.013 1.527 8.833.668 11.555-2.579" fill="#ffa042"/><path d="M108.147 166.731c-.669.143-1.48.334-2.292.478 5.204.954 8.594 3.676 10.218 8.212l2.053 10.265c1.098 5.109 1.05 8.833-.239 11.077l.143.048.191-.239.144.191c5.108-5.013 7.018-12.414 5.825-22.249-.813-6.876-6.16-9.454-16.043-7.783" fill="#ff0a1c"/><path d="M118.364 196.763l-.144-.191-.191.239c-.143.143-.334.286-.477.477l.143.096c.191-.143.334-.287.525-.43.048-.047.096-.143.144-.191" fill="#ff0a1c"/><path d="M118.029 196.811l-.143-.048c-.143.191-.239.382-.335.526.144-.191.335-.335.478-.478M96.305 192.753v5.396c.096 1.766-.238 3.103-.86 4.058 0 .143-.094.239-.238.334a2.752 2.752 0 01-1.098.859c-.43.191-.908.287-1.432.43-.525-.143-.955-.239-1.385-.43-.477-.19-.86-.477-1.098-.859-.143-.095-.24-.191-.286-.334-.621-.955-.908-2.292-.86-4.058V192.753c-1.48-.047-3.008-.095-4.631-.095h-.335c-4.727-.239-7.973-1.672-9.644-4.202-.67-.955-1.098-2.101-1.337-3.39 0-.287 0-.525-.048-.812v-.334l-1.29 6.351.144.19v.048h-.143c-.334 9.358 6.637 16.616 20.913 21.868 14.133-5.157 21.151-12.319 20.912-21.582l-.19-.047c.048-.096.048-.191.095-.239v-.048l.095-.19-1.289-6.351v.334c0 .287 0 .525-.048.812-.19 1.289-.62 2.435-1.289 3.39-1.671 2.53-4.918 3.963-9.644 4.202h-.382c-1.575 0-3.2.048-4.632.095" fill="#ff0a1c"/><path d="M113.589 190.795V190.27l-.095.191v.047c-.048.048-.048.144-.095.239l.19.048zM71.907 190.461l-.143-.191v.238h.143v-.047zM100.077 187.93l2.674-4.536H82.602l2.674 4.536h14.801zM108.528 179.479l-3.295-5.92H80.167l-3.343 5.92h31.704zM82.888 59.636c3.151-.573 6.446-.716 9.79-.478 3.388-.238 6.587-.095 9.834.478-1.384-4.058-4.679-6.446-9.835-7.305-5.157.859-8.452 3.247-9.789 7.305M66.225 150.02c2.77.334 5.54 0 8.355-.859 2.722-.908 5.443-2.292 8.213-4.298-10.122 3.438-18.764 1.958-25.926-4.44l-.765-.764c-.047.382-.047.812-.047 1.146-.573 8.26 1.48 13.512 6.016 15.757 4.727 2.291 9.263.715 13.655-4.68-4.01.43-7.162-.238-9.5-1.862" fill="#ff0a1c"/><path d="M70.283 140.231c-2.292-.573-4.297-.764-6.016-.621 2.77 3.247 6.59 4.107 11.555 2.579-1.385-.764-3.247-1.433-5.539-1.958" fill="#ffa042"/><path d="M20.818 122.184c.907-.478 1.671-.668 2.34-.525.668.095 1.002.525 1.002 1.146 0 .572-.334 1.193-1.003 1.909a8.598 8.598 0 01-2.339 1.767c-.955.43-1.767.525-2.388.43-.668-.144-.954-.43-.954-1.051 0-.62.286-1.289.954-2.005a6.172 6.172 0 012.388-1.671m20.58-5.586c0-.86-.049-1.719 0-2.626-10.649-.239-18.527 2.244-23.636 7.496-2.005 2.005-3.58 4.488-4.679 7.401l-4.44 11.124c6.636-5.634 13.273-8.355 19.958-8.451 6.684 0 11.03 3.438 12.94 10.266 1.956 6.875 1.717 17.284-.765 31.273-3.725 20.77-2.053 36.526 4.87 47.27.047 0-.19-2.149-.573-6.542-3.485-6.78-3.533-18.764-.143-35.953l.191-.955c.191-.955.43-1.957.572-2.912 0-.048 0-.143.096-.191l-.143-.096c3.342-20.197 2.292-34.425-3.15-42.589 2.147 1.671 4.678 2.673 7.447 3.055-2.865-1.957-5.013-4.536-6.446-7.878-1.193-2.769-1.909-5.968-2.1-9.692" fill="#ff0a1c"/><path d="M46.792 136.269l8.642.478c-2.053-.669-3.867-1.528-5.491-2.579-2.769-.382-5.299-1.384-7.448-3.055 5.443 8.164 6.494 22.392 3.151 42.589l.144.096c4.631-16.95 5.013-29.46 1.002-37.529M37.768 142.189c-.334-1.003-.764-1.862-1.24-2.674l-11.269 17.189a31.675 31.675 0 015.968 3.963 24.719 24.719 0 013.2 3.103c1.145 1.289 2.148 2.674 2.96 4.25 2.005-11.889 2.195-20.484.381-25.831M30.129 163.866h-.048.048zM30.081 163.866h.048a29.948 29.948 0 00-4.823-3.342l-8.164 10.886a160.948 160.948 0 006.302 9.979c1.671 2.435 3.486 4.822 5.3 7.114a104.731 104.731 0 005.634 6.446c-.19-6.78.525-14.372 2.197-22.728.047-.143.047-.238.095-.334-.955-1.671-2.006-3.199-3.199-4.536-1.003-1.337-2.149-2.435-3.342-3.485h-.048zM79.499 167.208c-.764-.144-1.576-.334-2.292-.478-9.835-1.671-15.231.908-16.042 7.783-1.194 9.931.81 17.427 6.063 22.441l.144-.143.142-.048c-1.288-2.244-1.337-5.969-.286-11.077l2.1-10.266c1.623-4.536 5.013-7.257 10.17-8.212" fill="#ff0a1c"/><path d="M67.657 197.384l.191-.095-.477-.478-.144.143.43.43z" fill="#ff0a1c"/><path d="M67.514 196.763l-.143.048.477.477c-.095-.143-.239-.334-.334-.525" fill="#ff0a1c"/><path d="M22.012 185.113c-1.91-2.865-3.581-5.825-5.11-8.881l-8.307 15.709c.62 4.727 2.53 9.071 5.826 13.13a42.482 42.482 0 005.299 5.252 47.107 47.107 0 0010.504 6.541c3.534 1.576 7.353 2.722 11.364 3.39-3.63-5.3-5.92-11.793-6.827-19.433-2.34-2.387-4.584-4.822-6.59-7.353a98.816 98.816 0 01-6.16-8.355" fill="#ffa042"/><path d="M102.512 91.148c.717-4.582.717-8.977-.047-13.225-.335 5.108-2.34 7.877-5.97 8.451h-7.59c-3.63-.573-5.634-3.343-5.97-8.451-.762 4.248-.762 8.642-.047 13.225 3.248-.906 6.494-1.288 9.789-1.337 3.342.048 6.589.43 9.835 1.337M92.683 93.531A40.219 40.219 0 0080.777 95.5c2.382 2.562 4.883 4.931 7.594 6.969 1.289-1.623 2.783-3.193 4.312-4.625 1.575 1.432 3.008 3.002 4.344 4.625 2.699-2.029 5.192-4.389 7.562-6.938-.679-.234-1.348-.468-2.062-.656a40.406 40.406 0 00-9.844-1.344zM58.34 96.906c7.136 13.386 5.93 19.201-3.656 17.532a113.196 113.196 0 0016.594 4.718c-4.376-6.239-8.682-13.622-12.938-22.25zm68.719 0c-4.251 8.618-8.56 15.985-12.937 22.219 5.525-1.136 11.079-2.654 16.625-4.687-9.635 1.669-10.872-4.146-3.688-17.532z" fill="#a30714"/><path d="M92.677 134.979c-6.732 0-13.942-.621-21.486-1.958-14.515-2.339-23.014-7.209-25.497-14.658.62 7.926 5.73 13.083 15.47 15.566 10.552 2.817 21.056 4.249 31.513 4.249 10.504 0 20.96-1.432 31.56-4.249 9.74-2.483 14.801-7.64 15.422-15.566-2.435 7.449-10.934 12.319-25.449 14.658-7.592 1.337-14.802 1.958-21.533 1.958" fill="#af512f"/><path d="M36.383 140.47c.048-.286.096-.621.144-.955l-11.269 17.189a31.652 31.652 0 015.97 3.963c2.338-6.732 4.057-13.417 5.155-20.197" fill="#a30714"/><path d="M45.55 152.025c.24-5.729-.43-10.457-1.861-14.133-1.48-3.676-3.772-6.255-6.876-7.878-6.875-3.533-15.756-1.623-26.5 5.825l-1.67 4.154c6.637-5.634 13.274-8.356 19.958-8.451 6.684 0 11.03 3.438 12.939 10.265 1.958 6.876 1.719 17.284-.763 31.274-3.725 20.77-2.054 36.526 4.87 47.269-6.494-11.936-7.353-28.218-2.58-48.94 1.434-6.589 2.293-13.082 2.484-19.385" fill="#a30714"/><path d="M30.081 163.866h.048a29.948 29.948 0 00-4.823-3.342l-8.164 10.886a160.948 160.948 0 006.302 9.979l6.637-17.523zM82.077 159.139v-.143c.096-.191.143-.335.239-.43.334-.382.907-.239 1.766.382.86.621 1.433 1.815 1.576 3.39.478 4.393 2.817 6.732 7.019 7.019 4.2-.287 6.589-2.626 7.067-7.019.142-1.575.667-2.769 1.575-3.39.811-.621 1.432-.764 1.766-.382.096.095.144.239.192.43l.048.143c.381 1.528.381 3.008-.144 4.393 2.77-.048 4.727-.86 6.016-2.579 1.194-1.527 1.432-3.294.669-5.299-.669-1.624-1.671-2.674-3.056-3.056 1.289 1.05 1.909 2.387 1.767 4.106-.144 1.814-1.051 2.865-2.722 3.342.573-2.626-.192-3.963-2.292-4.154-2.101-.143-3.677 1.528-4.68 5.109a13.555 13.555 0 01-1.91 4.345c-1.05 1.337-2.481 2.005-4.296 2.005-1.815 0-3.2-.668-4.25-2.005-.86-1.146-1.48-2.578-1.91-4.345-1.002-3.581-2.626-5.252-4.68-5.109-2.147.191-2.864 1.528-2.29 4.154-1.672-.477-2.58-1.528-2.722-3.342-.144-1.719.478-3.056 1.719-4.106-1.337.382-2.34 1.432-3.008 3.056-.764 2.005-.573 3.772.668 5.299 1.242 1.719 3.247 2.531 6.016 2.579-.525-1.385-.573-2.865-.143-4.393M71.955 190.747c-.048-.095-.048-.239-.048-.286l-.143-.191v.238c-.334 9.359 6.637 16.616 20.913 21.868 14.276-5.252 21.247-12.509 20.912-21.868v-.238l-.094.191c-.048.047-.048.191-.096.286-.955 4.536-3.486 8.356-7.64 11.507-3.533 2.626-7.926 4.536-13.082 5.73-5.157-1.194-9.55-3.104-13.083-5.73-4.154-3.151-6.684-6.971-7.64-11.507M67.562 176.232c-.048.191-.048.382-.096.478l-2.387 11.888c-.191 3.247.525 5.968 2.101 7.974l.191.239.477.477c-1.576-2.196-1.766-6.016-.62-11.602l2.101-10.266c1.623-4.536 5.013-7.257 10.17-8.212-6.972.286-10.982 3.295-11.937 9.024M75.727 151.882c-12.32 4.345-18.86.668-19.671-11.077-.574 8.26 1.48 13.512 6.015 15.756 4.727 2.292 9.263.716 13.656-4.679" fill="#a30714"/><path d="M22.012 185.113c-1.91-2.865-3.581-5.825-5.11-8.881l-8.307 15.709c.62 4.727 2.53 9.071 5.826 13.13l7.59-19.958z" fill="#af512f"/><path d="M176.758 139.993l-1.671-4.154c-10.791-7.448-19.624-9.358-26.547-5.825-3.103 1.624-5.347 4.202-6.828 7.878-1.433 3.677-2.1 8.404-1.91 14.133.191 6.303 1.051 12.796 2.483 19.385 4.823 20.722 3.915 37.004-2.531 48.94 6.924-10.743 8.547-26.499 4.87-47.269-2.482-13.989-2.72-24.398-.811-31.274 1.958-6.827 6.302-10.265 12.987-10.265 6.685.096 13.321 2.817 19.958 8.451" fill="#a30714"/><path d="M168.45 176.232a90.399 90.399 0 01-5.062 8.881l7.544 19.958c3.295-4.059 5.252-8.403 5.873-13.131l-8.355-15.708z" fill="#af512f"/><path d="M161.956 181.389c2.148-3.199 4.298-6.542 6.303-9.979l-8.212-10.886c-1.672.954-3.295 2.053-4.776 3.342h.048l6.637 17.523zM148.874 139.516c.048.334.048.668.143.955a115.004 115.004 0 005.157 20.196c1.719-1.48 3.723-2.817 5.968-3.963l-11.268-17.188zM117.887 176.71c0-.096 0-.287-.096-.478-.955-5.729-4.918-8.737-11.936-9.023 5.204.954 8.594 3.676 10.218 8.212l2.052 10.265c1.195 5.587.955 9.406-.573 11.603.144-.191.335-.335.478-.478l.191-.239c1.575-2.005 2.292-4.727 2.053-7.973l-2.387-11.889zM123.329 156.561c4.536-2.244 6.59-7.496 6.017-15.756-.812 11.745-7.401 15.422-19.72 11.077 4.44 5.395 8.976 6.971 13.703 4.679" fill="#a30714"/><path d="M104.136 64.65c3.485-.097 7.066.715 10.743 2.434-.239-.143-.477-.287-.669-.382a37.96 37.96 0 00-11.22-4.44c-1.385-.239-2.769-.478-4.202-.669 6.207 8.212 8.786 17.19 7.783 27.024 2.148-7.83 1.336-15.803-2.435-23.968M96.448 63.408c-.43-.668-.907-1.337-1.337-1.958-.81 0-1.67.048-2.434.096a39.74 39.74 0 00-2.388-.096c-.43.62-.907 1.29-1.385 1.958h7.544zM71.19 66.702a3.042 3.042 0 00-.668.382c3.676-1.719 7.21-2.53 10.743-2.435-3.82 8.165-4.584 16.138-2.435 23.97-1.05-9.837 1.576-18.813 7.735-27.026-1.385.192-2.817.43-4.154.67-3.916.858-7.64 2.291-11.22 4.44M82.888 59.636c1.337-3.82 4.632-5.586 9.79-5.491 5.155-.095 8.45 1.67 9.834 5.49-1.384-4.057-4.679-6.445-9.835-7.304-5.157.859-8.452 3.247-9.789 7.305M51.152 87.906c-3.644 6.05-6.908 12.931-9.75 20.906 1.623.765 3.252 1.583 4.875 2.25.69-8.293 2.737-15.748 5.844-22.53a6.761 6.761 0 00-.97-.626zm83.062 0c-.321.18-.634.359-.968.625 3.098 6.783 5.153 14.238 5.875 22.531 1.575-.668 3.251-1.485 4.875-2.25-2.843-7.975-6.135-14.857-9.782-20.906zM74.58 149.16c2.723-.907 5.444-2.292 8.213-4.297-10.122 3.438-18.764 1.958-25.926-4.44 3.342 6.159 9.263 9.071 17.714 8.737" fill="#ffa042"/><path d="M92.677 148.158c-2.674-2.34-4.823-2.77-6.446-1.098-.621.573-.955 1.384-.955 2.291.047 1.003.478 2.006 1.289 3.009 1.624 2.196 2.435 4.44 2.34 6.684.525-1.958.429-4.345-.24-7.162-.381-1.48-.19-2.483.478-3.103.764-.717 1.91-.478 3.534.668 1.623-1.146 2.769-1.385 3.58-.668.62.62.813 1.623.43 3.103-.62 2.817-.764 5.204-.191 7.162-.095-2.244.62-4.488 2.292-6.684.86-1.003 1.289-2.006 1.289-3.009 0-.907-.334-1.718-.907-2.291-1.671-1.672-3.82-1.242-6.493 1.098M35.858 116.024c2.053-.144 3.247.668 3.628 2.435 1.051 3.104 2.388 5.777 4.011 7.83-1.193-2.769-1.91-5.968-2.1-9.692 0-.86-.048-1.719 0-2.626-10.648-.239-18.526 2.244-23.635 7.496 5.921-3.772 11.937-5.587 18.096-5.443" fill="#f83645"/><path d="M36.527 139.516c-.048.334-.096.668-.144.955.908 6.302.239 13.989-1.957 23.3 1.146 1.289 2.149 2.674 2.96 4.249 2.006-11.888 2.197-20.483.382-25.83a13.756 13.756 0 00-1.241-2.674M46.792 136.269l8.642.478c-2.053-.669-3.867-1.528-5.491-2.579-2.769-.382-5.299-1.384-7.448-3.055 5.443 8.164 6.494 22.392 3.151 42.589l.144.096c4.631-16.95 5.013-29.46 1.002-37.529M36.575 172.222c.047-.143.047-.239.095-.334-.955-1.671-2.005-3.199-3.2-4.536-.19.668-.333 1.289-.524 2.005-1.91 7.019-3.294 13.322-4.202 19.146a105.07 105.07 0 005.634 6.446c-.191-6.78.526-14.372 2.197-22.727M64.029 172.603c0-.095.047-.191.095-.286 1.48-4.107 5.778-5.921 13.083-5.587-9.836-1.671-15.231.908-16.043 7.783-1.194 10.265.955 17.905 6.493 22.87l.19-.095-.476-.477-.191-.239c-2.244-2.674-3.724-6.207-4.345-10.409-.716-4.727-.334-9.12 1.146-13.369.048-.095.048-.191.048-.191M74.438 188.456c-.668-.955-1.098-2.101-1.337-3.39.478 5.443 3.485 8.594 9.263 9.501l.668.096c.19 0 .382 0 .573.095.287.048.525.048.812.048h3.15c.24 3.772.956 6.255 2.34 7.401-.62-.955-.906-2.292-.86-4.059v-5.395c-1.48-.047-3.007-.095-4.63-.095h-.334c-4.728-.239-7.974-1.672-9.645-4.202" fill="#ffa042"/><path d="M92.677 125.335c-14.754.047-30.415-3.151-46.983-9.645 9.645 7.114 25.258 11.125 46.983 12.032 21.725-.907 37.385-4.918 47.029-12.032-16.567 6.494-32.228 9.692-47.03 9.645M30.224 216.864c3.533 1.576 7.353 2.722 11.364 3.39-3.629-5.3-5.92-11.793-6.828-19.432-2.34-2.388-4.584-4.823-6.589-7.354-1.003 9.693-.286 17.476 2.053 23.396" fill="#fffcab"/><path d="M145.913 118.459c.383-1.767 1.576-2.579 3.629-2.435 6.111-.144 12.128 1.671 18.049 5.443-5.062-5.252-12.94-7.735-23.587-7.496.048.907 0 1.766-.048 2.626-.144 3.724-.859 6.923-2.053 9.692 1.623-2.053 2.96-4.726 4.01-7.83" fill="#f83645"/><path d="M129.966 136.746l8.643-.478c-4.011 8.07-3.677 20.579 1.003 37.529l.142-.095c-3.342-20.197-2.291-34.425 3.151-42.59-2.196 1.671-4.726 2.674-7.448 3.056a25.21 25.21 0 01-5.491 2.578M148.874 139.516c-.525.812-.907 1.671-1.289 2.674-1.767 5.347-1.624 13.942.382 25.83a22.686 22.686 0 013.008-4.249c-2.245-9.311-2.865-16.998-1.958-23.3-.095-.287-.095-.621-.143-.955M102.607 144.863c2.77 2.005 5.491 3.39 8.213 4.297 8.451.335 14.371-2.578 17.666-8.737-7.162 6.398-15.757 7.878-25.879 4.44M121.372 172.603s0 .096.048.191c1.479 4.249 1.814 8.642 1.145 13.369-.62 4.202-2.1 7.735-4.344 10.409l-.192.239c-.142.143-.334.286-.477.477l.143.095c5.587-4.965 7.736-12.605 6.494-22.87-.812-6.875-6.16-9.454-16.043-7.783 7.353-.334 11.65 1.48 13.082 5.587.096.095.096.191.144.286M96.305 192.753v5.396c.096 1.766-.238 3.103-.86 4.058 1.385-1.146 2.15-3.629 2.293-7.401h3.199c.334 0 .573 0 .859-.048.192-.095.334-.095.526-.095l.668-.096c5.777-.907 8.833-4.058 9.262-9.501-.19 1.289-.62 2.435-1.289 3.39-1.671 2.53-4.918 3.963-9.644 4.202h-.382c-1.575 0-3.2.048-4.632.095M148.683 171.887c.048.096.048.191.096.334 1.671 8.356 2.435 15.948 2.244 22.728 1.958-2.053 3.771-4.202 5.538-6.446-.812-5.825-2.196-12.128-4.106-19.146-.191-.717-.334-1.337-.573-2.006a29.581 29.581 0 00-3.199 4.536" fill="#ffa042"/><path d="M143.813 220.254a46.374 46.374 0 0011.316-3.39c2.387-5.921 3.104-13.703 2.053-23.396-1.958 2.531-4.201 4.966-6.589 7.353-.907 7.64-3.199 14.133-6.78 19.433" fill="#fffcab"/><path d="M57.808 18.813a76.165 76.165 0 00-2.656 3.093C40.637 38.76 37.199 54.332 44.839 68.656c-8.69 4.918-9.984 12.514-3.968 22.875.477-1.337 1.098-2.497 1.718-3.5 4.918-8.212 11.13-5.954 18.625 6.938 5.921 11.029 11.708 20.542 17.532 28.469.144-1.957.46-3.982.937-5.844.716-2.865 2.012-6.013 3.969-9.594.335-.62 1.011-1.676 2.062-3.156-12.176-9.454-20.828-23.232-25.937-41.375-3.294-11.794-4.76-22.21-4.281-31.282.382-3.914 1.046-7.895 1.906-11.906 0-.143.077-.216.125-.312.095-.382.185-.727.281-1.157zm69.719 0c.144.43.249.774.344 1.156.048.095.029.168.125.312a118.946 118.946 0 011.937 11.907c.43 9.07-1.065 19.487-4.312 31.28-5.108 18.144-13.747 31.922-25.97 41.376 1.051 1.48 1.761 2.535 2.095 3.156 1.958 3.581 3.238 6.729 3.906 9.594.526 1.862.874 3.886.969 5.844 5.826-7.927 11.658-17.439 17.531-28.47 7.496-12.89 13.691-15.149 18.656-6.937.621 1.002 1.193 2.163 1.719 3.5 5.967-10.36 4.624-17.957-3.969-22.875 7.638-14.324 4.171-29.896-10.344-46.75a75.819 75.819 0 00-2.687-3.093zm-34.844 84.593c-3.582 3.677-6.312 7.567-8.031 11.625-.764 1.911-1.244 3.571-1.531 4.907-.43 2.578-.278 4.777.343 6.687.286.859.725 1.705 1.25 2.469 1.29 1.767 2.992 2.791 5.188 3.125.955.144 1.921.218 2.781.219.86 0 1.795-.075 2.75-.219 2.196-.334 3.96-1.358 5.25-3.125.477-.764.932-1.61 1.219-2.469.62-1.91.742-4.108.312-6.687-.238-1.337-.719-2.996-1.531-4.907-1.719-4.058-4.372-7.948-8-11.625zm0 7.032l.031.062c1.91 2.1 3.357 4.317 4.407 6.656 0 .143.077.249.125.344.43 1.099.717 2.049.812 2.812.382 2.34.113 4.254-.937 5.782-.477.716-1.066 1.259-1.782 1.594-.813.239-1.577.42-2.437.468h-.406c-.86-.048-1.674-.23-2.438-.468-.717-.334-1.304-.878-1.781-1.594-1.05-1.528-1.382-3.441-1-5.782.144-.763.445-1.713.875-2.812.048-.095.03-.201.125-.344 1.003-2.339 2.496-4.556 4.406-6.656v-.062z" fill="#ffa042"/><path d="M55.152 21.906C40.637 38.76 37.2 54.332 44.839 68.656c1.098 1.1 3.237 1.627 6.532 1.531-9.55-14.61-8.3-30.71 3.78-48.28zm75.062 0c12.08 17.57 13.363 33.672 3.813 48.282 3.295.094 5.432-.434 6.531-1.532 7.639-14.324 4.17-29.896-10.344-46.75zM51.339 81.594c-3.485-.143-6.41 2.044-8.75 6.437 4.918-8.213 11.13-5.953 18.625 6.938 5.921 11.029 11.708 20.542 17.532 28.469.144-1.959.46-3.982.937-5.844-2.005-1.958-4.672-5.591-8.062-10.844-1.193-1.91-5.054-8.167-11.5-18.719-2.53-4.154-5.44-6.294-8.782-6.437zm82.719 0c-3.39.143-6.251 2.283-8.781 6.437-6.446 10.552-10.29 16.81-11.531 18.719-3.342 5.253-6.041 8.886-8.094 10.844.525 1.862.873 3.886.969 5.844 5.825-7.927 11.658-17.439 17.531-28.47 7.496-12.89 13.691-15.149 18.656-6.937-2.387-4.393-5.36-6.58-8.75-6.437z" fill="#af512f"/><path d="M55.496 32.188c-1.48 14.18.164 28.02 4.843 41.437 2.674 7.592 5.975 14.421 9.938 20.438 4.25 6.54 8.696 11.168 13.375 13.937.335-.62 1.011-1.676 2.062-3.156-12.176-9.454-20.828-23.232-25.937-41.375-3.294-11.794-4.76-22.21-4.281-31.282zm74.437 0c.43 9.072-1.065 19.487-4.312 31.28-5.108 18.144-13.747 31.922-25.97 41.376 1.051 1.48 1.761 2.536 2.095 3.156 4.632-2.769 9.126-7.396 13.375-13.938 3.963-6.016 7.249-12.845 9.875-20.437 4.679-13.417 6.369-27.257 4.937-41.438zM44.839 68.656c-8.689 4.918-9.985 12.514-3.968 22.875-4.49-11.363-.96-18.527 10.5-21.344-3.294.096-5.433-.433-6.532-1.53zm95.719 0c-1.099 1.1-3.236 1.627-6.531 1.531 11.459 2.817 14.987 9.98 10.5 21.344 5.968-10.36 4.625-17.957-3.969-22.875zm-47.875 34.75c-3.582 3.676-6.312 7.567-8.031 11.625-.764 1.91-1.244 3.569-1.531 4.907-.43 2.578-.277 4.776.343 6.687-1.002-6.828 2.057-13.474 9.22-20.063 7.208 6.59 10.267 13.235 9.218 20.063.62-1.911.741-4.11.312-6.687-.239-1.338-.719-2.997-1.531-4.907-1.719-4.058-4.372-7.949-8-11.625zM88.152 117.5c-2.722 5.395-2.402 9.228.844 11.281 1.098.764 2.302 1.14 3.687 1.188 1.385-.048 2.558-.424 3.656-1.188 3.295-2.053 3.533-5.886.907-11.281.43 1.098.717 2.048.812 2.812.382 2.34.113 4.254-.937 5.782-.477.716-1.066 1.259-1.782 1.594-.813.238-1.577.42-2.437.468h-.406c-.86-.048-1.674-.23-2.438-.468-.717-.335-1.303-.878-1.781-1.594-1.05-1.528-1.383-3.443-1-5.782.143-.763.445-1.714.875-2.812z" fill="#fffcab"/></g></svg>