<svg xmlns:vectornator="http://vectornator.io" xmlns="http://www.w3.org/2000/svg" viewBox="0 0 220.19 220.19" fill-rule="evenodd" clip-rule="evenodd" stroke-linecap="round" stroke-linejoin="round"><g vectornator:layerName="Layer 1"><path d="M146.405 53.967c.129-.512.301-.982.431-1.494 6.116-21.733 3.273-33.73-8.486-36.035 1.378 4.355 2.154 8.923 2.368 13.62.432 10.332-1.292 20.707-5.21 30.997.43.299.904.598 1.334.939l9.563-8.027zM162.988 184.572l-8.356-22.03-21.88 18.016-20.03 33.645c20.03-5.423 32.778-15.371 38.248-29.759 2.197 9.265 1.982 17.548-.646 24.806-.301.811-.603 1.58-.947 2.348 9.863-6.191 14.386-15.242 13.611-27.026M84.725 61.055c-3.919-10.29-5.643-20.665-5.212-30.998.172-4.696.991-9.265 2.326-13.62-11.759 2.306-14.602 14.304-8.442 36.036.086.512.301.982.431 1.494l9.562 8.027c.431-.341.904-.64 1.335-.94M65.558 162.541l-8.356 22.031c-.775 11.784 3.79 20.836 13.654 27.026-.344-.769-.646-1.537-.991-2.349-2.627-7.257-2.843-15.54-.646-24.805 5.514 14.389 18.22 24.336 38.248 29.758l-20.028-33.643-21.881-18.018z" fill="#ffa042"/><path d="M129.047 0c3.144 3.928 5.686 8.027 7.623 12.339 2.542 5.55 4.006 11.443 4.481 17.718.861 10.674-.604 21.305-4.351 31.937-.518-.342-.991-.683-1.465-.982-3.23-2.135-6.72-3.843-10.467-4.91-1.076-3.587-3.101-6.276-6.159-8.198-1.809-1.067-3.834-1.75-6.03-2.134-.819-.086-1.68-.17-2.584-.17-3.23.041-6.116.81-8.614 2.304-3.101 1.922-5.126 4.611-6.203 8.198a40.964 40.964 0 00-10.553 4.953c-.43.298-.904.597-1.335.939-3.747-10.632-5.212-21.263-4.393-31.936.344-4.696 1.335-9.265 2.843-13.62C83.864 10.63 86.965 5.124 91.1 0 75.852 8.027 64.438 19.427 56.857 34.284c-.172.171-.215.47-.345.683-4.953 10.887-5.297 20.921-1.163 30.1-4.306 2.99-6.46 7.515-6.416 13.578.172 6.362 2.798 11.955 8.053 16.821 0 .043 0 .043-.043.13a157.842 157.842 0 00-3.876 9.947c-13.223.598-22.397 6.404-27.394 17.505l-7.968 19.683 4.177 2.69a76.848 76.848 0 0110.855-6.874c7.452-3.885 12.706-5.38 15.721-4.441l-13.051 19 2.11 1.323-10.121 12.595 1.982 2.007-8.443 15.755c-.474 3.458.259 7.215 2.283 11.357 2.024 4.184 5.039 8.069 8.916 11.656 9.26 8.452 20.114 12.594 32.605 12.381H65c2.368-.428 4.435-1.068 6.158-1.922.948-.47 1.852-.982 2.541-1.58a1.03 1.03 0 01-.258-.427 11.024 11.024 0 01-.818-1.322l-1.723-3.288c-4.566-9.606-5.212-20.921-1.938-33.943 2.067 9.222 6.72 17.078 14.128 23.696 6.547 5.807 14.688 10.077 24.379 12.809.775.213 1.594.427 2.326.641l.257-.086h.044l.258.086c.775-.214 1.507-.428 2.326-.641 9.691-2.732 17.875-7.002 24.379-12.809 7.409-6.618 12.103-14.474 14.128-23.696 3.834 15.2 2.412 28.051-4.437 38.553-.129.128-.215.299-.301.427 2.111 1.58 4.996 2.776 8.701 3.502h.301c12.449.213 23.302-3.929 32.563-12.381 3.92-3.587 6.934-7.472 8.959-11.656 1.981-4.142 2.757-7.899 2.24-11.357l-8.442-15.755 1.981-2.007-10.166-12.595 2.154-1.323-13.051-19c3.058-.939 8.313.556 15.764 4.441 3.963 2.092 7.581 4.397 10.812 6.874l4.221-2.69-8.011-19.683c-4.997-11.101-14.128-16.907-27.394-17.505a157.25 157.25 0 00-3.877-9.948c-.043-.086-.043-.086-.043-.129 5.212-4.866 7.926-10.46 8.012-16.821.129-6.063-2.024-10.588-6.332-13.577 4.136-9.18 3.748-19.214-1.206-30.1-.086-.214-.172-.513-.301-.684-4.48-8.71-10.295-16.31-17.445-22.671l-2.325-2.006c-2.93-2.477-6.075-4.697-9.52-6.789C132.406 1.793 130.77.897 129.047 0"/><path d="M120.475 60.67c-1.335-.256-2.757-.513-4.135-.64 6.116 7.941 8.744 16.736 7.667 26.3 0 .299-.086.555-.086.811-.173 1.537-.473 3.074-.861 4.654l-.216.683v.043l-.172.683c-.861-.3-1.766-.512-2.671-.768-3.23-.854-6.461-1.24-9.777-1.281-3.317.042-6.547.427-9.778 1.28-.86.257-1.808.47-2.67.769l-.172-.683v-.043l-.216-.683a36.29 36.29 0 01-.818-4.654c-.042-.256-.13-.512-.13-.811-1.075-9.564 1.552-18.359 7.667-26.3-1.378.127-2.799.384-4.133.64a40.385 40.385 0 00-11.157 4.27c-.215.127-.473.341-.646.426-.344.171-.56.342-.818.47-2.326 1.452-4.565 3.202-6.762 5.166-.087.085-.216.171-.302.3a48.997 48.997 0 00-3.92 3.97C69.478 83 63.75 93.204 59.098 106.013c1.637.768 3.231 1.537 4.867 2.178a106.376 106.376 0 008.357 3.33c12.276 4.398 24.55 6.617 36.869 6.788.388-.086.732-.086 1.034 0a2.098 2.098 0 011.033 0c12.32-.171 24.595-2.39 36.871-6.788a114.4 114.4 0 008.4-3.33c1.593-.641 3.229-1.41 4.823-2.178-4.651-12.81-10.38-23.013-17.229-30.74-1.292-1.41-2.584-2.734-3.962-3.972-.086-.128-.215-.214-.302-.299-2.196-1.964-4.437-3.714-6.762-5.166-.259-.128-.475-.299-.775-.47-.216-.085-.475-.299-.647-.426-3.618-2.007-7.322-3.416-11.199-4.27" fill="#ff0a1c"/><path d="M113.971 61.78a29.807 29.807 0 00-1.378-1.878c-.732 0-1.594.042-2.369.042-.775 0-1.594-.042-2.369-.042a29.82 29.82 0 00-1.379 1.878h7.495zM120.001 88.807c.732-4.44.732-8.71-.043-12.852-.904-4.995-2.886-9.692-5.986-14.175h-7.495c-3.058 4.483-5.082 9.18-5.944 14.175-.818 4.142-.818 8.412-.086 12.852a42.039 42.039 0 019.778-1.281c3.316.043 6.546.469 9.776 1.28M110.224 50.978c-5.169.854-8.399 3.203-9.778 7.13 1.379-3.714 4.609-5.464 9.778-5.337 5.169-.127 8.399 1.623 9.777 5.337-1.378-3.927-4.608-6.276-9.777-7.13" fill="#ff0a1c"/><path d="M110.224 52.772c-5.169-.128-8.399 1.623-9.778 5.337a39.285 39.285 0 019.778-.47 39.177 39.177 0 019.777.47c-1.378-3.715-4.608-5.465-9.777-5.337M81.925 136.028c2.714 3.159 6.547 4.013 11.5 2.519-1.42-.769-3.273-1.409-5.513-1.964-2.326-.513-4.307-.726-5.987-.555" fill="#ff0a1c"/><path d="M93.34 147.982c-4.006.384-7.107-.213-9.476-1.836 2.757.342 5.513.043 8.313-.811 2.67-.854 5.427-2.263 8.141-4.184-10.036 3.33-18.651 1.921-25.758-4.355-.302-.214-.56-.47-.818-.726-.044.384-.044.811-.044 1.153-.559 7.984 1.465 13.108 5.988 15.285 4.695 2.263 9.217.726 13.654-4.526M102.859 145.506c.043.982.474 1.964 1.249 2.946 1.68 2.135 2.456 4.312 2.326 6.533-1.464-3.331-3.704-5.38-6.805-6.234-1.336-.342-2.542-.342-3.49-.086-1.335.384-2.368 1.366-3.014 2.989-.776 1.921-.56 3.672.646 5.166 1.292 1.665 3.273 2.477 6.03 2.519-.56-1.323-.56-2.775-.172-4.269l.042-.128c.044-.214.13-.342.216-.47.345-.341.905-.214 1.723.384.904.641 1.421 1.751 1.637 3.331.43 4.269 2.8 6.532 6.978 6.788 4.22-.256 6.546-2.519 7.019-6.788.173-1.58.69-2.69 1.594-3.331.818-.598 1.422-.725 1.723-.384.087.128.172.256.215.47l.043.128c.388 1.494.388 2.946-.171 4.269 2.756-.042 4.737-.854 6.03-2.519 1.206-1.494 1.421-3.245.645-5.166-.645-1.623-1.636-2.605-3.014-2.989-.949-.256-2.111-.256-3.49.086-3.101.854-5.339 2.903-6.804 6.234-.129-2.221.646-4.398 2.325-6.533.775-.982 1.206-1.964 1.292-2.946 0-.897-.388-1.666-.947-2.22-1.636-1.58-3.79-1.238-6.46 1.067-2.671-2.305-4.824-2.647-6.418-1.067-.603.554-.948 1.323-.948 2.22" fill="#ff0a1c"/><path d="M78.781 130.477c10.553 2.775 21.02 4.099 31.443 4.099 10.424 0 20.891-1.324 31.443-4.099 9.691-2.434 14.774-7.429 15.377-15.157.129-.299.129-.726.129-1.281-.086-.598-.086-1.024-.086-1.281-16.54 6.234-32.132 9.393-46.863 9.351-14.73.042-30.323-3.117-46.862-9.351 0 .257 0 .683-.043 1.281-.043.555 0 .982.086 1.281.603 7.728 5.729 12.723 15.376 15.157" fill="#e9a043"/><path d="M38.595 118.992c.861-.427 1.68-.555 2.325-.47.69.128.991.47.991 1.068 0 .597-.302 1.238-.99 1.921-.646.726-1.465 1.281-2.326 1.708-.947.427-1.723.555-2.37.427-.645-.129-.99-.427-.99-1.025 0-.598.345-1.238.99-1.964a7.373 7.373 0 012.37-1.665m20.545-5.38c-.043-.854-.086-1.708-.043-2.562-10.639-.213-18.434 2.178-23.517 7.259-2.025 1.964-3.618 4.397-4.738 7.258l-4.351 10.802c6.548-5.465 13.18-8.112 19.856-8.198 6.677-.042 10.984 3.331 12.922 9.991 1.938 6.704 1.68 16.865-.818 30.441-3.66 20.239-2.024 35.566 4.91 46.027 0 .043-.215-2.092-.603-6.319-3.489-6.618-3.489-18.274-.129-35.053l.172-.897c.215-.982.388-1.922.603-2.818 0-.086 0-.171.086-.171l-.129-.171.172.043c4.566-16.437 4.911-28.606.905-36.461l8.614.469c-1.981-.64-3.833-1.494-5.427-2.519-2.885-1.921-4.996-4.44-6.418-7.642-1.206-2.733-1.938-5.85-2.067-9.479" fill="#ff0a1c"/><path d="M63.49 169.372c0-.042 0-.042.044-.128l-.172-.042.129.17zM55.522 138.547c-.129-.256-.215-.555-.344-.854a9.652 9.652 0 00-.948-1.75l-11.199 16.735c2.24 1.11 4.178 2.391 5.901 3.886 1.25.896 2.283 1.921 3.231 2.988.473.513.904 1.11 1.378 1.708.56.768 1.12 1.537 1.55 2.391 2.025-11.528 2.197-19.939.431-25.104M52.636 164.804c-.474-.598-.948-1.195-1.378-1.793-1.034-1.238-2.197-2.349-3.403-3.373-1.508-1.238-3.1-2.263-4.781-3.245l-8.14 10.589a130.62 130.62 0 006.288 9.734 119.058 119.058 0 005.298 6.96c1.12 1.281 2.24 2.604 3.402 3.885.69.811 1.422 1.622 2.197 2.348-.172-6.575.517-13.961 2.197-22.159.043-.085.043-.171.086-.256-.517-.94-1.163-1.878-1.766-2.69M97.087 162.926c-.775-.171-1.593-.342-2.24-.47-9.906-1.622-15.204.897-16.023 7.556-1.206 9.692.82 17.036 6.031 21.861l.086-.128.215-.043c-1.292-2.22-1.379-5.807-.301-10.802l2.11-10.034c1.594-4.397 4.954-7.044 10.122-7.94" fill="#ff0a1c"/><path d="M85.458 192.215c-.086-.171-.215-.342-.302-.513l-.215.043c.215.128.388.256.517.47" fill="#ff0a1c"/><path d="M85.458 192.215c-.13-.214-.302-.342-.517-.47l-.086.128c.086.128.3.342.474.427l.129-.085zM90.626 179.491v-.299l-1.25 6.191.13.171v.042h-.13c-.343 9.138 6.634 16.225 20.849 21.349 14.213-5.124 21.19-12.211 20.846-21.349h-.13v-.042l.13-.171-1.25-6.191v.299c-.086.299-.086.555-.086.811-.214 1.238-.645 2.349-1.292 3.331-1.722 2.433-4.91 3.799-9.648 4.056h-.302c-1.637.042-3.186.042-4.65.085V193.068c.043 1.708-.259 3.032-.862 3.928-.043.128-.086.214-.258.342-.259.384-.647.64-1.077.854-.431.171-.862.256-1.421.427-.517-.171-.991-.256-1.379-.427-.474-.214-.861-.47-1.12-.854-.129-.128-.215-.214-.258-.342-.603-.896-.904-2.22-.862-3.928v-5.294c-1.421-.043-3.015-.043-4.651-.085h-.302c-4.738-.257-7.925-1.623-9.65-4.056-.645-.982-1.032-2.093-1.248-3.331-.043-.256-.043-.512-.13-.811" fill="#ff0a1c"/><path d="M89.506 185.554l-.129-.171v.213h.13v-.042zM130.942 185.597h.13v-.213l-.13.171v.042zM110.224 178.723h-10.036l2.67 4.398H117.632l2.628-4.398h-10.036zM97.733 169.073l-3.317 5.764h31.616l-3.317-5.764H97.733z" fill="#ff0a1c"/><path d="M34.718 171.721l-8.356 15.328c.646 4.526 2.584 8.794 5.901 12.722 1.421 1.793 3.23 3.501 5.255 5.124a45.923 45.923 0 0010.467 6.361 40.06 40.06 0 007.02 2.434c1.422.342 2.886.64 4.265.854-3.618-5.124-5.858-11.443-6.763-18.914-.732-.641-1.378-1.324-2.067-2.05-1.594-1.621-3.058-3.372-4.523-5.122a77.143 77.143 0 01-6.116-8.112 87.003 87.003 0 01-5.083-8.625" fill="#e9a043"/><path d="M179.528 118.522c.688-.085 1.464.042 2.326.47a7.342 7.342 0 012.368 1.665c.647.725.992 1.366.992 1.964 0 .597-.345.896-.992 1.025-.645.127-1.421 0-2.368-.428a8.13 8.13 0 01-2.326-1.707c-.689-.683-.991-1.324-.991-1.922 0-.597.302-.939.991-1.067m10.079 7.045c-1.12-2.861-2.714-5.295-4.738-7.258-5.083-5.08-12.879-7.472-23.518-7.258.043.854 0 1.708-.043 2.562-.13 3.629-.862 6.745-2.068 9.477-1.378 3.203-3.531 5.722-6.417 7.643-1.594 1.025-3.403 1.878-5.428 2.519l8.614-.47c-4.005 7.856-3.661 20.025.949 36.463l.129-.043-.129.171c.086 0 .086.085.086.17.215.897.43 1.836.602 2.818l.216.897c3.316 16.779 3.316 28.435-.172 35.053-.388 4.227-.603 6.361-.603 6.318 6.977-10.46 8.571-25.788 4.91-46.025-2.498-13.577-2.757-23.739-.819-30.442 1.939-6.661 6.246-10.034 12.922-9.991 6.677.085 13.31 2.733 19.858 8.198l-4.351-10.802z" fill="#ff0a1c"/><path d="M156.958 169.244v.128l.129-.17-.129.042zM179.269 176.716a145.641 145.641 0 006.246-9.734l-8.142-10.589c-1.679.982-3.273 2.007-4.78 3.245-1.206 1.024-2.369 2.135-3.36 3.373-.431.598-.947 1.195-1.378 1.793a19.603 19.603 0 00-1.81 2.69c.043.085.043.171.087.256 1.68 8.197 2.368 15.584 2.24 22.159a37.964 37.964 0 002.153-2.348c1.163-1.281 2.283-2.604 3.403-3.886a141.851 141.851 0 005.341-6.959" fill="#ff0a1c"/><path d="M185.73 171.721a87.16 87.16 0 01-5.039 8.625 84.213 84.213 0 01-6.16 8.112c-1.421 1.75-2.929 3.501-4.523 5.122-.689.726-1.335 1.409-2.067 2.05-.904 7.471-3.145 13.79-6.763 18.914a47.105 47.105 0 004.265-.854 40.08 40.08 0 007.02-2.434 45.924 45.924 0 0010.467-6.361c2.025-1.623 3.834-3.331 5.298-5.124 3.317-3.928 5.255-8.196 5.858-12.722l-8.356-15.328z" fill="#e9a043"/><path d="M146.749 137.223c0-.341 0-.769-.043-1.153-.258.257-.517.512-.818.726-7.107 6.277-15.722 7.685-25.757 4.355 2.713 1.922 5.47 3.33 8.14 4.184 2.8.854 5.556 1.153 8.313.811-2.326 1.623-5.47 2.221-9.476 1.836 4.437 5.252 8.959 6.789 13.655 4.526 4.522-2.177 6.547-7.301 5.986-15.285M165.27 137.693c-.129.299-.215.598-.344.854-1.766 5.165-1.593 13.576.431 25.104.431-.854.99-1.623 1.594-2.391.43-.598.904-1.195 1.378-1.708.947-1.067 1.981-2.092 3.187-2.988 1.723-1.495 3.661-2.776 5.901-3.886l-11.199-16.735c-.344.512-.646 1.109-.948 1.75" fill="#ff0a1c"/><path d="M138.523 136.028c-1.68-.171-3.661.042-5.987.555-2.24.555-4.092 1.195-5.513 1.964 4.953 1.494 8.786.64 11.5-2.519M125.644 162.456c-.689.128-1.508.299-2.283.47 5.169.896 8.529 3.543 10.123 7.941l2.153 10.034c1.033 4.994.947 8.58-.302 10.801l.173.043.129-.214.172.171c5.083-4.868 7.022-12.082 5.815-21.689-.775-6.661-6.116-9.18-15.98-7.557M134.99 192.215c.173-.214.345-.342.518-.47l-.173-.043c-.129.171-.215.342-.345.513" fill="#ff0a1c"/><path d="M135.508 191.745a2.563 2.563 0 00-.518.47l.173.085c.172-.085.345-.299.474-.427l.172-.171-.172-.17-.129.213z" fill="#ff0a1c"/><path d="M113.971 61.78a29.807 29.807 0 00-1.378-1.878c-.732 0-1.594.042-2.369.042-.775 0-1.594-.042-2.369-.042a29.82 29.82 0 00-1.379 1.878h7.495zM132.321 65.367c-.216-.085-.475-.3-.646-.427-3.619-2.007-7.323-3.416-11.2-4.27-1.335-.256-2.757-.512-4.134-.64 6.116 7.94 8.744 16.736 7.667 26.3 2.196-7.6 1.377-15.37-2.37-23.311 3.533-.086 7.022.683 10.683 2.348M156.527 108.19c1.594-.641 3.23-1.409 4.824-2.178-4.652-12.808-10.381-23.013-17.229-30.74 7.107 9.094 11.242 20.11 12.405 32.918M194.086 187.048l-8.356-15.327a87.073 87.073 0 01-5.04 8.624 83.916 83.916 0 01-6.159 8.112c-1.421 1.751-2.928 3.501-4.522 5.124-.646 8.624-2.153 15.327-4.566 20.11a40.147 40.147 0 007.021-2.435 45.904 45.904 0 0010.466-6.361c2.024-1.622 3.834-3.33 5.298-5.123 3.317-3.929 5.254-8.198 5.858-12.724" fill="#ffa042"/><path d="M165.443 213.69c2.412-4.782 3.92-11.485 4.565-20.109-.689.726-1.335 1.409-2.067 2.049-.904 7.471-3.144 13.79-6.763 18.914a47.452 47.452 0 004.265-.854" fill="#fffcab"/><path d="M165.27 137.693c-.129.299-.215.598-.344.854-1.766 5.165-1.593 13.576.431 25.104.431-.854.99-1.623 1.594-2.391-1.896-7.942-2.456-15.797-1.681-23.567M147.395 133.252l8.614-.47c-4.006 7.856-3.661 20.068.949 36.591l.128-.171c-3.316-19.683-2.239-33.473 3.231-41.458a15.79 15.79 0 01-7.494 2.989c-1.594 1.025-3.404 1.878-5.428 2.519M120.13 141.151c2.714 1.921 5.471 3.33 8.142 4.184 8.442.341 14.342-2.519 17.616-8.539-7.107 6.276-15.722 7.685-25.758 4.355" fill="#ffa042"/><path d="M138.523 136.028c-1.68-.171-3.661.042-5.987.555-2.24.555-4.092 1.195-5.513 1.964 4.953 1.494 8.786.64 11.5-2.519M138.824 168.134c0 .042 0 .128.043.213 1.421 4.142 1.809 8.454 1.077 12.98-.56 4.141-2.024 7.6-4.308 10.204l-.128.214a2.563 2.563 0 00-.518.47l.173.085c5.556-4.868 7.71-12.254 6.461-22.288-.776-6.659-6.116-9.178-15.98-7.556 7.28-.342 11.629 1.409 13.05 5.422.044.085.087.213.13.256" fill="#ffa042"/><path d="M134.99 192.215c.173-.214.345-.342.518-.47l-.173-.043c-.129.171-.215.342-.345.513M113.842 187.774V193.068c.043 1.708-.259 3.032-.861 3.928 1.335-1.11 2.11-3.501 2.325-7.173v-.085h3.963c.216-.043.387-.043.56-.043l.689-.128c5.729-.897 8.787-3.971 9.218-9.265-.215 1.238-.646 2.348-1.292 3.33-1.723 2.434-4.911 3.8-9.649 4.057h-.302c-1.636.042-3.187.042-4.651.085M131.072 185.597v-.213l-.13.171v.042h.13zM167.855 164.804a19.756 19.756 0 00-1.81 2.69c.043.085.043.171.087.256 1.68 8.198 2.369 15.584 2.24 22.159a37.964 37.964 0 002.153-2.348c-.086-7.429-.947-14.816-2.498-22.245l-.172-.512zM88.817 64.94c-.215.128-.474.34-.646.427 3.618-1.665 7.15-2.434 10.639-2.348-3.747 7.94-4.566 15.712-2.37 23.312-1.076-9.564 1.552-18.36 7.668-26.301-1.378.128-2.8.384-4.135.64a40.376 40.376 0 00-11.156 4.27M110.224 50.978c-5.169.854-8.399 3.203-9.778 7.13 1.379-3.714 4.609-5.464 9.778-5.337 5.169-.127 8.399 1.623 9.777 5.337-1.378-3.927-4.608-6.276-9.777-7.13M63.964 108.19c1.12-12.809 5.255-23.823 12.405-32.917-6.892 7.727-12.62 17.931-17.272 30.739 1.637.769 3.23 1.537 4.867 2.178M92.177 145.335c2.67-.854 5.427-2.263 8.141-4.184-10.036 3.33-18.651 1.921-25.758-4.355 3.274 6.02 9.175 8.88 17.617 8.539" fill="#ffa042"/><path d="M93.426 138.547c-1.421-.769-3.273-1.409-5.513-1.964-2.326-.513-4.307-.726-5.987-.555 2.713 3.159 6.547 4.013 11.5 2.519M64.438 132.783l8.615.47c-1.982-.641-3.834-1.494-5.427-2.519-2.757-.342-5.298-1.367-7.452-2.989 5.427 7.984 6.504 21.774 3.187 41.457l.13.17c4.609-16.523 4.953-28.734.947-36.589M55.522 138.547c-.129-.256-.215-.555-.344-.854.818 7.77.215 15.625-1.637 23.567.56.768 1.12 1.537 1.55 2.391 2.025-11.528 2.197-19.939.431-25.104M54.316 167.75c.043-.085.043-.171.086-.256-.517-.94-1.163-1.879-1.766-2.69l-.215.512c-1.55 7.429-2.412 14.816-2.499 22.245.69.811 1.422 1.622 2.197 2.348-.172-6.575.517-13.962 2.197-22.159M81.624 168.134c.043-.043.086-.171.13-.256 1.464-4.013 5.771-5.764 13.093-5.422-9.907-1.622-15.204.897-16.023 7.556-1.249 10.034.904 17.42 6.504 22.288l.13-.085c-.13-.214-.302-.342-.518-.47l-.128-.214c-2.284-2.604-3.705-6.063-4.308-10.204-.732-4.526-.344-8.838 1.077-12.98.043-.085.043-.171.043-.213" fill="#ffa042"/><path d="M84.94 191.745c.216.128.389.256.517.47-.085-.171-.214-.342-.301-.513l-.216.043zM92.004 183.633c-.646-.982-1.034-2.092-1.249-3.331.388 5.295 3.446 8.369 9.175 9.266l.689.128c.172 0 .344 0 .56.042h4.006v.086c.172 3.672.947 6.063 2.282 7.173-.603-.897-.904-2.22-.861-3.928v-5.294c-1.421-.043-3.015-.043-4.652-.086h-.302c-4.737-.256-7.925-1.622-9.648-4.056M89.506 185.554l-.129-.171v.213h.13v-.042z" fill="#ffa042"/><path d="M63.361 112.758c9.648 6.874 25.24 10.802 46.863 11.699 21.622-.897 37.258-4.825 46.863-11.699-16.54 6.234-32.133 9.393-46.863 9.351-14.73.042-30.323-3.117-46.863-9.351" fill="#fffcab"/><path d="M34.718 171.721l-8.356 15.328c.646 4.526 2.584 8.794 5.901 12.722 1.421 1.793 3.23 3.501 5.255 5.124a45.923 45.923 0 0010.467 6.361 40.06 40.06 0 007.02 2.434c-2.37-4.782-3.919-11.485-4.565-20.11-1.594-1.621-3.058-3.372-4.523-5.122a77.143 77.143 0 01-6.116-8.112 87.003 87.003 0 01-5.083-8.625" fill="#ffa042"/><path d="M52.507 195.63c-.732-.641-1.378-1.324-2.067-2.049.646 8.624 2.196 15.327 4.566 20.11a53.76 53.76 0 004.264.853c-3.618-5.123-5.858-11.442-6.763-18.914" fill="#fffcab"/><path d="M137.532 6.19c3.618 6.363 5.686 13.963 6.288 22.843.561 8.54-.258 17.377-2.498 26.556-2.24 9.223-5.6 17.677-10.078 25.405-4.608 7.77-10.165 14.046-16.712 18.87a35.795 35.795 0 00-4.308-4.526 35.786 35.786 0 00-4.307 4.526c-6.547-4.824-12.06-11.1-16.713-18.87-4.479-7.728-7.839-16.182-10.079-25.405-2.239-9.179-3.058-18.017-2.498-26.556.603-8.88 2.671-16.48 6.29-22.842-12.32 10.674-20.675 21.434-25.112 32.277-4.221 10.461-4.178 19.555.086 27.155-9.39 6.362-8.916 17.036 1.55 32.192 1.638-7.344 3.705-11.528 6.247-12.638 2.756-1.153 6.201 1.878 10.25 9.18 8.227 16.352 16.712 28.264 25.37 35.821 2.671 1.495 5.6 2.22 8.916 2.135 3.317.085 6.246-.64 8.916-2.135 8.658-7.557 17.142-19.469 25.37-35.822 4.048-7.3 7.494-10.331 10.251-9.178 2.542 1.11 4.609 5.293 6.289 12.637 10.423-15.156 10.897-25.83 1.55-32.192 4.264-7.6 4.264-16.694.043-27.155-4.393-10.844-12.793-21.603-25.111-32.277"/><path d="M145.432 19.277c.861 3.885 1.55 7.728 1.895 11.57.473 8.796-.991 18.957-4.264 30.442-5.083 17.676-13.697 31.125-25.844 40.348 1.033 1.409 1.723 2.476 2.067 3.074 1.939 3.458 3.231 6.575 3.876 9.349a27.58 27.58 0 01.992 5.636c5.814-7.684 11.63-16.949 17.444-27.71 7.538-12.508 13.697-14.772 18.606-6.702a22.48 22.48 0 011.724 3.373c5.943-10.119 4.651-17.506-3.962-22.287 7.623-13.919 4.177-29.118-10.295-45.556-.904-1.025-1.765-1.964-2.67-2.989.129.385.215.726.344 1.111 0 .128.043.17.087.341M73.199 30.848c.344-3.843.991-7.686 1.852-11.571.086-.171.129-.213.129-.341.129-.384.216-.726.345-1.11-.948 1.024-1.809 1.963-2.671 2.988C58.382 37.252 54.936 52.45 62.517 66.37c-8.615 4.782-9.907 12.168-3.92 22.287.517-1.281 1.12-2.391 1.723-3.372 4.91-8.07 11.07-5.807 18.565 6.703 5.857 10.758 11.672 20.023 17.487 27.708.129-1.921.43-3.8.948-5.636.689-2.775 1.98-5.892 3.92-9.35.301-.598 1.033-1.665 2.024-3.074-12.104-9.222-20.718-22.671-25.801-40.347-3.317-11.485-4.738-21.647-4.264-30.441M110.284 107.101c1.896 2.049 3.317 4.27 4.394 6.533 0 .128.085.213.085.341.475 1.025.776 1.964.863 2.732.387 2.264.086 4.142-.948 5.637-.517.683-1.077 1.195-1.766 1.494-.818.256-1.594.47-2.455.47H110.026c-.862 0-1.637-.214-2.412-.47-.689-.299-1.249-.811-1.766-1.494-1.034-1.495-1.335-3.373-.991-5.637.129-.768.431-1.707.862-2.732.043-.128.086-.213.129-.341a23.898 23.898 0 014.393-6.533h.043zm-9.519 9.222c-.431 2.52-.301 4.697.302 6.575.258.812.689 1.623 1.206 2.349 1.292 1.708 3.015 2.732 5.212 2.989.947.213 1.895.256 2.756.299.861-.043 1.853-.086 2.8-.299 2.154-.257 3.877-1.281 5.169-2.989a7.646 7.646 0 001.206-2.349c.646-1.878.775-4.055.345-6.575-.259-1.323-.733-2.903-1.508-4.824-1.766-3.928-4.437-7.686-8.012-11.272-3.575 3.586-6.245 7.344-7.968 11.272-.776 1.921-1.292 3.501-1.508 4.824" fill="#ffa042"/><path d="M157.948 66.904c-1.12 1.067-3.23 1.58-6.504 1.495 11.414 2.775 14.903 9.692 10.467 20.791 5.944-10.118 4.652-17.504-3.963-22.286M147.31 31.381c.474 8.795-.991 18.957-4.265 30.442-5.082 17.676-13.697 31.124-25.843 40.347 1.034 1.409 1.722 2.476 2.067 3.074 4.609-2.733 9.046-7.216 13.267-13.577 3.962-5.892 7.279-12.51 9.907-19.896 4.694-13.107 6.331-26.557 4.867-40.39M69.004 68.398c-3.23.085-5.384-.427-6.504-1.495-8.615 4.783-9.907 12.17-3.92 22.287-4.479-11.1-.99-18.017 10.424-20.792M73.182 31.381c-1.464 13.833.172 27.283 4.824 40.39 2.628 7.386 5.944 14.004 9.907 19.896 4.22 6.361 8.657 10.844 13.309 13.577.301-.598 1.033-1.665 2.024-3.074-12.103-9.223-20.717-22.671-25.8-40.347-3.316-11.485-4.738-21.647-4.264-30.442M100.748 116.858c-.431 2.518-.302 4.695.301 6.574-1.033-6.702 2.025-13.149 9.175-19.554 7.193 6.405 10.251 12.852 9.175 19.554.645-1.879.775-4.056.344-6.574-.258-1.324-.732-2.904-1.507-4.825-1.767-3.928-4.437-7.685-8.012-11.272-3.575 3.587-6.246 7.344-7.969 11.272-.775 1.921-1.292 3.501-1.507 4.825" fill="#fffcab"/><path d="M105.831 122.877c-1.034-1.495-1.335-3.373-.991-5.636.13-.768.431-1.707.862-2.732-2.671 5.294-2.37 8.923.861 10.972 1.12.726 2.283 1.11 3.662 1.153 1.377-.043 2.584-.427 3.661-1.153 3.273-2.049 3.575-5.678.861-10.972.474 1.025.775 1.964.861 2.732.388 2.263.086 4.141-.947 5.636-.517.683-1.077 1.195-1.767 1.494-.818.256-1.592.47-2.455.47H110.009c-.862 0-1.637-.214-2.412-.47-.689-.299-1.249-.811-1.766-1.494" fill="#fffcab"/></g></svg>