<?xml version="1.0" encoding="UTF-8" standalone="no"?> <!-- Created with Vectornator for iOS (http://vectornator.io/) --><!DOCTYPE svg PUBLIC "-//W3C//DTD SVG 1.1//EN" "http://www.w3.org/Graphics/SVG/1.1/DTD/svg11.dtd">
<svg style="fill-rule:evenodd;clip-rule:evenodd;stroke-linecap:round;stroke-linejoin:round;" xmlns:vectornator="http://vectornator.io" xmlns:xlink="http://www.w3.org/1999/xlink" xmlns="http://www.w3.org/2000/svg" xml:space="preserve" version="1.1" viewBox="0 0 127.13 127.13">
<metadata>
<vectornator:setting key="RulersVisible" value="1"/>
<vectornator:setting key="Units" value="Points"/>
<vectornator:setting key="DynamicGuides" value="1"/>
<vectornator:setting key="GuidesVisible" value="1"/>
<vectornator:setting key="CMYKEnabledKey" value="0"/>
<vectornator:setting key="SnapToGuides" value="1"/>
<vectornator:setting key="GridSpacing" value="16"/>
</metadata>
<defs/>
<g id="background" vectornator:layerName="background" visibility="hidden">
<path d="M0+669.077L399.96+669.077L399.96+0L0+0L0+669.077Z" opacity="1" fill="#fffffa"/>
<path d="M0+498.667L399.96+498.667L399.96+322.447L0+322.447L0+498.667Z" opacity="1" fill="#000000"/>
</g>
<g id="logo" vectornator:layerName="logo">
<g opacity="1">
<path d="M127.134+63.557C127.134+45.984+120.938+31.021+108.505+18.629C96.113+6.196+81.15+0+63.577+0C46.004+0+31.021+6.196+18.609+18.629C6.196+31.021+0+45.984+0+63.557C0+81.13+6.196+96.113+18.609+108.525C31.021+120.938+46.004+127.134+63.577+127.134C81.15+127.134+96.113+120.938+108.505+108.525C120.938+96.113+127.134+81.13+127.134+63.557" opacity="1" fill="#ffa042"/>
<path d="M123.887+63.557C123.887+46.901+117.99+32.675+106.214+20.92C94.4589+9.145+80.2339+3.247+63.5769+3.247C46.9009+3.247+32.7149+9.145+20.9399+20.92C9.1649+32.675+3.2669+46.901+3.2669+63.557C3.2669+80.233+9.1649+94.439+20.9399+106.194C32.7149+117.969+46.9009+123.867+63.5769+123.867C80.2339+123.867+94.4589+117.969+106.214+106.194C117.99+94.439+123.887+80.233+123.887+63.557" opacity="1" fill="#000000"/>
<path d="M81.1252+33.2001C81.1862+32.9631+81.2672+32.7451+81.3282+32.5091C84.2152+22.4521+82.8732+16.9011+77.3232+15.8341C77.9742+17.8491+78.3402+19.9631+78.4412+22.1371C78.6452+26.9171+77.8312+31.7181+75.9812+36.4801C76.1852+36.6181+76.4082+36.7561+76.6112+36.9141L81.1252+33.2001Z" opacity="1" fill="#ffa042"/>
<path d="M88.9514+93.6351L85.0074+83.4411L74.6804+91.7781L65.2274+107.346C74.6804+104.837+80.6974+100.234+83.2794+93.5761C84.3164+97.8631+84.2154+101.696+82.9744+105.054C82.8324+105.429+82.6894+105.785+82.5274+106.141C87.1824+103.276+89.3164+99.0881+88.9514+93.6351" opacity="1" fill="#ffa042"/>
<path d="M52.0148+36.4799C50.1648+31.7179+49.3518+26.9169+49.5558+22.1369C49.6368+19.9629+50.0228+17.8499+50.6528+15.8339C45.1028+16.9009+43.7618+22.4529+46.6688+32.5089C46.7088+32.7459+46.8108+32.9629+46.8718+33.1999L51.3848+36.9149C51.5878+36.7559+51.8118+36.6179+52.0148+36.4799" opacity="1" fill="#ffa042"/>
<path d="M42.9689+83.4408L39.0259+93.6348C38.6589+99.0878+40.8139+103.276+45.4689+106.141C45.3069+105.786+45.1639+105.43+45.0019+105.055C43.7619+101.696+43.6599+97.8628+44.6969+93.5758C47.2989+100.234+53.2959+104.837+62.7479+107.346L53.2959+91.7778L42.9689+83.4408Z" opacity="1" fill="#ffa042"/>
<path d="M72.9328+8.2279C74.4158+10.0449+75.6158+11.9419+76.5308+13.9369C77.7298+16.5059+78.4208+19.2319+78.6448+22.1369C79.0508+27.0759+78.3608+31.9949+76.5918+36.9149C76.3478+36.7559+76.1238+36.5979+75.9008+36.4599C74.3758+35.4719+72.7298+34.6819+70.9608+34.1879C70.4528+32.5279+69.4968+31.2839+68.0538+30.3949C67.2008+29.9009+66.2448+29.5849+65.2078+29.4069C64.8218+29.3679+64.4148+29.3279+63.9878+29.3279C62.4638+29.3479+61.1018+29.7029+59.9228+30.3949C58.4588+31.2839+57.5038+32.5279+56.9948+34.1879C55.2268+34.7219+53.5798+35.4719+52.0148+36.4799C51.8118+36.6179+51.5878+36.7559+51.3848+36.9149C49.6168+31.9949+48.9248+27.0759+49.3108+22.1369C49.4738+19.9629+49.9418+17.8499+50.6528+15.8339C51.6088+13.1469+53.0718+10.5989+55.0238+8.2279C47.8278+11.9419+42.4408+17.2169+38.8628+24.0919C38.7818+24.1709+38.7608+24.3099+38.6998+24.4089C36.3628+29.4459+36.1998+34.0889+38.1508+38.3369C36.1188+39.7199+35.1018+41.8139+35.1218+44.6199C35.2038+47.5629+36.4438+50.1509+38.9238+52.4029C38.9238+52.4229+38.9238+52.4229+38.9038+52.4629C38.2328+54.0039+37.6228+55.5249+37.0738+57.0659C30.8328+57.3429+26.5028+60.0289+24.1448+65.1659L20.3848+74.2739L22.3568+75.5189C23.9018+74.3729+25.5888+73.3059+27.4788+72.3379C30.9958+70.5399+33.4758+69.8489+34.8988+70.2829L28.7398+79.0749L29.7358+79.6869L24.9578+85.5149L25.8928+86.4439L21.9098+93.7339C21.6858+95.3339+22.0308+97.0729+22.9868+98.9889C23.9418+100.925+25.3648+102.723+27.1948+104.383C31.5648+108.294+36.6878+110.211+42.5828+110.112L42.7048+110.112C43.8228+109.915+44.7988+109.618+45.6118+109.223C46.0588+109.006+46.4858+108.769+46.8108+108.492C46.7698+108.453+46.7088+108.374+46.6888+108.294C46.5468+108.097+46.4048+107.88+46.3028+107.682L45.4898+106.161C43.3348+101.716+43.0298+96.4799+44.5748+90.4549C45.5508+94.7219+47.7458+98.3569+51.2428+101.419C54.3318+104.106+58.1748+106.082+62.7478+107.346C63.1138+107.445+63.4998+107.544+63.8458+107.643L63.9678+107.603L63.9878+107.603L64.1108+107.643C64.4758+107.544+64.8218+107.445+65.2078+107.346C69.7818+106.082+73.6438+104.106+76.7128+101.419C80.2098+98.3569+82.4258+94.7219+83.3808+90.4549C85.1908+97.4879+84.5198+103.435+81.2868+108.294C81.2268+108.354+81.1858+108.433+81.1448+108.492C82.1408+109.223+83.5028+109.776+85.2508+110.112L85.3938+110.112C91.2688+110.211+96.3908+108.294+100.762+104.383C102.612+102.723+104.035+100.925+104.99+98.9889C105.925+97.0729+106.291+95.3339+106.047+93.7339L102.063+86.4439L102.997+85.5149L98.2008+79.6869L99.2168+79.0749L93.0568+70.2829C94.4998+69.8489+96.9808+70.5399+100.497+72.3379C102.368+73.3059+104.076+74.3729+105.6+75.5189L107.592+74.2739L103.811+65.1659C101.453+60.0289+97.1428+57.3429+90.8818+57.0659C90.3328+55.5249+89.7238+54.0039+89.0528+52.4629C89.0328+52.4229+89.0328+52.4229+89.0328+52.4029C91.4928+50.1509+92.7728+47.5629+92.8138+44.6199C92.8738+41.8139+91.8578+39.7199+89.8258+38.3369C91.7768+34.0889+91.5938+29.4459+89.2558+24.4089C89.2148+24.3099+89.1748+24.1709+89.1138+24.0919C86.9988+20.0619+84.2548+16.5449+80.8808+13.6019L79.7838+12.6729C78.4008+11.5269+76.9168+10.4999+75.2898+9.5319C74.5178+9.0579+73.7448+8.6429+72.9328+8.2279" opacity="1" fill="#000000"/>
<path d="M68.8869+36.3016C68.2569+36.1836+67.5859+36.0646+66.9359+36.0056C69.8229+39.6796+71.0629+43.7496+70.5539+48.1756C70.5539+48.3136+70.5139+48.4326+70.5139+48.5506C70.4319+49.2616+70.2899+49.9736+70.1069+50.7046L70.0049+51.0206L70.0049+51.0406L69.9239+51.3566C69.5179+51.2186+69.0899+51.1186+68.6629+51.0006C67.1389+50.6056+65.6149+50.4276+64.0489+50.4076C62.4839+50.4276+60.9589+50.6056+59.4349+51.0006C59.0279+51.1186+58.5809+51.2186+58.1749+51.3566L58.0929+51.0406L58.0929+51.0206L57.9909+50.7046C57.8079+49.9736+57.6869+49.2616+57.6049+48.5506C57.5849+48.4326+57.5439+48.3136+57.5439+48.1756C57.0359+43.7496+58.2759+39.6796+61.1629+36.0056C60.5119+36.0646+59.8419+36.1836+59.2109+36.3016C57.3819+36.6976+55.6339+37.3486+53.9459+38.2776C53.8449+38.3366+53.7219+38.4356+53.6409+38.4746C53.4789+38.5536+53.3769+38.6336+53.2549+38.6926C52.1579+39.3646+51.0999+40.1746+50.0639+41.0826C50.0229+41.1226+49.9619+41.1616+49.9209+41.2206C49.2709+41.7946+48.6609+42.4066+48.0719+43.0586C44.8189+46.6346+42.1159+51.3566+39.9199+57.2826C40.6919+57.6386+41.4449+57.9946+42.2169+58.2906C43.5179+58.8636+44.8389+59.3776+46.1599+59.8316C51.9539+61.8666+57.7469+62.8936+63.5609+62.9726C63.7439+62.9336+63.9069+62.9336+64.0489+62.9726C64.2119+62.9336+64.3539+62.9336+64.5369+62.9726C70.3509+62.8936+76.1449+61.8666+81.9379+59.8316C83.2589+59.3776+84.5799+58.8636+85.9019+58.2906C86.6539+57.9946+87.4259+57.6386+88.1789+57.2826C85.9839+51.3566+83.2799+46.6346+80.0469+43.0586C79.4379+42.4066+78.8269+41.7946+78.1769+41.2206C78.1369+41.1616+78.0749+41.1226+78.0339+41.0826C76.9979+40.1746+75.9409+39.3646+74.8429+38.6926C74.7209+38.6336+74.6189+38.5536+74.4779+38.4746C74.3759+38.4356+74.2539+38.3366+74.1719+38.2776C72.4649+37.3486+70.7169+36.6976+68.8869+36.3016" opacity="1" fill="#ff0a1c"/>
<path d="M65.8176+36.8153C65.6146+36.5193+65.3906+36.2233+65.1676+35.9463C64.8216+35.9463+64.4156+35.9663+64.0486+35.9663C63.6836+35.9663+63.2966+35.9463+62.9316+35.9463C62.7076+36.2233+62.4846+36.5193+62.2806+36.8153L65.8176+36.8153Z" opacity="1" fill="#ff0a1c"/>
<path d="M68.6633+49.3212C69.0093+47.2662+69.0093+45.2912+68.6433+43.3752C68.2163+41.0632+67.2813+38.8902+65.8173+36.8152L62.2803+36.8152C60.8373+38.8902+59.8823+41.0632+59.4753+43.3752C59.0893+45.2912+59.0893+47.2662+59.4343+49.3212C60.9593+48.9462+62.4843+48.7482+64.0493+48.7292C65.6143+48.7482+67.1393+48.9462+68.6633+49.3212" opacity="1" fill="#ff0a1c"/>
<path d="M64.049+31.8173C61.61+32.2123+60.085+33.2983+59.435+35.1163C60.085+33.3983+61.61+32.5883+64.049+32.6473C66.488+32.5883+68.013+33.3983+68.663+35.1163C68.013+33.2983+66.488+32.2123+64.049+31.8173" opacity="1" fill="#ff0a1c"/>
<path d="M64.049+32.6468C61.61+32.5878+60.085+33.3978+59.435+35.1168C60.939+34.8598+62.484+34.7808+64.049+34.8988C65.635+34.7808+67.159+34.8598+68.663+35.1168C68.013+33.3978+66.488+32.5878+64.049+32.6468" opacity="1" fill="#ff0a1c"/>
<path d="M50.6936+71.1722C51.9746+72.6342+53.7836+73.0292+56.1216+72.3382C55.4506+71.9822+54.5766+71.6862+53.5196+71.4292C52.4216+71.1922+51.4866+71.0932+50.6936+71.1722" opacity="1" fill="#ff0a1c"/>
<path d="M56.0808+76.704C54.1898+76.882+52.7268+76.605+51.6088+75.854C52.9098+76.013+54.2108+75.874+55.5318+75.479C56.7918+75.084+58.0928+74.432+59.3738+73.543C54.6378+75.084+50.5718+74.432+47.2178+71.528C47.0758+71.429+46.9538+71.31+46.8308+71.192C46.8108+71.37+46.8108+71.567+46.8108+71.725C46.5468+75.42+47.5018+77.79+49.6368+78.798C51.8518+79.845+53.9868+79.134+56.0808+76.704" opacity="1" fill="#ff0a1c"/>
<path d="M60.573+75.558C60.594+76.013+60.797+76.467+61.163+76.921C61.955+77.909+62.322+78.916+62.26+79.944C61.569+78.403+60.512+77.454+59.049+77.059C58.418+76.901+57.849+76.901+57.402+77.02C56.772+77.198+56.284+77.652+55.979+78.403C55.613+79.292+55.715+80.102+56.284+80.793C56.894+81.564+57.829+81.939+59.13+81.959C58.865+81.347+58.865+80.675+59.049+79.983L59.069+79.924C59.089+79.826+59.13+79.766+59.171+79.707C59.333+79.549+59.597+79.608+59.984+79.885C60.41+80.181+60.655+80.695+60.756+81.426C60.959+83.401+62.077+84.449+64.049+84.567C66.041+84.449+67.139+83.401+67.363+81.426C67.444+80.695+67.688+80.181+68.115+79.885C68.501+79.608+68.785+79.549+68.928+79.707C68.969+79.766+69.009+79.826+69.03+79.924L69.05+79.983C69.233+80.675+69.233+81.347+68.969+81.959C70.27+81.939+71.204+81.564+71.815+80.793C72.384+80.102+72.486+79.292+72.119+78.403C71.815+77.652+71.347+77.198+70.697+77.02C70.249+76.901+69.7+76.901+69.05+77.059C67.586+77.454+66.53+78.403+65.838+79.944C65.778+78.916+66.143+77.909+66.936+76.921C67.302+76.467+67.505+76.013+67.545+75.558C67.545+75.143+67.363+74.787+67.099+74.531C66.326+73.8+65.31+73.958+64.049+75.024C62.789+73.958+61.773+73.8+61.02+74.531C60.736+74.787+60.573+75.143+60.573+75.558" opacity="1" fill="#ff0a1c"/>
<path d="M49.2097+68.6039C54.1897+69.8879+59.1297+70.4999+64.0487+70.4999C68.9687+70.4999+73.9087+69.8879+78.8887+68.6039C83.4617+67.4779+85.8617+65.1659+86.1457+61.5899C86.2067+61.4519+86.2067+61.2539+86.2067+60.9979C86.1667+60.7209+86.1667+60.5229+86.1667+60.4049C78.3607+63.2899+71.0017+64.7509+64.0487+64.7309C57.0967+64.7509+49.7387+63.2899+41.9327+60.4049C41.9327+60.5229+41.9327+60.7209+41.9117+60.9979C41.8917+61.2539+41.9117+61.4519+41.9527+61.5899C42.2367+65.1659+44.6567+67.4779+49.2097+68.6039" opacity="1" fill="#e9a043"/>
<path d="M30.2439+63.2894C30.6499+63.0914+31.0359+63.0324+31.3419+63.0714C31.6669+63.1314+31.8089+63.2894+31.8089+63.5654C31.8089+63.8424+31.6669+64.1384+31.3419+64.4554C31.0359+64.7904+30.6499+65.0474+30.2439+65.2454C29.7969+65.4424+29.4309+65.5014+29.1259+65.4424C28.8209+65.3834+28.6579+65.2454+28.6579+64.9684C28.6579+64.6914+28.8209+64.3954+29.1259+64.0594C29.4309+63.7434+29.7969+63.4864+30.2439+63.2894M39.9399+60.7994C39.9199+60.4044+39.8999+60.0094+39.9199+59.6144C34.8989+59.5154+31.2199+60.6224+28.8209+62.9734C27.8659+63.8814+27.1129+65.0084+26.5849+66.3314L24.5319+71.3304C27.6209+68.8014+30.7519+67.5764+33.9029+67.5374C37.0539+67.5174+39.0859+69.0784+40.0009+72.1604C40.9159+75.2614+40.7939+79.9634+39.6149+86.2464C37.8869+95.6104+38.6599+102.703+41.9319+107.543C41.9319+107.563+41.8309+106.575+41.6479+104.619C40.0009+101.557+40.0009+96.1644+41.5869+88.3994L41.6679+87.9844C41.7699+87.5304+41.8509+87.0954+41.9529+86.6814C41.9529+86.6414+41.9529+86.6014+41.9939+86.6014L41.9319+86.5224L42.0139+86.5424C44.1679+78.9364+44.3309+73.3054+42.4409+69.6704L46.5059+69.8884C45.5709+69.5914+44.6969+69.1964+43.9449+68.7224C42.5829+67.8334+41.5869+66.6674+40.9159+65.1854C40.3469+63.9214+40.0009+62.4794+39.9399+60.7994" opacity="1" fill="#ff0a1c"/>
<path d="M41.9934+86.6019C41.9934+86.5819+41.9934+86.5819+42.0134+86.5419L41.9324+86.5229L41.9934+86.6019Z" opacity="1" fill="#ff0a1c"/>
<path d="M38.2326+72.3378C38.1716+72.2188+38.1306+72.0808+38.0696+71.9428C37.9476+71.6468+37.7856+71.3698+37.6226+71.1328L32.3376+78.8768C33.3946+79.3908+34.3096+79.9838+35.1226+80.6748C35.7116+81.0898+36.1996+81.5638+36.6476+82.0578C36.8706+82.2948+37.0736+82.5718+37.2976+82.8478C37.5616+83.2038+37.8256+83.5598+38.0296+83.9548C38.9846+78.6198+39.0656+74.7288+38.2326+72.3378" opacity="1" fill="#ff0a1c"/>
<path d="M36.8708+84.4877C36.6468+84.2117+36.4238+83.9347+36.2198+83.6577C35.7318+83.0857+35.1838+82.5717+34.6138+82.0977C33.9028+81.5247+33.1508+81.0497+32.3578+80.5957L28.5158+85.4957C29.4508+87.0557+30.4468+88.5777+31.4838+89.9997C32.2768+91.1067+33.1098+92.1737+33.9838+93.2197C34.5128+93.8127+35.0408+94.4257+35.5898+95.0177C35.9148+95.3937+36.2608+95.7687+36.6268+96.1047C36.5458+93.0627+36.8708+89.6447+37.6628+85.8507C37.6838+85.8117+37.6838+85.7717+37.7038+85.7327C37.4598+85.2977+37.1548+84.8627+36.8708+84.4877" opacity="1" fill="#ff0a1c"/>
<path d="M57.8493+83.6185C57.4833+83.5395+57.0973+83.4605+56.7923+83.4015C52.1163+82.6505+49.6163+83.8165+49.2303+86.8985C48.6613+91.3825+49.6163+94.7815+52.0763+97.0135L52.1163+96.9535L52.2183+96.9345C51.6083+95.9075+51.5673+94.2475+52.0763+91.9355L53.0723+87.2935C53.8243+85.2585+55.4103+84.0335+57.8493+83.6185" opacity="1" fill="#ff0a1c"/>
<path d="M52.3605+97.1717C52.3195+97.0927+52.2585+97.0137+52.2185+96.9347L52.1165+96.9537C52.2185+97.0137+52.2995+97.0727+52.3605+97.1717" opacity="1" fill="#ff0a1c"/>
<path d="M52.3605+97.1717C52.2995+97.0727+52.2185+97.0137+52.1165+96.9537L52.0755+97.0137C52.1165+97.0727+52.2185+97.1717+52.2995+97.2107L52.3605+97.1717Z" opacity="1" fill="#ff0a1c"/>
<path d="M54.8+91.284L54.8+91.146L54.211+94.011L54.271+94.09L54.271+94.109L54.211+94.109C54.048+98.337+57.341+101.617+64.049+103.988C70.757+101.617+74.051+98.337+73.888+94.109L73.827+94.109L73.827+94.09L73.888+94.011L73.298+91.146L73.298+91.284C73.258+91.422+73.258+91.541+73.258+91.659C73.156+92.232+72.953+92.746+72.648+93.201C71.835+94.326+70.33+94.959+68.095+95.077L67.952+95.077C67.18+95.097+66.447+95.097+65.757+95.117L65.757+95.808L65.757+96.283L65.757+97.567C65.778+98.357+65.635+98.97+65.35+99.384C65.33+99.444+65.31+99.483+65.228+99.542C65.107+99.72+64.923+99.839+64.72+99.937C64.517+100.016+64.314+100.056+64.049+100.135C63.805+100.056+63.582+100.016+63.399+99.937C63.175+99.839+62.992+99.72+62.87+99.542C62.809+99.483+62.769+99.444+62.748+99.384C62.464+98.97+62.321+98.357+62.342+97.567L62.342+96.283L62.342+95.808L62.342+95.117C61.671+95.097+60.919+95.097+60.146+95.077L60.004+95.077C57.768+94.959+56.263+94.326+55.45+93.201C55.146+92.746+54.963+92.232+54.861+91.659C54.841+91.541+54.841+91.422+54.8+91.284" opacity="1" fill="#ff0a1c"/>
<path d="M54.2712+94.0897L54.2102+94.0107L54.2102+94.1097L54.2712+94.1097L54.2712+94.0897Z" opacity="1" fill="#ff0a1c"/>
<path d="M73.8273+94.1092L73.8883+94.1092L73.8883+94.0102L73.8273+94.0892L73.8273+94.1092Z" opacity="1" fill="#ff0a1c"/>
<path d="M64.049+90.9286L59.313+90.9286L60.573+92.9636L64.049+92.9636L67.545+92.9636L68.785+90.9286L64.049+90.9286Z" opacity="1" fill="#ff0a1c"/>
<path d="M58.154+86.4637L56.589+89.1307L71.51+89.1307L69.945+86.4637L58.154+86.4637Z" opacity="1" fill="#ff0a1c"/>
<path d="M28.4143+87.6883L24.4703+94.7813C24.7753+96.8753+25.6903+98.8513+27.2553+100.668C27.9263+101.498+28.7803+102.288+29.7353+103.039C31.2603+104.244+32.8863+105.212+34.6753+105.982C35.7323+106.457+36.8503+106.832+37.9883+107.109C38.6593+107.267+39.3513+107.405+40.0013+107.504C38.2933+105.133+37.2363+102.209+36.8103+98.7513C36.4643+98.4563+36.1593+98.1393+35.8333+97.8033C35.0813+97.0533+34.3913+96.2433+33.6993+95.4333C32.6423+94.2283+31.6663+92.9633+30.8123+91.6793C29.9383+90.3953+29.1253+89.0513+28.4143+87.6883" opacity="1" fill="#e9a043"/>
<path d="M96.757+63.0716C97.082+63.0326+97.448+63.0916+97.855+63.2896C98.302+63.4866+98.668+63.7436+98.973+64.0596C99.278+64.3956+99.441+64.6916+99.441+64.9686C99.441+65.2446+99.278+65.3836+98.973+65.4426C98.668+65.5016+98.302+65.4426+97.855+65.2446C97.448+65.0476+97.082+64.7906+96.757+64.4546C96.432+64.1386+96.289+63.8426+96.289+63.5656C96.289+63.2896+96.432+63.1316+96.757+63.0716M101.514+66.3316C100.986+65.0086+100.233+63.8816+99.278+62.9726C96.879+60.6216+93.199+59.5156+88.179+59.6146C88.198+60.0096+88.179+60.4046+88.158+60.7996C88.097+62.4796+87.751+63.9216+87.183+65.1856C86.532+66.6676+85.516+67.8336+84.153+68.7216C83.402+69.1966+82.548+69.5916+81.592+69.8876L85.657+69.6706C83.768+73.3056+83.93+78.9366+86.105+86.5426L86.166+86.5226L86.105+86.6016C86.146+86.6016+86.146+86.6416+86.146+86.6806C86.247+87.0956+86.349+87.5296+86.43+87.9846L86.532+88.3996C88.097+96.1636+88.097+101.558+86.45+104.62C86.268+106.576+86.166+107.564+86.166+107.544C89.459+102.704+90.211+95.6106+88.484+86.2456C87.305+79.9636+87.183+75.2616+88.097+72.1596C89.012+69.0776+91.045+67.5166+94.195+67.5366C97.347+67.5766+100.477+68.8006+103.567+71.3296L101.514+66.3316Z" opacity="1" fill="#ff0a1c"/>
<path d="M86.1047+86.5424L86.1047+86.6024L86.1667+86.5224L86.1047+86.5424Z" opacity="1" fill="#ff0a1c"/>
<path d="M96.635+89.9999C97.652+88.5779+98.648+87.0559+99.582+85.4959L95.74+80.5959C94.948+81.0499+94.196+81.5239+93.485+82.0979C92.915+82.5719+92.366+83.0849+91.899+83.6579C91.696+83.9349+91.451+84.2109+91.248+84.4879C90.944+84.8629+90.638+85.2979+90.395+85.7319C90.414+85.7719+90.414+85.8119+90.435+85.8509C91.228+89.6449+91.553+93.0629+91.492+96.1049C91.837+95.7689+92.183+95.3939+92.508+95.0179C93.057+94.4249+93.586+93.8129+94.114+93.2199C94.989+92.1729+95.822+91.1059+96.635+89.9999" opacity="1" fill="#ff0a1c"/>
<path d="M99.6838+87.6883C98.9728+89.0513+98.1798+90.3953+97.3058+91.6793C96.4318+92.9633+95.4558+94.2283+94.3988+95.4333C93.7278+96.2433+93.0168+97.0533+92.2648+97.8033C91.9398+98.1393+91.6338+98.4563+91.2878+98.7513C90.8618+102.209+89.8048+105.133+88.0968+107.504C88.7678+107.405+89.4588+107.267+90.1098+107.109C91.2478+106.832+92.3668+106.457+93.4228+105.982C95.2118+105.212+96.8378+104.244+98.3628+103.039C99.3188+102.288+100.172+101.498+100.864+100.668C102.429+98.8513+103.343+96.8753+103.628+94.7813L99.6838+87.6883Z" opacity="1" fill="#e9a043"/>
<path d="M81.2873+71.725C81.2873+71.567+81.2873+71.37+81.2663+71.192C81.1443+71.31+81.0223+71.429+80.8813+71.528C77.5263+74.432+73.4613+75.084+68.7243+73.543C70.0053+74.432+71.3063+75.084+72.5663+75.479C73.8883+75.874+75.1883+76.013+76.4893+75.854C75.3913+76.605+73.9083+76.882+72.0173+76.704C74.1113+79.134+76.2463+79.845+78.4623+78.798C80.5963+77.79+81.5523+75.42+81.2873+71.725" opacity="1" fill="#ff0a1c"/>
<path d="M90.0285+71.9427C89.9665+72.0807+89.9265+72.2187+89.8655+72.3377C89.0325+74.7287+89.1135+78.6197+90.0685+83.9547C90.2725+83.5597+90.5365+83.2037+90.8215+82.8477C91.0245+82.5717+91.2485+82.2947+91.4715+82.0577C91.9195+81.5637+92.4065+81.0897+92.9755+80.6747C93.7895+79.9837+94.7045+79.3907+95.7605+78.8767L90.4755+71.1327C90.3125+71.3697+90.1715+71.6467+90.0285+71.9427" opacity="1" fill="#ff0a1c"/>
<path d="M77.4045+71.1722C76.6115+71.0932+75.6765+71.1922+74.5795+71.4292C73.5215+71.6862+72.6475+71.9822+71.9765+72.3382C74.3145+73.0292+76.1245+72.6342+77.4045+71.1722" opacity="1" fill="#ff0a1c"/>
<path d="M71.3264+83.4012C71.0014+83.4602+70.6154+83.5392+70.2494+83.6182C72.6884+84.0332+74.2744+85.2582+75.0264+87.2932L76.0434+91.9362C76.5304+94.2472+76.4894+95.9072+75.9004+96.9342L75.9814+96.9542L76.0434+96.8552L76.1244+96.9342C78.5224+94.6822+79.4374+91.3432+78.8684+86.8982C78.5024+83.8162+75.9814+82.6512+71.3264+83.4012" opacity="1" fill="#ff0a1c"/>
<path d="M75.7375+97.1717C75.8195+97.0727+75.9005+97.0137+75.9815+96.9537L75.9005+96.9347C75.8395+97.0137+75.7995+97.0927+75.7375+97.1717" opacity="1" fill="#ff0a1c"/>
<path d="M75.9816+96.954C75.9006+97.014+75.8196+97.073+75.7376+97.172L75.8196+97.211C75.9006+97.172+75.9816+97.073+76.0436+97.014C76.0626+96.994+76.1036+96.954+76.1246+96.934L76.0436+96.855L75.9816+96.954Z" opacity="1" fill="#ff0a1c"/>
<path d="M65.8176+36.8153C65.6146+36.5193+65.3906+36.2233+65.1676+35.9463C64.8216+35.9463+64.4156+35.9663+64.0486+35.9663C63.6836+35.9663+63.2966+35.9463+62.9316+35.9463C62.7076+36.2233+62.4846+36.5193+62.2806+36.8153L65.8176+36.8153Z" opacity="1" fill="#ffa042"/>
<path d="M74.4777+38.475C74.3757+38.435+74.2537+38.337+74.1717+38.278C72.4647+37.349+70.7167+36.697+68.8867+36.302C68.2567+36.183+67.5857+36.065+66.9357+36.006C69.8227+39.68+71.0627+43.75+70.5537+48.176C71.5907+44.659+71.2047+41.063+69.4357+37.389C71.1027+37.349+72.7487+37.704+74.4777+38.475" opacity="1" fill="#ffa042"/>
<path d="M85.9016+58.2909C86.6536+57.9949+87.4256+57.6389+88.1786+57.2829C85.9836+51.3559+83.2796+46.6349+80.0476+43.0589C83.4016+47.2669+85.3526+52.3639+85.9016+58.2909" opacity="1" fill="#ffa042"/>
<path d="M103.628+94.7811L99.6841+87.6881C98.9731+89.0521+98.1801+90.3951+97.3061+91.6791C96.4321+92.9631+95.4561+94.2281+94.3991+95.4331C93.7281+96.2431+93.0171+97.0531+92.2651+97.8031C91.9591+101.794+91.2481+104.896+90.1091+107.109C91.2481+106.832+92.3661+106.457+93.4231+105.983C95.2121+105.212+96.8381+104.244+98.3621+103.039C99.3181+102.288+100.172+101.498+100.863+100.668C102.429+98.8511+103.343+96.8751+103.628+94.7811" opacity="1" fill="#ffa042"/>
<path d="M90.1096+107.109C91.2486+104.896+91.9596+101.794+92.2646+97.8032C91.9396+98.1392+91.6336+98.4562+91.2886+98.7522C90.8616+102.209+89.8046+105.133+88.0966+107.504C88.7676+107.405+89.4596+107.267+90.1096+107.109" opacity="1" fill="#fffcab"/>
<path d="M90.0285+71.9427C89.9665+72.0807+89.9265+72.2187+89.8655+72.3377C89.0325+74.7287+89.1135+78.6197+90.0685+83.9547C90.2725+83.5597+90.5365+83.2037+90.8215+82.8477C89.9265+79.1727+89.6625+75.5377+90.0285+71.9427" opacity="1" fill="#ffa042"/>
<path d="M81.592+69.8881L85.657+69.6701C83.768+73.3051+83.93+78.9561+86.105+86.6021L86.166+86.5231C84.601+77.4151+85.109+71.0341+87.691+67.3391C86.654+68.0901+85.454+68.5641+84.154+68.7221C83.402+69.1961+82.548+69.5921+81.592+69.8881" opacity="1" fill="#ffa042"/>
<path d="M68.7248+73.5428C70.0048+74.4318+71.3058+75.0838+72.5668+75.4788C76.5508+75.6368+79.3358+74.3138+80.8808+71.5278C77.5268+74.4318+73.4608+75.0838+68.7248+73.5428" opacity="1" fill="#ffa042"/>
<path d="M77.4045+71.1722C76.6115+71.0932+75.6765+71.1922+74.5795+71.4292C73.5215+71.6862+72.6475+71.9822+71.9765+72.3382C74.3145+73.0292+76.1245+72.6342+77.4045+71.1722" opacity="1" fill="#ffa042"/>
<path d="M77.5471+86.0287C77.5471+86.0487+77.5471+86.0887+77.5681+86.1277C78.2381+88.0437+78.4211+90.0397+78.0751+92.1337C77.8121+94.0497+77.1201+95.6507+76.0431+96.8557L75.9821+96.9537C75.9011+97.0137+75.8191+97.0727+75.7371+97.1717L75.8191+97.2107C78.4421+94.9587+79.4581+91.5407+78.8681+86.8987C78.5021+83.8167+75.9821+82.6507+71.3261+83.4017C74.7621+83.2427+76.8161+84.0527+77.4851+85.9107C77.5061+85.9497+77.5261+86.0087+77.5471+86.0287" opacity="1" fill="#ffa042"/>
<path d="M75.7375+97.1717C75.8195+97.0727+75.9005+97.0137+75.9815+96.9537L75.9005+96.9347C75.8395+97.0137+75.7995+97.0927+75.7375+97.1717" opacity="1" fill="#ffa042"/>
<path d="M65.757+95.1171L65.757+95.8081L65.757+96.2831L65.757+97.5671C65.778+98.3571+65.635+98.9701+65.35+99.3841C65.981+98.8701+66.346+97.7641+66.447+96.0651L66.447+96.0261L67.952+96.0261L68.318+96.0261C68.42+96.0061+68.501+96.0061+68.582+96.0061L68.907+95.9471C71.611+95.5321+73.055+94.1091+73.258+91.6591C73.156+92.2321+72.953+92.7461+72.648+93.2001C71.835+94.3261+70.33+94.9591+68.095+95.0771L67.952+95.0771C67.18+95.0971+66.447+95.0971+65.757+95.1171" opacity="1" fill="#ffa042"/>
<path d="M73.8879+94.1092L73.8879+94.0102L73.8269+94.0892L73.8269+94.1092L73.8879+94.1092Z" opacity="1" fill="#ffa042"/>
<path d="M91.2482+84.4877C90.9432+84.8627+90.6382+85.2977+90.3942+85.7327C90.4142+85.7717+90.4142+85.8117+90.4352+85.8507C91.2272+89.6447+91.5532+93.0627+91.4922+96.1047C91.8372+95.7687+92.1832+95.3937+92.5082+95.0177C92.4682+91.5807+92.0602+88.1627+91.3292+84.7247L91.2482+84.4877Z" opacity="1" fill="#ffa042"/>
<path d="M53.946+38.2777C53.844+38.3367+53.722+38.4357+53.641+38.4747C55.349+37.7047+57.016+37.3487+58.662+37.3887C56.894+41.0637+56.508+44.6587+57.544+48.1757C57.036+43.7497+58.276+39.6797+61.163+36.0057C60.512+36.0647+59.842+36.1837+59.211+36.3017C57.382+36.6967+55.633+37.3487+53.946+38.2777" opacity="1" fill="#ffa042"/>
<path d="M64.049+31.8173C61.61+32.2123+60.085+33.2983+59.435+35.1163C60.085+33.3983+61.61+32.5883+64.049+32.6473C66.488+32.5883+68.013+33.3983+68.663+35.1163C68.013+33.2983+66.488+32.2123+64.049+31.8173" opacity="1" fill="#ffa042"/>
<path d="M42.217+58.2909C42.745+52.3639+44.697+47.2669+48.071+43.0589C44.819+46.6349+42.115+51.3559+39.92+57.2829C40.692+57.6389+41.445+57.9949+42.217+58.2909" opacity="1" fill="#ffa042"/>
<path d="M55.5319+75.4789C56.7919+75.0839+58.0929+74.4319+59.3739+73.5429C54.6369+75.0839+50.5719+74.4319+47.2179+71.5279C48.7619+74.3129+51.5479+75.6369+55.5319+75.4789" opacity="1" fill="#ffa042"/>
<path d="M56.1213+72.3378C55.4503+71.9818+54.5763+71.6858+53.5193+71.4288C52.4213+71.1918+51.4863+71.0928+50.6933+71.1718C51.9743+72.6338+53.7833+73.0288+56.1213+72.3378" opacity="1" fill="#ffa042"/>
<path d="M42.4406+69.6703L46.5056+69.8883C45.5706+69.5913+44.6966+69.1963+43.9446+68.7223C42.6436+68.5643+41.4446+68.0903+40.4276+67.3393C42.9896+71.0333+43.4976+77.4153+41.9326+86.5233L41.9936+86.6023C44.1686+78.9563+44.3306+73.3053+42.4406+69.6703" opacity="1" fill="#ffa042"/>
<path d="M38.2326+72.3378C38.1716+72.2188+38.1306+72.0808+38.0696+71.9428C38.4566+75.5378+38.1716+79.1728+37.2976+82.8478C37.5616+83.2038+37.8256+83.5598+38.0296+83.9548C38.9846+78.6198+39.0656+74.7288+38.2326+72.3378" opacity="1" fill="#ffa042"/>
<path d="M37.6633+85.8509C37.6843+85.8109+37.6843+85.7719+37.7043+85.7319C37.4603+85.2979+37.1553+84.8629+36.8713+84.4879L36.7683+84.7249C36.0373+88.1629+35.6303+91.5799+35.5903+95.0179C35.9153+95.3929+36.2613+95.7689+36.6263+96.1049C36.5453+93.0619+36.8713+89.6439+37.6633+85.8509" opacity="1" fill="#ffa042"/>
<path d="M50.5515+86.0287C50.5715+86.0087+50.5925+85.9497+50.6125+85.9107C51.3035+84.0527+53.3365+83.2427+56.7925+83.4017C52.1165+82.6507+49.6165+83.8167+49.2305+86.8987C48.6405+91.5407+49.6565+94.9587+52.2995+97.2107L52.3605+97.1717C52.2995+97.0727+52.2185+97.0137+52.1165+96.9537L52.0555+96.8557C50.9785+95.6507+50.3075+94.0497+50.0225+92.1337C49.6775+90.0397+49.8605+88.0437+50.5305+86.1277C50.5515+86.0887+50.5515+86.0487+50.5515+86.0287" opacity="1" fill="#ffa042"/>
<path d="M52.1164+96.954C52.2184+97.014+52.2994+97.073+52.3604+97.172C52.3204+97.093+52.2594+97.014+52.2184+96.934L52.1164+96.954Z" opacity="1" fill="#ffa042"/>
<path d="M55.4504+93.2006C55.1454+92.7456+54.9624+92.2326+54.8614+91.6596C55.0434+94.1096+56.4874+95.5316+59.1904+95.9466L59.5154+96.0056C59.5974+96.0056+59.6784+96.0056+59.7804+96.0256L60.1464+96.0256L61.6704+96.0256L61.6704+96.0656C61.7524+97.7636+62.1174+98.8706+62.7484+99.3846C62.4634+98.9696+62.3214+98.3566+62.3414+97.5666L62.3414+96.2826L62.3414+95.8086L62.3414+95.1176C61.6704+95.0966+60.9184+95.0966+60.1464+95.0776L60.0044+95.0776C57.7674+94.9586+56.2634+94.3266+55.4504+93.2006" opacity="1" fill="#ffa042"/>
<path d="M54.2712+94.0897L54.2102+94.0107L54.2102+94.1097L54.2712+94.1097L54.2712+94.0897Z" opacity="1" fill="#ffa042"/>
<path d="M41.9323+60.4047C46.4853+63.5857+53.8443+65.4037+64.0493+65.8187C74.2543+65.4037+81.6333+63.5857+86.1663+60.4047C78.3603+63.2897+71.0013+64.7517+64.0493+64.7317C57.0973+64.7517+49.7383+63.2897+41.9323+60.4047" opacity="1" fill="#fffcab"/>
<path d="M28.4143+87.6883L24.4703+94.7813C24.7753+96.8753+25.6903+98.8513+27.2553+100.668C27.9263+101.498+28.7803+102.288+29.7353+103.039C31.2603+104.244+32.8863+105.212+34.6753+105.982C35.7323+106.457+36.8503+106.832+37.9883+107.109C36.8713+104.896+36.1393+101.794+35.8333+97.8033C35.0813+97.0533+34.3913+96.2433+33.6993+95.4333C32.6423+94.2283+31.6663+92.9633+30.8123+91.6793C29.9383+90.3953+29.1253+89.0513+28.4143+87.6883" opacity="1" fill="#ffa042"/>
<path d="M36.8098+98.7518C36.4638+98.4558+36.1598+98.1398+35.8338+97.8038C36.1388+101.794+36.8708+104.897+37.9888+107.109C38.6598+107.267+39.3508+107.405+40.0008+107.504C38.2938+105.133+37.2368+102.21+36.8098+98.7518" opacity="1" fill="#fffcab"/>
<path d="M76.9367+11.0926C78.6447+14.0366+79.6207+17.5526+79.9057+21.6626C80.1687+25.6136+79.7837+29.7026+78.7257+33.9506C77.6687+38.2176+76.0827+42.1296+73.9687+45.7056C71.7937+49.3016+69.1717+52.2056+66.0827+54.4386C65.4717+53.6876+64.8007+52.9956+64.0487+52.3436C63.2967+52.9956+62.6257+53.6876+62.0167+54.4386C58.9267+52.2056+56.3247+49.3016+54.1287+45.7056C52.0147+42.1296+50.4297+38.2176+49.3727+33.9506C48.3147+29.7026+47.9287+25.6136+48.1937+21.6626C48.4777+17.5526+49.4537+14.0366+51.1617+11.0926C45.3477+16.0316+41.4037+21.0096+39.3097+26.0286C37.3177+30.8686+37.3377+35.0766+39.3507+38.5936C34.9187+41.5376+35.1427+46.4766+40.0827+53.4896C40.8547+50.0916+41.8307+48.1556+43.0297+47.6416C44.3307+47.1086+45.9577+48.5106+47.8677+51.8896C51.7507+59.4566+55.7557+64.9686+59.8417+68.4656C61.1017+69.1566+62.4837+69.4926+64.0487+69.4526C65.6147+69.4926+66.9967+69.1566+68.2567+68.4656C72.3427+64.9686+76.3477+59.4566+80.2307+51.8896C82.1407+48.5106+83.7677+47.1086+85.0687+47.6416C86.2677+48.1556+87.2437+50.0916+88.0367+53.4896C92.9557+46.4766+93.1787+41.5376+88.7677+38.5936C90.7807+35.0766+90.7807+30.8686+88.7887+26.0286C86.7147+21.0096+82.7507+16.0316+76.9367+11.0926" opacity="1" fill="#000000"/>
<path d="M80.6652+17.1478C81.0712+18.9458+81.3962+20.7238+81.5602+22.5018C81.7832+26.5718+81.0922+31.2738+79.5472+36.5878C77.1482+44.7678+73.0832+50.9908+67.3512+55.2578C67.8382+55.9098+68.1632+56.4038+68.3262+56.6808C69.2402+58.2808+69.8512+59.7228+70.1552+61.0068C70.3992+61.8568+70.5612+62.7258+70.6232+63.6148C73.3672+60.0588+76.1112+55.7718+78.8552+50.7938C82.4132+45.0048+85.3202+43.9578+87.6382+47.6908C87.9222+48.1458+88.2072+48.6598+88.4502+49.2518C91.2562+44.5698+90.6462+41.1518+86.5802+38.9398C90.1792+32.4988+88.5532+25.4648+81.7222+17.8588C81.2952+17.3848+80.8892+16.9508+80.4622+16.4768C80.5222+16.6538+80.5632+16.8118+80.6242+16.9898C80.6242+17.0488+80.6442+17.0688+80.6652+17.1478" opacity="1" fill="#ffa042"/>
<path d="M46.5749+22.5018C46.7379+20.7238+47.0429+18.9458+47.4499+17.1478C47.4899+17.0688+47.5099+17.0488+47.5099+16.9898C47.5709+16.8118+47.6119+16.6538+47.6729+16.4768C47.2259+16.9508+46.8189+17.3848+46.4119+17.8588C39.5819+25.4648+37.9559+32.4988+41.5339+38.9388C37.4679+41.1518+36.8579+44.5698+39.6839+49.2518C39.9279+48.6598+40.2129+48.1458+40.4969+47.6908C42.8149+43.9578+45.7209+45.0048+49.2589+50.7938C52.0229+55.7718+54.7669+60.0588+57.5119+63.6148C57.5729+62.7258+57.7149+61.8568+57.9589+61.0068C58.2839+59.7228+58.8939+58.2808+59.8089+56.6808C59.9509+56.4038+60.2969+55.9098+60.7639+55.2578C55.0519+50.9908+50.9869+44.7678+48.5879+36.5878C47.0219+31.2738+46.3509+26.5718+46.5749+22.5018" opacity="1" fill="#ffa042"/>
<path d="M64.0773+57.787C64.9723+58.735+65.6423+59.763+66.1503+60.81C66.1503+60.869+66.1913+60.909+66.1913+60.968C66.4153+61.442+66.5573+61.877+66.5983+62.232C66.7813+63.279+66.6393+64.149+66.1503+64.84C65.9073+65.156+65.6423+65.393+65.3173+65.532C64.9313+65.65+64.5653+65.749+64.1583+65.749L64.0773+65.749L64.0573+65.749L63.9553+65.749C63.5493+65.749+63.1833+65.65+62.8173+65.532C62.4923+65.393+62.2273+65.156+61.9833+64.84C61.4953+64.149+61.3533+63.279+61.5163+62.232C61.5773+61.877+61.7193+61.442+61.9223+60.968C61.9433+60.909+61.9633+60.869+61.9833+60.81C62.4713+59.763+63.1423+58.735+64.0573+57.787L64.0773+57.787ZM59.5853+62.055C59.3813+63.22+59.4423+64.227+59.7273+65.097C59.8493+65.472+60.0523+65.848+60.2963+66.183C60.9063+66.974+61.7193+67.448+62.7563+67.566C63.2033+67.665+63.6503+67.685+64.0573+67.705C64.4643+67.685+64.9313+67.665+65.3783+67.566C66.3943+67.448+67.2083+66.974+67.8173+66.183C68.0823+65.848+68.2643+65.472+68.3873+65.097C68.6913+64.227+68.7533+63.22+68.5503+62.055C68.4283+61.442+68.2043+60.711+67.8383+59.822C67.0053+58.004+65.7443+56.266+64.0573+54.606C62.3693+56.266+61.1093+58.004+60.2963+59.822C59.9313+60.711+59.6863+61.442+59.5853+62.055" opacity="1" fill="#ffa042"/>
<path d="M86.5725+39.1864C86.0445+39.6804+85.0485+39.9174+83.5035+39.8774C88.8895+41.1624+90.5365+44.3624+88.4425+49.4994C91.2485+44.8164+90.6375+41.3984+86.5725+39.1864" opacity="1" fill="#fffcab"/>
<path d="M81.552+22.7489C81.776+26.8189+81.084+31.5209+79.539+36.8349C77.141+45.0149+73.074+51.2379+67.342+55.5049C67.83+56.1569+68.156+56.6509+68.318+56.9279C70.493+55.6629+72.587+53.5889+74.579+50.6449C76.449+47.9189+78.015+44.8559+79.254+41.4379C81.47+35.3739+82.242+29.1499+81.552+22.7489" opacity="1" fill="#fffcab"/>
<path d="M44.5954+39.8778C43.0704+39.9178+42.0544+39.6798+41.5254+39.1868C37.4604+41.3988+36.8504+44.8168+39.6764+49.4998C37.5614+44.3628+39.2084+41.1618+44.5954+39.8778" opacity="1" fill="#fffcab"/>
<path d="M46.5671+22.7489C45.8761+29.1499+46.6491+35.3739+48.8441+41.4379C50.0841+44.8559+51.6491+47.9189+53.5191+50.6449C55.5111+53.5889+57.6051+55.6629+59.8001+56.9279C59.9431+56.6509+60.2881+56.1569+60.7561+55.5049C55.0441+51.2379+50.9781+45.0149+48.5801+36.8349C47.0141+31.5209+46.3431+26.8189+46.5671+22.7489" opacity="1" fill="#fffcab"/>
<path d="M59.5769+62.3011C59.3739+63.4671+59.4349+64.4741+59.7199+65.3431C59.2319+62.2421+60.6749+59.2591+64.0489+56.2951C67.4439+59.2591+68.8869+62.2421+68.3789+65.3431C68.6839+64.4741+68.7449+63.4671+68.5409+62.3011C68.4199+61.6891+68.1969+60.9581+67.8299+60.0691C66.9959+58.2511+65.7369+56.5121+64.0489+54.8531C62.3619+56.5121+61.1019+58.2511+60.2879+60.0691C59.9229+60.9581+59.6789+61.6891+59.5769+62.3011" opacity="1" fill="#fffcab"/>
<path d="M61.9758+65.0868C61.4878+64.3958+61.3458+63.5258+61.5078+62.4798C61.5688+62.1238+61.7118+61.6888+61.9148+61.2148C60.6548+63.6648+60.7968+65.3438+62.3218+66.2928C62.8498+66.6278+63.3988+66.8058+64.0488+66.8258C64.6998+66.8058+65.2688+66.6278+65.7778+66.2928C67.3228+65.3438+67.4638+63.6648+66.1838+61.2148C66.4078+61.6888+66.5498+62.1238+66.5898+62.4798C66.7728+63.5258+66.6308+64.3958+66.1428+65.0868C65.8988+65.4028+65.6348+65.6398+65.3098+65.7788C64.9228+65.8968+64.5578+65.9958+64.1508+65.9958L64.0698+65.9958L64.0488+65.9958L63.9478+65.9958C63.5408+65.9958+63.1748+65.8968+62.8088+65.7788C62.4838+65.6398+62.2198+65.4028+61.9758+65.0868" opacity="1" fill="#fffcab"/>
</g>
<path d="M-80.1455-41.2586L319.814-41.2586L319.814+627.818L-80.1455+627.818L-80.1455-41.2586Z" opacity="1" fill="none"/>
</g>
</svg>
