<?xml version="1.0" encoding="UTF-8" standalone="no"?> <!-- Created with Vectornator for iOS (http://vectornator.io/) --><!DOCTYPE svg PUBLIC "-//W3C//DTD SVG 1.1//EN" "http://www.w3.org/Graphics/SVG/1.1/DTD/svg11.dtd">
<svg style="fill-rule:evenodd;clip-rule:evenodd;stroke-linecap:round;stroke-linejoin:round;" xmlns:vectornator="http://vectornator.io" xmlns:xlink="http://www.w3.org/1999/xlink" xmlns="http://www.w3.org/2000/svg" xml:space="preserve" version="1.1" viewBox="0 0 277.84 265.17">
<metadata>
<vectornator:setting key="RulersVisible" value="1"/>
<vectornator:setting key="GridSpacing" value="16"/>
<vectornator:setting key="Units" value="Points"/>
<vectornator:setting key="DynamicGuides" value="1"/>
<vectornator:setting key="GuidesVisible" value="1"/>
<vectornator:setting key="CMYKEnabledKey" value="0"/>
<vectornator:setting key="SnapToGuides" value="1"/>
<vectornator:setting key="SnapToEdges" value="1"/>
</metadata>
<defs/>
<g id="logo" vectornator:layerName="logo">
<path d="M226.505+242.396L229.82+242.396C231.004+242.396+232.093+242.633+233.135+243.012C234.225+243.485+235.124+244.054+235.787+244.811C236.592+245.569+237.208+246.469+237.539+247.463C238.013+248.647+238.202+249.831+238.202+251.015C238.202+252.199+238.013+253.288+237.539+254.472C237.208+255.514+236.592+256.461+235.787+257.171C235.076+257.882+234.13+258.497+233.135+258.971C232.235+259.302+231.147+259.539+229.82+259.539L226.505+259.539C225.368+259.539+224.279+259.302+223.332+258.971C222.243+258.497+221.344+257.929+220.728+257.171C220.018+256.461+219.449+255.514+218.976+254.472C218.597+253.383+218.407+252.293+218.407+251.015C218.407+249.594+218.597+248.458+218.976+247.416C219.496+246.327+220.112+245.427+220.728+244.811C221.344+244.054+222.243+243.485+223.332+243.012C224.374+242.633+225.416+242.396+226.505+242.396M229.82+236.761L226.505+236.761C224.517+236.761+222.669+237.092+221.107+237.85C219.355+238.513+217.887+239.507+216.75+240.691C215.424+241.97+214.477+243.438+213.861+245.048C213.104+246.895+212.772+248.789+212.772+250.731C212.772+252.672+213.104+254.567+213.861+256.461C214.477+258.119+215.424+259.634+216.75+261.007C217.887+262.333+219.355+263.28+221.107+264.038C222.953+264.796+224.753+265.174+226.505+265.174L229.82+265.174C231.667+265.174+233.609+264.796+235.455+264.038C237.208+263.28+238.723+262.333+239.859+261.007C241.091+259.634+242.038+258.119+242.748+256.461C243.411+254.614+243.79+252.72+243.79+250.731C243.79+248.6+243.411+246.706+242.748+245.048C241.99+243.296+241.091+241.828+239.907+240.739C238.628+239.413+237.113+238.465+235.455+237.85C233.609+237.092+231.667+236.761+229.82+236.761" opacity="1" fill="#e9a043"/>
<path d="M253.783+239.128C253.073+239.791+252.552+240.691+252.031+241.732C251.699+242.68+251.463+243.769+251.463+244.953C251.463+246.232+251.699+247.368+252.031+248.22C252.552+249.357+253.12+250.21+253.878+250.825C254.683+251.63+255.535+252.198+256.577+252.482C257.762+253.003+258.992+253.193+260.271+253.193L268.889+253.193C270.121+253.193+271.021+253.477+271.59+253.951C272.205+254.566+272.536+255.419+272.536+256.461C272.536+257.408+272.205+258.118+271.59+258.686C271.021+259.254+270.121+259.539+268.889+259.539L251.888+259.539L251.888+265.174L268.889+265.174C270.263+265.174+271.59+264.937+272.82+264.464C273.957+264.038+274.904+263.517+275.567+262.759C276.325+261.954+276.94+261.007+277.319+260.06C277.698+259.065+277.841+257.929+277.841+256.65C277.841+253.951+277.083+251.867+275.567+250.446C274.052+249.073+271.826+248.362+268.889+248.362L260.271+248.362C259.419+248.362+258.613+248.126+258.093+247.558C257.572+247.084+257.288+246.421+257.288+245.332C257.288+244.432+257.572+243.674+258.093+243.201C258.566+242.68+259.324+242.396+260.271+242.396L276.372+242.396L276.372+236.76L260.271+236.76C258.992+236.76+257.667+236.997+256.482+237.471C255.488+237.802+254.589+238.37+253.783+239.128" opacity="1" fill="#e9a043"/>
<path d="M94.8077+237.518C93.1977+237.044+91.6827+236.76+90.3557+236.76L73.7337+236.76L73.7337+265.174L79.2267+265.174L79.2267+242.395L90.3557+242.395C91.9667+242.395+93.1977+242.822+94.0497+243.627C94.9027+244.385+95.3287+245.616+95.3287+247.368C95.3287+248.931+94.9027+250.209+94.0977+251.157C93.2447+252.009+92.0137+252.435+90.3557+252.435L82.0207+252.435L82.0207+257.455L89.0777+257.455L96.0387+265.174L103.427+265.174L95.2337+256.508C96.9387+255.939+98.2177+254.85+99.2587+253.193C100.301+251.63+100.775+249.688+100.775+247.273C100.775+245.71+100.538+244.29+100.064+242.916C99.7327+241.78+99.0697+240.691+98.1227+239.649C97.0337+238.654+95.9917+237.992+94.8077+237.518" opacity="1" fill="#e9a043"/>
<path d="M65.6358+242.396L65.6358+236.761L53.6548+236.761C51.6658+236.761+49.8658+237.092+48.2088+237.85C46.5038+238.465+45.0828+239.413+43.8048+240.691C42.6208+241.828+41.6738+243.296+40.9638+245.048C40.2528+246.706+39.9218+248.6+39.9218+250.731C39.9218+252.72+40.2528+254.614+40.9638+256.461C41.6738+258.119+42.6208+259.729+43.8048+261.007C45.0828+262.333+46.5038+263.28+48.2088+264.038C49.8658+264.796+51.6658+265.174+53.6548+265.174L65.6358+265.174L65.6358+259.539L53.6548+259.539C52.4708+259.539+51.3818+259.302+50.3398+258.971C49.4878+258.497+48.5878+257.929+47.8298+257.171C47.0248+256.461+46.5038+255.466+46.0778+254.472C45.6988+253.335+45.4618+252.199+45.4618+251.015C45.4618+249.689+45.6988+248.458+46.0778+247.416C46.5038+246.421+47.0248+245.569+47.8298+244.811C48.4928+244.054+49.3448+243.438+50.3398+243.012C51.3818+242.633+52.4708+242.396+53.6548+242.396L65.6358+242.396Z" opacity="1" fill="#e9a043"/>
<path d="M17.001+236.998C16.527+237.235+16.148+237.708+15.817+238.418L0+265.175L6.109+265.175L18.374+244.054L24.105+253.525L15.817+253.525L13.355+258.213L26.709+258.213L30.782+265.175L37.222+265.175L21.263+238.276C20.884+237.708+20.6+237.282+20.126+236.998C19.653+236.619+19.179+236.382+18.658+236.382C17.996+236.382+17.475+236.619+17.001+236.998" opacity="1" fill="#e9a043"/>
<path d="M174.366+239.602C173.514+238.655+172.378+237.992+171.098+237.519C169.489+237.045+167.973+236.761+166.647+236.761L150.357+236.761L150.357+265.174L155.85+265.174L155.85+242.396L166.647+242.396C168.258+242.396+169.489+242.822+170.294+243.675C171.241+244.527+171.715+245.711+171.715+247.274C171.715+248.647+171.241+249.831+170.294+250.731C169.489+251.63+168.258+252.009+166.647+252.009L158.596+252.009L158.596+257.456L166.647+257.456C168.258+257.456+169.773+257.266+171.098+256.745C172.33+256.271+173.42+255.514+174.366+254.472C175.266+253.62+175.976+252.578+176.45+251.252C176.924+249.973+177.161+248.6+177.161+247.084C177.161+245.569+176.924+244.196+176.45+242.917C175.976+241.543+175.266+240.502+174.366+239.602" opacity="1" fill="#e9a043"/>
<path d="M183.033+242.396L191.746+242.396L191.746+265.174L197.476+265.174L197.476+242.396L206.19+242.396L206.19+236.761L183.033+236.761L183.033+242.396Z" opacity="1" fill="#e9a043"/>
<path d="M143.159+236.761L136.481+236.761L125.779+249.547L115.219+236.761L108.21+236.761L122.843+254.472L122.843+265.175L128.431+265.175L128.431+254.472L143.159+236.761Z" opacity="1" fill="#e9a043"/>
<path d="M110.219+18.5938C109.01+22.5289+108.101+26.5785+107.781+30.8125C106.921+41.7945+108.401+52.7067+112.125+63.5938C112.603+63.2597+113.053+62.9903+113.531+62.6562C109.568+52.0562+107.803+41.4595+108.281+30.8125C108.447+26.6063+109.148+22.5466+110.219+18.5938ZM167.719+18.5938C168.787+22.5464+169.478+26.6054+169.688+30.8125C170.116+41.4595+168.354+52.0563+164.438+62.6562C164.89+62.9728+165.303+63.2207+165.75+63.5312C169.552+52.6661+170.967+41.7723+170.156+30.8125C169.836+26.5785+168.927+22.5289+167.719+18.5938ZM97.75+182.406C94.4547+195.547+95.059+206.968+99.4062+216.688C99.1301+216.065+98.8863+215.441+98.6562+214.75C95.9822+207.301+95.7727+198.862+97.9688+189.312C103.46+204.114+116.211+214.289+136.312+219.875L136.219+219.719C126.59+216.904+118.427+212.624+111.875+206.688C104.474+199.908+99.755+191.907+97.75+182.406ZM180.188+182.406C178.134+191.907+173.462+199.908+166.062+206.688C159.522+212.614+151.364+216.904+141.719+219.719L141.625+219.875C161.727+214.288+174.479+204.113+179.969+189.312C182.198+198.798+181.952+207.181+179.375+214.594C182.923+205.337+183.211+194.611+180.188+182.406Z" opacity="1" fill="#ffa042"/>
<path d="M142.859+63.4077C142.429+62.7397+141.952+62.0707+141.522+61.4497C140.711+61.4497+139.851+61.4977+139.088+61.5457C138.323+61.4977+137.464+61.4497+136.7+61.4497C136.27+62.0707+135.793+62.7397+135.315+63.4077C132.212+67.9917+130.254+72.8137+129.347+77.9227C128.583+82.1717+128.583+86.5647+129.299+91.1487C132.546+90.2407+135.793+89.8597+139.088+89.8117C142.429+89.8597+145.676+90.2407+148.922+91.1487C149.639+86.5647+149.639+82.1717+148.876+77.9227C147.968+72.8137+145.963+67.9917+142.859+63.4077" opacity="1" fill="#ff0a1c"/>
<path d="M132.969+61.5938C131.584+61.7847+130.15+62.011+128.812+62.25C124.896+63.109+121.175+64.5395+117.594+66.6875L117.656+66.75C117.417+66.846+117.175+66.9497+116.938+67.0938C116.652+67.2847+116.395+67.4195+116.156+67.5625C114.777+68.4629+113.478+69.6214+112.156+70.6875C113.845+75.0145+115.799+79.1581+118.031+83.125C120.521+87.4117+123.302+91.2217+126.344+94.625L126.188+94.2188C125.854+92.5958+125.518+91.0437+125.375+89.4688C125.327+89.1338+125.298+88.912+125.25+88.625C124.2+78.79+126.81+69.8057+132.969+61.5938ZM145.188+61.5938C151.395+69.8058+153.972+78.79+152.969+88.625C152.921+88.912+152.844+89.1337+152.844+89.4688C152.653+91.0438+152.366+92.5958+152.031+94.2188L151.875+94.625C154.911+91.2217+157.692+87.4117+160.156+83.125C162.413+79.158+164.373+75.0147+166.062+70.6875C164.731+69.6214+163.413+68.4629+162.062+67.5625C161.823+67.4195+161.567+67.2847+161.281+67.0938C160.994+66.9497+160.753+66.846+160.562+66.75L160.625+66.6875C156.996+64.5395+153.274+63.109+149.406+62.25C148.021+62.011+146.619+61.7847+145.188+61.5938ZM97.5625+87.9062C93.9132+93.9544+90.6545+100.837+87.8125+108.812C89.4355+109.576+91.0635+110.393+92.6875+111.062C95.4565+112.303+98.2767+113.388+101.094+114.438C106.617+116.479+112.139+118.02+117.688+119.156C113.3+112.902+108.985+105.499+104.719+96.8438C102.033+91.9714+99.6623+89.0884+97.5625+87.9062ZM180.625+87.9062C178.515+89.0884+176.155+91.9714+173.5+96.8438C169.239+105.49+164.92+112.875+160.531+119.125C166.056+117.989+171.61+116.472+177.156+114.438C179.973+113.388+182.761+112.303+185.531+111.062C187.106+110.393+188.782+109.577+190.406+108.812C187.564+100.837+184.277+93.9544+180.625+87.9062ZM139.094+93.5312C135.8+93.5793+132.559+94.015+129.312+94.875C128.612+95.0596+127.888+95.2719+127.188+95.5C129.57+98.0621+132.071+100.431+134.781+102.469C136.07+100.846+137.565+99.2757+139.094+97.8438C140.669+99.2758+142.101+100.846+143.438+102.469C146.136+100.44+148.63+98.0804+151+95.5312C150.321+95.2968+149.653+95.0632+148.938+94.875C145.691+94.015+142.436+93.5792+139.094+93.5312Z" opacity="1" fill="#ff0a1c"/>
<path d="M160.573+66.75C160.764+66.846+161.003+66.941+161.29+67.084C161.051+66.941+160.812+66.798+160.621+66.702L160.573+66.75Z" opacity="1" fill="#ff0a1c"/>
<path d="M117.649+66.75L117.601+66.702C117.362+66.798+117.124+66.941+116.933+67.084C117.171+66.941+117.41+66.846+117.649+66.75" opacity="1" fill="#ff0a1c"/>
<path d="M208.606+121.658C209.322+121.515+210.085+121.706+210.993+122.183C211.948+122.565+212.711+123.138+213.333+123.854C214.002+124.571+214.335+125.239+214.335+125.86C214.335+126.48+214.002+126.767+213.333+126.91C212.711+127.006+211.948+126.91+210.993+126.48C210.085+126.003+209.322+125.43+208.606+124.714C207.985+123.998+207.651+123.377+207.651+122.804C207.651+122.183+207.985+121.754+208.606+121.658M218.728+128.868C217.629+125.955+216.006+123.472+214.002+121.467C208.94+116.215+201.062+113.732+190.415+113.971C190.462+114.878+190.415+115.738+190.367+116.597C190.223+120.321+189.507+123.52+188.314+126.289C186.881+129.632+184.733+132.21+181.868+134.168C180.197+135.218+178.382+136.077+176.377+136.746L185.019+136.268C181.008+144.338+181.342+156.847+186.022+173.749L186.165+173.701L186.022+173.797C186.07+173.845+186.07+173.94+186.07+173.988C186.26+174.943+186.5+175.946+186.69+176.901L186.881+177.856C190.223+195.044+190.223+207.029+186.738+213.808C186.308+218.201+186.117+220.35+186.165+220.35C193.088+209.607+194.711+193.85+191.035+173.081C188.552+159.091+188.314+148.682+190.223+141.807C192.181+134.979+196.526+131.542+203.21+131.542C209.895+131.637+216.532+134.359+223.169+139.992L218.728+128.868Z" opacity="1" fill="#ff0a1c"/>
<path d="M186.022+173.749L186.022+173.797L186.165+173.701L186.022+173.749Z" opacity="1" fill="#ff0a1c"/>
<path d="M214.861+176.232C213.333+179.288+211.662+182.248+209.799+185.113C207.937+187.93+205.837+190.747+203.592+193.468C201.634+195.999+199.391+198.434+197.004+200.821C196.096+208.461+193.804+214.954+190.223+220.254C194.234+219.586+198.007+218.44+201.54+216.864C205.311+215.145+208.797+212.997+212.044+210.323C214.096+208.652+215.863+206.885+217.343+205.071C220.638+201.012+222.595+196.668+223.216+191.94L214.861+176.232Z" opacity="1" fill="#ffa042"/>
<path d="M208.367+181.389C210.515+178.19+212.665+174.847+214.67+171.41L206.458+160.524C204.786+161.478+203.163+162.577+201.73+163.866L201.682+163.866C200.489+164.916+199.296+166.014+198.293+167.351C197.147+168.688+196.049+170.216+195.094+171.887C195.141+171.983+195.141+172.078+195.189+172.222C196.86+180.577+197.625+188.169+197.433+194.949C199.391+192.896+201.205+190.747+202.971+188.503C204.882+186.211+206.648+183.824+208.367+181.389" opacity="1" fill="#ff0a1c"/>
<path d="M201.682+163.866L201.73+163.866L201.682+163.866Z" opacity="1" fill="#ff0a1c"/>
<path d="M186.165+117.075C186.165+116.454+186.117+115.977+186.117+115.69C169.55+122.184+153.889+125.383+139.088+125.335C124.334+125.383+108.673+122.184+92.1046+115.69C92.1046+115.977+92.0576+116.454+92.0096+117.075C91.9616+117.6+92.0096+118.03+92.1046+118.364C92.7256+126.29+97.8346+131.447+107.575+133.929C118.127+136.746+128.631+138.179+139.088+138.179C149.592+138.179+160.048+136.746+170.647+133.929C180.388+131.447+185.449+126.29+186.07+118.364C186.165+118.03+186.213+117.6+186.165+117.075" opacity="1" fill="#ffa042"/>
<path d="M175.661+139.659C175.423+139.898+175.183+140.184+174.897+140.423C167.735+146.821+159.14+148.301+149.018+144.863C151.788+146.868+154.51+148.253+157.231+149.16C160+150.02+162.769+150.354+165.587+150.02C163.199+151.643+160.048+152.312+156.037+151.882C160.477+157.277+165.014+158.853+169.74+156.561C174.276+154.317+176.33+149.065+175.757+140.805C175.757+140.471+175.757+140.041+175.661+139.659" opacity="1" fill="#ff0a1c"/>
<path d="M195.285+139.516C194.76+140.328+194.378+141.187+193.996+142.19C192.229+147.537+192.372+156.132+194.378+168.02C195.237+166.445+196.24+165.06+197.386+163.771C198.341+162.673+199.391+161.622+200.585+160.667C202.304+159.187+204.308+157.85+206.553+156.704L195.285+139.516Z" opacity="1" fill="#ff0a1c"/>
<path d="M145.199+152.359C146.058+151.356+146.488+150.354+146.488+149.351C146.488+148.443+146.154+147.632+145.581+147.059C143.91+145.388+141.761+145.817+139.088+148.157C136.413+145.817+134.265+145.388+132.641+147.059C132.021+147.632+131.687+148.443+131.687+149.351C131.734+150.354+132.164+151.356+132.976+152.359C134.599+154.555+135.411+156.799+135.315+159.043C133.883+155.653+131.591+153.505+128.488+152.693C127.103+152.311+125.909+152.311+124.954+152.598C123.617+152.98+122.615+154.03+121.947+155.653C121.182+157.659+121.373+159.425+122.615+160.953C123.856+162.672+125.862+163.484+128.631+163.531C128.106+162.147+128.058+160.667+128.488+159.139L128.488+158.996C128.583+158.805+128.631+158.661+128.726+158.566C129.061+158.184+129.634+158.327+130.493+158.948C131.352+159.568+131.926+160.762+132.069+162.338C132.546+166.731+134.886+169.07+139.088+169.357C143.289+169.07+145.677+166.731+146.154+162.338C146.297+160.762+146.822+159.568+147.729+158.948C148.541+158.327+149.162+158.184+149.496+158.566C149.592+158.661+149.639+158.805+149.687+158.996L149.735+159.139C150.117+160.667+150.117+162.147+149.592+163.531C152.361+163.484+154.318+162.672+155.607+160.953C156.802+159.425+157.04+157.659+156.276+155.653C155.607+154.03+154.605+152.98+153.22+152.598C152.265+152.311+151.072+152.311+149.735+152.693C146.632+153.505+144.34+155.653+142.907+159.043C142.811+156.799+143.528+154.555+145.199+152.359" opacity="1" fill="#ff0a1c"/>
<path d="M167.497+139.611C165.825+139.468+163.82+139.659+161.528+140.232C159.236+140.757+157.374+141.425+155.942+142.19C160.955+143.717+164.775+142.858+167.497+139.611" opacity="1" fill="#ffa042"/>
<path d="M154.557+166.731C153.888+166.874+153.077+167.065+152.265+167.209C157.469+168.163+160.859+170.885+162.483+175.421L164.536+185.686C165.634+190.795+165.586+194.519+164.297+196.763L164.44+196.811L164.631+196.572L164.775+196.763C169.883+191.75+171.793+184.349+170.6+174.514C169.787+167.638+164.44+165.06+154.557+166.731" opacity="1" fill="#ff0a1c"/>
<path d="M164.775+196.763L164.631+196.572L164.44+196.811C164.297+196.954+164.106+197.097+163.963+197.288L164.106+197.384C164.297+197.241+164.44+197.097+164.631+196.954C164.679+196.907+164.727+196.811+164.775+196.763" opacity="1" fill="#ff0a1c"/>
<path d="M164.44+196.811L164.297+196.763C164.154+196.954+164.058+197.145+163.962+197.289C164.106+197.098+164.297+196.954+164.44+196.811" opacity="1" fill="#ff0a1c"/>
<path d="M142.715+192.753L142.715+194.281L142.715+195.284L142.715+198.149C142.811+199.915+142.477+201.252+141.856+202.207C141.856+202.35+141.761+202.446+141.617+202.541C141.331+202.923+140.948+203.21+140.519+203.4C140.089+203.591+139.611+203.687+139.087+203.83C138.562+203.687+138.132+203.591+137.702+203.4C137.225+203.21+136.842+202.923+136.604+202.541C136.461+202.446+136.365+202.35+136.318+202.207C135.697+201.252+135.41+199.915+135.458+198.149L135.458+195.284L135.458+194.281L135.458+192.753C133.978+192.706+132.45+192.658+130.827+192.658L130.492+192.658C125.765+192.419+122.519+190.986+120.848+188.456C120.179+187.501+119.75+186.355+119.511+185.066C119.511+184.779+119.511+184.541+119.463+184.254L119.463+183.92L118.174+190.271L118.317+190.461L118.317+190.509L118.174+190.509C117.84+199.867+124.811+207.125+139.087+212.377C153.22+207.22+160.238+200.058+159.999+190.795L159.809+190.748C159.857+190.652+159.857+190.557+159.904+190.509L159.904+190.461L159.999+190.271L158.71+183.92L158.71+184.254C158.71+184.541+158.71+184.779+158.662+185.066C158.472+186.355+158.042+187.501+157.373+188.456C155.702+190.986+152.455+192.419+147.729+192.658L147.347+192.658C145.772+192.658+144.148+192.706+142.715+192.753" opacity="1" fill="#ff0a1c"/>
<path d="M160+190.795L160+190.508L160+190.27L159.905+190.461L159.905+190.508C159.857+190.556+159.857+190.652+159.81+190.747L160+190.795Z" opacity="1" fill="#ff0a1c"/>
<path d="M118.317+190.461L118.174+190.27L118.174+190.508L118.317+190.508L118.317+190.461Z" opacity="1" fill="#ff0a1c"/>
<path d="M146.488+187.93L149.162+183.394L139.088+183.394L129.013+183.394L131.687+187.93L139.088+187.93L146.488+187.93Z" opacity="1" fill="#ff0a1c"/>
<path d="M154.939+179.479L151.644+173.559L126.578+173.559L123.235+179.479L154.939+179.479Z" opacity="1" fill="#ff0a1c"/>
<path d="M129.299+59.6358C132.45+59.0628+135.745+58.9198+139.088+59.1578C142.477+58.9198+145.676+59.0628+148.923+59.6358C147.539+55.5778+144.244+53.1898+139.088+52.3308C133.931+53.1898+130.636+55.5778+129.299+59.6358" opacity="1" fill="#ff0a1c"/>
<path d="M112.636+150.02C115.405+150.354+118.175+150.02+120.991+149.161C123.713+148.253+126.434+146.869+129.204+144.863C119.082+148.301+110.44+146.821+103.278+140.423L102.513+139.659C102.466+140.041+102.466+140.471+102.466+140.805C101.893+149.065+103.946+154.317+108.482+156.562C113.209+158.853+117.745+157.277+122.137+151.882C118.127+152.312+114.975+151.644+112.636+150.02" opacity="1" fill="#ff0a1c"/>
<path d="M116.694+140.231C114.402+139.658+112.397+139.467+110.678+139.61C113.447+142.857+117.267+143.717+122.233+142.189C120.848+141.425+118.986+140.756+116.694+140.231" opacity="1" fill="#ffa042"/>
<path d="M67.2291+122.184C68.1361+121.706+68.9001+121.516+69.5681+121.659C70.2371+121.754+70.5711+122.184+70.5711+122.805C70.5711+123.377+70.2371+123.998+69.5681+124.714C68.9001+125.431+68.1361+126.004+67.2291+126.481C66.2741+126.911+65.4621+127.006+64.8411+126.911C64.1731+126.767+63.8871+126.481+63.8871+125.86C63.8871+125.24+64.1731+124.571+64.8411+123.855C65.4621+123.139+66.2741+122.566+67.2291+122.184M87.8081+116.598C87.8081+115.738+87.7601+114.879+87.8081+113.972C77.1601+113.733+69.2821+116.216+64.1731+121.468C62.1681+123.473+60.5921+125.956+59.4941+128.869L55.0541+139.993C61.6901+134.359+68.3271+131.638+75.0121+131.542C81.6961+131.542+86.0411+134.98+87.9511+141.808C89.9081+148.683+89.6691+159.092+87.1871+173.081C83.4621+193.851+85.1341+209.607+92.0571+220.351C92.1041+220.351+91.8661+218.202+91.4841+213.809C87.9991+207.029+87.9511+195.045+91.3411+177.856L91.5321+176.901C91.7231+175.946+91.9611+174.944+92.1041+173.989C92.1041+173.941+92.1041+173.846+92.2001+173.798L92.0571+173.702C95.3991+153.505+94.3491+139.277+88.9061+131.113C91.0541+132.784+93.5851+133.786+96.3541+134.168C93.4891+132.211+91.3411+129.632+89.9081+126.29C88.7151+123.521+87.9991+120.322+87.8081+116.598" opacity="1" fill="#ff0a1c"/>
<path d="M93.2027+136.269L101.845+136.747C99.7917+136.078+97.9777+135.219+96.3537+134.168C93.5847+133.786+91.0547+132.784+88.9057+131.113C94.3487+139.277+95.3997+153.505+92.0567+173.702L92.2007+173.798C96.8317+156.848+97.2137+144.338+93.2027+136.269" opacity="1" fill="#ff0a1c"/>
<path d="M84.1788+142.189C83.8448+141.186+83.4148+140.327+82.9378+139.515L71.6698+156.704C73.9128+157.85+75.8708+159.187+77.6378+160.667C78.8308+161.622+79.8818+162.672+80.8368+163.77C81.9828+165.059+82.9858+166.444+83.7968+168.02C85.8028+156.131+85.9928+147.536+84.1788+142.189" opacity="1" fill="#ff0a1c"/>
<path d="M76.5396+163.866L76.4916+163.866L76.5396+163.866Z" opacity="1" fill="#ff0a1c"/>
<path d="M76.4918+163.866L76.5398+163.866C75.0118+162.577+73.4358+161.478+71.7168+160.524L63.5528+171.41C65.5578+174.847+67.6588+178.19+69.8548+181.389C71.5258+183.824+73.3408+186.211+75.1548+188.503C76.9698+190.747+78.8308+192.896+80.7888+194.949C80.5978+188.169+81.3138+180.577+82.9858+172.221C83.0328+172.078+83.0328+171.983+83.0808+171.887C82.1258+170.216+81.0748+168.688+79.8818+167.351C78.8788+166.014+77.7328+164.916+76.5398+163.866L76.4918+163.866Z" opacity="1" fill="#ff0a1c"/>
<path d="M125.909+167.208C125.145+167.064+124.333+166.874+123.617+166.73C113.782+165.059+108.386+167.638+107.575+174.513C106.381+184.444+108.386+191.94+113.638+196.954L113.782+196.811L113.925+196.763C112.636+194.519+112.588+190.794+113.638+185.686L115.739+175.42C117.362+170.884+120.752+168.163+125.909+167.208" opacity="1" fill="#ff0a1c"/>
<path d="M114.068+197.384L114.259+197.289C114.068+197.098+113.925+196.954+113.782+196.811L113.638+196.954L114.068+197.384Z" opacity="1" fill="#ff0a1c"/>
<path d="M113.925+196.763L113.782+196.811C113.925+196.954+114.068+197.097+114.259+197.288C114.164+197.145+114.02+196.954+113.925+196.763" opacity="1" fill="#ff0a1c"/>
<path d="M68.4224+185.113C66.5124+182.248+64.8414+179.288+63.3134+176.232L55.0054+191.941C55.6264+196.668+57.5364+201.012+60.8314+205.071C62.3594+206.885+64.1254+208.652+66.1304+210.323C69.3774+212.997+72.8624+215.145+76.6344+216.864C80.1684+218.44+83.9874+219.586+87.9984+220.254C84.3694+214.954+82.0784+208.461+81.1714+200.821C78.8314+198.434+76.5874+195.999+74.5814+193.468C72.3384+190.747+70.2844+187.93+68.4224+185.113" opacity="1" fill="#ffa042"/>
<path d="M148.922+91.1485C149.639+86.5655+149.639+82.1715+148.875+77.9225C148.54+83.0315+146.535+85.8005+142.906+86.3745L135.315+86.3745C131.686+85.8005+129.681+83.0315+129.346+77.9225C128.583+82.1715+128.583+86.5655+129.298+91.1485C132.546+90.2415+135.792+89.8595+139.087+89.8115C142.429+89.8595+145.676+90.2415+148.922+91.1485" opacity="1" fill="#a30714"/>
<path d="M139.094+93.5312C135.799+93.5782+132.56+94.016+129.312+94.875C128.612+95.0596+127.889+95.2716+127.188+95.5C129.57+98.0621+132.071+100.431+134.781+102.469C136.07+100.846+137.565+99.2757+139.094+97.8438C140.669+99.2757+142.101+100.846+143.438+102.469C146.136+100.44+148.63+98.0804+151+95.5312C150.321+95.2966+149.652+95.0632+148.938+94.875C145.691+94.016+142.436+93.5783+139.094+93.5312ZM104.75+96.9062C111.886+110.292+110.68+116.107+101.094+114.438C106.617+116.479+112.139+118.02+117.688+119.156C113.312+112.917+109.006+105.534+104.75+96.9062ZM173.469+96.9062C169.218+105.524+164.909+112.891+160.531+119.125C166.056+117.989+171.61+116.471+177.156+114.438C167.522+116.107+166.285+110.292+173.469+96.9062Z" opacity="1" fill="#a30714"/>
<path d="M139.088+134.979C132.356+134.979+125.146+134.358+117.602+133.021C103.087+130.682+94.5875+125.812+92.1045+118.363C92.7255+126.289+97.8345+131.446+107.575+133.929C118.127+136.746+128.631+138.178+139.088+138.178C149.592+138.178+160.048+136.746+170.648+133.929C180.388+131.446+185.449+126.289+186.07+118.363C183.635+125.812+175.136+130.682+160.621+133.021C153.029+134.358+145.819+134.979+139.088+134.979" opacity="1" fill="#af512f"/>
<path d="M82.794+140.47C82.842+140.184+82.89+139.849+82.938+139.515L71.669+156.704C73.913+157.85+75.871+159.187+77.638+160.667C79.977+153.935+81.696+147.25+82.794+140.47" opacity="1" fill="#a30714"/>
<path d="M91.9615+152.025C92.2005+146.296+91.5315+141.568+90.0995+137.892C88.6195+134.216+86.3275+131.637+83.2235+130.014C76.3485+126.481+67.4675+128.391+56.7245+135.839L55.0535+139.993C61.6905+134.359+68.3275+131.637+75.0115+131.542C81.6955+131.542+86.0415+134.98+87.9505+141.807C89.9085+148.683+89.6695+159.091+87.1875+173.081C83.4625+193.851+85.1335+209.607+92.0575+220.35C85.5635+208.414+84.7045+192.132+89.4785+171.41C90.9115+164.821+91.7705+158.328+91.9615+152.025" opacity="1" fill="#a30714"/>
<path d="M76.4918+163.866L76.5398+163.866C75.0118+162.577+73.4358+161.478+71.7168+160.524L63.5528+171.41C65.5578+174.847+67.6588+178.19+69.8548+181.389L76.4918+163.866Z" opacity="1" fill="#a30714"/>
<path d="M128.487+159.139L128.487+158.996C128.583+158.805+128.63+158.661+128.726+158.566C129.06+158.184+129.633+158.327+130.492+158.948C131.352+159.569+131.925+160.763+132.068+162.338C132.546+166.731+134.885+169.07+139.087+169.357C143.288+169.07+145.676+166.731+146.154+162.338C146.296+160.763+146.821+159.569+147.729+158.948C148.54+158.327+149.161+158.184+149.495+158.566C149.591+158.661+149.639+158.805+149.687+158.996L149.735+159.139C150.116+160.667+150.116+162.147+149.591+163.532C152.361+163.484+154.318+162.672+155.607+160.953C156.801+159.426+157.039+157.659+156.276+155.654C155.607+154.03+154.605+152.98+153.22+152.598C154.509+153.648+155.129+154.985+154.987+156.704C154.843+158.518+153.936+159.569+152.265+160.046C152.838+157.42+152.073+156.083+149.973+155.892C147.872+155.749+146.296+157.42+145.294+161.001C144.864+162.768+144.148+164.2+143.384+165.346C142.333+166.683+140.902+167.351+139.087+167.351C137.272+167.351+135.888+166.683+134.837+165.346C133.978+164.2+133.357+162.768+132.927+161.001C131.925+157.42+130.301+155.749+128.248+155.892C126.1+156.083+125.383+157.42+125.957+160.046C124.285+159.569+123.378+158.518+123.235+156.704C123.091+154.985+123.713+153.648+124.954+152.598C123.617+152.98+122.614+154.03+121.946+155.654C121.182+157.659+121.373+159.426+122.614+160.953C123.856+162.672+125.861+163.484+128.63+163.532C128.105+162.147+128.057+160.667+128.487+159.139" opacity="1" fill="#a30714"/>
<path d="M118.365+190.747C118.317+190.652+118.317+190.508+118.317+190.461L118.174+190.27L118.174+190.508C117.84+199.867+124.811+207.124+139.087+212.376C153.363+207.124+160.334+199.867+159.999+190.508L159.999+190.27L159.905+190.461C159.857+190.508+159.857+190.652+159.809+190.747C158.854+195.283+156.323+199.103+152.169+202.254C148.636+204.88+144.243+206.79+139.087+207.984C133.93+206.79+129.537+204.88+126.004+202.254C121.85+199.103+119.32+195.283+118.365+190.747" opacity="1" fill="#a30714"/>
<path d="M113.973+176.232C113.925+176.423+113.925+176.614+113.877+176.71L111.49+188.598C111.299+191.845+112.015+194.566+113.591+196.572L113.782+196.811C113.925+196.954+114.068+197.097+114.259+197.288C112.683+195.092+112.493+191.272+113.639+185.686L115.74+175.42C117.363+170.884+120.753+168.163+125.91+167.208C118.938+167.494+114.928+170.503+113.973+176.232" opacity="1" fill="#a30714"/>
<path d="M122.137+151.882C109.818+156.227+103.277+152.55+102.466+140.805C101.892+149.065+103.946+154.317+108.481+156.561C113.208+158.853+117.744+157.277+122.137+151.882" opacity="1" fill="#a30714"/>
<path d="M68.4224+185.113C66.5124+182.248+64.8414+179.288+63.3134+176.232L55.0054+191.941C55.6264+196.668+57.5364+201.012+60.8314+205.071L68.4224+185.113Z" opacity="1" fill="#af512f"/>
<path d="M223.168+139.993L221.497+135.839C210.706+128.391+201.873+126.481+194.95+130.014C191.847+131.638+189.603+134.216+188.122+137.892C186.689+141.569+186.022+146.296+186.212+152.025C186.403+158.328+187.263+164.821+188.695+171.41C193.518+192.132+192.61+208.414+186.164+220.35C193.088+209.607+194.711+193.851+191.034+173.081C188.552+159.092+188.314+148.683+190.223+141.807C192.181+134.98+196.525+131.542+203.21+131.542C209.895+131.638+216.531+134.359+223.168+139.993" opacity="1" fill="#a30714"/>
<path d="M214.861+176.232C213.333+179.288+211.662+182.248+209.799+185.113L217.343+205.071C220.638+201.012+222.595+196.668+223.216+191.94L214.861+176.232Z" opacity="1" fill="#af512f"/>
<path d="M208.367+181.389C210.515+178.19+212.665+174.847+214.67+171.41L206.458+160.524C204.786+161.478+203.163+162.577+201.682+163.866L201.73+163.866L208.367+181.389Z" opacity="1" fill="#a30714"/>
<path d="M195.285+139.516C195.333+139.85+195.333+140.184+195.428+140.471C196.526+147.251+198.197+153.935+200.585+160.667C202.304+159.187+204.308+157.85+206.553+156.704L195.285+139.516Z" opacity="1" fill="#a30714"/>
<path d="M164.297+176.71C164.297+176.614+164.297+176.423+164.201+176.232C163.246+170.503+159.283+167.495+152.265+167.209C157.469+168.163+160.859+170.885+162.483+175.421L164.535+185.686C165.73+191.273+165.49+195.092+163.962+197.289C164.106+197.098+164.297+196.954+164.44+196.811L164.631+196.572C166.206+194.567+166.923+191.845+166.684+188.599L164.297+176.71Z" opacity="1" fill="#a30714"/>
<path d="M169.74+156.561C174.276+154.317+176.33+149.065+175.757+140.805C174.945+152.55+168.356+156.227+156.037+151.882C160.477+157.277+165.013+158.853+169.74+156.561" opacity="1" fill="#a30714"/>
<path d="M150.546+64.6494C154.031+64.5534+157.612+65.3654+161.289+67.0844C161.05+66.9414+160.812+66.7974+160.62+66.7024C156.991+64.5534+153.268+63.1214+149.4+62.2614C148.015+62.0234+146.631+61.7844+145.198+61.5934C151.405+69.8054+153.984+78.7824+152.981+88.6174C155.129+80.7874+154.317+72.8144+150.546+64.6494" opacity="1" fill="#ffa042"/>
<path d="M142.859+63.4077C142.429+62.7397+141.952+62.0707+141.522+61.4497C140.711+61.4497+139.851+61.4977+139.088+61.5457C138.323+61.4977+137.464+61.4497+136.7+61.4497C136.27+62.0707+135.793+62.7397+135.315+63.4077L142.859+63.4077Z" opacity="1" fill="#ffa042"/>
<path d="M117.601+66.7021C117.362+66.7981+117.123+66.9411+116.933+67.0841C120.609+65.3651+124.143+64.5541+127.676+64.6491C123.856+72.8141+123.092+80.7871+125.241+88.6181C124.19+78.7821+126.816+69.8061+132.976+61.5931C131.591+61.7851+130.159+62.0231+128.822+62.2621C124.906+63.1211+121.182+64.5541+117.601+66.7021" opacity="1" fill="#ffa042"/>
<path d="M129.299+59.6358C130.636+55.8158+133.931+54.0498+139.088+54.1448C144.244+54.0498+147.539+55.8158+148.923+59.6358C147.539+55.5778+144.244+53.1898+139.088+52.3308C133.931+53.1898+130.636+55.5778+129.299+59.6358" opacity="1" fill="#ffa042"/>
<path d="M97.5625+87.9062C93.9188+93.9553+90.6545+100.837+87.8125+108.812C89.4355+109.577+91.0645+110.395+92.6875+111.062C93.3785+102.769+95.4247+95.3141+98.5312+88.5312C98.1987+88.2649+97.882+88.0861+97.5625+87.9062ZM180.625+87.9062C180.304+88.0861+179.99+88.2649+179.656+88.5312C182.755+95.3141+184.81+102.769+185.531+111.062C187.106+110.394+188.782+109.577+190.406+108.812C187.564+100.837+184.272+93.9551+180.625+87.9062Z" opacity="1" fill="#ffa042"/>
<path d="M120.991+149.16C123.713+148.253+126.434+146.868+129.203+144.863C119.081+148.301+110.439+146.821+103.277+140.423C106.619+146.582+112.54+149.494+120.991+149.16" opacity="1" fill="#ffa042"/>
<path d="M139.088+148.158C136.414+145.818+134.265+145.388+132.642+147.06C132.021+147.633+131.687+148.444+131.687+149.351C131.734+150.354+132.165+151.357+132.976+152.36C134.6+154.556+135.411+156.8+135.316+159.044C135.841+157.086+135.745+154.699+135.077+151.882C134.695+150.402+134.886+149.399+135.554+148.779C136.318+148.062+137.464+148.301+139.088+149.447C140.711+148.301+141.857+148.062+142.669+148.779C143.289+149.399+143.481+150.402+143.099+151.882C142.478+154.699+142.334+157.086+142.907+159.044C142.812+156.8+143.528+154.556+145.199+152.36C146.059+151.357+146.488+150.354+146.488+149.351C146.488+148.444+146.154+147.633+145.581+147.06C143.91+145.388+141.762+145.818+139.088+148.158" opacity="1" fill="#f83645"/>
<path d="M82.2691+116.024C84.3221+115.88+85.5161+116.692+85.8971+118.459C86.9481+121.563+88.2851+124.236+89.9081+126.289C88.7151+123.52+87.9981+120.321+87.8081+116.597C87.8081+115.737+87.7601+114.878+87.8081+113.971C77.1601+113.732+69.2821+116.215+64.1731+121.467C70.0941+117.695+76.1101+115.88+82.2691+116.024" opacity="1" fill="#f83645"/>
<path d="M82.9376+139.516C82.8896+139.85+82.8416+140.184+82.7936+140.471C83.7016+146.773+83.0326+154.46+80.8366+163.771C81.9826+165.06+82.9856+166.445+83.7966+168.02C85.8026+156.132+85.9936+147.537+84.1786+142.19C83.8446+141.187+83.4156+140.328+82.9376+139.516" opacity="1" fill="#ffa042"/>
<path d="M93.2027+136.269L101.845+136.747C99.7917+136.078+97.9777+135.219+96.3537+134.168C93.5847+133.786+91.0547+132.784+88.9057+131.113C94.3487+139.277+95.3997+153.505+92.0567+173.702L92.2007+173.798C96.8317+156.848+97.2137+144.338+93.2027+136.269" opacity="1" fill="#ffa042"/>
<path d="M82.9854+172.222C83.0324+172.079+83.0324+171.983+83.0804+171.888C82.1254+170.217+81.0754+168.689+79.8814+167.352C79.6904+168.02+79.5474+168.641+79.3564+169.357C77.4464+176.376+76.0624+182.679+75.1544+188.503C76.9694+190.747+78.8314+192.896+80.7884+194.949C80.5974+188.169+81.3144+180.577+82.9854+172.222" opacity="1" fill="#ffa042"/>
<path d="M110.439+172.603C110.439+172.508+110.486+172.412+110.534+172.317C112.014+168.21+116.312+166.396+123.617+166.73C113.781+165.059+108.386+167.638+107.574+174.513C106.38+184.778+108.529+192.418+114.067+197.383L114.258+197.288C114.067+197.097+113.924+196.954+113.781+196.811L113.59+196.572C111.346+193.898+109.866+190.365+109.245+186.163C108.529+181.436+108.911+177.043+110.391+172.794C110.439+172.699+110.439+172.603+110.439+172.603" opacity="1" fill="#ffa042"/>
<path d="M120.848+188.456C120.18+187.501+119.75+186.355+119.511+185.066C119.989+190.509+122.996+193.66+128.774+194.567L129.442+194.663C129.633+194.663+129.824+194.663+130.015+194.758C130.302+194.806+130.54+194.806+130.827+194.806L133.978+194.806C134.217+198.578+134.933+201.061+136.318+202.207C135.697+201.252+135.411+199.915+135.458+198.148L135.458+195.284L135.458+194.281L135.458+192.753C133.978+192.706+132.45+192.658+130.827+192.658L130.493+192.658C125.765+192.419+122.519+190.986+120.848+188.456" opacity="1" fill="#ffa042"/>
<path d="M139.088+125.335C124.334+125.382+108.673+122.184+92.1045+115.69C101.75+122.804+117.363+126.815+139.088+127.722C160.813+126.815+176.473+122.804+186.117+115.69C169.55+122.184+153.889+125.382+139.088+125.335" opacity="1" fill="#fffcab"/>
<path d="M76.6348+216.864C80.1678+218.44+83.9878+219.586+87.9988+220.254C84.3698+214.954+82.0778+208.461+81.1708+200.822C78.8308+198.434+76.5868+195.999+74.5818+193.468C73.5788+203.161+74.2958+210.944+76.6348+216.864" opacity="1" fill="#fffcab"/>
<path d="M192.324+118.459C192.707+116.692+193.9+115.88+195.953+116.024C202.064+115.88+208.081+117.695+214.002+121.467C208.94+116.215+201.062+113.732+190.415+113.971C190.463+114.878+190.415+115.737+190.367+116.597C190.223+120.321+189.508+123.52+188.314+126.289C189.937+124.236+191.274+121.563+192.324+118.459" opacity="1" fill="#f83645"/>
<path d="M176.376+136.746L185.019+136.268C181.008+144.338+181.342+156.847+186.022+173.797L186.164+173.702C182.822+153.505+183.873+139.277+189.315+131.112C187.119+132.783+184.589+133.786+181.867+134.168C180.196+135.218+178.382+136.078+176.376+136.746" opacity="1" fill="#ffa042"/>
<path d="M195.285+139.516C194.76+140.328+194.378+141.187+193.996+142.19C192.229+147.537+192.372+156.132+194.378+168.02C195.237+166.445+196.24+165.06+197.386+163.771C195.141+154.46+194.521+146.773+195.428+140.471C195.333+140.184+195.333+139.85+195.285+139.516" opacity="1" fill="#ffa042"/>
<path d="M149.018+144.863C151.788+146.868+154.509+148.253+157.231+149.16C165.682+149.495+171.602+146.582+174.897+140.423C167.735+146.821+159.14+148.301+149.018+144.863" opacity="1" fill="#ffa042"/>
<path d="M167.783+172.603C167.783+172.603+167.783+172.699+167.831+172.794C169.31+177.043+169.645+181.436+168.976+186.163C168.356+190.365+166.876+193.898+164.632+196.572L164.44+196.811C164.298+196.954+164.106+197.097+163.963+197.288L164.106+197.383C169.693+192.418+171.842+184.778+170.6+174.513C169.788+167.638+164.44+165.059+154.557+166.73C161.91+166.396+166.207+168.21+167.639+172.317C167.735+172.412+167.735+172.508+167.783+172.603" opacity="1" fill="#ffa042"/>
<path d="M142.715+192.753L142.715+194.281L142.715+195.284L142.715+198.149C142.811+199.915+142.477+201.252+141.856+202.207C143.24+201.061+144.005+198.578+144.148+194.806L147.347+194.806C147.681+194.806+147.92+194.806+148.206+194.758C148.398+194.663+148.54+194.663+148.732+194.663L149.4+194.567C155.177+193.66+158.233+190.509+158.662+185.066C158.472+186.355+158.042+187.501+157.373+188.456C155.702+190.986+152.455+192.419+147.729+192.658L147.347+192.658C145.772+192.658+144.148+192.706+142.715+192.753" opacity="1" fill="#ffa042"/>
<path d="M195.093+171.887C195.141+171.983+195.141+172.078+195.189+172.221C196.86+180.577+197.624+188.169+197.433+194.949C199.391+192.896+201.204+190.747+202.971+188.503C202.159+182.678+200.775+176.375+198.865+169.357C198.674+168.64+198.531+168.02+198.292+167.351C197.147+168.688+196.048+170.216+195.093+171.887" opacity="1" fill="#ffa042"/>
<path d="M190.223+220.254C194.234+219.586+198.006+218.44+201.539+216.864C203.926+210.943+204.643+203.161+203.592+193.468C201.634+195.999+199.391+198.434+197.003+200.821C196.096+208.461+193.804+214.954+190.223+220.254" opacity="1" fill="#fffcab"/>
<path d="M104.219+18.8125C103.264+19.8635+102.421+20.8553+101.562+21.9062C87.0475+38.7603+83.61+54.3322+91.25+68.6562C82.56+73.5742+81.2652+81.1702+87.2812+91.5312C87.7582+90.1943+88.38+89.0342+89+88.0312C93.918+79.8193+100.129+82.0767+107.625+94.9688C113.546+105.998+119.332+115.511+125.156+123.438C125.3+121.481+125.616+119.456+126.094+117.594C126.81+114.729+128.105+111.581+130.062+108C130.397+107.38+131.074+106.324+132.125+104.844C119.949+95.3898+111.296+81.6118+106.188+63.4688C102.893+51.6747+101.428+41.2595+101.906+32.1875C102.288+28.2725+102.952+24.2923+103.812+20.2812C103.812+20.1383+103.89+20.0647+103.938+19.9688C104.033+19.5868+104.123+19.2425+104.219+18.8125ZM173.938+18.8125C174.081+19.2425+174.186+19.5868+174.281+19.9688C174.329+20.0638+174.31+20.1373+174.406+20.2812C175.265+24.2923+175.914+28.2725+176.344+32.1875C176.774+41.2585+175.278+51.6748+172.031+63.4688C166.923+81.6118+158.285+95.3898+146.062+104.844C147.112+106.324+147.822+107.379+148.156+108C150.114+111.581+151.394+114.729+152.062+117.594C152.589+119.456+152.936+121.48+153.031+123.438C158.857+115.511+164.69+105.999+170.562+94.9688C178.059+82.0777+184.254+79.8193+189.219+88.0312C189.84+89.0332+190.411+90.1942+190.938+91.5312C196.905+81.1702+195.562+73.5743+186.969+68.6562C194.607+54.3322+191.14+38.7602+176.625+21.9062C175.766+20.8553+174.894+19.8625+173.938+18.8125ZM139.094+103.406C135.512+107.083+132.781+110.973+131.062+115.031C130.299+116.942+129.818+118.602+129.531+119.938C129.102+122.516+129.254+124.715+129.875+126.625C130.161+127.484+130.6+128.33+131.125+129.094C132.414+130.861+134.116+131.885+136.312+132.219C137.267+132.363+138.234+132.437+139.094+132.438C139.953+132.438+140.889+132.363+141.844+132.219C144.04+131.885+145.804+130.861+147.094+129.094C147.571+128.33+148.025+127.484+148.312+126.625C148.932+124.715+149.055+122.517+148.625+119.938C148.387+118.601+147.906+116.942+147.094+115.031C145.375+110.973+142.722+107.083+139.094+103.406ZM139.094+110.438L139.125+110.5C141.034+112.6+142.481+114.817+143.531+117.156C143.531+117.299+143.608+117.405+143.656+117.5C144.086+118.599+144.374+119.549+144.469+120.312C144.851+122.652+144.581+124.566+143.531+126.094C143.054+126.81+142.466+127.353+141.75+127.688C140.937+127.927+140.172+128.108+139.312+128.156L139.125+128.156L139.094+128.156L138.906+128.156C138.046+128.108+137.233+127.926+136.469+127.688C135.752+127.354+135.165+126.81+134.688+126.094C133.638+124.566+133.306+122.653+133.688+120.312C133.832+119.549+134.132+118.599+134.562+117.5C134.61+117.405+134.593+117.299+134.688+117.156C135.691+114.817+137.184+112.6+139.094+110.5L139.094+110.438Z" opacity="1" fill="#ffa042"/>
<path d="M101.562+21.9062C87.0475+38.7603+83.611+54.3322+91.25+68.6562C92.348+69.7553+94.4863+70.2835+97.7812+70.1875C88.2312+55.5775+89.4825+39.4763+101.562+21.9062ZM176.625+21.9062C188.705+39.4763+189.987+55.5775+180.438+70.1875C183.733+70.2825+185.87+69.7543+186.969+68.6562C194.608+54.3322+191.139+38.7603+176.625+21.9062ZM97.75+81.5938C94.265+81.4507+91.34+83.6382+89+88.0312C93.918+79.8182+100.129+82.0778+107.625+94.9688C113.546+105.998+119.332+115.511+125.156+123.438C125.3+121.479+125.617+119.456+126.094+117.594C124.089+115.636+121.421+112.003+118.031+106.75C116.838+104.84+112.977+98.5833+106.531+88.0312C104.001+83.8772+101.092+81.7368+97.75+81.5938ZM180.469+81.5938C177.079+81.7368+174.218+83.8772+171.688+88.0312C165.241+98.5833+161.397+104.841+160.156+106.75C156.814+112.003+154.115+115.636+152.062+117.594C152.588+119.456+152.935+121.48+153.031+123.438C158.856+115.511+164.689+105.999+170.562+94.9688C178.058+82.0777+184.254+79.8192+189.219+88.0312C186.832+83.6382+183.859+81.4507+180.469+81.5938Z" opacity="1" fill="#af512f"/>
<path d="M101.906+32.1875C100.426+46.3685+102.071+60.208+106.75+73.625C109.424+81.217+112.725+88.0465+116.688+94.0625C120.938+100.603+125.384+105.231+130.062+108C130.397+107.38+131.074+106.324+132.125+104.844C119.949+95.3898+111.296+81.6118+106.188+63.4688C102.893+51.6747+101.428+41.2595+101.906+32.1875ZM176.344+32.1875C176.774+41.2595+175.278+51.6747+172.031+63.4688C166.923+81.6118+158.284+95.3897+146.062+104.844C147.112+106.324+147.822+107.38+148.156+108C152.788+105.231+157.282+100.604+161.531+94.0625C165.494+88.0465+168.78+81.217+171.406+73.625C176.085+60.208+177.776+46.3685+176.344+32.1875ZM91.25+68.6562C82.561+73.5743+81.2643+81.1702+87.2812+91.5312C82.7922+80.1683+86.3222+73.0045+97.7812+70.1875C94.4872+70.2825+92.349+69.7543+91.25+68.6562ZM186.969+68.6562C185.87+69.7553+183.732+70.2835+180.438+70.1875C191.896+73.0045+195.424+80.1672+190.938+91.5312C196.905+81.1702+195.563+73.5743+186.969+68.6562ZM139.094+103.406C135.512+107.082+132.782+110.973+131.062+115.031C130.298+116.941+129.818+118.6+129.531+119.938C129.101+122.516+129.255+124.714+129.875+126.625C128.873+119.797+131.932+113.151+139.094+106.562C146.303+113.152+149.361+119.797+148.312+126.625C148.933+124.714+149.054+122.515+148.625+119.938C148.386+118.6+147.906+116.941+147.094+115.031C145.375+110.973+142.722+107.082+139.094+103.406ZM134.562+117.5C131.84+122.895+132.16+126.728+135.406+128.781C136.504+129.545+137.709+129.921+139.094+129.969C140.479+129.921+141.652+129.545+142.75+128.781C146.045+126.728+146.282+122.895+143.656+117.5C144.086+118.598+144.374+119.548+144.469+120.312C144.851+122.652+144.581+124.566+143.531+126.094C143.054+126.81+142.466+127.353+141.75+127.688C140.937+127.926+140.172+128.108+139.312+128.156L139.125+128.156L139.094+128.156L138.906+128.156C138.046+128.108+137.233+127.926+136.469+127.688C135.752+127.353+135.165+126.81+134.688+126.094C133.638+124.566+133.305+122.651+133.688+120.312C133.83+119.549+134.133+118.598+134.562+117.5Z" opacity="1" fill="#fffcab"/>
</g>
</svg>
