<?xml version="1.0" encoding="UTF-8" standalone="no"?> <!-- Created with Vectornator for iOS (http://vectornator.io/) --><!DOCTYPE svg PUBLIC "-//W3C//DTD SVG 1.1//EN" "http://www.w3.org/Graphics/SVG/1.1/DTD/svg11.dtd">
<svg style="fill-rule:evenodd;clip-rule:evenodd;stroke-linecap:round;stroke-linejoin:round;" xmlns:vectornator="http://vectornator.io" xmlns:xlink="http://www.w3.org/1999/xlink" xmlns="http://www.w3.org/2000/svg" xml:space="preserve" version="1.1" viewBox="0 0 277.84 265.17">
<metadata>
<vectornator:setting key="RulersVisible" value="1"/>
<vectornator:setting key="GridSpacing" value="16"/>
<vectornator:setting key="Units" value="Points"/>
<vectornator:setting key="DynamicGuides" value="1"/>
<vectornator:setting key="GuidesVisible" value="1"/>
<vectornator:setting key="SnapToGuides" value="1"/>
<vectornator:setting key="SnapToEdges" value="1"/>
</metadata>
<defs/>
<g id="logo" vectornator:layerName="logo">
<g opacity="1">
<path d="M226.505+242.396L229.82+242.396C231.004+242.396+232.093+242.633+233.135+243.012C234.225+243.485+235.124+244.054+235.787+244.811C236.592+245.569+237.208+246.469+237.539+247.463C238.013+248.647+238.202+249.831+238.202+251.015C238.202+252.199+238.013+253.288+237.539+254.472C237.208+255.514+236.592+256.461+235.787+257.171C235.076+257.882+234.13+258.497+233.135+258.971C232.235+259.302+231.147+259.539+229.82+259.539L226.505+259.539C225.368+259.539+224.279+259.302+223.332+258.971C222.243+258.497+221.344+257.929+220.728+257.171C220.018+256.461+219.449+255.514+218.976+254.472C218.597+253.383+218.407+252.293+218.407+251.015C218.407+249.594+218.597+248.458+218.976+247.416C219.496+246.327+220.112+245.427+220.728+244.811C221.344+244.054+222.243+243.485+223.332+243.012C224.374+242.633+225.416+242.396+226.505+242.396M229.82+236.761L226.505+236.761C224.517+236.761+222.669+237.092+221.107+237.85C219.355+238.513+217.887+239.507+216.75+240.691C215.424+241.97+214.477+243.438+213.861+245.048C213.104+246.895+212.772+248.789+212.772+250.731C212.772+252.672+213.104+254.567+213.861+256.461C214.477+258.119+215.424+259.634+216.75+261.007C217.887+262.333+219.355+263.28+221.107+264.038C222.953+264.796+224.753+265.174+226.505+265.174L229.82+265.174C231.667+265.174+233.609+264.796+235.455+264.038C237.208+263.28+238.723+262.333+239.859+261.007C241.091+259.634+242.038+258.119+242.748+256.461C243.411+254.614+243.79+252.72+243.79+250.731C243.79+248.6+243.411+246.706+242.748+245.048C241.99+243.296+241.091+241.828+239.907+240.739C238.628+239.413+237.113+238.465+235.455+237.85C233.609+237.092+231.667+236.761+229.82+236.761" opacity="1" fill="#e9a043"/>
<path d="M253.783+239.128C253.073+239.791+252.552+240.691+252.031+241.732C251.699+242.68+251.463+243.769+251.463+244.953C251.463+246.232+251.699+247.368+252.031+248.22C252.552+249.357+253.12+250.21+253.878+250.825C254.683+251.63+255.535+252.198+256.577+252.482C257.762+253.003+258.992+253.193+260.271+253.193L268.889+253.193C270.121+253.193+271.021+253.477+271.59+253.951C272.205+254.566+272.536+255.419+272.536+256.461C272.536+257.408+272.205+258.118+271.59+258.686C271.021+259.254+270.121+259.539+268.889+259.539L251.888+259.539L251.888+265.174L268.889+265.174C270.263+265.174+271.59+264.937+272.82+264.464C273.957+264.038+274.904+263.517+275.567+262.759C276.325+261.954+276.94+261.007+277.319+260.06C277.698+259.065+277.841+257.929+277.841+256.65C277.841+253.951+277.083+251.867+275.567+250.446C274.052+249.073+271.826+248.362+268.889+248.362L260.271+248.362C259.419+248.362+258.613+248.126+258.093+247.558C257.572+247.084+257.288+246.421+257.288+245.332C257.288+244.432+257.572+243.674+258.093+243.201C258.566+242.68+259.324+242.396+260.271+242.396L276.372+242.396L276.372+236.76L260.271+236.76C258.992+236.76+257.667+236.997+256.482+237.471C255.488+237.802+254.589+238.37+253.783+239.128" opacity="1" fill="#e9a043"/>
<path d="M94.8077+237.518C93.1977+237.044+91.6827+236.76+90.3557+236.76L73.7337+236.76L73.7337+265.174L79.2267+265.174L79.2267+242.395L90.3557+242.395C91.9667+242.395+93.1977+242.822+94.0497+243.627C94.9027+244.385+95.3287+245.616+95.3287+247.368C95.3287+248.931+94.9027+250.209+94.0977+251.157C93.2447+252.009+92.0137+252.435+90.3557+252.435L82.0207+252.435L82.0207+257.455L89.0777+257.455L96.0387+265.174L103.427+265.174L95.2337+256.508C96.9387+255.939+98.2177+254.85+99.2587+253.193C100.301+251.63+100.775+249.688+100.775+247.273C100.775+245.71+100.538+244.29+100.064+242.916C99.7327+241.78+99.0697+240.691+98.1227+239.649C97.0337+238.654+95.9917+237.992+94.8077+237.518" opacity="1" fill="#e9a043"/>
<path d="M65.6358+242.396L65.6358+236.761L53.6548+236.761C51.6658+236.761+49.8658+237.092+48.2088+237.85C46.5038+238.465+45.0828+239.413+43.8048+240.691C42.6208+241.828+41.6738+243.296+40.9638+245.048C40.2528+246.706+39.9218+248.6+39.9218+250.731C39.9218+252.72+40.2528+254.614+40.9638+256.461C41.6738+258.119+42.6208+259.729+43.8048+261.007C45.0828+262.333+46.5038+263.28+48.2088+264.038C49.8658+264.796+51.6658+265.174+53.6548+265.174L65.6358+265.174L65.6358+259.539L53.6548+259.539C52.4708+259.539+51.3818+259.302+50.3398+258.971C49.4878+258.497+48.5878+257.929+47.8298+257.171C47.0248+256.461+46.5038+255.466+46.0778+254.472C45.6988+253.335+45.4618+252.199+45.4618+251.015C45.4618+249.689+45.6988+248.458+46.0778+247.416C46.5038+246.421+47.0248+245.569+47.8298+244.811C48.4928+244.054+49.3448+243.438+50.3398+243.012C51.3818+242.633+52.4708+242.396+53.6548+242.396L65.6358+242.396Z" opacity="1" fill="#e9a043"/>
<path d="M17.001+236.998C16.527+237.235+16.148+237.708+15.817+238.418L0+265.175L6.109+265.175L18.374+244.054L24.105+253.525L15.817+253.525L13.355+258.213L26.709+258.213L30.782+265.175L37.222+265.175L21.263+238.276C20.884+237.708+20.6+237.282+20.126+236.998C19.653+236.619+19.179+236.382+18.658+236.382C17.996+236.382+17.475+236.619+17.001+236.998" opacity="1" fill="#e9a043"/>
<path d="M174.366+239.602C173.514+238.655+172.378+237.992+171.098+237.519C169.489+237.045+167.973+236.761+166.647+236.761L150.357+236.761L150.357+265.174L155.85+265.174L155.85+242.396L166.647+242.396C168.258+242.396+169.489+242.822+170.294+243.675C171.241+244.527+171.715+245.711+171.715+247.274C171.715+248.647+171.241+249.831+170.294+250.731C169.489+251.63+168.258+252.009+166.647+252.009L158.596+252.009L158.596+257.456L166.647+257.456C168.258+257.456+169.773+257.266+171.098+256.745C172.33+256.271+173.42+255.514+174.366+254.472C175.266+253.62+175.976+252.578+176.45+251.252C176.924+249.973+177.161+248.6+177.161+247.084C177.161+245.569+176.924+244.196+176.45+242.917C175.976+241.543+175.266+240.502+174.366+239.602" opacity="1" fill="#e9a043"/>
<path d="M183.033+242.396L191.746+242.396L191.746+265.174L197.476+265.174L197.476+242.396L206.19+242.396L206.19+236.761L183.033+236.761L183.033+242.396Z" opacity="1" fill="#e9a043"/>
<path d="M143.159+236.761L136.481+236.761L125.779+249.547L115.219+236.761L108.21+236.761L122.843+254.472L122.843+265.175L128.431+265.175L128.431+254.472L143.159+236.761Z" opacity="1" fill="#e9a043"/>
<path d="M175.422+55.3863C175.517+54.8613+175.66+54.3843+175.804+53.8583C181.963+31.5133+179.098+19.2423+167.305+16.8553C168.69+21.3433+169.453+25.9743+169.693+30.7973C170.122+41.4443+168.356+52.0443+164.44+62.6443C164.917+62.9783+165.347+63.2643+165.824+63.5983L175.422+55.3863Z" opacity="1" fill="#ffa042"/>
<path d="M192.085+189.458L183.634+166.826L161.719+185.352L141.617+219.873C161.719+214.286+174.467+204.116+179.957+189.315C182.201+198.864+181.963+207.315+179.337+214.764C179.003+215.623+178.716+216.387+178.382+217.151C188.266+210.801+192.849+201.538+192.085+189.458" opacity="1" fill="#ffa042"/>
<path d="M113.543+62.6441C109.58+52.0441+107.813+41.4441+108.291+30.7971C108.481+25.9751+109.246+21.3431+110.63+16.8551C98.837+19.2431+95.972+31.5131+102.131+53.8581C102.274+54.3841+102.466+54.8611+102.561+55.3861L112.11+63.5991C112.588+63.2651+113.065+62.9781+113.543+62.6441" opacity="1" fill="#ffa042"/>
<path d="M94.2535+166.826L85.8975+189.458C85.1335+201.538+89.6695+210.801+99.6015+217.151C99.2185+216.387+98.9325+215.623+98.6465+214.764C95.9725+207.315+95.7815+198.864+97.9775+189.315C103.469+204.116+116.217+214.286+136.318+219.872L116.217+185.352L94.2535+166.826Z" opacity="1" fill="#ffa042"/>
<path d="M193.9+66.75C198.054+57.296+197.671+47.031+192.707+35.906C192.611+35.62+192.515+35.381+192.372+35.19C184.733+19.911+173.273+8.213+157.995+0C165.253+9.12+169.31+19.434+170.17+30.797C170.982+41.779+169.549+52.712+165.73+63.599C162.053+60.877+158.09+58.824+153.793+57.583C152.743+53.906+150.689+51.137+147.586+49.179C145.103+47.604+142.239+46.84+138.992+46.792C135.697+46.84+132.785+47.604+130.302+49.179C127.198+51.137+125.145+53.906+124.095+57.583C119.845+58.824+115.835+60.877+112.11+63.599C108.386+52.712+106.906+41.779+107.766+30.797C108.625+19.434+112.683+9.12+119.941+0C104.614+8.213+93.203+19.911+85.516+35.19C85.373+35.381+85.325+35.62+85.229+35.906C80.264+47.031+79.882+57.296+84.036+66.75C79.691+69.806+77.542+74.485+77.638+80.692C77.733+87.233+80.407+93.011+85.659+97.976C85.659+98.072+85.659+98.072+85.611+98.072C84.179+101.509+82.938+104.899+81.792+108.337C68.422+108.91+59.303+114.926+54.29+126.29L46.221+146.486L50.47+149.208C53.764+146.677+57.345+144.338+61.308+142.189C68.852+138.179+74.105+136.651+77.16+137.653L64.03+157.086L66.178+158.519L56.008+171.41L58.014+173.511L49.515+189.697C49.038+193.182+49.754+197.05+51.807+201.299C53.812+205.596+56.868+209.607+60.783+213.284C70.094+221.973+80.932+226.223+93.489+225.984L93.728+225.984C97.5+225.268+100.365+224.074+102.466+222.403C95.4+211.564+93.776+198.196+97.739+182.392C99.744+191.893+104.471+199.915+111.872+206.694C118.986+213.14+127.915+217.724+138.657+220.493L138.944+220.445L138.992+220.445L139.23+220.493C150.021+217.724+158.95+213.14+166.064+206.694C173.464+199.915+178.143+191.893+180.197+182.392C184.112+198.196+182.537+211.564+175.422+222.403C177.571+224.074+180.435+225.268+184.208+225.984L184.446+225.984C197.004+226.223+207.841+221.973+217.152+213.284C221.068+209.607+224.124+205.596+226.129+201.299C228.134+197.05+228.898+193.182+228.421+189.697L219.921+173.511L221.927+171.41L211.71+158.519L213.858+157.086L200.775+137.653C203.832+136.651+209.084+138.179+216.58+142.189C220.543+144.338+224.171+146.677+227.465+149.208L231.62+146.486L223.646+126.29C218.632+114.926+209.465+108.91+196.144+108.337C194.998+104.899+193.709+101.509+192.229+98.072L192.229+97.976C197.481+93.011+200.155+87.233+200.251+80.692C200.345+74.485+198.197+69.806+193.9+66.75" opacity="1" fill="#000000"/>
<path d="M142.859+63.4077C142.429+62.7397+141.952+62.0707+141.522+61.4497C140.711+61.4497+139.851+61.4977+139.088+61.5457C138.323+61.4977+137.464+61.4497+136.7+61.4497C136.27+62.0707+135.793+62.7397+135.315+63.4077C132.212+67.9917+130.254+72.8137+129.347+77.9227C128.583+82.1717+128.583+86.5647+129.299+91.1487C132.546+90.2407+135.793+89.8597+139.088+89.8117C142.429+89.8597+145.676+90.2407+148.922+91.1487C149.639+86.5647+149.639+82.1717+148.876+77.9227C147.968+72.8137+145.963+67.9917+142.859+63.4077" opacity="1" fill="#ff0a1c"/>
<path d="M149.4+62.2617C148.015+62.0227+146.631+61.7847+145.199+61.5937C151.406+69.8057+153.984+78.7827+152.981+88.6177C152.933+88.9047+152.838+89.1427+152.838+89.4777C152.647+91.0527+152.361+92.5807+152.026+94.2037L151.788+94.8727L151.788+94.9687L151.549+95.6837C150.689+95.3497+149.83+95.1117+148.922+94.8727C145.676+94.0127+142.429+93.5837+139.087+93.5357C135.793+93.5837+132.546+94.0127+129.299+94.8727C128.392+95.1117+127.485+95.3497+126.578+95.6837L126.434+94.9687L126.434+94.8727L126.195+94.2037C125.861+92.5807+125.527+91.0527+125.384+89.4777C125.336+89.1427+125.289+88.9047+125.241+88.6177C124.191+78.7827+126.817+69.8057+132.976+61.5937C131.591+61.7847+130.159+62.0227+128.822+62.2617C124.906+63.1207+121.182+64.5537+117.601+66.7017L117.649+66.7497C117.41+66.8457+117.171+66.9407+116.933+67.0847C116.647+67.2757+116.408+67.4187+116.169+67.5617C113.829+69.0897+111.585+70.8567+109.389+72.8617C109.246+72.9567+109.198+73.0047+109.055+73.1477C107.67+74.4367+106.381+75.7737+105.14+77.2547C98.216+85.1797+92.487+95.6837+87.808+108.815C89.431+109.579+91.054+110.39+92.678+111.059C95.447+112.3+98.264+113.399+101.081+114.449C113.352+118.985+125.718+121.277+138.037+121.372L139.087+121.372L140.137+121.372C152.504+121.277+164.775+118.985+177.141+114.449C179.958+113.399+182.775+112.3+185.545+111.059C187.12+110.39+188.791+109.579+190.415+108.815C185.735+95.6837+179.958+85.1797+173.083+77.2547C171.794+75.7737+170.504+74.4367+169.168+73.1477C169.024+73.0047+168.976+72.9567+168.834+72.8617C166.636+70.8567+164.345+69.0897+162.053+67.5617C161.814+67.4187+161.576+67.2757+161.29+67.0847C161.003+66.9407+160.764+66.8457+160.573+66.7497L160.621+66.7017C156.992+64.5537+153.268+63.1207+149.4+62.2617" opacity="1" fill="#ff0a1c"/>
<path d="M160.573+66.75C160.764+66.846+161.003+66.941+161.29+67.084C161.051+66.941+160.812+66.798+160.621+66.702L160.573+66.75Z" opacity="1" fill="#ff0a1c"/>
<path d="M117.649+66.75L117.601+66.702C117.362+66.798+117.124+66.941+116.933+67.084C117.171+66.941+117.41+66.846+117.649+66.75" opacity="1" fill="#ff0a1c"/>
<path d="M208.606+121.658C209.322+121.515+210.085+121.706+210.993+122.183C211.948+122.565+212.711+123.138+213.333+123.854C214.002+124.571+214.335+125.239+214.335+125.86C214.335+126.48+214.002+126.767+213.333+126.91C212.711+127.006+211.948+126.91+210.993+126.48C210.085+126.003+209.322+125.43+208.606+124.714C207.985+123.998+207.651+123.377+207.651+122.804C207.651+122.183+207.985+121.754+208.606+121.658M218.728+128.868C217.629+125.955+216.006+123.472+214.002+121.467C208.94+116.215+201.062+113.732+190.415+113.971C190.462+114.878+190.415+115.738+190.367+116.597C190.223+120.321+189.507+123.52+188.314+126.289C186.881+129.632+184.733+132.21+181.868+134.168C180.197+135.218+178.382+136.077+176.377+136.746L185.019+136.268C181.008+144.338+181.342+156.847+186.022+173.749L186.165+173.701L186.022+173.797C186.07+173.845+186.07+173.94+186.07+173.988C186.26+174.943+186.5+175.946+186.69+176.901L186.881+177.856C190.223+195.044+190.223+207.029+186.738+213.808C186.308+218.201+186.117+220.35+186.165+220.35C193.088+209.607+194.711+193.85+191.035+173.081C188.552+159.091+188.314+148.682+190.223+141.807C192.181+134.979+196.526+131.542+203.21+131.542C209.895+131.637+216.532+134.359+223.169+139.992L218.728+128.868Z" opacity="1" fill="#ff0a1c"/>
<path d="M186.022+173.749L186.022+173.797L186.165+173.701L186.022+173.749Z" opacity="1" fill="#ff0a1c"/>
<path d="M214.861+176.232C213.333+179.288+211.662+182.248+209.799+185.113C207.937+187.93+205.837+190.747+203.592+193.468C201.634+195.999+199.391+198.434+197.004+200.821C196.096+208.461+193.804+214.954+190.223+220.254C194.234+219.586+198.007+218.44+201.54+216.864C205.311+215.145+208.797+212.997+212.044+210.323C214.096+208.652+215.863+206.885+217.343+205.071C220.638+201.012+222.595+196.668+223.216+191.94L214.861+176.232Z" opacity="1" fill="#ffa042"/>
<path d="M208.367+181.389C210.515+178.19+212.665+174.847+214.67+171.41L206.458+160.524C204.786+161.478+203.163+162.577+201.73+163.866L201.682+163.866C200.489+164.916+199.296+166.014+198.293+167.351C197.147+168.688+196.049+170.216+195.094+171.887C195.141+171.983+195.141+172.078+195.189+172.222C196.86+180.577+197.625+188.169+197.433+194.949C199.391+192.896+201.205+190.747+202.971+188.503C204.882+186.211+206.648+183.824+208.367+181.389" opacity="1" fill="#ff0a1c"/>
<path d="M201.682+163.866L201.73+163.866L201.682+163.866Z" opacity="1" fill="#ff0a1c"/>
<path d="M186.165+117.075C186.165+116.454+186.117+115.977+186.117+115.69C169.55+122.184+153.889+125.383+139.088+125.335C124.334+125.383+108.673+122.184+92.1046+115.69C92.1046+115.977+92.0576+116.454+92.0096+117.075C91.9616+117.6+92.0096+118.03+92.1046+118.364C92.7256+126.29+97.8346+131.447+107.575+133.929C118.127+136.746+128.631+138.179+139.088+138.179C149.592+138.179+160.048+136.746+170.647+133.929C180.388+131.447+185.449+126.29+186.07+118.364C186.165+118.03+186.213+117.6+186.165+117.075" opacity="1" fill="#ffa042"/>
<path d="M175.661+139.659C175.423+139.898+175.183+140.184+174.897+140.423C167.735+146.821+159.14+148.301+149.018+144.863C151.788+146.868+154.51+148.253+157.231+149.16C160+150.02+162.769+150.354+165.587+150.02C163.199+151.643+160.048+152.312+156.037+151.882C160.477+157.277+165.014+158.853+169.74+156.561C174.276+154.317+176.33+149.065+175.757+140.805C175.757+140.471+175.757+140.041+175.661+139.659" opacity="1" fill="#ff0a1c"/>
<path d="M195.285+139.516C194.76+140.328+194.378+141.187+193.996+142.19C192.229+147.537+192.372+156.132+194.378+168.02C195.237+166.445+196.24+165.06+197.386+163.771C198.341+162.673+199.391+161.622+200.585+160.667C202.304+159.187+204.308+157.85+206.553+156.704L195.285+139.516Z" opacity="1" fill="#ff0a1c"/>
<path d="M145.199+152.359C146.058+151.356+146.488+150.354+146.488+149.351C146.488+148.443+146.154+147.632+145.581+147.059C143.91+145.388+141.761+145.817+139.088+148.157C136.413+145.817+134.265+145.388+132.641+147.059C132.021+147.632+131.687+148.443+131.687+149.351C131.734+150.354+132.164+151.356+132.976+152.359C134.599+154.555+135.411+156.799+135.315+159.043C133.883+155.653+131.591+153.505+128.488+152.693C127.103+152.311+125.909+152.311+124.954+152.598C123.617+152.98+122.615+154.03+121.947+155.653C121.182+157.659+121.373+159.425+122.615+160.953C123.856+162.672+125.862+163.484+128.631+163.531C128.106+162.147+128.058+160.667+128.488+159.139L128.488+158.996C128.583+158.805+128.631+158.661+128.726+158.566C129.061+158.184+129.634+158.327+130.493+158.948C131.352+159.568+131.926+160.762+132.069+162.338C132.546+166.731+134.886+169.07+139.088+169.357C143.289+169.07+145.677+166.731+146.154+162.338C146.297+160.762+146.822+159.568+147.729+158.948C148.541+158.327+149.162+158.184+149.496+158.566C149.592+158.661+149.639+158.805+149.687+158.996L149.735+159.139C150.117+160.667+150.117+162.147+149.592+163.531C152.361+163.484+154.318+162.672+155.607+160.953C156.802+159.425+157.04+157.659+156.276+155.653C155.607+154.03+154.605+152.98+153.22+152.598C152.265+152.311+151.072+152.311+149.735+152.693C146.632+153.505+144.34+155.653+142.907+159.043C142.811+156.799+143.528+154.555+145.199+152.359" opacity="1" fill="#ff0a1c"/>
<path d="M167.497+139.611C165.825+139.468+163.82+139.659+161.528+140.232C159.236+140.757+157.374+141.425+155.942+142.19C160.955+143.717+164.775+142.858+167.497+139.611" opacity="1" fill="#ffa042"/>
<path d="M154.557+166.731C153.888+166.874+153.077+167.065+152.265+167.209C157.469+168.163+160.859+170.885+162.483+175.421L164.536+185.686C165.634+190.795+165.586+194.519+164.297+196.763L164.44+196.811L164.631+196.572L164.775+196.763C169.883+191.75+171.793+184.349+170.6+174.514C169.787+167.638+164.44+165.06+154.557+166.731" opacity="1" fill="#ff0a1c"/>
<path d="M164.775+196.763L164.631+196.572L164.44+196.811C164.297+196.954+164.106+197.097+163.963+197.288L164.106+197.384C164.297+197.241+164.44+197.097+164.631+196.954C164.679+196.907+164.727+196.811+164.775+196.763" opacity="1" fill="#ff0a1c"/>
<path d="M164.44+196.811L164.297+196.763C164.154+196.954+164.058+197.145+163.962+197.289C164.106+197.098+164.297+196.954+164.44+196.811" opacity="1" fill="#ff0a1c"/>
<path d="M142.715+192.753L142.715+194.281L142.715+195.284L142.715+198.149C142.811+199.915+142.477+201.252+141.856+202.207C141.856+202.35+141.761+202.446+141.617+202.541C141.331+202.923+140.948+203.21+140.519+203.4C140.089+203.591+139.611+203.687+139.087+203.83C138.562+203.687+138.132+203.591+137.702+203.4C137.225+203.21+136.842+202.923+136.604+202.541C136.461+202.446+136.365+202.35+136.318+202.207C135.697+201.252+135.41+199.915+135.458+198.149L135.458+195.284L135.458+194.281L135.458+192.753C133.978+192.706+132.45+192.658+130.827+192.658L130.492+192.658C125.765+192.419+122.519+190.986+120.848+188.456C120.179+187.501+119.75+186.355+119.511+185.066C119.511+184.779+119.511+184.541+119.463+184.254L119.463+183.92L118.174+190.271L118.317+190.461L118.317+190.509L118.174+190.509C117.84+199.867+124.811+207.125+139.087+212.377C153.22+207.22+160.238+200.058+159.999+190.795L159.809+190.748C159.857+190.652+159.857+190.557+159.904+190.509L159.904+190.461L159.999+190.271L158.71+183.92L158.71+184.254C158.71+184.541+158.71+184.779+158.662+185.066C158.472+186.355+158.042+187.501+157.373+188.456C155.702+190.986+152.455+192.419+147.729+192.658L147.347+192.658C145.772+192.658+144.148+192.706+142.715+192.753" opacity="1" fill="#ff0a1c"/>
<path d="M160+190.795L160+190.508L160+190.27L159.905+190.461L159.905+190.508C159.857+190.556+159.857+190.652+159.81+190.747L160+190.795Z" opacity="1" fill="#ff0a1c"/>
<path d="M118.317+190.461L118.174+190.27L118.174+190.508L118.317+190.508L118.317+190.461Z" opacity="1" fill="#ff0a1c"/>
<path d="M146.488+187.93L149.162+183.394L139.088+183.394L129.013+183.394L131.687+187.93L139.088+187.93L146.488+187.93Z" opacity="1" fill="#ff0a1c"/>
<path d="M154.939+179.479L151.644+173.559L126.578+173.559L123.235+179.479L154.939+179.479Z" opacity="1" fill="#ff0a1c"/>
<path d="M129.299+59.6358C132.45+59.0628+135.745+58.9198+139.088+59.1578C142.477+58.9198+145.676+59.0628+148.923+59.6358C147.539+55.5778+144.244+53.1898+139.088+52.3308C133.931+53.1898+130.636+55.5778+129.299+59.6358" opacity="1" fill="#ff0a1c"/>
<path d="M112.636+150.02C115.405+150.354+118.175+150.02+120.991+149.161C123.713+148.253+126.434+146.869+129.204+144.863C119.082+148.301+110.44+146.821+103.278+140.423L102.513+139.659C102.466+140.041+102.466+140.471+102.466+140.805C101.893+149.065+103.946+154.317+108.482+156.562C113.209+158.853+117.745+157.277+122.137+151.882C118.127+152.312+114.975+151.644+112.636+150.02" opacity="1" fill="#ff0a1c"/>
<path d="M116.694+140.231C114.402+139.658+112.397+139.467+110.678+139.61C113.447+142.857+117.267+143.717+122.233+142.189C120.848+141.425+118.986+140.756+116.694+140.231" opacity="1" fill="#ffa042"/>
<path d="M67.2291+122.184C68.1361+121.706+68.9001+121.516+69.5681+121.659C70.2371+121.754+70.5711+122.184+70.5711+122.805C70.5711+123.377+70.2371+123.998+69.5681+124.714C68.9001+125.431+68.1361+126.004+67.2291+126.481C66.2741+126.911+65.4621+127.006+64.8411+126.911C64.1731+126.767+63.8871+126.481+63.8871+125.86C63.8871+125.24+64.1731+124.571+64.8411+123.855C65.4621+123.139+66.2741+122.566+67.2291+122.184M87.8081+116.598C87.8081+115.738+87.7601+114.879+87.8081+113.972C77.1601+113.733+69.2821+116.216+64.1731+121.468C62.1681+123.473+60.5921+125.956+59.4941+128.869L55.0541+139.993C61.6901+134.359+68.3271+131.638+75.0121+131.542C81.6961+131.542+86.0411+134.98+87.9511+141.808C89.9081+148.683+89.6691+159.092+87.1871+173.081C83.4621+193.851+85.1341+209.607+92.0571+220.351C92.1041+220.351+91.8661+218.202+91.4841+213.809C87.9991+207.029+87.9511+195.045+91.3411+177.856L91.5321+176.901C91.7231+175.946+91.9611+174.944+92.1041+173.989C92.1041+173.941+92.1041+173.846+92.2001+173.798L92.0571+173.702C95.3991+153.505+94.3491+139.277+88.9061+131.113C91.0541+132.784+93.5851+133.786+96.3541+134.168C93.4891+132.211+91.3411+129.632+89.9081+126.29C88.7151+123.521+87.9991+120.322+87.8081+116.598" opacity="1" fill="#ff0a1c"/>
<path d="M93.2027+136.269L101.845+136.747C99.7917+136.078+97.9777+135.219+96.3537+134.168C93.5847+133.786+91.0547+132.784+88.9057+131.113C94.3487+139.277+95.3997+153.505+92.0567+173.702L92.2007+173.798C96.8317+156.848+97.2137+144.338+93.2027+136.269" opacity="1" fill="#ff0a1c"/>
<path d="M84.1788+142.189C83.8448+141.186+83.4148+140.327+82.9378+139.515L71.6698+156.704C73.9128+157.85+75.8708+159.187+77.6378+160.667C78.8308+161.622+79.8818+162.672+80.8368+163.77C81.9828+165.059+82.9858+166.444+83.7968+168.02C85.8028+156.131+85.9928+147.536+84.1788+142.189" opacity="1" fill="#ff0a1c"/>
<path d="M76.5396+163.866L76.4916+163.866L76.5396+163.866Z" opacity="1" fill="#ff0a1c"/>
<path d="M76.4918+163.866L76.5398+163.866C75.0118+162.577+73.4358+161.478+71.7168+160.524L63.5528+171.41C65.5578+174.847+67.6588+178.19+69.8548+181.389C71.5258+183.824+73.3408+186.211+75.1548+188.503C76.9698+190.747+78.8308+192.896+80.7888+194.949C80.5978+188.169+81.3138+180.577+82.9858+172.221C83.0328+172.078+83.0328+171.983+83.0808+171.887C82.1258+170.216+81.0748+168.688+79.8818+167.351C78.8788+166.014+77.7328+164.916+76.5398+163.866L76.4918+163.866Z" opacity="1" fill="#ff0a1c"/>
<path d="M125.909+167.208C125.145+167.064+124.333+166.874+123.617+166.73C113.782+165.059+108.386+167.638+107.575+174.513C106.381+184.444+108.386+191.94+113.638+196.954L113.782+196.811L113.925+196.763C112.636+194.519+112.588+190.794+113.638+185.686L115.739+175.42C117.362+170.884+120.752+168.163+125.909+167.208" opacity="1" fill="#ff0a1c"/>
<path d="M114.068+197.384L114.259+197.289C114.068+197.098+113.925+196.954+113.782+196.811L113.638+196.954L114.068+197.384Z" opacity="1" fill="#ff0a1c"/>
<path d="M113.925+196.763L113.782+196.811C113.925+196.954+114.068+197.097+114.259+197.288C114.164+197.145+114.02+196.954+113.925+196.763" opacity="1" fill="#ff0a1c"/>
<path d="M68.4224+185.113C66.5124+182.248+64.8414+179.288+63.3134+176.232L55.0054+191.941C55.6264+196.668+57.5364+201.012+60.8314+205.071C62.3594+206.885+64.1254+208.652+66.1304+210.323C69.3774+212.997+72.8624+215.145+76.6344+216.864C80.1684+218.44+83.9874+219.586+87.9984+220.254C84.3694+214.954+82.0784+208.461+81.1714+200.821C78.8314+198.434+76.5874+195.999+74.5814+193.468C72.3384+190.747+70.2844+187.93+68.4224+185.113" opacity="1" fill="#ffa042"/>
<path d="M148.922+91.1485C149.639+86.5655+149.639+82.1715+148.875+77.9225C148.54+83.0315+146.535+85.8005+142.906+86.3745L135.315+86.3745C131.686+85.8005+129.681+83.0315+129.346+77.9225C128.583+82.1715+128.583+86.5655+129.298+91.1485C132.546+90.2415+135.792+89.8595+139.087+89.8115C142.429+89.8595+145.676+90.2415+148.922+91.1485" opacity="1" fill="#a30714"/>
<path d="M151.549+95.6841C150.689+95.3501+149.829+95.1111+148.922+94.8721C145.676+94.0131+142.429+93.5831+139.087+93.5361C135.792+93.5831+132.546+94.0131+129.299+94.8721C128.392+95.1111+127.485+95.3501+126.577+95.6841L126.482+95.1111L117.649+106.331L104.709+96.8781C111.871+110.295+110.678+116.12+101.081+114.449C113.351+118.984+125.718+121.276+138.036+121.372L139.087+121.372L140.137+121.372C152.503+121.276+164.775+118.984+177.141+114.449C167.496+116.12+166.302+110.295+173.512+96.8781L160.572+106.331L151.739+95.1111L151.549+95.6841Z" opacity="1" fill="#a30714"/>
<path d="M139.088+134.979C132.356+134.979+125.146+134.358+117.602+133.021C103.087+130.682+94.5875+125.812+92.1045+118.363C92.7255+126.289+97.8345+131.446+107.575+133.929C118.127+136.746+128.631+138.178+139.088+138.178C149.592+138.178+160.048+136.746+170.648+133.929C180.388+131.446+185.449+126.289+186.07+118.363C183.635+125.812+175.136+130.682+160.621+133.021C153.029+134.358+145.819+134.979+139.088+134.979" opacity="1" fill="#af512f"/>
<path d="M82.794+140.47C82.842+140.184+82.89+139.849+82.938+139.515L71.669+156.704C73.913+157.85+75.871+159.187+77.638+160.667C79.977+153.935+81.696+147.25+82.794+140.47" opacity="1" fill="#a30714"/>
<path d="M91.9615+152.025C92.2005+146.296+91.5315+141.568+90.0995+137.892C88.6195+134.216+86.3275+131.637+83.2235+130.014C76.3485+126.481+67.4675+128.391+56.7245+135.839L55.0535+139.993C61.6905+134.359+68.3275+131.637+75.0115+131.542C81.6955+131.542+86.0415+134.98+87.9505+141.807C89.9085+148.683+89.6695+159.091+87.1875+173.081C83.4625+193.851+85.1335+209.607+92.0575+220.35C85.5635+208.414+84.7045+192.132+89.4785+171.41C90.9115+164.821+91.7705+158.328+91.9615+152.025" opacity="1" fill="#a30714"/>
<path d="M76.4918+163.866L76.5398+163.866C75.0118+162.577+73.4358+161.478+71.7168+160.524L63.5528+171.41C65.5578+174.847+67.6588+178.19+69.8548+181.389L76.4918+163.866Z" opacity="1" fill="#a30714"/>
<path d="M128.487+159.139L128.487+158.996C128.583+158.805+128.63+158.661+128.726+158.566C129.06+158.184+129.633+158.327+130.492+158.948C131.352+159.569+131.925+160.763+132.068+162.338C132.546+166.731+134.885+169.07+139.087+169.357C143.288+169.07+145.676+166.731+146.154+162.338C146.296+160.763+146.821+159.569+147.729+158.948C148.54+158.327+149.161+158.184+149.495+158.566C149.591+158.661+149.639+158.805+149.687+158.996L149.735+159.139C150.116+160.667+150.116+162.147+149.591+163.532C152.361+163.484+154.318+162.672+155.607+160.953C156.801+159.426+157.039+157.659+156.276+155.654C155.607+154.03+154.605+152.98+153.22+152.598C154.509+153.648+155.129+154.985+154.987+156.704C154.843+158.518+153.936+159.569+152.265+160.046C152.838+157.42+152.073+156.083+149.973+155.892C147.872+155.749+146.296+157.42+145.294+161.001C144.864+162.768+144.148+164.2+143.384+165.346C142.333+166.683+140.902+167.351+139.087+167.351C137.272+167.351+135.888+166.683+134.837+165.346C133.978+164.2+133.357+162.768+132.927+161.001C131.925+157.42+130.301+155.749+128.248+155.892C126.1+156.083+125.383+157.42+125.957+160.046C124.285+159.569+123.378+158.518+123.235+156.704C123.091+154.985+123.713+153.648+124.954+152.598C123.617+152.98+122.614+154.03+121.946+155.654C121.182+157.659+121.373+159.426+122.614+160.953C123.856+162.672+125.861+163.484+128.63+163.532C128.105+162.147+128.057+160.667+128.487+159.139" opacity="1" fill="#a30714"/>
<path d="M118.365+190.747C118.317+190.652+118.317+190.508+118.317+190.461L118.174+190.27L118.174+190.508C117.84+199.867+124.811+207.124+139.087+212.376C153.363+207.124+160.334+199.867+159.999+190.508L159.999+190.27L159.905+190.461C159.857+190.508+159.857+190.652+159.809+190.747C158.854+195.283+156.323+199.103+152.169+202.254C148.636+204.88+144.243+206.79+139.087+207.984C133.93+206.79+129.537+204.88+126.004+202.254C121.85+199.103+119.32+195.283+118.365+190.747" opacity="1" fill="#a30714"/>
<path d="M113.973+176.232C113.925+176.423+113.925+176.614+113.877+176.71L111.49+188.598C111.299+191.845+112.015+194.566+113.591+196.572L113.782+196.811C113.925+196.954+114.068+197.097+114.259+197.288C112.683+195.092+112.493+191.272+113.639+185.686L115.74+175.42C117.363+170.884+120.753+168.163+125.91+167.208C118.938+167.494+114.928+170.503+113.973+176.232" opacity="1" fill="#a30714"/>
<path d="M122.137+151.882C109.818+156.227+103.277+152.55+102.466+140.805C101.892+149.065+103.946+154.317+108.481+156.561C113.208+158.853+117.744+157.277+122.137+151.882" opacity="1" fill="#a30714"/>
<path d="M68.4224+185.113C66.5124+182.248+64.8414+179.288+63.3134+176.232L55.0054+191.941C55.6264+196.668+57.5364+201.012+60.8314+205.071L68.4224+185.113Z" opacity="1" fill="#af512f"/>
<path d="M223.168+139.993L221.497+135.839C210.706+128.391+201.873+126.481+194.95+130.014C191.847+131.638+189.603+134.216+188.122+137.892C186.689+141.569+186.022+146.296+186.212+152.025C186.403+158.328+187.263+164.821+188.695+171.41C193.518+192.132+192.61+208.414+186.164+220.35C193.088+209.607+194.711+193.851+191.034+173.081C188.552+159.092+188.314+148.683+190.223+141.807C192.181+134.98+196.525+131.542+203.21+131.542C209.895+131.638+216.531+134.359+223.168+139.993" opacity="1" fill="#a30714"/>
<path d="M214.861+176.232C213.333+179.288+211.662+182.248+209.799+185.113L217.343+205.071C220.638+201.012+222.595+196.668+223.216+191.94L214.861+176.232Z" opacity="1" fill="#af512f"/>
<path d="M208.367+181.389C210.515+178.19+212.665+174.847+214.67+171.41L206.458+160.524C204.786+161.478+203.163+162.577+201.682+163.866L201.73+163.866L208.367+181.389Z" opacity="1" fill="#a30714"/>
<path d="M195.285+139.516C195.333+139.85+195.333+140.184+195.428+140.471C196.526+147.251+198.197+153.935+200.585+160.667C202.304+159.187+204.308+157.85+206.553+156.704L195.285+139.516Z" opacity="1" fill="#a30714"/>
<path d="M164.297+176.71C164.297+176.614+164.297+176.423+164.201+176.232C163.246+170.503+159.283+167.495+152.265+167.209C157.469+168.163+160.859+170.885+162.483+175.421L164.535+185.686C165.73+191.273+165.49+195.092+163.962+197.289C164.106+197.098+164.297+196.954+164.44+196.811L164.631+196.572C166.206+194.567+166.923+191.845+166.684+188.599L164.297+176.71Z" opacity="1" fill="#a30714"/>
<path d="M169.74+156.561C174.276+154.317+176.33+149.065+175.757+140.805C174.945+152.55+168.356+156.227+156.037+151.882C160.477+157.277+165.013+158.853+169.74+156.561" opacity="1" fill="#a30714"/>
<path d="M150.546+64.6494C154.031+64.5534+157.612+65.3654+161.289+67.0844C161.05+66.9414+160.812+66.7974+160.62+66.7024C156.991+64.5534+153.268+63.1214+149.4+62.2614C148.015+62.0234+146.631+61.7844+145.198+61.5934C151.405+69.8054+153.984+78.7824+152.981+88.6174C155.129+80.7874+154.317+72.8144+150.546+64.6494" opacity="1" fill="#ffa042"/>
<path d="M142.859+63.4077C142.429+62.7397+141.952+62.0707+141.522+61.4497C140.711+61.4497+139.851+61.4977+139.088+61.5457C138.323+61.4977+137.464+61.4497+136.7+61.4497C136.27+62.0707+135.793+62.7397+135.315+63.4077L142.859+63.4077Z" opacity="1" fill="#ffa042"/>
<path d="M185.545+111.059C187.12+110.391+188.791+109.579+190.415+108.815C185.735+95.6836+179.958+85.1806+173.083+77.2546C180.197+86.6126+184.399+97.8806+185.545+111.059" opacity="1" fill="#ffa042"/>
<path d="M117.601+66.7021C117.362+66.7981+117.123+66.9411+116.933+67.0841C120.609+65.3651+124.143+64.5541+127.676+64.6491C123.856+72.8141+123.092+80.7871+125.241+88.6181C124.19+78.7821+126.816+69.8061+132.976+61.5931C131.591+61.7851+130.159+62.0231+128.822+62.2621C124.906+63.1211+121.182+64.5541+117.601+66.7021" opacity="1" fill="#ffa042"/>
<path d="M129.299+59.6358C130.636+55.8158+133.931+54.0498+139.088+54.1448C144.244+54.0498+147.539+55.8158+148.923+59.6358C147.539+55.5778+144.244+53.1898+139.088+52.3308C133.931+53.1898+130.636+55.5778+129.299+59.6358" opacity="1" fill="#ffa042"/>
<path d="M105.14+77.2544C98.2167+85.1804+92.4867+95.6844+87.8077+108.814C89.4307+109.578+91.0547+110.39+92.6777+111.058C93.7757+97.8804+97.9777+86.6124+105.14+77.2544" opacity="1" fill="#ffa042"/>
<path d="M120.991+149.16C123.713+148.253+126.434+146.868+129.203+144.863C119.081+148.301+110.439+146.821+103.277+140.423C106.619+146.582+112.54+149.494+120.991+149.16" opacity="1" fill="#ffa042"/>
<path d="M139.088+148.158C136.414+145.818+134.265+145.388+132.642+147.06C132.021+147.633+131.687+148.444+131.687+149.351C131.734+150.354+132.165+151.357+132.976+152.36C134.6+154.556+135.411+156.8+135.316+159.044C135.841+157.086+135.745+154.699+135.077+151.882C134.695+150.402+134.886+149.399+135.554+148.779C136.318+148.062+137.464+148.301+139.088+149.447C140.711+148.301+141.857+148.062+142.669+148.779C143.289+149.399+143.481+150.402+143.099+151.882C142.478+154.699+142.334+157.086+142.907+159.044C142.812+156.8+143.528+154.556+145.199+152.36C146.059+151.357+146.488+150.354+146.488+149.351C146.488+148.444+146.154+147.633+145.581+147.06C143.91+145.388+141.762+145.818+139.088+148.158" opacity="1" fill="#f83645"/>
<path d="M82.2691+116.024C84.3221+115.88+85.5161+116.692+85.8971+118.459C86.9481+121.563+88.2851+124.236+89.9081+126.289C88.7151+123.52+87.9981+120.321+87.8081+116.597C87.8081+115.737+87.7601+114.878+87.8081+113.971C77.1601+113.732+69.2821+116.215+64.1731+121.467C70.0941+117.695+76.1101+115.88+82.2691+116.024" opacity="1" fill="#f83645"/>
<path d="M82.9376+139.516C82.8896+139.85+82.8416+140.184+82.7936+140.471C83.7016+146.773+83.0326+154.46+80.8366+163.771C81.9826+165.06+82.9856+166.445+83.7966+168.02C85.8026+156.132+85.9936+147.537+84.1786+142.19C83.8446+141.187+83.4156+140.328+82.9376+139.516" opacity="1" fill="#ffa042"/>
<path d="M93.2027+136.269L101.845+136.747C99.7917+136.078+97.9777+135.219+96.3537+134.168C93.5847+133.786+91.0547+132.784+88.9057+131.113C94.3487+139.277+95.3997+153.505+92.0567+173.702L92.2007+173.798C96.8317+156.848+97.2137+144.338+93.2027+136.269" opacity="1" fill="#ffa042"/>
<path d="M82.9854+172.222C83.0324+172.079+83.0324+171.983+83.0804+171.888C82.1254+170.217+81.0754+168.689+79.8814+167.352C79.6904+168.02+79.5474+168.641+79.3564+169.357C77.4464+176.376+76.0624+182.679+75.1544+188.503C76.9694+190.747+78.8314+192.896+80.7884+194.949C80.5974+188.169+81.3144+180.577+82.9854+172.222" opacity="1" fill="#ffa042"/>
<path d="M110.439+172.603C110.439+172.508+110.486+172.412+110.534+172.317C112.014+168.21+116.312+166.396+123.617+166.73C113.781+165.059+108.386+167.638+107.574+174.513C106.38+184.778+108.529+192.418+114.067+197.383L114.258+197.288C114.067+197.097+113.924+196.954+113.781+196.811L113.59+196.572C111.346+193.898+109.866+190.365+109.245+186.163C108.529+181.436+108.911+177.043+110.391+172.794C110.439+172.699+110.439+172.603+110.439+172.603" opacity="1" fill="#ffa042"/>
<path d="M120.848+188.456C120.18+187.501+119.75+186.355+119.511+185.066C119.989+190.509+122.996+193.66+128.774+194.567L129.442+194.663C129.633+194.663+129.824+194.663+130.015+194.758C130.302+194.806+130.54+194.806+130.827+194.806L133.978+194.806C134.217+198.578+134.933+201.061+136.318+202.207C135.697+201.252+135.411+199.915+135.458+198.148L135.458+195.284L135.458+194.281L135.458+192.753C133.978+192.706+132.45+192.658+130.827+192.658L130.493+192.658C125.765+192.419+122.519+190.986+120.848+188.456" opacity="1" fill="#ffa042"/>
<path d="M139.088+125.335C124.334+125.382+108.673+122.184+92.1045+115.69C101.75+122.804+117.363+126.815+139.088+127.722C160.813+126.815+176.473+122.804+186.117+115.69C169.55+122.184+153.889+125.382+139.088+125.335" opacity="1" fill="#fffcab"/>
<path d="M76.6348+216.864C80.1678+218.44+83.9878+219.586+87.9988+220.254C84.3698+214.954+82.0778+208.461+81.1708+200.822C78.8308+198.434+76.5868+195.999+74.5818+193.468C73.5788+203.161+74.2958+210.944+76.6348+216.864" opacity="1" fill="#fffcab"/>
<path d="M192.324+118.459C192.707+116.692+193.9+115.88+195.953+116.024C202.064+115.88+208.081+117.695+214.002+121.467C208.94+116.215+201.062+113.732+190.415+113.971C190.463+114.878+190.415+115.737+190.367+116.597C190.223+120.321+189.508+123.52+188.314+126.289C189.937+124.236+191.274+121.563+192.324+118.459" opacity="1" fill="#f83645"/>
<path d="M176.376+136.746L185.019+136.268C181.008+144.338+181.342+156.847+186.022+173.797L186.164+173.702C182.822+153.505+183.873+139.277+189.315+131.112C187.119+132.783+184.589+133.786+181.867+134.168C180.196+135.218+178.382+136.078+176.376+136.746" opacity="1" fill="#ffa042"/>
<path d="M195.285+139.516C194.76+140.328+194.378+141.187+193.996+142.19C192.229+147.537+192.372+156.132+194.378+168.02C195.237+166.445+196.24+165.06+197.386+163.771C195.141+154.46+194.521+146.773+195.428+140.471C195.333+140.184+195.333+139.85+195.285+139.516" opacity="1" fill="#ffa042"/>
<path d="M149.018+144.863C151.788+146.868+154.509+148.253+157.231+149.16C165.682+149.495+171.602+146.582+174.897+140.423C167.735+146.821+159.14+148.301+149.018+144.863" opacity="1" fill="#ffa042"/>
<path d="M167.783+172.603C167.783+172.603+167.783+172.699+167.831+172.794C169.31+177.043+169.645+181.436+168.976+186.163C168.356+190.365+166.876+193.898+164.632+196.572L164.44+196.811C164.298+196.954+164.106+197.097+163.963+197.288L164.106+197.383C169.693+192.418+171.842+184.778+170.6+174.513C169.788+167.638+164.44+165.059+154.557+166.73C161.91+166.396+166.207+168.21+167.639+172.317C167.735+172.412+167.735+172.508+167.783+172.603" opacity="1" fill="#ffa042"/>
<path d="M142.715+192.753L142.715+194.281L142.715+195.284L142.715+198.149C142.811+199.915+142.477+201.252+141.856+202.207C143.24+201.061+144.005+198.578+144.148+194.806L147.347+194.806C147.681+194.806+147.92+194.806+148.206+194.758C148.398+194.663+148.54+194.663+148.732+194.663L149.4+194.567C155.177+193.66+158.233+190.509+158.662+185.066C158.472+186.355+158.042+187.501+157.373+188.456C155.702+190.986+152.455+192.419+147.729+192.658L147.347+192.658C145.772+192.658+144.148+192.706+142.715+192.753" opacity="1" fill="#ffa042"/>
<path d="M195.093+171.887C195.141+171.983+195.141+172.078+195.189+172.221C196.86+180.577+197.624+188.169+197.433+194.949C199.391+192.896+201.204+190.747+202.971+188.503C202.159+182.678+200.775+176.375+198.865+169.357C198.674+168.64+198.531+168.02+198.292+167.351C197.147+168.688+196.048+170.216+195.093+171.887" opacity="1" fill="#ffa042"/>
<path d="M190.223+220.254C194.234+219.586+198.006+218.44+201.539+216.864C203.926+210.943+204.643+203.161+203.592+193.468C201.634+195.999+199.391+198.434+197.003+200.821C196.096+208.461+193.804+214.954+190.223+220.254" opacity="1" fill="#fffcab"/>
<path d="M166.494+6.35107C170.123+12.8441+172.176+20.6751+172.797+29.7941C173.369+38.5321+172.557+47.6041+170.313+57.0101C168.069+66.4631+164.68+75.1531+160.143+83.1271C155.559+91.1011+149.973+97.5461+143.432+102.464C142.096+100.841+140.663+99.2651+139.088+97.8331C137.559+99.2651+136.079+100.841+134.79+102.464C128.249+97.5461+122.662+91.1011+118.031+83.1271C113.543+75.1531+110.153+66.4631+107.861+57.0101C105.665+47.6041+104.853+38.5321+105.378+29.7941C105.952+20.6751+108.1+12.8441+111.681+6.35107C99.3627+17.3321+90.9107+28.3621+86.5187+39.4871C82.2687+50.2301+82.2687+59.5401+86.5657+67.3711C77.1607+73.8641+77.6847+84.8461+88.1417+100.363C89.8127+92.8671+91.8657+88.5221+94.4447+87.4241C97.2137+86.1831+100.604+89.3821+104.71+96.8301C112.97+113.589+121.469+125.86+130.159+133.595C132.785+135.17+135.793+135.934+139.088+135.791C142.43+135.934+145.39+135.17+148.015+133.595C156.754+125.86+165.253+113.589+173.513+96.8301C177.571+89.3821+181.009+86.1831+183.778+87.4241C186.308+88.5221+188.409+92.8671+190.081+100.363C200.537+84.8461+201.015+73.8641+191.656+67.3711C195.905+59.5401+195.953+50.2301+191.656+39.4871C187.264+28.3621+178.86+17.3321+166.494+6.35107" opacity="1" fill="#000000"/>
<path d="M174.42+20.293C175.279+24.304+175.9+28.267+176.33+32.182C176.76+41.253+175.279+51.662+172.032+63.456C166.924+81.599+158.281+95.398+146.059+104.852C147.109+106.332+147.825+107.382+148.159+108.003C150.117+111.584+151.406+114.735+152.074+117.6C152.6+119.462+152.934+121.467+153.029+123.425C158.855+115.499+164.68+105.998+170.553+94.968C178.049+82.077+184.256+79.833+189.221+88.045C189.842+89.047+190.415+90.193+190.941+91.53C196.908+81.169+195.571+73.578+186.978+68.66C194.616+54.336+191.131+38.771+176.616+21.917C175.757+20.866+174.898+19.863+173.942+18.813C174.086+19.243+174.181+19.577+174.276+19.959C174.324+20.054+174.324+20.149+174.42+20.293" opacity="1" fill="#ffa042"/>
<path d="M101.893+32.1817C102.275+28.2667+102.943+24.3037+103.803+20.2927C103.803+20.1497+103.898+20.0547+103.946+19.9587C104.041+19.5767+104.137+19.2427+104.233+18.8127C103.278+19.8637+102.418+20.8657+101.559+21.9167C87.0436+38.7707+83.6056+54.3357+91.2456+68.6597C82.5556+73.5777+81.2666+81.1697+87.2826+91.5307C87.7596+90.1937+88.3806+89.0477+89.0006+88.0447C93.9186+79.8327+100.126+82.0767+107.622+94.9687C113.543+105.998+119.321+115.499+125.145+123.425C125.289+121.468+125.623+119.462+126.101+117.6C126.817+114.735+128.106+111.584+130.063+108.003C130.398+107.383+131.066+106.332+132.117+104.852C119.941+95.3977+111.299+81.5987+106.19+63.4557C102.896+51.6617+101.415+41.2537+101.893+32.1817" opacity="1" fill="#ffa042"/>
<path d="M139.088+110.438L139.136+110.486C141.045+112.586+142.478+114.831+143.528+117.17C143.528+117.313+143.623+117.409+143.671+117.504C144.101+118.603+144.388+119.558+144.483+120.321C144.865+122.661+144.578+124.571+143.528+126.099C143.051+126.815+142.478+127.34+141.762+127.674C140.949+127.913+140.186+128.104+139.326+128.152L139.136+128.152L139.088+128.152L138.897+128.152C138.037+128.104+137.226+127.913+136.462+127.674C135.745+127.34+135.172+126.815+134.695+126.099C133.645+124.571+133.31+122.661+133.692+120.321C133.836+119.558+134.122+118.603+134.552+117.504C134.6+117.409+134.6+117.313+134.695+117.17C135.698+114.831+137.178+112.586+139.088+110.486L139.088+110.438ZM129.538+119.939C129.109+122.518+129.252+124.714+129.873+126.624C130.159+127.483+130.589+128.343+131.114+129.107C132.403+130.874+134.122+131.876+136.318+132.21C137.273+132.354+138.228+132.449+139.088+132.449C139.947+132.449+140.902+132.354+141.857+132.21C144.053+131.876+145.819+130.874+147.109+129.107C147.586+128.343+148.016+127.483+148.303+126.624C148.923+124.714+149.067+122.518+148.637+119.939C148.399+118.603+147.921+116.932+147.109+115.021C145.39+110.963+142.716+107.096+139.088+103.419C135.506+107.096+132.785+110.963+131.066+115.021C130.302+116.932+129.825+118.603+129.538+119.939" opacity="1" fill="#ffa042"/>
<path d="M180.435+70.188C183.73+70.283+185.878+69.758+186.977+68.66C194.616+54.336+191.13+38.771+176.616+21.917C188.696+39.487+189.985+55.578+180.435+70.188" opacity="1" fill="#af512f"/>
<path d="M189.22+88.0449C186.833+83.6519+183.873+81.4559+180.483+81.5989C177.093+81.7419+174.228+83.8909+171.698+88.0449C165.252+98.5969+161.384+104.852+160.143+106.761C156.801+112.014+154.127+115.642+152.074+117.6C152.599+119.462+152.933+121.467+153.029+123.425C158.854+115.499+164.679+105.998+170.552+94.9679C178.048+82.0769+184.255+79.8329+189.22+88.0449" opacity="1" fill="#af512f"/>
<path d="M97.7388+81.5991C94.2538+81.4561+91.3408+83.6521+89.0008+88.0451C93.9188+79.8321+100.126+82.0771+107.622+94.9681C113.543+105.997+119.321+115.499+125.145+123.425C125.289+121.467+125.623+119.462+126.1+117.6C124.095+115.642+121.421+112.014+118.031+106.761C116.838+104.851+112.97+98.5971+106.524+88.0451C103.994+83.8911+101.081+81.7421+97.7388+81.5991" opacity="1" fill="#af512f"/>
<path d="M91.2452+68.6597C92.3432+69.7587+94.4922+70.2837+97.7872+70.1877C88.2372+55.5777+89.4782+39.4867+101.558+21.9167C87.0432+38.7707+83.6062+54.3357+91.2452+68.6597" opacity="1" fill="#af512f"/>
<path d="M186.977+68.6597C185.878+69.7587+183.73+70.2837+180.435+70.1877C191.894+73.0047+195.427+80.1667+190.94+91.5307C196.908+81.1697+195.571+73.5777+186.977+68.6597" opacity="1" fill="#fffcab"/>
<path d="M176.33+32.1817C176.76+41.2537+175.279+51.6617+172.032+63.4557C166.924+81.5987+158.281+95.3977+146.059+104.852C147.109+106.332+147.825+107.383+148.159+108.003C152.791+105.234+157.279+100.602+161.528+94.0607C165.491+88.0447+168.786+81.2177+171.412+73.6257C176.091+60.2087+177.762+46.3627+176.33+32.1817" opacity="1" fill="#fffcab"/>
<path d="M97.7867+70.188C94.4927+70.283+92.3437+69.758+91.2447+68.66C82.5557+73.578+81.2657+81.169+87.2827+91.53C82.7937+80.167+86.3277+73.005+97.7867+70.188" opacity="1" fill="#fffcab"/>
<path d="M101.893+32.1817C100.413+46.3627+102.084+60.2087+106.763+73.6257C109.437+81.2177+112.731+88.0447+116.694+94.0607C120.944+100.602+125.384+105.234+130.063+108.003C130.398+107.383+131.066+106.332+132.117+104.852C119.941+95.3977+111.299+81.5987+106.19+63.4557C102.896+51.6617+101.415+41.2537+101.893+32.1817" opacity="1" fill="#fffcab"/>
<path d="M129.538+119.939C129.108+122.517+129.252+124.713+129.872+126.624C128.87+119.796+131.926+113.159+139.088+106.57C146.297+113.159+149.352+119.796+148.303+126.624C148.923+124.713+149.066+122.517+148.637+119.939C148.398+118.602+147.921+116.931+147.109+115.021C145.39+110.963+142.716+107.095+139.088+103.419C135.506+107.095+132.785+110.963+131.066+115.021C130.302+116.931+129.825+118.602+129.538+119.939" opacity="1" fill="#fffcab"/>
<path d="M134.694+126.099C133.644+124.571+133.309+122.661+133.692+120.322C133.835+119.558+134.121+118.603+134.551+117.505C131.829+122.9+132.164+126.72+135.41+128.773C136.508+129.537+137.702+129.919+139.087+129.967C140.472+129.919+141.665+129.537+142.763+128.773C146.058+126.72+146.296+122.9+143.67+117.505C144.1+118.603+144.387+119.558+144.482+120.322C144.864+122.661+144.577+124.571+143.527+126.099C143.05+126.815+142.477+127.341+141.761+127.675C140.948+127.913+140.185+128.104+139.325+128.152L139.135+128.152L139.087+128.152L138.896+128.152C138.036+128.104+137.225+127.913+136.461+127.675C135.744+127.341+135.172+126.815+134.694+126.099" opacity="1" fill="#fffcab"/>
</g>
</g>
</svg>
