<svg xmlns:vectornator="http://vectornator.io" xmlns="http://www.w3.org/2000/svg" viewBox="0 0 277.84 265.17" fill-rule="evenodd" clip-rule="evenodd" stroke-linecap="round" stroke-linejoin="round"><g vectornator:layerName="logo"><path d="M226.505 242.396h3.315c1.184 0 2.273.237 3.315.616 1.09.473 1.989 1.042 2.652 1.799.805.758 1.421 1.658 1.752 2.652a9.425 9.425 0 01.663 3.552 8.956 8.956 0 01-.663 3.457 6.076 6.076 0 01-1.752 2.699c-.711.711-1.657 1.326-2.652 1.8-.9.331-1.988.568-3.315.568h-3.315c-1.137 0-2.226-.237-3.173-.568-1.089-.474-1.988-1.042-2.604-1.8-.71-.71-1.279-1.657-1.752-2.699-.379-1.089-.569-2.179-.569-3.457 0-1.421.19-2.557.569-3.599.52-1.089 1.136-1.989 1.752-2.605.616-.757 1.515-1.326 2.604-1.799 1.042-.379 2.084-.616 3.173-.616m3.315-5.635h-3.315c-1.988 0-3.836.331-5.398 1.089-1.752.663-3.22 1.657-4.357 2.841a11.902 11.902 0 00-2.889 4.357c-.757 1.847-1.089 3.741-1.089 5.683 0 1.941.332 3.836 1.089 5.73.616 1.658 1.563 3.173 2.889 4.546 1.137 1.326 2.605 2.273 4.357 3.031 1.846.758 3.646 1.136 5.398 1.136h3.315c1.847 0 3.789-.378 5.635-1.136 1.753-.758 3.268-1.705 4.404-3.031a16.407 16.407 0 002.889-4.546c.663-1.847 1.042-3.741 1.042-5.73 0-2.131-.379-4.025-1.042-5.683-.758-1.752-1.657-3.22-2.841-4.309a11.846 11.846 0 00-4.452-2.889 14.884 14.884 0 00-5.635-1.089m23.963 2.367c-.71.663-1.231 1.563-1.752 2.604a9.745 9.745 0 00-.568 3.221c0 1.279.236 2.415.568 3.267.521 1.137 1.089 1.99 1.847 2.605.805.805 1.657 1.373 2.699 1.657 1.185.521 2.415.711 3.694.711h8.618c1.232 0 2.132.284 2.701.758.615.615.946 1.468.946 2.51 0 .947-.331 1.657-.946 2.225-.569.568-1.469.853-2.701.853h-17.001v5.635h17.001c1.374 0 2.701-.237 3.931-.71 1.137-.426 2.084-.947 2.747-1.705.758-.805 1.373-1.752 1.752-2.699.379-.995.522-2.131.522-3.41 0-2.699-.758-4.783-2.274-6.204-1.515-1.373-3.741-2.084-6.678-2.084h-8.618c-.852 0-1.658-.236-2.178-.804-.521-.474-.805-1.137-.805-2.226 0-.9.284-1.658.805-2.131.473-.521 1.231-.805 2.178-.805h16.101v-5.636h-16.101c-1.279 0-2.604.237-3.789.711-.994.331-1.893.899-2.699 1.657m-158.975-1.61c-1.61-.474-3.125-.758-4.452-.758H73.734v28.414h5.493v-22.779h11.129c1.61 0 2.842.427 3.694 1.232.853.758 1.279 1.989 1.279 3.741 0 1.563-.426 2.841-1.231 3.789-.853.852-2.084 1.278-3.742 1.278H82.02v5.02h7.057l6.96 7.719h7.389l-8.193-8.666c1.705-.569 2.984-1.658 4.025-3.315 1.042-1.563 1.516-3.505 1.516-5.92 0-1.563-.237-2.983-.711-4.357-.331-1.136-.994-2.225-1.941-3.267-1.09-.995-2.131-1.657-3.315-2.131m-29.171 4.878v-5.635H53.655c-1.99 0-3.79.331-5.446 1.089-1.705.615-3.126 1.563-4.404 2.841-1.184 1.137-2.131 2.605-2.841 4.357-.711 1.658-1.042 3.552-1.042 5.683 0 1.989.33 3.883 1.042 5.73.71 1.658 1.657 3.268 2.84 4.546 1.279 1.326 2.7 2.273 4.405 3.031 1.657.758 3.457 1.136 5.446 1.136h11.98v-5.635h-11.98c-1.184 0-2.273-.237-3.315-.568-.852-.474-1.752-1.042-2.51-1.8-.805-.71-1.326-1.705-1.752-2.699-.38-1.137-.616-2.273-.616-3.457 0-1.326.237-2.557.616-3.599.426-.995.947-1.847 1.752-2.605a6.958 6.958 0 012.51-1.799c1.042-.379 2.13-.616 3.315-.616h11.98zm-48.635-5.398c-.474.237-.853.71-1.184 1.42L0 265.175h6.109l12.265-21.121 5.731 9.471h-8.288l-2.462 4.688h13.354l4.073 6.962h6.44l-15.959-26.899c-.379-.568-.663-.994-1.137-1.278-.473-.379-.947-.616-1.468-.616-.662 0-1.183.237-1.657.616m157.365 2.604c-.852-.947-1.988-1.61-3.268-2.083-1.609-.474-3.125-.758-4.451-.758h-16.29v28.413h5.493v-22.778h10.797c1.611 0 2.842.426 3.647 1.279.947.852 1.421 2.036 1.421 3.599 0 1.373-.474 2.557-1.421 3.457-.805.899-2.036 1.278-3.647 1.278h-8.051v5.447h8.051c1.611 0 3.126-.19 4.451-.711 1.232-.474 2.322-1.231 3.268-2.273a8.079 8.079 0 002.084-3.22c.474-1.279.711-2.652.711-4.168 0-1.515-.237-2.888-.711-4.167a8.444 8.444 0 00-2.084-3.315m8.667 2.794h8.713v22.778h5.73v-22.778h8.714v-5.635h-23.157v5.635zm-39.874-5.635h-6.678l-10.702 12.786-10.56-12.786h-7.009l14.633 17.711v10.703h5.588v-10.703l14.728-17.711z" fill="#e9a043"/><path d="M110.219 18.594c-1.209 3.935-2.118 7.984-2.438 12.218-.86 10.982.62 21.895 4.344 32.782.478-.334.928-.604 1.406-.938-3.963-10.6-5.728-21.197-5.25-31.843.166-4.207.867-8.266 1.938-12.22zm57.5 0c1.068 3.952 1.759 8.011 1.969 12.218.428 10.647-1.334 21.244-5.25 31.844.452.317.865.565 1.312.875 3.802-10.865 5.217-21.759 4.406-32.718-.32-4.235-1.229-8.284-2.437-12.22zM97.75 182.406c-3.295 13.141-2.691 24.562 1.656 34.282a21.35 21.35 0 01-.75-1.938c-2.674-7.449-2.883-15.888-.687-25.438 5.491 14.802 18.242 24.977 38.343 30.563l-.093-.156c-9.629-2.815-17.792-7.095-24.344-13.031-7.401-6.78-12.12-14.781-14.125-24.282zm82.438 0c-2.054 9.501-6.726 17.502-14.126 24.282-6.54 5.926-14.698 10.216-24.343 13.031l-.094.156c20.102-5.587 32.854-15.762 38.344-30.563 2.229 9.486 1.983 17.869-.594 25.282 3.548-9.257 3.836-19.983.813-32.188z" fill="#ffa042"/><path d="M142.859 63.408c-.43-.668-.907-1.337-1.337-1.958-.811 0-1.671.048-2.434.096a39.74 39.74 0 00-2.388-.096c-.43.62-.907 1.29-1.385 1.958-3.103 4.584-5.061 9.406-5.968 14.515-.764 4.249-.764 8.642-.048 13.226 3.247-.908 6.494-1.29 9.789-1.337 3.341.048 6.588.429 9.834 1.337.717-4.584.717-8.977-.046-13.226-.908-5.11-2.913-9.931-6.017-14.515" fill="#ff0a1c"/><path d="M132.969 61.594c-1.385.19-2.819.417-4.157.656-3.916.859-7.637 2.29-11.218 4.438l.062.062a4.78 4.78 0 00-.718.344c-.286.19-.543.326-.782.469-1.379.9-2.678 2.058-4 3.124a97.933 97.933 0 005.875 12.438c2.49 4.287 5.271 8.097 8.313 11.5l-.156-.406c-.334-1.623-.67-3.175-.813-4.75-.048-.335-.077-.557-.125-.844-1.05-9.835 1.56-18.82 7.719-27.031zm12.219 0c6.207 8.212 8.784 17.196 7.781 27.031-.048.287-.125.509-.125.844-.191 1.575-.478 3.127-.813 4.75l-.156.406a68.436 68.436 0 008.281-11.5 94.777 94.777 0 005.906-12.438c-1.331-1.066-2.649-2.224-4-3.124-.239-.144-.495-.278-.781-.47-.287-.143-.528-.247-.719-.343l.063-.063a37.945 37.945 0 00-11.219-4.437 111.252 111.252 0 00-4.218-.656zM97.563 87.906c-3.65 6.048-6.909 12.931-9.75 20.906 1.623.764 3.25 1.581 4.874 2.25 2.77 1.241 5.59 2.326 8.407 3.376a113.196 113.196 0 0016.594 4.718c-4.388-6.254-8.703-13.657-12.969-22.312-2.686-4.873-5.057-7.756-7.156-8.938zm83.062 0c-2.11 1.182-4.47 4.065-7.125 8.938-4.261 8.646-8.58 16.031-12.969 22.281 5.525-1.136 11.079-2.653 16.625-4.687 2.817-1.05 5.605-2.135 8.375-3.376 1.575-.669 3.251-1.485 4.875-2.25-2.842-7.975-6.129-14.858-9.781-20.906zm-41.531 5.625a40.235 40.235 0 00-11.906 1.969c2.382 2.562 4.883 4.931 7.593 6.969 1.289-1.623 2.784-3.193 4.313-4.625 1.575 1.432 3.007 3.002 4.344 4.625 2.698-2.029 5.192-4.389 7.562-6.938-.679-.234-1.347-.468-2.062-.656a40.408 40.408 0 00-9.844-1.344z" fill="#ff0a1c"/><path d="M160.573 66.75c.191.096.43.191.717.334-.239-.143-.478-.286-.669-.382l-.048.048zm-42.924 0l-.048-.048a3.065 3.065 0 00-.668.382c.238-.143.477-.238.716-.334m90.957 54.908c.716-.143 1.479.048 2.387.525a6.008 6.008 0 012.34 1.671c.669.717 1.002 1.385 1.002 2.006 0 .62-.333.907-1.002 1.05-.622.096-1.385 0-2.34-.43a9.651 9.651 0 01-2.387-1.766c-.621-.716-.955-1.337-.955-1.91 0-.621.334-1.05.955-1.146m10.122 7.21c-1.099-2.913-2.722-5.396-4.726-7.401-5.062-5.252-12.94-7.735-23.587-7.496.047.907 0 1.767-.048 2.626-.144 3.724-.86 6.923-2.053 9.692-1.433 3.343-3.581 5.921-6.446 7.879a25.279 25.279 0 01-5.491 2.578l8.642-.478c-4.011 8.07-3.677 20.579 1.003 37.481l.143-.048-.143.096c.048.048.048.143.048.191.19.955.43 1.958.62 2.913l.191.955c3.342 17.188 3.342 29.173-.143 35.952-.43 4.393-.621 6.542-.573 6.542 6.923-10.743 8.546-26.5 4.87-47.269-2.483-13.99-2.721-24.399-.812-31.274 1.958-6.828 6.303-10.265 12.987-10.265 6.685.095 13.322 2.817 19.959 8.45l-4.441-11.124z" fill="#ff0a1c"/><path d="M186.022 173.749v.048l.143-.096-.143.048z" fill="#ff0a1c"/><path d="M214.861 176.232a90.399 90.399 0 01-5.062 8.881 99.074 99.074 0 01-6.207 8.355c-1.958 2.531-4.201 4.966-6.588 7.353-.908 7.64-3.2 14.133-6.781 19.433a46.381 46.381 0 0011.317-3.39 47.13 47.13 0 0010.504-6.541c2.052-1.671 3.819-3.438 5.299-5.252 3.295-4.059 5.252-8.403 5.873-13.131l-8.355-15.708z" fill="#ffa042"/><path d="M208.367 181.389c2.148-3.199 4.298-6.542 6.303-9.979l-8.212-10.886c-1.672.954-3.295 2.053-4.728 3.342h-.048c-1.193 1.05-2.386 2.148-3.389 3.485a29.512 29.512 0 00-3.199 4.536c.047.096.047.191.095.335 1.671 8.355 2.436 15.947 2.244 22.727 1.958-2.053 3.772-4.202 5.538-6.446 1.911-2.292 3.677-4.679 5.396-7.114m-6.685-17.523h.048-.048z" fill="#ff0a1c"/><path d="M92.094 115.688c0 .286-.046.753-.094 1.374-.048.525-.001.979.094 1.313.62 7.926 5.729 13.08 15.468 15.563 10.552 2.816 21.075 4.25 31.532 4.25 10.504 0 20.963-1.434 31.562-4.25 9.741-2.483 14.785-7.637 15.406-15.563.096-.334.142-.788.094-1.313 0-.62-.031-1.088-.031-1.374-10.047 3.938-19.734 6.505-29.125 8.031-2.97 3.766-5.973 7.195-9 9.875-2.625 1.575-5.564 2.33-8.906 2.187-3.295.143-6.312-.612-8.938-2.187-3.01-2.68-5.975-6.109-8.937-9.875-9.385-1.525-19.073-4.091-29.125-8.031z" fill="#ffa042"/><path d="M175.661 139.659c-.238.239-.478.525-.764.764-7.162 6.398-15.757 7.878-25.879 4.44 2.77 2.005 5.492 3.39 8.213 4.297 2.769.86 5.538 1.194 8.356.86-2.388 1.623-5.539 2.292-9.55 1.862 4.44 5.395 8.977 6.971 13.703 4.679 4.536-2.244 6.59-7.496 6.017-15.756 0-.334 0-.764-.096-1.146m19.624-.143c-.525.812-.907 1.671-1.289 2.674-1.767 5.347-1.624 13.942.382 25.83a22.686 22.686 0 013.008-4.249 24.661 24.661 0 013.199-3.104c1.719-1.48 3.723-2.817 5.968-3.963l-11.268-17.188zm-50.086 12.843c.859-1.003 1.289-2.005 1.289-3.008 0-.908-.334-1.719-.907-2.292-1.671-1.671-3.82-1.242-6.493 1.098-2.675-2.34-4.823-2.769-6.447-1.098-.62.573-.954 1.384-.954 2.292.047 1.003.477 2.005 1.289 3.008 1.623 2.196 2.435 4.44 2.339 6.684-1.432-3.39-3.724-5.538-6.827-6.35-1.385-.382-2.579-.382-3.534-.095-1.337.382-2.339 1.432-3.007 3.055-.765 2.006-.574 3.772.668 5.3 1.241 1.719 3.247 2.531 6.016 2.578-.525-1.384-.573-2.864-.143-4.392v-.143c.095-.191.143-.335.238-.43.335-.382.908-.239 1.767.382.859.62 1.433 1.814 1.576 3.39.477 4.393 2.817 6.732 7.019 7.019 4.201-.287 6.589-2.626 7.066-7.019.143-1.576.668-2.77 1.575-3.39.812-.621 1.433-.764 1.767-.382.096.095.143.239.191.43l.048.143c.382 1.528.382 3.008-.143 4.392 2.769-.047 4.726-.859 6.015-2.578 1.195-1.528 1.433-3.294.669-5.3-.669-1.623-1.671-2.673-3.056-3.055-.955-.287-2.148-.287-3.485.095-3.103.812-5.395 2.96-6.828 6.35-.096-2.244.621-4.488 2.292-6.684" fill="#ff0a1c"/><path d="M167.497 139.611c-1.672-.143-3.677.048-5.969.621-2.292.525-4.154 1.193-5.586 1.958 5.013 1.527 8.833.668 11.555-2.579" fill="#ffa042"/><path d="M154.557 166.731c-.669.143-1.48.334-2.292.478 5.204.954 8.594 3.676 10.218 8.212l2.053 10.265c1.098 5.109 1.05 8.833-.239 11.077l.143.048.191-.239.144.191c5.108-5.013 7.018-12.414 5.825-22.249-.813-6.876-6.16-9.454-16.043-7.783" fill="#ff0a1c"/><path d="M164.775 196.763l-.144-.191-.191.239c-.143.143-.334.286-.477.477l.143.096c.191-.143.334-.287.525-.43.048-.047.096-.143.144-.191" fill="#ff0a1c"/><path d="M164.44 196.811l-.143-.048c-.143.191-.239.382-.335.526.144-.191.335-.335.478-.478m-21.725-4.058v5.396c.096 1.766-.238 3.103-.859 4.058 0 .143-.095.239-.239.334a2.752 2.752 0 01-1.098.859c-.43.191-.908.287-1.432.43-.525-.143-.955-.239-1.385-.43-.477-.19-.86-.477-1.098-.859-.143-.095-.239-.191-.286-.334-.621-.955-.908-2.292-.86-4.058v-5.396c-1.48-.047-3.008-.095-4.631-.095h-.335c-4.727-.239-7.973-1.672-9.644-4.202-.669-.955-1.098-2.101-1.337-3.39 0-.287 0-.525-.048-.812v-.334l-1.289 6.351.143.19v.048h-.143c-.334 9.358 6.637 16.616 20.913 21.868 14.133-5.157 21.151-12.319 20.912-21.582l-.19-.047c.048-.096.048-.191.095-.239v-.048l.095-.19-1.289-6.351v.334c0 .287 0 .525-.048.812-.19 1.289-.62 2.435-1.289 3.39-1.671 2.53-4.918 3.963-9.644 4.202h-.382c-1.575 0-3.199.048-4.632.095" fill="#ff0a1c"/><path d="M160 190.795v-.525l-.095.191v.047c-.048.048-.048.144-.095.239l.19.048zm-41.683-.334l-.143-.191v.238h.143v-.047zm28.171-2.531l2.674-4.536h-20.149l2.674 4.536h14.801zm8.451-8.451l-3.295-5.92h-25.066l-3.343 5.92h31.704zm-25.64-119.843c3.151-.573 6.446-.716 9.789-.478 3.389-.238 6.588-.095 9.835.478-1.384-4.058-4.679-6.446-9.835-7.305-5.157.859-8.452 3.247-9.789 7.305m-16.663 90.384c2.769.334 5.539 0 8.355-.859 2.722-.908 5.443-2.292 8.213-4.298-10.122 3.438-18.764 1.958-25.926-4.44l-.765-.764c-.047.382-.047.812-.047 1.146-.573 8.26 1.48 13.512 6.016 15.757 4.727 2.291 9.263.715 13.655-4.68-4.01.43-7.162-.238-9.501-1.862" fill="#ff0a1c"/><path d="M116.694 140.231c-2.292-.573-4.297-.764-6.016-.621 2.769 3.247 6.589 4.107 11.555 2.579-1.385-.764-3.247-1.433-5.539-1.958" fill="#ffa042"/><path d="M67.23 122.184c.906-.478 1.67-.668 2.338-.525.67.095 1.003.525 1.003 1.146 0 .572-.334 1.193-1.003 1.909a8.598 8.598 0 01-2.339 1.767c-.955.43-1.767.525-2.388.43-.668-.144-.954-.43-.954-1.051 0-.62.286-1.289.954-2.005a6.172 6.172 0 012.388-1.671m20.58-5.586c0-.86-.049-1.719 0-2.626-10.649-.239-18.527 2.244-23.636 7.496-2.005 2.005-3.58 4.488-4.679 7.401l-4.44 11.124c6.636-5.634 13.273-8.355 19.958-8.451 6.684 0 11.03 3.438 12.94 10.266 1.956 6.875 1.717 17.284-.765 31.273-3.725 20.77-2.053 36.526 4.87 47.27.047 0-.19-2.149-.573-6.542-3.485-6.78-3.533-18.764-.143-35.953l.191-.955c.191-.955.43-1.957.572-2.912 0-.048 0-.143.096-.191l-.143-.096c3.342-20.197 2.292-34.425-3.15-42.589 2.147 1.671 4.678 2.673 7.447 3.055-2.865-1.957-5.013-4.536-6.446-7.878-1.193-2.769-1.909-5.968-2.1-9.692" fill="#ff0a1c"/><path d="M93.203 136.269l8.642.478c-2.053-.669-3.867-1.528-5.491-2.579-2.77-.382-5.3-1.384-7.448-3.055 5.443 8.164 6.494 22.392 3.15 42.589l.145.096c4.63-16.95 5.013-29.46 1.002-37.529m-9.024 5.92c-.334-1.003-.764-1.862-1.241-2.674L71.67 156.704a31.675 31.675 0 015.968 3.963 24.719 24.719 0 013.199 3.103c1.146 1.289 2.149 2.674 2.96 4.25 2.006-11.889 2.196-20.484.382-25.831m-7.639 21.677h-.048.048zm-.048 0h.048a29.948 29.948 0 00-4.823-3.342l-8.164 10.886a160.948 160.948 0 006.302 9.979c1.67 2.435 3.486 4.822 5.3 7.114a104.731 104.731 0 005.634 6.446c-.191-6.78.525-14.372 2.197-22.728.047-.143.047-.238.095-.334-.955-1.671-2.006-3.199-3.2-4.536-1.002-1.337-2.148-2.435-3.341-3.485h-.048zm49.417 3.342c-.764-.144-1.576-.334-2.292-.478-9.835-1.671-15.231.908-16.042 7.783-1.194 9.931.811 17.427 6.063 22.441l.144-.143.143-.048c-1.289-2.244-1.337-5.969-.287-11.077l2.101-10.266c1.623-4.536 5.013-7.257 10.17-8.212" fill="#ff0a1c"/><path d="M114.068 197.384l.191-.095-.477-.478-.144.143.43.43z" fill="#ff0a1c"/><path d="M113.925 196.763l-.143.048.477.477c-.095-.143-.239-.334-.334-.525" fill="#ff0a1c"/><path d="M68.422 185.113c-1.91-2.865-3.58-5.825-5.109-8.881l-8.308 15.709c.621 4.727 2.531 9.071 5.826 13.13a42.482 42.482 0 005.3 5.252 47.107 47.107 0 0010.503 6.541c3.534 1.576 7.353 2.722 11.364 3.39-3.629-5.3-5.92-11.793-6.827-19.433-2.34-2.387-4.584-4.822-6.59-7.353a98.816 98.816 0 01-6.159-8.355" fill="#ffa042"/><path d="M148.922 91.148c.717-4.582.717-8.977-.047-13.225-.335 5.108-2.34 7.877-5.969 8.451h-7.591c-3.629-.573-5.634-3.343-5.969-8.451-.763 4.248-.763 8.642-.048 13.225 3.248-.906 6.494-1.288 9.789-1.337 3.342.048 6.589.43 9.835 1.337m-9.828 2.383a40.23 40.23 0 00-11.906 1.969c2.382 2.562 4.883 4.931 7.593 6.969 1.289-1.623 2.784-3.193 4.313-4.625 1.575 1.432 3.007 3.002 4.344 4.625 2.698-2.029 5.192-4.389 7.562-6.938-.679-.234-1.348-.468-2.062-.656a40.412 40.412 0 00-9.844-1.344zm-34.344 3.375c7.136 13.386 5.93 19.201-3.656 17.532a113.196 113.196 0 0016.594 4.718c-4.376-6.239-8.682-13.622-12.938-22.25zm68.719 0c-4.251 8.618-8.56 15.985-12.938 22.219 5.525-1.136 11.079-2.654 16.625-4.687-9.634 1.669-10.871-4.146-3.687-17.532z" fill="#a30714"/><path d="M139.088 134.979c-6.732 0-13.942-.621-21.486-1.958-14.515-2.339-23.014-7.209-25.498-14.658.621 7.926 5.73 13.083 15.471 15.566 10.552 2.817 21.056 4.249 31.513 4.249 10.504 0 20.96-1.432 31.56-4.249 9.74-2.483 14.801-7.64 15.422-15.566-2.435 7.449-10.934 12.319-25.449 14.658-7.592 1.337-14.802 1.958-21.533 1.958" fill="#af512f"/><path d="M82.794 140.47c.048-.286.096-.621.144-.955l-11.269 17.189a31.652 31.652 0 015.969 3.963c2.339-6.732 4.058-13.417 5.156-20.197" fill="#a30714"/><path d="M91.962 152.025c.239-5.729-.43-10.457-1.862-14.133-1.48-3.676-3.772-6.255-6.876-7.878-6.876-3.533-15.757-1.623-26.5 5.825l-1.67 4.154c6.636-5.634 13.273-8.356 19.957-8.451 6.684 0 11.03 3.438 12.94 10.265 1.958 6.876 1.719 17.284-.763 31.274-3.725 20.77-2.055 36.526 4.87 47.269-6.495-11.936-7.354-28.218-2.58-48.94 1.434-6.589 2.293-13.082 2.484-19.385" fill="#a30714"/><path d="M76.492 163.866h.048a29.948 29.948 0 00-4.823-3.342l-8.164 10.886a160.948 160.948 0 006.302 9.979l6.637-17.523zm51.995-4.727v-.143c.096-.191.143-.335.239-.43.334-.382.907-.239 1.766.382.86.621 1.433 1.815 1.576 3.39.478 4.393 2.817 6.732 7.019 7.019 4.201-.287 6.589-2.626 7.067-7.019.142-1.575.667-2.769 1.575-3.39.811-.621 1.432-.764 1.766-.382.096.095.144.239.192.43l.048.143c.381 1.528.381 3.008-.144 4.393 2.77-.048 4.727-.86 6.016-2.579 1.194-1.527 1.432-3.294.669-5.299-.669-1.624-1.671-2.674-3.056-3.056 1.289 1.05 1.909 2.387 1.767 4.106-.144 1.814-1.051 2.865-2.722 3.342.573-2.626-.192-3.963-2.292-4.154-2.101-.143-3.677 1.528-4.679 5.109a13.555 13.555 0 01-1.91 4.345c-1.051 1.337-2.482 2.005-4.297 2.005-1.815 0-3.199-.668-4.25-2.005-.859-1.146-1.48-2.578-1.91-4.345-1.002-3.581-2.626-5.252-4.679-5.109-2.148.191-2.865 1.528-2.291 4.154-1.672-.477-2.579-1.528-2.722-3.342-.144-1.719.478-3.056 1.719-4.106-1.337.382-2.34 1.432-3.008 3.056-.764 2.005-.573 3.772.668 5.299 1.242 1.719 3.247 2.531 6.016 2.579-.525-1.385-.573-2.865-.143-4.393m-10.122 31.608c-.048-.095-.048-.239-.048-.286l-.143-.191v.238c-.334 9.359 6.637 16.616 20.913 21.868 14.276-5.252 21.247-12.509 20.912-21.868v-.238l-.094.191c-.048.047-.048.191-.096.286-.955 4.536-3.486 8.356-7.64 11.507-3.533 2.626-7.926 4.536-13.082 5.73-5.157-1.194-9.55-3.104-13.083-5.73-4.154-3.151-6.684-6.971-7.639-11.507m-4.392-14.515c-.048.191-.048.382-.096.478l-2.387 11.888c-.191 3.247.525 5.968 2.101 7.974l.191.239.477.477c-1.576-2.196-1.766-6.016-.62-11.602l2.101-10.266c1.623-4.536 5.013-7.257 10.17-8.212-6.972.286-10.982 3.295-11.937 9.024m8.164-24.35c-12.319 4.345-18.86.668-19.671-11.077-.574 8.26 1.48 13.512 6.015 15.756 4.727 2.292 9.263.716 13.656-4.679" fill="#a30714"/><path d="M68.422 185.113c-1.91-2.865-3.58-5.825-5.109-8.881l-8.308 15.709c.621 4.727 2.531 9.071 5.826 13.13l7.591-19.958z" fill="#af512f"/><path d="M223.168 139.993l-1.671-4.154c-10.791-7.448-19.624-9.358-26.547-5.825-3.103 1.624-5.347 4.202-6.828 7.878-1.433 3.677-2.1 8.404-1.91 14.133.191 6.303 1.051 12.796 2.483 19.385 4.823 20.722 3.915 37.004-2.531 48.94 6.924-10.743 8.547-26.499 4.87-47.269-2.482-13.989-2.72-24.398-.811-31.274 1.958-6.827 6.302-10.265 12.987-10.265 6.685.096 13.321 2.817 19.958 8.451" fill="#a30714"/><path d="M214.861 176.232a90.399 90.399 0 01-5.062 8.881l7.544 19.958c3.295-4.059 5.252-8.403 5.873-13.131l-8.355-15.708z" fill="#af512f"/><path d="M208.367 181.389c2.148-3.199 4.298-6.542 6.303-9.979l-8.212-10.886c-1.672.954-3.295 2.053-4.776 3.342h.048l6.637 17.523zm-13.082-41.873c.048.334.048.668.143.955a115.004 115.004 0 005.157 20.196c1.719-1.48 3.723-2.817 5.968-3.963l-11.268-17.188zm-30.988 37.194c0-.096 0-.287-.096-.478-.955-5.729-4.918-8.737-11.936-9.023 5.204.954 8.594 3.676 10.218 8.212l2.052 10.265c1.195 5.587.955 9.406-.573 11.603.144-.191.335-.335.478-.478l.191-.239c1.575-2.005 2.292-4.727 2.053-7.973l-2.387-11.889zm5.443-20.149c4.536-2.244 6.59-7.496 6.017-15.756-.812 11.745-7.401 15.422-19.72 11.077 4.44 5.395 8.976 6.971 13.703 4.679" fill="#a30714"/><path d="M150.546 64.65c3.485-.097 7.066.715 10.743 2.434-.239-.143-.477-.287-.669-.382a37.96 37.96 0 00-11.22-4.44c-1.385-.239-2.769-.478-4.202-.669 6.207 8.212 8.786 17.19 7.783 27.024 2.148-7.83 1.336-15.803-2.435-23.968m-7.687-1.241c-.43-.668-.907-1.337-1.337-1.958-.811 0-1.671.048-2.434.096a39.74 39.74 0 00-2.388-.096c-.43.62-.907 1.29-1.385 1.958h7.544zm-25.258 3.294a3.042 3.042 0 00-.668.382c3.676-1.719 7.21-2.53 10.743-2.435-3.82 8.165-4.584 16.138-2.435 23.97-1.051-9.837 1.575-18.813 7.735-27.026-1.385.192-2.817.43-4.154.67-3.916.858-7.64 2.291-11.221 4.44m11.698-7.067c1.337-3.82 4.632-5.586 9.789-5.491 5.156-.095 8.451 1.67 9.835 5.49-1.384-4.057-4.679-6.445-9.835-7.304-5.157.859-8.452 3.247-9.789 7.305m-31.736 28.27c-3.644 6.05-6.909 12.931-9.75 20.906 1.623.765 3.251 1.583 4.874 2.25.692-8.293 2.738-15.748 5.844-22.53a6.76 6.76 0 00-.969-.626zm83.062 0c-.321.18-.635.359-.969.625 3.099 6.783 5.154 14.238 5.875 22.531 1.575-.668 3.251-1.485 4.875-2.25-2.842-7.975-6.134-14.857-9.781-20.906zm-59.634 61.254c2.722-.907 5.443-2.292 8.212-4.297-10.122 3.438-18.764 1.958-25.926-4.44 3.342 6.159 9.263 9.071 17.714 8.737" fill="#ffa042"/><path d="M139.088 148.158c-2.674-2.34-4.823-2.77-6.446-1.098-.621.573-.955 1.384-.955 2.291.047 1.003.478 2.006 1.289 3.009 1.624 2.196 2.435 4.44 2.34 6.684.525-1.958.429-4.345-.239-7.162-.382-1.48-.191-2.483.477-3.103.764-.717 1.91-.478 3.534.668 1.623-1.146 2.769-1.385 3.581-.668.62.62.812 1.623.43 3.103-.621 2.817-.765 5.204-.192 7.162-.095-2.244.621-4.488 2.292-6.684.86-1.003 1.289-2.006 1.289-3.009 0-.907-.334-1.718-.907-2.291-1.671-1.672-3.819-1.242-6.493 1.098M82.27 116.024c2.052-.144 3.246.668 3.627 2.435 1.051 3.104 2.388 5.777 4.011 7.83-1.193-2.769-1.91-5.968-2.1-9.692 0-.86-.048-1.719 0-2.626-10.648-.239-18.526 2.244-23.635 7.496 5.921-3.772 11.937-5.587 18.096-5.443" fill="#f83645"/><path d="M82.938 139.516c-.048.334-.096.668-.144.955.908 6.302.239 13.989-1.957 23.3 1.146 1.289 2.149 2.674 2.96 4.249 2.006-11.888 2.197-20.483.382-25.83a13.756 13.756 0 00-1.241-2.674m10.265-3.247l8.642.478c-2.053-.669-3.867-1.528-5.491-2.579-2.77-.382-5.3-1.384-7.448-3.055 5.443 8.164 6.494 22.392 3.15 42.589l.145.096c4.63-16.95 5.013-29.46 1.002-37.529m-10.218 35.953c.047-.143.047-.239.095-.334-.955-1.671-2.005-3.199-3.199-4.536-.19.668-.334 1.289-.525 2.005-1.91 7.019-3.294 13.322-4.202 19.146a105.07 105.07 0 005.634 6.446c-.19-6.78.526-14.372 2.197-22.727m27.454.381c0-.095.047-.191.095-.286 1.48-4.107 5.778-5.921 13.083-5.587-9.836-1.671-15.231.908-16.043 7.783-1.194 10.265.955 17.905 6.493 22.87l.191-.095-.477-.477-.191-.239c-2.244-2.674-3.724-6.207-4.345-10.409-.716-4.727-.334-9.12 1.146-13.369.048-.095.048-.191.048-.191m10.409 15.853c-.668-.955-1.098-2.101-1.337-3.39.478 5.443 3.485 8.594 9.263 9.501l.668.096c.191 0 .382 0 .573.095.287.048.525.048.812.048h3.151c.239 3.772.955 6.255 2.34 7.401-.621-.955-.907-2.292-.86-4.059v-5.395c-1.48-.047-3.008-.095-4.631-.095h-.334c-4.728-.239-7.974-1.672-9.645-4.202" fill="#ffa042"/><path d="M92.094 115.688c7.1 5.236 17.501 8.782 31.125 10.656-.673-.797-1.33-1.773-2-2.625-9.385-1.525-19.073-4.091-29.125-8.031zm94.031 0c-10.047 3.938-19.734 6.505-29.125 8.031-.667.846-1.33 1.802-2 2.593 13.618-1.874 24.033-5.393 31.125-10.624zM76.635 216.864c3.533 1.576 7.353 2.722 11.364 3.39-3.63-5.3-5.921-11.793-6.828-19.432-2.34-2.388-4.584-4.823-6.59-7.354-1.002 9.693-.285 17.476 2.054 23.396" fill="#fffcab"/><path d="M192.324 118.459c.383-1.767 1.576-2.579 3.629-2.435 6.111-.144 12.128 1.671 18.049 5.443-5.062-5.252-12.94-7.735-23.587-7.496.048.907 0 1.766-.048 2.626-.144 3.724-.859 6.923-2.053 9.692 1.623-2.053 2.96-4.726 4.01-7.83" fill="#f83645"/><path d="M176.376 136.746l8.643-.478c-4.011 8.07-3.677 20.579 1.003 37.529l.142-.095c-3.342-20.197-2.291-34.425 3.151-42.59-2.196 1.671-4.726 2.674-7.448 3.056a25.21 25.21 0 01-5.491 2.578m18.909 2.77c-.525.812-.907 1.671-1.289 2.674-1.767 5.347-1.624 13.942.382 25.83a22.686 22.686 0 013.008-4.249c-2.245-9.311-2.865-16.998-1.958-23.3-.095-.287-.095-.621-.143-.955m-46.267 5.347c2.77 2.005 5.491 3.39 8.213 4.297 8.451.335 14.371-2.578 17.666-8.737-7.162 6.398-15.757 7.878-25.879 4.44m18.765 27.74s0 .096.048.191c1.479 4.249 1.814 8.642 1.145 13.369-.62 4.202-2.1 7.735-4.344 10.409l-.192.239c-.142.143-.334.286-.477.477l.143.095c5.587-4.965 7.736-12.605 6.494-22.87-.812-6.875-6.16-9.454-16.043-7.783 7.353-.334 11.65 1.48 13.082 5.587.096.095.096.191.144.286m-25.068 20.15v5.396c.096 1.766-.238 3.103-.859 4.058 1.384-1.146 2.149-3.629 2.292-7.401h3.199c.334 0 .573 0 .859-.048.192-.095.334-.095.526-.095l.668-.096c5.777-.907 8.833-4.058 9.262-9.501-.19 1.289-.62 2.435-1.289 3.39-1.671 2.53-4.918 3.963-9.644 4.202h-.382c-1.575 0-3.199.048-4.632.095m52.378-20.866c.048.096.048.191.096.334 1.671 8.356 2.435 15.948 2.244 22.728 1.958-2.053 3.771-4.202 5.538-6.446-.812-5.825-2.196-12.128-4.106-19.146-.191-.717-.334-1.337-.573-2.006a29.581 29.581 0 00-3.199 4.536" fill="#ffa042"/><path d="M190.223 220.254a46.374 46.374 0 0011.316-3.39c2.387-5.921 3.104-13.703 2.053-23.396-1.958 2.531-4.201 4.966-6.589 7.353-.907 7.64-3.199 14.133-6.78 19.433" fill="#fffcab"/><path d="M104.219 18.813a76.19 76.19 0 00-2.657 3.093C87.048 38.76 83.61 54.332 91.25 68.656c-8.69 4.918-9.985 12.514-3.969 22.875.477-1.337 1.099-2.497 1.719-3.5 4.918-8.212 11.129-5.954 18.625 6.938 5.921 11.029 11.707 20.542 17.531 28.469.144-1.957.46-3.982.938-5.844.716-2.865 2.011-6.013 3.968-9.594.335-.62 1.012-1.676 2.063-3.156-12.176-9.454-20.829-23.232-25.937-41.375-3.295-11.794-4.76-22.21-4.282-31.282.382-3.914 1.046-7.895 1.906-11.906 0-.143.078-.216.126-.312.095-.382.185-.727.281-1.157zm69.719 0c.143.43.248.774.343 1.156.048.095.029.168.125.312a118.953 118.953 0 011.938 11.907c.43 9.07-1.066 19.487-4.313 31.28-5.108 18.144-13.746 31.922-25.969 41.376 1.05 1.48 1.76 2.535 2.094 3.156 1.958 3.581 3.238 6.729 3.906 9.594.527 1.862.874 3.886.969 5.844 5.826-7.927 11.659-17.439 17.531-28.47 7.497-12.89 13.692-15.149 18.657-6.937.621 1.002 1.192 2.163 1.719 3.5 5.967-10.36 4.624-17.957-3.969-22.875 7.638-14.324 4.171-29.896-10.344-46.75a75.819 75.819 0 00-2.687-3.093zm-34.844 84.593c-3.582 3.677-6.313 7.567-8.032 11.625-.763 1.911-1.244 3.571-1.531 4.907-.429 2.578-.277 4.777.344 6.687.286.859.725 1.705 1.25 2.469 1.289 1.767 2.991 2.791 5.187 3.125.955.144 1.922.218 2.782.219.859 0 1.795-.075 2.75-.219 2.196-.334 3.96-1.358 5.25-3.125.477-.764.931-1.61 1.218-2.469.62-1.91.743-4.108.313-6.687-.238-1.337-.719-2.996-1.531-4.907-1.719-4.058-4.372-7.948-8-11.625zm0 7.032l.031.062c1.909 2.1 3.356 4.317 4.406 6.656 0 .143.077.249.125.344.43 1.099.718 2.049.813 2.812.382 2.34.112 4.254-.938 5.782-.477.716-1.065 1.259-1.781 1.594-.813.239-1.578.42-2.438.468h-.406c-.86-.048-1.673-.23-2.437-.468-.717-.334-1.304-.878-1.781-1.594-1.05-1.528-1.382-3.441-1-5.782.144-.763.444-1.713.874-2.812.048-.095.031-.201.126-.344 1.003-2.339 2.496-4.556 4.406-6.656v-.062z" fill="#ffa042"/><path d="M101.562 21.906C87.048 38.76 83.611 54.332 91.25 68.656c1.098 1.1 3.236 1.627 6.531 1.531-9.55-14.61-8.299-30.71 3.781-48.28zm75.063 0c12.08 17.57 13.362 33.672 3.813 48.282 3.295.094 5.432-.434 6.531-1.532 7.639-14.324 4.17-29.896-10.344-46.75zM97.75 81.594c-3.485-.143-6.41 2.044-8.75 6.437 4.918-8.213 11.129-5.953 18.625 6.938 5.921 11.029 11.707 20.542 17.531 28.469.144-1.959.461-3.982.938-5.844-2.005-1.958-4.673-5.591-8.063-10.844-1.193-1.91-5.054-8.167-11.5-18.719-2.53-4.154-5.439-6.294-8.781-6.437zm82.719 0c-3.39.143-6.251 2.283-8.781 6.437-6.447 10.552-10.291 16.81-11.532 18.719-3.342 5.253-6.041 8.886-8.094 10.844.526 1.862.873 3.886.969 5.844 5.825-7.927 11.658-17.439 17.531-28.47 7.496-12.89 13.692-15.149 18.657-6.937-2.387-4.393-5.36-6.58-8.75-6.437z" fill="#af512f"/><path d="M101.906 32.188c-1.48 14.18.165 28.02 4.844 41.437 2.674 7.592 5.975 14.421 9.938 20.438 4.25 6.54 8.696 11.168 13.374 13.937.335-.62 1.012-1.676 2.063-3.156-12.176-9.454-20.829-23.232-25.937-41.375-3.295-11.794-4.76-22.21-4.282-31.282zm74.438 0c.43 9.072-1.066 19.487-4.313 31.28-5.108 18.144-13.747 31.922-25.969 41.376 1.05 1.48 1.76 2.536 2.094 3.156 4.632-2.769 9.126-7.396 13.375-13.938 3.963-6.016 7.249-12.845 9.875-20.437 4.679-13.417 6.37-27.257 4.938-41.438zM91.25 68.656c-8.689 4.918-9.986 12.514-3.969 22.875-4.489-11.363-.959-18.527 10.5-21.344-3.294.096-5.432-.433-6.531-1.53zm95.719 0c-1.099 1.1-3.237 1.627-6.531 1.531 11.458 2.817 14.986 9.98 10.5 21.344 5.967-10.36 4.625-17.957-3.969-22.875zm-47.875 34.75c-3.582 3.676-6.312 7.567-8.032 11.625-.764 1.91-1.244 3.569-1.531 4.907-.43 2.578-.276 4.776.344 6.687-1.002-6.828 2.057-13.474 9.219-20.063 7.209 6.59 10.267 13.235 9.218 20.063.621-1.911.742-4.11.313-6.687-.239-1.338-.719-2.997-1.531-4.907-1.719-4.058-4.372-7.949-8-11.625zm-4.532 14.094c-2.722 5.395-2.402 9.228.844 11.281 1.098.764 2.303 1.14 3.688 1.188 1.385-.048 2.558-.424 3.656-1.188 3.295-2.053 3.532-5.886.906-11.281.43 1.098.718 2.048.813 2.812.382 2.34.112 4.254-.938 5.782-.477.716-1.065 1.259-1.781 1.594-.813.238-1.578.42-2.438.468h-.406c-.86-.048-1.673-.23-2.437-.468-.717-.335-1.304-.878-1.781-1.594-1.05-1.528-1.383-3.443-1-5.782.142-.763.445-1.714.874-2.812z" fill="#fffcab"/></g></svg>