<svg xmlns:vectornator="http://vectornator.io" xmlns="http://www.w3.org/2000/svg" viewBox="0 0 127.13 127.13" fill-rule="evenodd" clip-rule="evenodd" stroke-linecap="round" stroke-linejoin="round"><g vectornator:layerName="logo"><path d="M127.134 63.557c0-17.573-6.196-32.536-18.629-44.928C96.113 6.196 81.15 0 63.577 0 46.004 0 31.021 6.196 18.609 18.629 6.196 31.021 0 45.984 0 63.557c0 17.573 6.196 32.556 18.609 44.968 12.412 12.413 27.395 18.609 44.968 18.609 17.573 0 32.536-6.196 44.928-18.609 12.433-12.412 18.629-27.395 18.629-44.968" fill="#ffa042"/><path d="M123.886 63.557c0-16.656-5.897-30.882-17.672-42.637C94.458 9.145 80.234 3.247 63.576 3.247c-16.676 0-30.86 5.898-42.637 17.673C9.164 32.675 3.267 46.901 3.267 63.557c0 16.676 5.897 30.882 17.672 42.637 11.776 11.775 25.961 17.673 42.637 17.673 16.657 0 30.882-5.898 42.638-17.673 11.775-11.755 17.672-25.961 17.672-42.637" fill="#880008"/><path d="M50.094 13.938c-.629 1.936-1.086 3.935-1.25 6.03-.38 5.14.32 10.224 2.093 15.345.22-.16.437-.319.657-.438-1.873-4.961-2.7-9.925-2.5-14.906.092-2.08.464-4.087 1-6.032zm27 0c.55 1.944.926 3.952 1 6.03.199 4.982-.616 9.946-2.469 14.907.188.112.43.256.625.406 1.765-5.11 2.46-10.182 2.063-15.312-.158-2.096-.59-4.095-1.22-6.032zm-29.906.437c-.439.498-.833.96-1.25 1.438-6.855 7.89-8.533 15.168-4.907 21.843-4.084 2.291-4.704 5.846-1.875 10.688.24-.598.566-1.116.844-1.594 2.311-3.865 5.235-2.83 8.781 3.188 2.79 5.18 5.532 9.626 8.282 13.312.08-.937.248-1.822.468-2.719.338-1.315.94-2.826 1.875-4.5.14-.278.459-.78.938-1.437-5.76-4.443-9.808-10.907-12.219-19.375-1.554-5.5-2.25-10.37-2.031-14.594.179-1.853.477-3.69.875-5.563.02-.08.042-.108.062-.187.06-.159.117-.321.157-.5zm32.937 0c.06.179.096.341.156.5.02.079.043.107.063.188.418 1.873.696 3.709.875 5.562.22 4.224-.457 9.095-2.031 14.594-2.41 8.468-6.481 14.932-12.22 19.375.479.658.78 1.16.938 1.437.937 1.674 1.537 3.185 1.875 4.5.22.897.398 1.782.438 2.719 2.769-3.686 5.522-8.133 8.312-13.313 3.546-6.017 6.45-7.052 8.781-3.187.3.478.585.996.844 1.594 2.83-4.842 2.19-8.397-1.875-10.688 3.606-6.675 1.948-13.953-4.906-21.843-.418-.479-.792-.94-1.25-1.438zM63.656 30.031c-2.43.398-3.988 1.502-4.625 3.375a19.798 19.798 0 014.625-.187 20.109 20.109 0 014.657.187c-.659-1.873-2.206-2.977-4.657-3.375zm-1.031 4.282c-.199.279-.394.544-.594.843-1.354 2.092-2.215 4.302-2.593 6.594a17.618 17.618 0 00-.032 5.969c1.414-.38 2.836-.554 4.25-.594 1.415.04 2.835.215 4.25.594a18.164 18.164 0 000-5.969c-.399-2.292-1.259-4.502-2.594-6.594a12.8 12.8 0 00-.624-.843c-.359 0-.713.01-1.032.03-.319-.02-.672-.03-1.031-.03zm-1.844.062a22.26 22.26 0 00-2 .281c-1.833.4-3.557 1.087-5.25 2.063-.1.08-.245.128-.343.187l-.376.25c-.653.416-1.276.962-1.906 1.469a45.993 45.993 0 002.782 5.813c1.166 1.982 2.488 3.704 3.906 5.28l-.032-.093a31.365 31.365 0 01-.406-2.25c0-.139-.022-.266-.062-.406-.48-4.602.778-8.788 3.687-12.594zm5.75 0c2.91 3.806 4.166 7.992 3.688 12.594-.02.14-.063.267-.063.406-.1.738-.246 1.493-.406 2.25l-.031.094c1.417-1.577 2.74-3.299 3.906-5.282a45.924 45.924 0 002.781-5.812c-.631-.507-1.252-1.053-1.906-1.469l-.375-.25c-.1-.059-.213-.107-.313-.187a18.328 18.328 0 00-5.28-2.063 22.22 22.22 0 00-2-.281zM44.094 46.719c-1.731 2.829-3.341 5.97-4.688 9.718.776.36 1.555.693 2.313 1.032 1.315.598 2.654 1.096 3.968 1.593 2.607.935 5.21 1.62 7.813 2.157-2.058-2.91-4.078-6.354-6.094-10.375-1.224-2.244-2.332-3.546-3.312-4.125zm39.125 0c-.976.579-2.076 1.881-3.313 4.125-2.016 4.021-4.033 7.465-6.094 10.375 2.595-.537 5.185-1.223 7.782-2.157 1.355-.497 2.685-.995 4-1.593.757-.34 1.524-.672 2.281-1.032a51.631 51.631 0 00-4.656-9.718zM63.656 49.28c-1.574.02-3.11.226-4.625.625-.322.087-.63.189-.937.282 1.112 1.178 2.236 2.342 3.5 3.28a23.295 23.295 0 012.062-2.156 23.166 23.166 0 012.063 2.157c1.27-.943 2.414-2.096 3.531-3.282-.31-.094-.624-.191-.938-.28a19.344 19.344 0 00-4.656-.626zm0 4.625c-1.713 1.714-2.964 3.514-3.781 5.407-.378.915-.619 1.705-.719 2.343-.199 1.195-.174 2.248.125 3.125.14.418.336.766.594 1.125.598.836 1.453 1.329 2.469 1.469.459.08.894.094 1.312.094.418 0 .855-.014 1.313-.094 1.036-.14 1.87-.633 2.469-1.469.258-.359.434-.707.593-1.125.28-.877.324-1.93.125-3.125-.1-.638-.34-1.428-.719-2.343-.816-1.894-2.087-3.693-3.78-5.407zm0 3.282l.032.03c.897.977 1.584 2.01 2.062 3.126.02.06.043.077.063.156.218.498.347.953.406 1.313.16 1.114.009 1.97-.469 2.687-.239.339-.525.58-.844.719a3.76 3.76 0 01-1.156.25h-.188a3.743 3.743 0 01-1.156-.25 2.04 2.04 0 01-.843-.719c-.479-.717-.628-1.572-.47-2.688A5.64 5.64 0 0161.5 60.5c.02-.079.042-.096.063-.156.477-1.116 1.166-2.15 2.062-3.125l.031-.032zm-24.25 1.656c-5.02-.1-8.734 1.059-11.125 3.468-.956.958-1.7 2.134-2.218 3.47L23.968 71c3.108-2.609 6.258-3.918 9.406-3.938 3.148-.02 5.209 1.605 6.125 4.813.896 3.208.801 8.059-.375 14.594-1.733 9.703-.956 17.041 2.313 22.062.038.02-.082-.968-.282-3-1.653-3.188-1.636-8.815-.062-16.844l.093-.437c.1-.439.183-.926.282-1.344 0-.04.011-.062.031-.062 2.192-7.93 2.36-13.797.469-17.563l4.062.188a10.1 10.1 0 01-2.562-1.188c-1.375-.897-2.385-2.122-3.063-3.656-.538-1.295-.889-2.828-.968-4.563-.02-.398-.032-.78-.032-1.218zm48.469 0c.02.438 0 .82 0 1.218-.1 1.735-.442 3.268-1 4.563-.658 1.534-1.646 2.76-3 3.656-.778.498-1.637.889-2.594 1.188l4.063-.188c-1.893 3.766-1.732 9.633.5 17.563.02 0 0 .022 0 .062.079.418.181.905.281 1.344l.094.438c1.595 8.028 1.57 13.655-.063 16.843-.2 2.032-.29 3.02-.25 3 3.267-5.021 4.014-12.36 2.281-22.062-1.174-6.535-1.311-11.386-.374-14.594.915-3.208 2.956-4.832 6.124-4.813 3.148.022 6.31 1.328 9.438 3.938l-2.094-5.219c-.538-1.335-1.293-2.512-2.25-3.469-2.39-2.41-6.115-3.568-11.156-3.468zm-46.406.812c0 .12-.043.346-.063.625 0 .24-.016.465.063.625.28 3.686 2.698 6.105 7.281 7.282 5.001 1.294 9.965 1.937 14.906 1.937 4.941 0 9.905-.642 14.907-1.938 4.581-1.175 6.982-3.595 7.28-7.28.04-.16.103-.387.063-.626 0-.279-.062-.506-.062-.625a68.595 68.595 0 01-13.719 3.719c-1.408 1.77-2.808 3.394-4.25 4.656-1.235.717-2.644 1.072-4.219 1.031-1.573.04-2.963-.314-4.218-1.03-1.436-1.263-2.846-2.888-4.25-4.657a68.32 68.32 0 01-13.72-3.719zm-10.657 2.75c.3.08.47.264.47.563 0 .259-.17.556-.47.875-.319.338-.674.645-1.093.843-.458.2-.847.28-1.125.22-.32-.08-.469-.223-.469-.5 0-.28.15-.6.469-.938.278-.338.667-.614 1.125-.813.419-.199.774-.31 1.093-.25zm65.688 0c.299-.06.675.051 1.094.25.458.2.847.475 1.125.813.319.339.469.658.469.937 0 .278-.15.42-.47.5-.277.06-.666-.019-1.124-.219a3.488 3.488 0 01-1.094-.843c-.319-.318-.469-.616-.469-.875 0-.3.15-.483.469-.563zM37.125 70.78l-5.313 8.031c1.037.538 1.996 1.147 2.813 1.844.558.458 1.062.931 1.5 1.469.24.239.468.513.688.813.258.358.52.758.718 1.156.977-5.518 1.045-9.572.188-12.063-.04-.139-.117-.266-.157-.406-.14-.299-.258-.585-.437-.844zm53.063 0c-.18.26-.299.545-.438.844-.06.14-.127.267-.188.406-.835 2.491-.717 6.545.22 12.063.218-.398.47-.798.75-1.156.198-.3.416-.574.656-.813.438-.538.953-1.01 1.53-1.469a14.04 14.04 0 012.782-1.844l-5.313-8.03zm-39.938.063c1.275 1.514 3.106 1.924 5.438 1.187-.659-.358-1.55-.678-2.626-.937-1.095-.24-2.016-.31-2.812-.25zm26.844 0c-.817-.06-1.748.01-2.844.25-1.056.259-1.968.58-2.625.937 2.351.738 4.174.327 5.469-1.187zm-30.719.031c-.02.16-.011.341-.031.5-.26 3.866.692 6.319 2.843 7.375 2.233 1.096 4.397.323 6.47-2.188-1.894.18-3.385-.097-4.5-.874 1.314.159 2.602.031 3.937-.407 1.255-.399 2.56-1.075 3.875-2.031-4.762 1.634-8.832.958-12.219-2.031a7.45 7.45 0 01-.375-.344zm34.563 0c-.14.1-.237.224-.376.344-3.388 2.989-7.456 3.665-12.218 2.031 1.315.956 2.62 1.633 3.875 2.031 1.335.44 2.622.566 3.937.406-1.115.778-2.607 1.056-4.5.876 2.073 2.51 4.237 3.283 6.469 2.187 2.152-1.056 3.103-3.51 2.844-7.375 0-.159-.011-.34-.031-.5zm-15.563 2.969c-.509.09-1.08.42-1.719.969-.637-.549-1.213-.85-1.718-.938-.506-.087-.956.028-1.344.406-.28.28-.438.675-.438 1.094.04.478.246.928.625 1.406.776 1.016 1.154 2.07 1.094 3.125-.678-1.613-1.796-2.57-3.25-2.969-.638-.18-1.198-.17-1.656-.03-.638.158-1.108.66-1.407 1.437-.398.916-.285 1.752.313 2.469.598.776 1.529 1.167 2.844 1.187-.26-.638-.274-1.313-.094-2.031l.031-.063a.55.55 0 01.094-.219c.159-.16.434-.122.813.157.417.319.68.869.78 1.625.2 2.053 1.321 3.141 3.313 3.281 1.993-.14 3.114-1.228 3.313-3.281.099-.756.362-1.306.781-1.625.378-.28.653-.316.813-.156.04.058.073.118.093.218l.031.063c.18.718.165 1.393-.093 2.031 1.315-.02 2.246-.41 2.844-1.188.596-.716.71-1.552.312-2.468-.299-.777-.75-1.279-1.406-1.438-.438-.14-1.018-.149-1.656.031-1.454.398-2.573 1.356-3.25 2.97-.06-1.056.316-2.11 1.093-3.126.38-.478.585-.928.625-1.406 0-.419-.14-.815-.437-1.094-.389-.378-.835-.528-1.344-.437zm-33.813 7.125l-3.625 4.719a94.687 94.687 0 003 4.656 59.105 59.105 0 002.532 3.344c.538.638 1.056 1.276 1.593 1.874.34.379.673.748 1.032 1.126-.08-3.088.263-6.527 1-10.313-1.594-2.311-3.46-4.112-5.532-5.406zm64.188 0c-2.092 1.295-3.937 3.095-5.531 5.406.737 3.786 1.08 7.225 1 10.313a52.921 52.921 0 002.625-3 58.596 58.596 0 002.5-3.344 58.51 58.51 0 003-4.656l-3.594-4.72zm-42.5 2.344c-2.705.154-4.184 1.421-4.469 3.812-.578 4.801.413 8.356 3.063 10.688l.062-.032c-.06-.08-.096-.139-.156-.219-.598-1.055-.624-2.796-.125-5.187l1-4.844c.757-2.112 2.361-3.363 4.813-3.781a8.359 8.359 0 00-1.063-.219c-1.17-.199-2.224-.27-3.125-.219zm20.813 0c-.902-.052-1.955.019-3.126.218-.317.04-.672.12-1.03.219 2.43.419 4.023 1.67 4.78 3.781l1 4.844c.499 2.391.472 4.132-.124 5.188-.06.08-.097.138-.157.218l.063.031c2.63-2.33 3.64-5.885 3.062-10.687-.283-2.391-1.764-3.658-4.469-3.813zM57.75 86.656l-1.594 2.781h15l-1.594-2.78H57.75zm-30.094 1.719l-3.718 6.906c.279 2.191 1.216 4.233 2.75 6.125a19.563 19.563 0 002.5 2.469c1.553 1.255 3.195 2.285 4.968 3.063 1.674.756 3.451 1.263 5.344 1.562-1.594-2.331-2.667-5.13-3.125-8.438-4.643-4.004-7.523-7.881-8.719-11.687zm72 0c-1.175 3.806-4.097 7.683-8.719 11.687-.459 3.308-1.522 6.107-3.156 8.438 1.892-.298 3.682-.806 5.375-1.562a21.445 21.445 0 004.969-3.063c.957-.796 1.803-1.612 2.5-2.469 1.574-1.893 2.482-3.933 2.781-6.125l-3.75-6.906zm-55.531 2.469c-1.436 5.717-1.256 10.715.438 15.062-1.237-3.472-1.375-7.425-.344-11.844 2.59 6.914 8.64 11.672 18.125 14.282l-.094-.125c-4.517-1.319-8.394-3.297-11.469-6.063-3.507-3.148-5.699-6.87-6.656-11.312zm38.938 0c-.957 4.443-3.201 8.164-6.688 11.312-3.057 2.766-6.919 4.744-11.438 6.063l-.093.125c9.484-2.611 15.535-7.367 18.125-14.281 1.021 4.38.905 8.299-.281 11.749 1.66-4.323 1.816-9.297.374-14.968zm-24.157.469l1.25 2.124h7l1.25-2.124h-9.5zm-4.531.25l-.594 2.937v.125c-.159 4.363 3.14 7.779 9.875 10.25 6.734-2.471 10.034-5.887 9.875-10.25V94.5l-.594-2.938v.126c-.04.118-.03.246-.03.406a3.732 3.732 0 01-.626 1.562c-.796 1.176-2.331 1.849-4.562 1.969h-.156c-.758 0-1.491.022-2.188.063v2.5c.02.816-.107 1.467-.406 1.906-.04.059-.065.076-.125.156-.14.16-.301.306-.5.406-.2.08-.429.108-.688.188-.259-.08-.487-.108-.687-.188-.2-.1-.36-.246-.5-.406-.04-.08-.085-.097-.125-.156-.3-.44-.427-1.09-.407-1.906v-2.501a38.27 38.27 0 00-2.187-.062h-.156c-2.231-.12-3.767-.793-4.563-1.969a3.748 3.748 0 01-.625-1.562c0-.16.009-.287-.031-.406v-.126z" fill="#ffa042"/></g></svg>