<svg xmlns="http://www.w3.org/2000/svg" width="160" height="160" fill="none"><g clip-path="url(#clip0)"><path fill="#606063" d="M48.045 119.028c-3.178 12.144 15 27.421 40.602 34.121 25.603 6.7 48.934 2.287 52.112-9.858 3.178-12.145-15-27.421-40.602-34.122-25.602-6.7-48.934-2.286-52.112 9.859z"/><path fill="#606063" d="M136.924 149.273l15.422-16.285-109.354-28.619 5.72 21.818 88.212 23.086z"/><path fill="#606063" d="M49.934 108.293L8.072 97.338a3.304 3.304 0 00-4.062 2.486l-.469 2.129a8.258 8.258 0 005.746 9.7L51.1 123.892l-1.165-15.599z"/><path fill="url(#paint0_linear)" d="M43.203 98.71c-3.694 14.114 18.324 32.101 49.178 40.176 30.854 8.074 58.86 3.178 62.554-10.936 3.694-14.114-18.324-32.101-49.178-40.176-30.854-8.074-58.86-3.178-62.554 10.936z"/><path fill="#606063" fill-rule="evenodd" d="M127.673 123.286c7.098 5.22 11.246 10.866 11.865 15.871l2.978-.368c-.772-6.238-5.737-12.531-13.066-17.92-7.389-5.435-17.439-10.148-28.913-13.151-11.474-3.002-22.544-3.817-31.649-2.699-9.029 1.109-16.44 4.163-20.168 9.223l2.415 1.779c2.991-4.06 9.373-6.95 18.119-8.024 8.67-1.064 19.354-.299 30.523 2.624s20.859 7.49 27.896 12.665z" clip-rule="evenodd"/><path fill="#979797" fill-rule="evenodd" d="M56.734 118.739c-8.72-7.124-11.998-14.041-10.63-19.27 1.37-5.229 7.615-9.653 18.707-11.593 10.807-1.889 25.078-1.153 40.186 2.8 15.108 3.954 27.911 10.304 36.406 17.245 8.721 7.124 11.998 14.041 10.63 19.27-1.369 5.229-7.614 9.653-18.707 11.593-10.806 1.889-25.078 1.153-40.186-2.8-15.108-3.954-27.91-10.304-36.406-17.245zm35.647 20.147c-30.854-8.075-52.872-26.062-49.178-40.176 3.693-14.114 31.7-19.01 62.554-10.936 30.854 8.075 52.872 26.062 49.178 40.176-3.694 14.114-31.7 19.01-62.554 10.936z" clip-rule="evenodd"/><path fill="url(#paint1_linear)" fill-rule="evenodd" d="M45.167 124.049l-4.937-19.123 2.905-.75 4.937 19.123-2.905.75z" clip-rule="evenodd"/><path fill="url(#paint2_linear)" fill-rule="evenodd" d="M43.47 106.189a16.43 16.43 0 01-.33-1.26l-.143-.54c-.002-.009.005-.017.014-.014.008.002.016-.005.014-.013a13.388 13.388 0 01-.217-2.984v-.001c.035-.902.165-1.792.395-2.667 3.693-14.115 31.7-19.01 62.554-10.936 30.854 8.075 52.872 26.062 49.178 40.176a12.401 12.401 0 01-.963 2.519v.001a13.726 13.726 0 01-1.635 2.475l-.016.019c-.002.003-.003.005-.003.008 0 .005.004.01.009.011.005.001.008.006.009.01 0 .003-.001.007-.003.009l-.608.642c-.07.076-.141.151-.214.226l-1.236 1.305-.002.002-11.48 12.122c-6.807 9.031-27.596 11.752-50.146 5.85-22.302-5.837-38.971-18.182-40.797-29.295-.093-.569-.483-1.054-1.037-1.215L10.127 111.91a8.26 8.26 0 01-5.762-9.635l.459-2.172a3.304 3.304 0 014.066-2.514l34.249 8.931a.27.27 0 00.33-.331zm-3.658-3.636a15.574 15.574 0 01.488-4.603c2.326-8.885 11.93-13.966 23.478-15.984 11.833-2.069 26.992-1.215 42.738 2.906 15.746 4.12 29.38 10.802 38.683 18.402 9.078 7.417 14.963 16.551 12.638 25.436-.557 2.129-1.552 4.064-2.901 5.789a3.08 3.08 0 01-.425.566l-.588.621a26.355 26.355 0 01-.243.257l-.01.01-12.588 13.293c-4.171 5.406-12.026 8.46-21.098 9.556-9.3 1.124-20.517.28-32.096-2.751-11.453-2.997-21.548-7.685-29.079-13.141-7.079-5.13-12.32-11.262-13.742-17.657L9.285 114.789a11.259 11.259 0 01-7.855-13.134l.459-2.173a6.304 6.304 0 017.758-4.796l30.165 7.867z" clip-rule="evenodd"/><circle cx="57" cy="29" r="29" fill="#F0B90B"/><path fill="#FFFDFA" d="M46.185 29l-4.437 4.468L37.28 29l4.468-4.468L46.185 29zM57 18.185l7.641 7.641 4.468-4.468-7.641-7.61L57 9.28l-4.468 4.468-7.61 7.61 4.467 4.468L57 18.185zm15.252 6.347L67.815 29l4.468 4.468L76.72 29l-4.468-4.468zM57 39.815l-7.642-7.642-4.437 4.468 7.642 7.642L57 48.72l4.468-4.468 7.641-7.642-4.468-4.437L57 39.816zm0-6.347L61.468 29 57 24.532 52.532 29 57 33.468z"/><path fill="#191326" fill-rule="evenodd" d="M57 55c14.36 0 26-11.64 26-26S71.36 3 57 3 31 14.64 31 29s11.64 26 26 26zm0 3c16.016 0 29-12.984 29-29S73.016 0 57 0 28 12.984 28 29s12.984 29 29 29z" clip-rule="evenodd" opacity=".1"/><circle cx="106.5" cy="72.5" r="43.5" fill="#494A4C"/><path fill="url(#paint3_linear)" d="M89.99 49.199c5.493 0 9.946 4.09 9.946 9.134V77.17c0 .816.124 1.604.345 2.35 1.015 3.425 4.187 5.932 7.938 5.932.515 0 1.041-.047 1.573-.146 3.296-.61 5.946-3.256 6.561-6.551a8.294 8.294 0 00-8.093-9.865h-4.179v-9.948h4.179c10.436.023 18.841 8.861 18.148 19.45-.582 8.878-7.681 16.153-16.544 16.935-.554.049-1.102.072-1.645.072-9.475 0-17.283-7.268-18.147-16.52a18.371 18.371 0 01-.083-1.709V49.2zm0-4.145h-4.146V77.17c0 .675.034 1.38.1 2.094a22.325 22.325 0 007.171 14.4 22.302 22.302 0 0015.104 5.88c.666 0 1.342-.03 2.009-.088 10.868-.959 19.602-9.898 20.316-20.794.409-6.242-1.715-12.194-5.98-16.758a22.459 22.459 0 00-16.295-7.107h-4.187c-1.647-5.612-7.621-9.744-14.093-9.744zm14.091 27.982h4.179a4.123 4.123 0 013.15 1.51 4.135 4.135 0 01.868 3.45c-.3 1.607-1.633 2.938-3.241 3.236a4.163 4.163 0 01-4.783-2.89 4.12 4.12 0 01-.173-1.17v-4.136z"/><path fill="url(#paint4_linear)" d="M104.081 68.891v4.145h4.179a4.058 4.058 0 011.682.38v-4.337a8.262 8.262 0 00-1.682-.188h-4.179z"/><path fill="url(#paint5_linear)" d="M108.26 58.943c.568.001 1.128.034 1.683.086v-4.156a22.063 22.063 0 00-1.674-.075h-4.187v4.145h4.178z"/><path fill="#191326" fill-rule="evenodd" d="M106.5 113.163c22.458 0 40.663-18.205 40.663-40.663S128.958 31.837 106.5 31.837 65.837 50.042 65.837 72.5s18.205 40.663 40.663 40.663zm0 2.837c24.024 0 43.5-19.476 43.5-43.5S130.524 29 106.5 29 63 48.476 63 72.5 82.476 116 106.5 116z" clip-rule="evenodd" opacity=".2"/></g><defs><linearGradient id="paint0_linear" x1="105.757" x2="92.381" y1="87.774" y2="138.886" gradientUnits="userSpaceOnUse"><stop stop-color="#404042"/><stop offset="1" stop-color="#48484B"/></linearGradient><linearGradient id="paint1_linear" x1="46.567" x2="41.735" y1="105.096" y2="123.129" gradientUnits="userSpaceOnUse"><stop stop-color="#404042"/><stop offset="1" stop-color="#48484B"/></linearGradient><linearGradient id="paint2_linear" x1="73.495" x2="89.09" y1="80.169" y2="164.62" gradientUnits="userSpaceOnUse"><stop stop-color="#404042"/><stop offset="1" stop-color="#48484B"/></linearGradient><linearGradient id="paint3_linear" x1="115.628" x2="101.714" y1="95.419" y2="61.118" gradientUnits="userSpaceOnUse"><stop stop-color="#FF9C00"/><stop offset="1" stop-color="#FFE226"/></linearGradient><linearGradient id="paint4_linear" x1="102.257" x2="107.44" y1="71.153" y2="71.153" gradientUnits="userSpaceOnUse"><stop stop-color="#FF8A00"/><stop offset="1" stop-color="#FF9505" stop-opacity="0"/></linearGradient><linearGradient id="paint5_linear" x1="102.257" x2="107.44" y1="56.913" y2="56.913" gradientUnits="userSpaceOnUse"><stop stop-color="#FF8A00"/><stop offset="1" stop-color="#FF9505" stop-opacity="0"/></linearGradient><clipPath id="clip0"><path fill="#fff" d="M0 0h160v160H0z"/></clipPath></defs></svg>