<svg xmlns="http://www.w3.org/2000/svg" viewBox="0 0 100 100"><path d="M50 0A50 50 0 110 50 50 50 0 0150 0z" fill="#f5ac37"/><path d="M51.843 53.53h18.999c.405 0 .596 0 .626-.53a36.32 36.32 0 000-5.813c0-.375-.187-.53-.594-.53H33.062c-.468 0-.594.155-.594.593v5.563c0 .717 0 .717.75.717zm17.503-13.374a.608.608 0 000-.436 12.357 12.357 0 00-1.13-1.97 15.942 15.942 0 00-2.313-2.906 7.667 7.667 0 00-1.438-1.406 22.463 22.463 0 00-9.375-4.75 23.306 23.306 0 00-5.313-.563h-16.78c-.468 0-.531.187-.531.594v11.093c0 .468 0 .594.594.594h36.06s.313-.063.376-.25h-.15zm0 19.875a7.292 7.292 0 00-1.598 0H33.093c-.468 0-.625 0-.625.625v10.845c0 .5 0 .626.625.626h16a7.992 7.992 0 002.28-.156 23.818 23.818 0 006.783-1.5 12.417 12.417 0 002.28-1.062h.218a20.302 20.302 0 008.719-8.778s.218-.472-.027-.596zM26.188 77.75V60.47c0-.408 0-.469-.5-.469h-6.781c-.376 0-.531 0-.531-.5v-5.937h7.25c.405 0 .562 0 .562-.531v-5.875c0-.376 0-.468-.5-.468h-6.781c-.376 0-.531 0-.531-.5v-5.498c0-.345 0-.437.5-.437h6.718c.468 0 .594 0 .594-.594V22.817c0-.499 0-.625.626-.625H50.25a35.707 35.707 0 015.062.562 30.546 30.546 0 019.781 3.625 27.564 27.564 0 015.5 4.25 30.112 30.112 0 013.343 4.156 25.064 25.064 0 012.441 4.782.814.814 0 00.934.657h5.593c.718 0 .718 0 .75.688v5.126c0 .5-.187.625-.689.625h-4.313c-.437 0-.563 0-.531.563a31.922 31.922 0 010 5.717c0 .531 0 .594.596.594h4.934c.219.281 0 .563 0 .846a6.313 6.313 0 010 1.091v3.783c0 .53-.155.688-.625.688H77.12a.782.782 0 00-.907.594 24.989 24.989 0 01-6.564 9.563 37.638 37.638 0 01-3.343 2.686c-1.251.72-2.468 1.47-3.75 2.063a33.787 33.787 0 01-7.376 2.343 38.451 38.451 0 01-7.313.594H26.179v-.032z" fill="#fefefd"/></svg>