<svg xmlns="http://www.w3.org/2000/svg" width="160" height="160" fill="none"><g clip-path="url(#clip0)"><path fill="#606063" d="M48.045 119.028c-3.178 12.144 15 27.421 40.602 34.121 25.603 6.7 48.934 2.287 52.112-9.858 3.179-12.145-15-27.421-40.602-34.122-25.602-6.7-48.934-2.286-52.112 9.859z"/><path fill="#606063" d="M136.924 149.273l15.422-16.285-109.354-28.619 5.72 21.818 88.212 23.086z"/><path fill="#606063" d="M49.934 108.293L8.072 97.338a3.304 3.304 0 00-4.062 2.486l-.469 2.129a8.258 8.258 0 005.746 9.7L51.1 123.892l-1.165-15.599z"/><path fill="url(#paint0_linear)" d="M43.203 98.71c-3.694 14.114 18.324 32.101 49.178 40.176 30.854 8.074 58.86 3.178 62.554-10.936 3.694-14.114-18.324-32.101-49.178-40.176-30.854-8.074-58.86-3.178-62.554 10.936z"/><path fill="#606063" fill-rule="evenodd" d="M127.673 123.286c7.098 5.22 11.246 10.866 11.865 15.871l2.977-.368c-.771-6.238-5.736-12.531-13.065-17.92-7.39-5.435-17.439-10.148-28.913-13.151-11.474-3.002-22.544-3.817-31.65-2.699-9.028 1.109-16.44 4.163-20.168 9.223l2.416 1.779c2.991-4.06 9.373-6.95 18.119-8.024 8.669-1.064 19.354-.299 30.523 2.624s20.859 7.49 27.896 12.665z" clip-rule="evenodd"/><path fill="#979797" fill-rule="evenodd" d="M56.734 118.739c-8.72-7.124-11.998-14.041-10.63-19.27 1.37-5.229 7.615-9.653 18.707-11.593 10.807-1.889 25.078-1.153 40.186 2.8 15.108 3.954 27.911 10.304 36.406 17.245 8.721 7.124 11.998 14.041 10.63 19.27-1.369 5.229-7.614 9.653-18.707 11.593-10.806 1.889-25.078 1.153-40.186-2.8-15.108-3.954-27.91-10.304-36.406-17.245zm35.647 20.147c-30.854-8.075-52.872-26.062-49.178-40.176 3.693-14.114 31.7-19.01 62.554-10.936 30.854 8.075 52.872 26.062 49.178 40.176-3.694 14.114-31.7 19.01-62.554 10.936z" clip-rule="evenodd"/><path fill="url(#paint1_linear)" fill-rule="evenodd" d="M45.167 124.049l-4.937-19.123 2.905-.75 4.937 19.123-2.905.75z" clip-rule="evenodd"/><path fill="url(#paint2_linear)" fill-rule="evenodd" d="M43.47 106.189a16.43 16.43 0 01-.33-1.26l-.143-.54c-.002-.009.005-.017.014-.014.008.002.016-.005.014-.013a13.388 13.388 0 01-.217-2.984v-.001c.035-.902.165-1.792.395-2.667 3.693-14.115 31.7-19.01 62.554-10.936 30.854 8.075 52.872 26.062 49.178 40.176a12.401 12.401 0 01-.963 2.519v.001a13.726 13.726 0 01-1.635 2.475l-.016.019c-.002.003-.003.005-.003.008 0 .005.004.01.009.011.005.001.008.006.009.01 0 .003-.001.007-.003.009l-.608.642c-.07.076-.141.151-.214.226l-1.236 1.305-.002.002-11.48 12.122c-6.807 9.031-27.596 11.752-50.146 5.85-22.302-5.837-38.971-18.182-40.797-29.295-.093-.569-.483-1.054-1.037-1.215L10.127 111.91a8.26 8.26 0 01-5.762-9.635l.459-2.172a3.304 3.304 0 014.066-2.514l34.249 8.931a.27.27 0 00.33-.331zm-3.658-3.636a15.574 15.574 0 01.488-4.603c2.326-8.885 11.93-13.966 23.478-15.984 11.833-2.069 26.992-1.215 42.738 2.906 15.746 4.12 29.38 10.802 38.683 18.402 9.078 7.417 14.963 16.551 12.638 25.436-.557 2.129-1.552 4.064-2.901 5.789a3.08 3.08 0 01-.425.566l-.588.621a26.355 26.355 0 01-.243.257l-.01.01-12.588 13.293c-4.171 5.406-12.026 8.46-21.098 9.556-9.3 1.124-20.517.28-32.096-2.751-11.453-2.997-21.548-7.685-29.079-13.141-7.079-5.13-12.32-11.262-13.742-17.657L9.285 114.789a11.259 11.259 0 01-7.855-13.134l.459-2.173a6.304 6.304 0 017.758-4.796l30.165 7.867z" clip-rule="evenodd"/><circle cx="57" cy="29" r="29" fill="#F0B90B"/><path fill="#FFFDFA" d="M46.185 29l-4.437 4.468L37.28 29l4.468-4.468L46.185 29zM57 18.185l7.641 7.641 4.468-4.468-7.641-7.61L57 9.28l-4.468 4.468-7.61 7.61 4.467 4.468L57 18.185zm15.252 6.347L67.815 29l4.468 4.468L76.72 29l-4.468-4.468zM57 39.815l-7.642-7.642-4.437 4.468 7.642 7.642L57 48.72l4.468-4.468 7.641-7.642-4.468-4.437L57 39.816zm0-6.347L61.468 29 57 24.532 52.532 29 57 33.468z"/><path fill="#191326" fill-rule="evenodd" d="M57 55c14.36 0 26-11.64 26-26S71.36 3 57 3 31 14.64 31 29s11.64 26 26 26zm0 3c16.016 0 29-12.984 29-29S73.016 0 57 0 28 12.984 28 29s12.984 29 29 29z" clip-rule="evenodd" opacity=".1"/><circle cx="106.5" cy="72.5" r="43.5" fill="#fff"/><mask id="a" width="71" height="43" x="71" y="48" maskUnits="userSpaceOnUse"><path fill="#fff" d="M106.394 48.01h1.111c21.667 0 32.755 21.876 32.755 36.338a3.26 3.26 0 01-1.677 6.057H75.068a3.197 3.197 0 01-1.43-6.057c0-14.462 10.85-36.339 32.756-36.339z"/></mask><g mask="url(#a)"><path fill="#FF8200" d="M106.394 48.01h1.111c21.667 0 32.755 21.876 32.755 36.338a3.26 3.26 0 01-1.677 6.057H75.068a3.197 3.197 0 01-1.43-6.057c0-14.462 10.85-36.339 32.756-36.339z"/><path fill="#FF9600" fill-rule="evenodd" d="M93.93 47.731h13.542c14.689 0 26.283 20.562 26.283 37.347l3.9 2.242a1.64 1.64 0 01-.818 3.062H64.64a1.64 1.64 0 01-.692-3.128l4.677-2.176c0-16.785 10.617-37.347 25.305-37.347z" clip-rule="evenodd"/><path fill="#000" d="M72.845 72.679h67.037v6.698H72.845V72.68z"/><path fill="#000" fill-opacity=".119" d="M106.953 85.462c5.436 0 9.842-4.407 9.842-9.843s-4.406-9.843-9.842-9.843c-5.436 0-9.843 4.407-9.843 9.843s4.407 9.843 9.843 9.843z"/></g><path fill="#fff" d="M106.405 85.461c5.436 0 9.843-4.407 9.843-9.843 0-5.435-4.407-9.842-9.843-9.842s-9.842 4.407-9.842 9.843c0 5.435 4.406 9.842 9.842 9.842z"/><g filter="url(#filter0_i)"><path fill="#fff" d="M106.047 84.281a8.609 8.609 0 008.609-8.61 8.61 8.61 0 10-8.609 8.61z"/></g><path fill="#000" fill-rule="evenodd" d="M106.405 68.844a6.775 6.775 0 100 13.55 6.775 6.775 0 000-13.55zm-9.882 6.775c0-5.458 4.425-9.882 9.882-9.882s9.882 4.424 9.882 9.882c0 5.457-4.425 9.881-9.882 9.881s-9.882-4.424-9.882-9.881z" clip-rule="evenodd"/><path fill="#FFAA30" d="M102.944 53.583c-1.583-3.197-2.083-4.15-1.766-5.422.492-1.977 2.719-3.786 5.273-3.754 2.228.027 4.265 1.454 5.134 3.615.135.436-.16 1.94-1.898 5.652-1.082 2.36-2.264 5.126-3.273 7a846.128 846.128 0 00-3.47-7.091z"/><path fill="#FFAA30" d="M102.441 53.579c-1.574-3.18-2.071-4.128-1.757-5.394.489-1.966 2.704-3.765 5.244-3.733 2.216.027 4.242 1.446 5.106 3.595.134.434-.159 1.93-1.887 5.622-1.077 2.349-2.252 5.1-3.256 6.963a836.952 836.952 0 00-3.45-7.053zm-10.724 4.598a26.363 26.363 0 00-3.72-3.648c-.178-.07-2.596-.984-4.639.54-1.7 1.269-2.408 3.678-1.666 5.9a20.507 20.507 0 014.969.055c4.121.552 7.196 2.252 8.988 3.461a27.016 27.016 0 00-3.932-6.308z"/><path fill="#FFAA30" d="M95.232 63.952a25.69 25.69 0 00-3.82-5.988 25.454 25.454 0 00-3.608-3.466c-.171-.067-2.513-.939-4.486.5-1.641 1.198-2.32 3.48-1.597 5.587 1.336-.14 2.97-.181 4.807.065 3.99.533 6.968 2.152 8.704 3.302z"/><path fill="#FF8A00" d="M120.925 58.656a26.392 26.392 0 013.721-3.648c.177-.07 2.595-.984 4.638.54 1.7 1.269 2.408 3.678 1.666 5.9a20.51 20.51 0 00-4.969.055c-4.121.552-7.196 2.252-8.988 3.461a27.018 27.018 0 013.932-6.308z"/><path fill="#FFAA30" d="M117.41 63.953a25.718 25.718 0 013.819-5.989 25.426 25.426 0 013.609-3.465c.171-.067 2.513-.94 4.486.5 1.641 1.198 2.32 3.48 1.597 5.586a20.244 20.244 0 00-4.807.065c-3.989.533-6.968 2.152-8.704 3.303z"/><path fill="#191326" fill-rule="evenodd" d="M106.5 113.163c22.458 0 40.663-18.205 40.663-40.663S128.958 31.837 106.5 31.837 65.837 50.042 65.837 72.5s18.205 40.663 40.663 40.663zm0 2.837c24.024 0 43.5-19.476 43.5-43.5S130.524 29 106.5 29 63 48.476 63 72.5 82.476 116 106.5 116z" clip-rule="evenodd" opacity=".2"/></g><defs><linearGradient id="paint0_linear" x1="105.757" x2="92.381" y1="87.774" y2="138.886" gradientUnits="userSpaceOnUse"><stop stop-color="#404042"/><stop offset="1" stop-color="#48484B"/></linearGradient><linearGradient id="paint1_linear" x1="46.567" x2="41.735" y1="105.096" y2="123.129" gradientUnits="userSpaceOnUse"><stop stop-color="#404042"/><stop offset="1" stop-color="#48484B"/></linearGradient><linearGradient id="paint2_linear" x1="73.495" x2="89.09" y1="80.169" y2="164.62" gradientUnits="userSpaceOnUse"><stop stop-color="#404042"/><stop offset="1" stop-color="#48484B"/></linearGradient><clipPath id="clip0"><path fill="#fff" d="M0 0h160v160H0z"/></clipPath><filter id="filter0_i" width="19.436" height="17.219" x="95.22" y="67.063" color-interpolation-filters="sRGB" filterUnits="userSpaceOnUse"><feFlood flood-opacity="0" result="BackgroundImageFix"/><feBlend in="SourceGraphic" in2="BackgroundImageFix" result="shape"/><feColorMatrix in="SourceAlpha" result="hardAlpha" values="0 0 0 0 0 0 0 0 0 0 0 0 0 0 0 0 0 0 127 0"/><feOffset dx="-2.218"/><feGaussianBlur stdDeviation="1.109"/><feComposite in2="hardAlpha" k2="-1" k3="1" operator="arithmetic"/><feColorMatrix values="0 0 0 0 0.909804 0 0 0 0 0.905882 0 0 0 0 0.913725 0 0 0 1 0"/><feBlend in2="shape" result="effect1_innerShadow"/></filter></defs></svg>