<svg width="160" height="160" fill="none" xmlns="http://www.w3.org/2000/svg"><g clip-path="url(#clip0)"><path d="M48.045 119.028c-3.178 12.144 15 27.421 40.602 34.121 25.603 6.7 48.934 2.287 52.112-9.858 3.178-12.145-15-27.421-40.602-34.122-25.602-6.7-48.934-2.286-52.112 9.859z" fill="#606063"/><path d="M136.924 149.273l15.422-16.285-109.354-28.619 5.72 21.818 88.212 23.086z" fill="#606063"/><path d="M49.934 108.293L8.072 97.338a3.304 3.304 0 00-4.062 2.486l-.469 2.129a8.258 8.258 0 005.746 9.7L51.1 123.892l-1.165-15.599z" fill="#606063"/><path d="M43.203 98.71c-3.694 14.114 18.324 32.101 49.178 40.176 30.854 8.074 58.86 3.178 62.554-10.936 3.694-14.114-18.324-32.101-49.178-40.176-30.854-8.074-58.86-3.178-62.554 10.936z" fill="url(#paint0_linear)"/><path fill-rule="evenodd" clip-rule="evenodd" d="M127.673 123.286c7.098 5.22 11.246 10.866 11.865 15.871l2.978-.368c-.772-6.238-5.737-12.531-13.066-17.92-7.389-5.435-17.439-10.148-28.913-13.151-11.474-3.002-22.544-3.817-31.649-2.699-9.029 1.109-16.44 4.163-20.168 9.223l2.415 1.779c2.991-4.06 9.373-6.95 18.119-8.024 8.67-1.064 19.354-.299 30.523 2.624s20.859 7.49 27.896 12.665z" fill="#606063"/><path fill-rule="evenodd" clip-rule="evenodd" d="M56.734 118.739c-8.72-7.124-11.998-14.041-10.63-19.27 1.37-5.229 7.615-9.653 18.707-11.593 10.807-1.889 25.078-1.153 40.186 2.8 15.108 3.954 27.911 10.304 36.406 17.245 8.721 7.124 11.998 14.041 10.63 19.27-1.369 5.229-7.614 9.653-18.707 11.593-10.806 1.889-25.078 1.153-40.186-2.8-15.108-3.954-27.91-10.304-36.406-17.245zm35.647 20.147c-30.854-8.075-52.872-26.062-49.178-40.176 3.693-14.114 31.7-19.01 62.554-10.936 30.854 8.075 52.872 26.062 49.178 40.176-3.694 14.114-31.7 19.01-62.554 10.936z" fill="#979797"/><path fill-rule="evenodd" clip-rule="evenodd" d="M45.167 124.049l-4.937-19.123 2.905-.75 4.937 19.123-2.905.75z" fill="url(#paint1_linear)"/><path fill-rule="evenodd" clip-rule="evenodd" d="M43.47 106.189a16.43 16.43 0 01-.33-1.26l-.143-.54c-.002-.009.005-.017.014-.014.008.002.016-.005.014-.013a13.388 13.388 0 01-.217-2.984v-.001c.035-.902.165-1.792.395-2.667 3.693-14.115 31.7-19.01 62.554-10.936 30.854 8.075 52.872 26.062 49.178 40.176a12.401 12.401 0 01-.963 2.519v.001a13.726 13.726 0 01-1.635 2.475l-.016.019c-.002.003-.003.005-.003.008 0 .005.004.01.009.011.005.001.008.006.009.01 0 .003-.001.007-.003.009l-.608.642c-.07.076-.141.151-.214.226l-1.236 1.305-.002.002-11.48 12.122c-6.807 9.031-27.596 11.752-50.146 5.85-22.302-5.837-38.971-18.182-40.797-29.295-.093-.569-.483-1.054-1.037-1.215L10.127 111.91a8.26 8.26 0 01-5.762-9.635l.459-2.172a3.304 3.304 0 014.066-2.514l34.249 8.931a.27.27 0 00.33-.331zm-3.658-3.636a15.574 15.574 0 01.488-4.603c2.326-8.885 11.93-13.966 23.478-15.984 11.833-2.069 26.992-1.215 42.738 2.906 15.746 4.12 29.38 10.802 38.683 18.402 9.078 7.417 14.963 16.551 12.638 25.436-.557 2.129-1.552 4.064-2.901 5.789a3.08 3.08 0 01-.425.566l-.588.621a26.355 26.355 0 01-.243.257l-.01.01-12.588 13.293c-4.171 5.406-12.026 8.46-21.098 9.556-9.3 1.124-20.517.28-32.096-2.751-11.453-2.997-21.548-7.685-29.079-13.141-7.079-5.13-12.32-11.262-13.742-17.657L9.285 114.789a11.259 11.259 0 01-7.855-13.134l.459-2.173a6.304 6.304 0 017.758-4.796l30.165 7.867z" fill="url(#paint2_linear)"/><circle cx="57" cy="29" r="29" fill="#F0B90B"/><path d="M46.185 29l-4.437 4.468L37.28 29l4.468-4.468L46.185 29zM57 18.185l7.641 7.641 4.468-4.468-7.641-7.61L57 9.28l-4.468 4.468-7.61 7.61 4.467 4.468L57 18.185zm15.252 6.347L67.815 29l4.468 4.468L76.72 29l-4.468-4.468zM57 39.815l-7.642-7.642-4.437 4.468 7.642 7.642L57 48.72l4.468-4.468 7.641-7.642-4.468-4.437L57 39.816zm0-6.347L61.468 29 57 24.532 52.532 29 57 33.468z" fill="#FFFDFA"/><path fill-rule="evenodd" clip-rule="evenodd" d="M57 55c14.36 0 26-11.64 26-26S71.36 3 57 3 31 14.64 31 29s11.64 26 26 26zm0 3c16.016 0 29-12.984 29-29S73.016 0 57 0 28 12.984 28 29s12.984 29 29 29z" fill="#191326" opacity=".1"/><circle cx="106.5" cy="72.5" r="43.5" fill="#28B0DD"/><path fill-rule="evenodd" clip-rule="evenodd" d="M84.504 61.321l7.01 11.716 14.118-.049c1.68 2.921 6.667 11.618 6.667 11.618l-35.001-.196c-.392-.882-.343-21.177-.147-23.53h6.716c1.078.147.294 0 .637.441zm25.883 41.766c-.637-1.667-2.402-3.579-3.186-5.196-.442-.883 1.568-3.971 2.304-5.344 4.951-9.265 4.559-7.01 2.451-10.735-1.079-1.814-2.01-3.334-3.138-5.197-1.912-3.235-2.794-3.725-1.961-5.196.834-1.47 5.246-9.706 5.834-10.343.588.54 17.893 29.167 18.089 30-.834.344-1.716 1.03-2.549 1.471-.932.54-1.716 1.03-2.55 1.52-1.96 1.226-14.167 8.873-15.294 9.02zM92.788 72.155c.148-.883 7.109-13.138 8.138-15.197l8.284-15c.932 0 2.059.784 2.795 1.225 2.745 1.569 17.255 9.07 18.039 9.903l-3.186 6.127-14.51.392-6.961 12.55H92.788zm-9.412-12.599c-.294.441.393.196-.735.441l-6.275.295V85.39l7.99.098c.099.785.05.196-.244.442-.294 1.666-2.843 5-3.089 6.715 1.863.834 3.677 1.961 5.393 2.893 1.617.931 3.627 1.96 5.392 2.94 1.618.883 9.804 5.491 10.736 5.638 1.127-1.078 2.451-4.46 3.627-5.784 1.128.588 3.039 4.804 4.265 5.784 1.52-.392 18.334-11.275 21.52-12.843-.441-1.373-3.529-5.343-3.922-6.765l7.697-.098V59.164l-7.746-.049c.54-1.667 2.795-5.294 2.991-6.667l-11.03-5.833c-1.618-.883-10.098-5.736-11.128-5.687l-3.235 5.883-4.069-6.03c-1.47.589-4.02 2.255-5.49 3.138-2.255 1.323-15.246 8.774-16.03 9.559.49 1.274 3.235 5.441 3.382 6.078z" fill="#FDFFFE"/><path fill-rule="evenodd" clip-rule="evenodd" d="M106.5 113.163c22.458 0 40.663-18.205 40.663-40.663S128.958 31.837 106.5 31.837 65.837 50.042 65.837 72.5s18.205 40.663 40.663 40.663zm0 2.837c24.024 0 43.5-19.476 43.5-43.5S130.524 29 106.5 29 63 48.476 63 72.5 82.476 116 106.5 116z" fill="#191326" opacity=".2"/></g><defs><linearGradient id="paint0_linear" x1="105.757" y1="87.774" x2="92.381" y2="138.886" gradientUnits="userSpaceOnUse"><stop stop-color="#404042"/><stop offset="1" stop-color="#48484B"/></linearGradient><linearGradient id="paint1_linear" x1="46.567" y1="105.096" x2="41.735" y2="123.129" gradientUnits="userSpaceOnUse"><stop stop-color="#404042"/><stop offset="1" stop-color="#48484B"/></linearGradient><linearGradient id="paint2_linear" x1="73.495" y1="80.169" x2="89.09" y2="164.62" gradientUnits="userSpaceOnUse"><stop stop-color="#404042"/><stop offset="1" stop-color="#48484B"/></linearGradient><clipPath id="clip0"><path fill="#fff" d="M0 0h160v160H0z"/></clipPath></defs></svg>