<svg xmlns="http://www.w3.org/2000/svg" viewBox="0 0 100 100"><path d="M50 100A50 50 0 100 50a49.88 49.88 0 0050 50z" fill="#2775ca"/><path d="M63.958 57.396c0-7.292-4.375-9.792-13.125-10.833-6.25-.834-7.5-2.5-7.5-5.417s2.084-4.792 6.25-4.792c3.75 0 5.834 1.25 6.875 4.375a1.567 1.567 0 001.459 1.042h3.333a1.424 1.424 0 001.458-1.458v-.209a10.408 10.408 0 00-9.375-8.541v-5c0-.834-.625-1.459-1.666-1.667h-3.125c-.834 0-1.459.625-1.667 1.667v4.791c-6.25.834-10.208 5-10.208 10.209 0 6.875 4.166 9.583 12.916 10.625 5.834 1.041 7.709 2.291 7.709 5.625s-2.917 5.625-6.875 5.625c-5.417 0-7.292-2.292-7.917-5.417a1.522 1.522 0 00-1.458-1.25H37.5a1.424 1.424 0 00-1.458 1.458v.209c.833 5.208 4.166 8.958 11.041 10v5c0 .833.625 1.458 1.667 1.666h3.125c.833 0 1.458-.625 1.667-1.666v-5c6.25-1.042 10.416-5.417 10.416-11.042z" fill="#fff"/><path d="M39.375 79.166a31.175 31.175 0 010-58.541 2.091 2.091 0 001.25-2.083v-2.917a1.584 1.584 0 00-1.25-1.667 1.255 1.255 0 00-.834.209 37.49 37.49 0 000 71.458 1.267 1.267 0 001.876-.834c.208-.207.208-.416.208-.832V81.04a2.775 2.775 0 00-1.25-1.874zm22.084-65a1.267 1.267 0 00-1.876.834c-.208.208-.208.416-.208.834v2.916a2.763 2.763 0 001.25 2.083 31.175 31.175 0 010 58.542 2.091 2.091 0 00-1.25 2.083v2.917a1.584 1.584 0 001.25 1.667 1.255 1.255 0 00.834-.209 37.65 37.65 0 000-71.666z" fill="#fff"/></svg>