<svg xmlns:vectornator="http://vectornator.io" xmlns="http://www.w3.org/2000/svg" viewBox="0 0 2155.21 2155.21" fill-rule="evenodd" clip-rule="evenodd" stroke-linecap="round" stroke-linejoin="round"><g vectornator:layerName="l39TdDNL2TvSt5HfuUg4cY2"><path d="M983.362 2151.51c-415.563-33.42-781.431-317.03-924.522-717.17-59.978-167.94-75.401-389.86-40.27-564.655C123.958 357.299 558.372 0 1077.61 0c599.79 0 1077.04 477.256 1077.04 1077.04 0 635.77-534.66 1125.88-1171.288 1074.47z" fill="#3d9ef3"/><g fill="#00d5e2"><path d="M983.362 2151.51c-415.563-33.42-781.431-317.03-924.522-717.17-59.978-167.94-75.401-389.86-40.27-564.655C123.958 357.299 558.372 0 1077.61 0c599.79 0 1077.04 477.256 1077.04 1077.04 0 635.77-534.66 1125.88-1171.288 1074.47zm323.878-613.5c130.24-190.21 234.78-345.3 233.06-345.3-2.57 0-108.81 66.83-237.34 149.09l-233.91 148.23-2.57 200.5c-.86 109.67 0 197.93 1.71 195.36 1.71-1.72 109.67-158.52 239.05-347.88z"/><path d="M1124.74 1601.42v-63.41l75.4-45.41c41.13-24.85 77.97-47.12 82.26-49.69 4.28-1.72-26.57 46.26-68.55 107.96-41.98 61.69-78.83 112.24-82.26 113.1-4.28 0-6.85-28.28-6.85-62.55z"/></g><g fill="#dff2ee"><path d="M983.362 2151.51c-415.563-33.42-781.431-317.03-924.522-717.17-59.978-167.94-75.401-389.86-40.27-564.655C123.958 357.299 558.372 0 1077.61 0c599.79 0 1077.04 477.256 1077.04 1077.04 0 635.77-534.66 1125.88-1171.288 1074.47zm323.878-611.78c129.39-188.51 233.92-343.59 232.21-345.31-.86-1.71-107.11 63.41-235.63 145.67-128.53 81.39-237.34 147.37-241.63 145.66-4.28-.86-107.103-65.98-229.63-143.95-122.527-77.97-227.918-143.09-234.772-145.66-6.855-3.43 94.251 151.66 225.347 342.73 130.238 191.07 239.915 347.02 243.345 345.3 3.42-.85 111.38-155.94 240.76-344.44z"/><path d="M925.098 1559.43c-39.415-58.26-71.117-106.24-70.261-107.96.857-.85 35.131 18 76.258 41.99l73.685 44.55v62.55c0 35.13-1.71 63.41-3.42 63.41-2.575 0-36.848-47.13-76.262-104.54zm204.782 91.69c-2.57-7.72-5.14-36.85-5.14-64.27v-49.69l62.55-36.85c33.41-19.7 71.12-41.98 82.25-49.69 18.85-12 3.43 12.85-132.8 211.63-.86 1.72-3.43-3.42-6.86-11.13z"/></g><path d="M815.423 1250.98l-245.054-146.52 60.835-104.537c275.9-472.114 430.126-732.591 433.556-732.591 3.43 0 255.34 424.989 490.11 825.988 4.28 6.85-77.12 59.98-241.63 157.66-136.23 81.39-248.48 147.37-250.19 147.37-1.72-.86-113.104-66.83-247.627-147.37zm585.217-151.66c5.14-4.29-215.92-139.668-251.91-153.377-3.43-1.714-6.85 65.977-6.85 151.657v154.23l126.81-72.83c69.4-40.27 128.52-76.26 131.95-79.68zm-412.994-6V942.516l-53.123 29.989c-29.989 17.136-89.968 51.405-133.666 77.115l-79.685 46.27 126.811 73.69c69.403 40.27 129.381 73.68 133.666 74.54 3.427 0 5.997-67.69 5.997-150.8zm-79.685-185.935l79.685-44.555V554.371L875.401 747.158c-60.835 106.247-121.67 209.924-133.665 230.488l-21.421 36.844 53.98-30.846c29.989-17.137 90.824-51.41 133.666-76.259zm371.009-122.527c-71.12-121.67-131.1-222.776-132.81-225.346-2.57-1.714-4.28 65.119-4.28 149.945l.85 153.373 130.24 73.688c71.98 41.128 131.1 73.692 132.81 71.972.86-.86-56.55-101.105-126.81-223.632z" fill="#94e36a"/><path d="M824.848 1256.12c-129.381-77.98-239.056-144.81-243.34-149.09-6.855-6.86 472.112-838.841 483.252-839.698 3.43 0 252.77 419.848 490.11 825.988 4.28 6.85-77.12 59.98-241.63 157.66-136.23 81.39-248.48 147.37-250.19 146.51-1.72 0-108.82-64.26-238.202-141.37zm169.653-532.097l-2.57-178.221-89.111 154.23c-49.696 84.826-118.243 202.212-153.373 259.62-34.273 58.268-61.692 109.678-59.978 113.958 1.713 3.43 70.26 45.41 152.516 92.54l149.946 86.54 2.57-175.65c.857-96.824.857-255.338 0-353.017zm406.139 375.297c5.14-4.29-215.92-139.668-251.91-153.377-3.43-1.714-6.85 65.977-6.85 151.657v154.23l126.81-72.83c69.4-40.27 128.52-76.26 131.95-79.68zm-121.67-314.462c-71.12-121.67-131.1-222.776-132.81-225.346-2.57-1.714-4.28 65.119-4.28 149.945l.85 153.373 130.24 73.688c71.98 41.128 131.1 73.692 132.81 71.972.86-.86-56.55-101.105-126.81-223.632z" fill="#ffe900"/><path d="M1064.76 831.984c0-311.887 1.72-565.509 3.43-563.795 1.71 1.713 106.25 179.077 232.2 393.286 125.95 214.208 235.63 401.855 245.05 416.425l15.43 25.7-228.78 136.24c-125.95 74.54-237.34 141.37-247.62 148.23l-19.71 11.99V831.984zm335.88 267.336c5.14-4.29-215.92-139.668-251.91-153.377-3.43-1.714-6.85 65.977-6.85 151.657v154.23l126.81-72.83c69.4-40.27 128.52-76.26 131.95-79.68zm-121.67-314.462c-71.12-121.67-131.1-222.776-132.81-225.346-2.57-1.714-4.28 65.119-4.28 149.945l.85 153.373 130.24 73.688c71.98 41.128 131.1 73.692 132.81 71.972.86-.86-56.55-101.105-126.81-223.632z" fill="#ff968e"/><path d="M1274.69 1017.06l-137.1-79.685-2.57-39.415c-3.43-47.982-23.13-53.98 161.94 51.41 88.26 50.553 128.53 78.83 137.1 95.11 5.99 13.71 12.85 26.56 13.71 29.13 1.71 2.57-6 8.57-17.14 13.71-17.14 7.71-36.85-.86-155.94-70.26z" fill="#e78fd6"/><path d="M983.617 2151.5c-415.671-33.41-781.634-317.02-924.762-717.16-59.993-167.94-75.42-389.86-40.281-564.656C123.992 357.299 558.518 0 1077.89 0c599.94 0 1077.32 477.255 1077.32 1077.04 0 635.77-534.8 1125.87-1171.593 1074.46z" fill="#3d9ef3"/><g fill="#00d5e2"><path d="M983.617 2151.5c-415.671-33.41-781.634-317.02-924.762-717.16-59.993-167.94-75.42-389.86-40.281-564.656C123.992 357.299 558.518 0 1077.89 0c599.94 0 1077.32 477.255 1077.32 1077.04 0 635.77-534.8 1125.87-1171.593 1074.46zm323.963-613.49c130.28-190.21 234.84-345.3 233.12-345.3-2.57 0-108.84 66.83-237.4 149.09l-233.98 148.23-2.57 200.5c-.86 109.67 0 197.93 1.72 195.36 1.71-1.72 109.7-158.52 239.11-347.88z"/><path d="M1125.03 1601.42v-63.41l75.42-45.41c41.14-24.85 77.99-47.13 82.28-49.7 4.28-1.71-26.57 46.27-68.57 107.97-41.99 61.69-78.84 112.24-82.27 113.1-4.29 0-6.86-28.28-6.86-62.55z"/></g><g fill="#dff2ee"><path d="M983.617 2151.5c-415.671-33.41-781.634-317.02-924.762-717.16-59.993-167.94-75.42-389.86-40.281-564.656C123.992 357.299 558.518 0 1077.89 0c599.94 0 1077.32 477.255 1077.32 1077.04 0 635.77-534.8 1125.87-1171.593 1074.46zm323.963-611.77c129.42-188.51 233.98-343.59 232.27-345.31-.86-1.71-107.14 63.41-235.69 145.66-128.56 81.4-237.41 147.38-241.69 145.67-4.29-.86-107.136-65.98-229.695-143.95-122.558-77.97-227.976-143.09-234.833-145.66-6.856-3.43 94.276 151.66 225.406 342.73 130.272 191.07 239.972 347.02 243.402 345.3 3.43-.85 111.42-155.94 240.83-344.44z"/><path d="M925.337 1559.43c-39.424-58.26-71.135-106.24-70.278-107.96.857-.85 35.139 18 76.278 41.99l73.703 44.55v62.55c0 35.13-1.71 63.41-3.42 63.41-2.576 0-36.858-47.13-76.283-104.54zm204.833 91.68c-2.57-7.71-5.14-36.84-5.14-64.26v-49.69l62.57-36.85c33.42-19.71 71.13-41.98 82.27-49.69 18.86-12 3.43 12.85-132.84 211.63-.86 1.72-3.43-3.42-6.86-11.14z"/></g><path d="M815.634 1250.97l-245.117-146.51 60.851-104.538c275.971-472.114 430.242-732.591 433.672-732.591 3.43 0 255.4 424.989 490.23 825.989 4.29 6.85-77.13 59.98-241.69 157.65-136.27 81.4-248.54 147.38-250.26 147.38-1.71-.86-113.128-66.83-247.686-147.38zM1401 1099.31c5.14-4.28-215.98-139.659-251.97-153.368-3.43-1.714-6.86 65.978-6.86 151.658v154.23l126.85-72.83c69.42-40.27 128.55-76.26 131.98-79.69zm-413.098-5.99V942.515l-53.137 29.989c-29.997 17.136-89.991 51.406-133.701 77.116l-79.706 46.27 126.844 73.69c69.422 40.27 129.416 73.68 133.701 74.54 3.428 0 5.999-67.69 5.999-150.8zm-79.706-185.935l79.706-44.556V554.37L875.628 747.157c-60.851 106.247-121.702 209.924-133.7 230.488l-21.427 36.845 53.995-30.847c29.997-17.137 90.847-51.41 133.7-76.258zM1279.3 784.858c-71.13-121.67-131.13-222.777-132.84-225.347-2.57-1.714-4.29 65.119-4.29 149.946l.86 153.372 130.27 73.688c71.99 41.128 131.13 73.683 132.84 71.973.86-.86-56.56-101.105-126.84-223.632z" fill="#94e36a"/><path d="M825.062 1256.12c-129.415-77.98-239.118-144.81-243.404-149.09-6.856-6.86 472.242-838.842 483.382-839.699 3.43 0 252.83 419.848 490.23 825.989 4.29 6.85-77.13 59.98-241.69 157.65-136.27 81.4-248.54 147.38-250.26 146.52-1.71 0-108.843-64.26-238.258-141.37zm169.697-532.097l-2.572-178.221-89.133 154.229c-49.709 84.827-118.274 202.213-153.413 259.62-34.282 58.269-61.708 109.679-59.994 113.959 1.714 3.43 70.279 45.41 152.556 92.54l149.984 86.54 2.572-175.65c.857-96.825.857-255.339 0-353.017zM1401 1099.31c5.14-4.28-215.98-139.659-251.97-153.368-3.43-1.714-6.86 65.978-6.86 151.658v154.23l126.85-72.83c69.42-40.27 128.55-76.26 131.98-79.69zm-121.7-314.452c-71.13-121.67-131.13-222.777-132.84-225.347-2.57-1.714-4.29 65.119-4.29 149.946l.86 153.372 130.27 73.688c71.99 41.128 131.13 73.683 132.84 71.973.86-.86-56.56-101.105-126.84-223.632z" fill="#ffe900"/><path d="M1065.04 831.983c0-311.886 1.71-565.508 3.43-563.795 1.71 1.714 106.27 179.078 232.26 393.286 125.98 214.208 235.69 401.856 245.11 416.416l15.43 25.71-228.83 136.24c-125.99 74.54-237.41 141.37-247.69 148.23l-19.71 11.99V831.983zM1401 1099.31c5.14-4.28-215.98-139.659-251.97-153.368-3.43-1.714-6.86 65.978-6.86 151.658v154.23l126.85-72.83c69.42-40.27 128.55-76.26 131.98-79.69zm-121.7-314.452c-71.13-121.67-131.13-222.777-132.84-225.347-2.57-1.714-4.29 65.119-4.29 149.946l.86 153.372 130.27 73.688c71.99 41.128 131.13 73.683 132.84 71.973.86-.86-56.56-101.105-126.84-223.632z" fill="#ff968e"/><path d="M1275.02 1017.06l-137.13-79.686-2.57-39.415c-3.43-47.982-23.14-53.98 161.98 51.41 88.28 50.553 128.56 78.831 137.13 95.111 6 13.71 12.85 26.56 13.71 29.13 1.71 2.57-6 8.57-17.14 13.71-17.14 7.71-36.85-.86-155.98-70.26z" fill="#e78fd6"/></g></svg>