<svg width="160" height="160" fill="none" xmlns="http://www.w3.org/2000/svg"><g clip-path="url(#clip0)"><path d="M48.045 119.028c-3.178 12.144 15 27.421 40.602 34.121 25.603 6.7 48.934 2.287 52.112-9.858 3.178-12.145-15-27.421-40.602-34.122-25.602-6.7-48.934-2.286-52.112 9.859z" fill="#606063"/><path d="M136.924 149.273l15.422-16.285-109.354-28.619 5.72 21.818 88.212 23.086z" fill="#606063"/><path d="M49.934 108.293L8.072 97.338a3.304 3.304 0 00-4.062 2.486l-.469 2.129a8.258 8.258 0 005.746 9.7L51.1 123.892l-1.165-15.599z" fill="#606063"/><path d="M43.203 98.71c-3.694 14.114 18.324 32.101 49.178 40.176 30.854 8.074 58.86 3.178 62.554-10.936 3.694-14.114-18.324-32.101-49.178-40.176-30.854-8.074-58.86-3.178-62.554 10.936z" fill="url(#paint0_linear)"/><path fill-rule="evenodd" clip-rule="evenodd" d="M127.673 123.286c7.098 5.22 11.246 10.866 11.865 15.871l2.978-.368c-.772-6.238-5.737-12.531-13.066-17.92-7.389-5.435-17.439-10.148-28.913-13.151-11.474-3.002-22.544-3.817-31.649-2.699-9.029 1.109-16.44 4.163-20.168 9.223l2.415 1.779c2.991-4.06 9.373-6.95 18.119-8.024 8.67-1.064 19.354-.299 30.523 2.624s20.859 7.49 27.896 12.665z" fill="#606063"/><path fill-rule="evenodd" clip-rule="evenodd" d="M56.734 118.739c-8.72-7.124-11.998-14.041-10.63-19.27 1.37-5.229 7.615-9.653 18.707-11.593 10.807-1.889 25.078-1.153 40.186 2.8 15.108 3.954 27.911 10.304 36.406 17.245 8.721 7.124 11.998 14.041 10.63 19.27-1.369 5.229-7.614 9.653-18.707 11.593-10.806 1.889-25.078 1.153-40.186-2.8-15.108-3.954-27.91-10.304-36.406-17.245zm35.647 20.147c-30.854-8.075-52.872-26.062-49.178-40.176 3.693-14.114 31.7-19.01 62.554-10.936 30.854 8.075 52.872 26.062 49.178 40.176-3.694 14.114-31.7 19.01-62.554 10.936z" fill="#979797"/><path fill-rule="evenodd" clip-rule="evenodd" d="M45.167 124.049l-4.937-19.123 2.905-.75 4.937 19.123-2.905.75z" fill="url(#paint1_linear)"/><path fill-rule="evenodd" clip-rule="evenodd" d="M43.47 106.189a16.43 16.43 0 01-.33-1.26l-.143-.54c-.002-.009.005-.017.014-.014.008.002.016-.005.014-.013a13.388 13.388 0 01-.217-2.984v-.001c.035-.902.165-1.792.395-2.667 3.693-14.115 31.7-19.01 62.554-10.936 30.854 8.075 52.872 26.062 49.178 40.176a12.401 12.401 0 01-.963 2.519v.001a13.726 13.726 0 01-1.635 2.475l-.016.019c-.002.003-.003.005-.003.008 0 .005.004.01.009.011.005.001.008.006.009.01 0 .003-.001.007-.003.009l-.608.642c-.07.076-.141.151-.214.226l-1.236 1.305-.002.002-11.48 12.122c-6.807 9.031-27.596 11.752-50.146 5.85-22.302-5.837-38.971-18.182-40.797-29.295-.093-.569-.483-1.054-1.037-1.215L10.127 111.91a8.26 8.26 0 01-5.762-9.635l.459-2.172a3.304 3.304 0 014.066-2.514l34.249 8.931a.27.27 0 00.33-.331zm-3.658-3.636a15.574 15.574 0 01.488-4.603c2.326-8.885 11.93-13.966 23.478-15.984 11.833-2.069 26.992-1.215 42.738 2.906 15.746 4.12 29.38 10.802 38.683 18.402 9.078 7.417 14.963 16.551 12.638 25.436-.557 2.129-1.552 4.064-2.901 5.789a3.08 3.08 0 01-.425.566l-.588.621a26.355 26.355 0 01-.243.257l-.01.01-12.588 13.293c-4.171 5.406-12.026 8.46-21.098 9.556-9.3 1.124-20.517.28-32.096-2.751-11.453-2.997-21.548-7.685-29.079-13.141-7.079-5.13-12.32-11.262-13.742-17.657L9.285 114.789a11.259 11.259 0 01-7.855-13.134l.459-2.173a6.304 6.304 0 017.758-4.796l30.165 7.867z" fill="url(#paint2_linear)"/><circle cx="57" cy="29" r="29" fill="#F5F3F3"/><path d="M57 39.255v10.1L69.431 31.9 57 39.255z" fill="#2F3030"/><path d="M57 23.669V36.67l12.431-7.355L57 23.669z" fill="#100C18"/><path d="M57 8.7v14.97l12.431 5.645L57 8.7z" fill="#2F3030"/><path d="M57 39.255v10.1L44.57 31.9 57 39.255z" fill="#828384"/><path d="M57 23.669V36.67l-12.43-7.355L57 23.669z" fill="#343535"/><path d="M57 8.7v14.97l-12.43 5.644L57 8.7z" fill="#828384"/><path fill-rule="evenodd" clip-rule="evenodd" d="M57 55c14.36 0 26-11.64 26-26S71.36 3 57 3 31 14.64 31 29s11.64 26 26 26zm0 3c16.016 0 29-12.984 29-29S73.016 0 57 0 28 12.984 28 29s12.984 29 29 29z" fill="#191326" opacity=".1"/><circle cx="106.5" cy="72.5" transform="rotate(90 106.5 72.5)" fill="url(#paint3_linear)" r="43.5"/><circle transform="matrix(1 0 0 -1 106.5 72.5)" fill="url(#paint4_linear)" r="39.875"/><circle transform="matrix(0 -1 -1 0 106.607 72.606)" fill="#fff" r="36.25"/><path d="M129.569 49.43c-12.74-12.74-33.397-12.74-46.138 0-12.741 12.742-12.741 33.399 0 46.14 12.74 12.74 33.398 12.74 46.138 0 12.741-12.741 12.741-33.398 0-46.14z" fill="url(#paint5_linear)"/><path fill-rule="evenodd" clip-rule="evenodd" d="M107.407 65.703l13.431 6.1-.887 1.952-13.431-6.1.887-1.952z" fill="#D48FCD"/><path fill-rule="evenodd" clip-rule="evenodd" d="M106.481 67.656l-13.431 6.1-.887-1.953 13.431-6.1.887 1.953z" fill="#A1DD71"/><path fill-rule="evenodd" clip-rule="evenodd" d="M106.5 97.875l15.518-21.79-15.518 9.182v12.608zm7.902-14.792l-5.758 3.407v4.678l5.758-8.085z" fill="#5A9DED"/><path fill-rule="evenodd" clip-rule="evenodd" d="M106.5 47.125V82.04l15.518-9.181L106.5 47.125zm2.144 7.709V78.28l10.421-6.166-10.421-17.28z" fill="#FF9C92"/><path fill-rule="evenodd" clip-rule="evenodd" d="M104.356 86.49l-5.758-3.407 5.758 8.085V86.49zm2.144-1.223l-15.518-9.182 15.518 21.79V85.267z" fill="#53D3E1"/><path fill-rule="evenodd" clip-rule="evenodd" d="M90.982 72.859L106.5 82.04V47.125L90.982 72.859zm2.953-.745l10.421 6.166V54.834l-10.42 17.28z" fill="#F8D136"/><path fill-rule="evenodd" clip-rule="evenodd" d="M106.5 113.163c22.458 0 40.663-18.205 40.663-40.663S128.958 31.837 106.5 31.837 65.837 50.042 65.837 72.5s18.205 40.663 40.663 40.663zm0 2.837c24.024 0 43.5-19.476 43.5-43.5S130.524 29 106.5 29 63 48.476 63 72.5 82.476 116 106.5 116z" fill="#191326" opacity=".2"/></g><defs><linearGradient id="paint0_linear" x1="105.757" y1="87.774" x2="92.381" y2="138.886" gradientUnits="userSpaceOnUse"><stop stop-color="#404042"/><stop offset="1" stop-color="#48484B"/></linearGradient><linearGradient id="paint1_linear" x1="46.567" y1="105.096" x2="41.735" y2="123.129" gradientUnits="userSpaceOnUse"><stop stop-color="#404042"/><stop offset="1" stop-color="#48484B"/></linearGradient><linearGradient id="paint2_linear" x1="73.495" y1="80.169" x2="89.09" y2="164.62" gradientUnits="userSpaceOnUse"><stop stop-color="#404042"/><stop offset="1" stop-color="#48484B"/></linearGradient><linearGradient id="paint3_linear" x1="106.5" y1="29" x2="106.5" y2="116" gradientUnits="userSpaceOnUse"><stop stop-color="#F0B90B"/><stop offset="1" stop-color="#F8D33A"/></linearGradient><linearGradient id="paint4_linear" x1="39.875" y1="0" x2="39.875" y2="79.75" gradientUnits="userSpaceOnUse"><stop stop-color="#F0B90B"/><stop offset="1" stop-color="#F8D33A"/></linearGradient><linearGradient id="paint5_linear" x1="106.5" y1="105.125" x2="106.5" y2="39.875" gradientUnits="userSpaceOnUse"><stop stop-color="#E6EAFA"/><stop offset="1" stop-color="#E4F5EB"/></linearGradient><clipPath id="clip0"><path fill="#fff" d="M0 0h160v160H0z"/></clipPath></defs></svg>