<svg xmlns="http://www.w3.org/2000/svg" width="186" height="171" fill="none"><g fill="#606063"><path d="M67.045 119.028c-3.178 12.144 15 27.421 40.602 34.121s48.934 2.287 52.112-9.858-15-27.421-40.602-34.122-48.934-2.286-52.112 9.859z"/><path d="M155.924 149.273l15.422-16.285-109.354-28.619 5.721 21.818 88.211 23.086z"/><path d="M68.934 108.293L27.073 97.338a3.303 3.303 0 00-4.063 2.486l-.468 2.129a8.26 8.26 0 005.746 9.7L70.1 123.892l-1.166-15.599z"/></g><path fill="url(#A)" d="M62.203 98.71c-3.694 14.114 18.324 32.101 49.178 40.176s58.86 3.178 62.554-10.936-18.324-32.101-49.178-40.176-58.861-3.179-62.554 10.935z"/><g fill-rule="evenodd"><path fill="#606063" d="M146.673 123.286c7.098 5.22 11.246 10.866 11.865 15.871l2.978-.368c-.772-6.238-5.737-12.531-13.066-17.92-7.389-5.435-17.439-10.148-28.913-13.151s-22.544-3.817-31.649-2.699c-9.029 1.109-16.44 4.163-20.168 9.223l2.415 1.779c2.992-4.06 9.373-6.95 18.119-8.024 8.67-1.064 19.354-.299 30.523 2.624s20.859 7.49 27.896 12.665z"/><path fill="#979797" d="M75.734 118.739c-8.721-7.124-11.998-14.041-10.629-19.27s7.614-9.654 18.706-11.593c10.807-1.889 25.078-1.154 40.186 2.8s27.911 10.304 36.406 17.245c8.721 7.124 11.998 14.041 10.63 19.27s-7.614 9.653-18.707 11.593c-10.806 1.889-25.078 1.153-40.186-2.8s-27.91-10.304-36.406-17.245zm35.647 20.147c-30.854-8.075-52.872-26.062-49.178-40.176s31.7-19.01 62.554-10.935 52.872 26.062 49.178 40.176-31.7 19.01-62.554 10.936z"/><path fill="url(#B)" d="M64.167 124.049l-4.937-19.123 2.905-.75 4.937 19.123-2.905.75z"/><path fill="url(#C)" d="M62.469 106.189l-.128-.443-.202-.817-.142-.54c.022-.012.03-.019.028-.027l-.004-.025-.12-.794-.022-.191a13.484 13.484 0 01-.071-1.974c.035-.903.166-1.793.395-2.668 3.694-14.114 31.7-19.01 62.555-10.936s52.872 26.062 49.178 40.176a12.4 12.4 0 01-.963 2.519 13.7 13.7 0 01-1.635 2.476l-.016.019.015.029-.611.651-12.932 13.655c-6.807 9.031-27.596 11.752-50.146 5.85-22.302-5.837-38.971-18.182-40.797-29.295-.093-.569-.484-1.054-1.037-1.215L29.127 111.91a8.26 8.26 0 01-5.762-9.635l.459-2.172a3.304 3.304 0 014.066-2.514l34.249 8.931a.27.27 0 00.331-.331zm-3.657-3.636a15.573 15.573 0 01.488-4.603c2.325-8.885 11.93-13.965 23.478-15.984 11.834-2.069 26.992-1.215 42.738 2.906s29.38 10.802 38.683 18.402c9.078 7.417 14.963 16.551 12.638 25.436-.557 2.129-1.552 4.064-2.901 5.789a3.08 3.08 0 01-.425.566l-13.429 14.181c-4.171 5.406-12.026 8.46-21.098 9.556-9.3 1.124-20.517.28-32.096-2.751-11.453-2.997-21.548-7.685-29.079-13.141-7.079-5.13-12.321-11.262-13.743-17.657l-35.782-10.464a11.26 11.26 0 01-7.855-13.134l.459-2.173a6.304 6.304 0 017.758-4.796l30.165 7.867z"/></g><circle cx="76" cy="29" r="29" fill="#f0b90b"/><path fill="#fffdfa" d="M65.185 29l-4.437 4.468L56.28 29l4.468-4.468L65.185 29zM76 18.185l7.642 7.642 4.468-4.468-7.641-7.611L76 9.28 63.921 21.358l4.468 4.468L76 18.185zm15.252 6.347L86.815 29l4.468 4.468L95.72 29l-4.468-4.468zM76 39.815l-7.641-7.642-4.437 4.468L76 48.72l12.109-12.109-4.468-4.437L76 39.815zm0-6.347L80.468 29 76 24.532 71.532 29 76 33.468z"/><path fill="#191326" fill-rule="evenodd" d="M76 55c14.359 0 26-11.641 26-26S90.359 3 76 3 50 14.641 50 29s11.641 26 26 26zm0 3c16.016 0 29-12.984 29-29S92.016 0 76 0 47 12.984 47 29s12.984 29 29 29z" opacity=".1" style="mix-blend-mode:multiply"/><circle cx="125.5" cy="72.5" r="43.5" fill="#0f1837"/><g clip-path="url(#D)"><path fill="#c9a31e" d="M117.08 77.804l-4.825-.055V65.306c0-.322-.063-.64-.187-.937a2.44 2.44 0 00-1.325-1.325 2.45 2.45 0 00-.938-.186c-.322 0-.64.063-.938.187a2.46 2.46 0 00-1.326 1.327 2.452 2.452 0 00-.186.938v14.836a2.46 2.46 0 00.699 1.741 2.45 2.45 0 00.789.54c.296.126.613.193.935.197l7.28.082a2.45 2.45 0 001.736-.708 2.448 2.448 0 00.727-1.728 2.45 2.45 0 00-2.436-2.463h-.005z"/><path d="M146.553 58.54a.94.94 0 01-.449-.115l-4.102-2.285a1.34 1.34 0 01-.478-.507 1.337 1.337 0 01-.157-.679c0-.419.178-.961.65-1.227l4.09-2.242a.95.95 0 01.719-.074.94.94 0 01.325.172.947.947 0 01.235.284.93.93 0 01.108.352.95.95 0 01-.034.367.933.933 0 01-.456.56l-3.296 1.804 3.299 1.825a.945.945 0 01.463 1.059.94.94 0 01-.334.512.944.944 0 01-.578.2l-.005-.006zm-12.249 35.094a24.2 24.2 0 01-5.755-.685c-5.065-1.241-8.01-3.721-8.133-3.825a1.403 1.403 0 01-.157-1.977 1.4 1.4 0 011.976-.158c.434.365 10.533 8.62 25.784-.15a1.41 1.41 0 01.521-.186c.184-.027.373-.016.553.031a1.4 1.4 0 01.863.658 1.4 1.4 0 01.176.525 1.41 1.41 0 01-.041.552 1.4 1.4 0 01-.252.493 1.407 1.407 0 01-.422.357c-5.787 3.33-10.942 4.363-15.113 4.363z" fill="#fff"/><path d="M124.724 82.685a2.567 2.567 0 01-1.812-.751 2.57 2.57 0 01-.753-1.812v-14.7c0-.68.27-1.332.751-1.813a2.57 2.57 0 011.813-.752 2.56 2.56 0 011.813.751c.481.481.751 1.133.751 1.813v14.7a2.56 2.56 0 01-.195.981 2.566 2.566 0 01-.555.832 2.57 2.57 0 01-.832.556 2.58 2.58 0 01-.981.196zm20.403.085a2.564 2.564 0 01-2.566-2.565v-8.36a6.084 6.084 0 00-.575-2.317c-.584-1.17-1.495-1.692-2.976-1.692h-.008c-1.345 0-2.152.523-2.69 1.747a6.706 6.706 0 00-.504 2.242v8.371a2.57 2.57 0 01-.177 1 2.567 2.567 0 01-1.391 1.425 2.57 2.57 0 01-.996.201 2.56 2.56 0 01-.996-.201 2.57 2.57 0 01-.84-.572 2.56 2.56 0 01-.551-.853 2.555 2.555 0 01-.178-1v-8.371c0-3.664 2.216-9.118 8.317-9.118h.011c2.4 0 4.471.801 5.988 2.315 2.617 2.616 2.691 6.386 2.691 6.807V80.2a2.554 2.554 0 01-.748 1.815c-.238.239-.52.428-.83.558a2.57 2.57 0 01-.981.197z" fill="#c9a41e"/><path d="M156.452 72.984l4.301-6.232c.199-.279.341-.594.417-.928a2.58 2.58 0 00.026-1.017 2.584 2.584 0 00-1.077-1.68 2.57 2.57 0 00-.934-.401 2.58 2.58 0 00-2.679 1.096l-5.332 7.727s0 .012-.01.018a2.72 2.72 0 00-.202.366l-.048.1a2.87 2.87 0 00-.103.327l-.043.166a2.54 2.54 0 00-.03.275c0 .076-.017.149-.017.229s.012.15.02.221a2.39 2.39 0 00.034.28c.012.055.032.108.047.161.028.113.064.223.109.33.013.033.031.063.048.094a2.47 2.47 0 00.209.368s0 .012.01.018l5.074 7.111a2.58 2.58 0 004.573-1.1 2.583 2.583 0 00-.373-1.889l-4.02-5.64zm-31.88-14.864a3.2 3.2 0 003.197-3.197 3.2 3.2 0 00-3.197-3.197 3.2 3.2 0 00-3.197 3.197 3.2 3.2 0 003.197 3.197z" fill="#fff"/><path fill="#c9a31e" d="M100.723 71.771s2.741-.245 2.645-4.35c-.103-4.423-5.302-4.608-5.302-4.608h-5.742a2.5 2.5 0 00-2.472 2.499V80.41a2.5 2.5 0 002.499 2.499h4.304c5.782.085 8.24-2.109 8.326-5.797.109-4.927-4.258-5.341-4.258-5.341zm-6.006-5.082h2.093c.487.022 2.175.187 2.105 2.117s-2.242 1.837-2.242 1.837h-1.955v-3.954zm1.954 12.318h-1.954v-4.465s1.605-.024 2.093 0 3.251-.209 3.317 2.23c.067 2.38-3.456 2.242-3.456 2.242v-.007z"/></g><path fill="#191326" fill-rule="evenodd" d="M125.5 113.163c22.458 0 40.663-18.205 40.663-40.663S147.958 31.837 125.5 31.837 84.837 50.042 84.837 72.5s18.205 40.663 40.663 40.663zm0 2.837c24.024 0 43.5-19.476 43.5-43.5S149.524 29 125.5 29 82 48.476 82 72.5s19.476 43.5 43.5 43.5z" opacity=".2" style="mix-blend-mode:multiply"/><defs><linearGradient id="A" x1="124.757" x2="111.381" y1="87.774" y2="138.886" gradientUnits="userSpaceOnUse"><stop stop-color="#404042"/><stop offset="1" stop-color="#48484b"/></linearGradient><linearGradient id="B" x1="65.567" x2="60.735" y1="105.096" y2="123.129" gradientUnits="userSpaceOnUse"><stop stop-color="#404042"/><stop offset="1" stop-color="#48484b"/></linearGradient><linearGradient id="C" x1="92.495" x2="108.09" y1="80.169" y2="164.62" gradientUnits="userSpaceOnUse"><stop stop-color="#404042"/><stop offset="1" stop-color="#48484b"/></linearGradient><clipPath id="D"><path fill="#fff" d="M0 0h71.364v42.268H0z" transform="translate(89.845 51.366)"/></clipPath></defs></svg>