<svg xmlns:vectornator="http://vectornator.io" xmlns="http://www.w3.org/2000/svg" viewBox="0 0 87 87" fill-rule="evenodd" clip-rule="evenodd" stroke-linecap="round" stroke-linejoin="round"><defs><linearGradient y1="29" id="a" x1="125.5" y2="116" x2="125.5" gradientUnits="userSpaceOnUse"><stop stop-color="#54dade" offset="0"/><stop stop-color="#24c7d6" offset=".762"/></linearGradient><linearGradient y1="52.268" id="b" x1="119.469" y2="79.165" x2="119.469" gradientUnits="userSpaceOnUse"><stop stop-color="#9f4a08" offset="0"/><stop stop-color="#7d3900" offset=".37"/><stop stop-color="#8d4104" offset="1"/></linearGradient></defs><g vectornator:layerName="Untitled"><path d="M-1-1h802v602H-1V-1z" fill="none"/><path d="M0 43.5C0 19.476 19.476 0 43.5 0S87 19.476 87 43.5 67.524 87 43.5 87 0 67.524 0 43.5z" fill="url(#a)"/><path d="M15.245 48.28l-.011.489c0 .618.054 1.229.159 1.83h-.159v.947c0 .46.03.918.089 1.373 1.152 8.837 13.327 15.79 28.177 15.79s27.026-6.953 28.178-15.79c.06-.455.089-.914.089-1.373v-.947h-.159c.134-.765.184-1.543.148-2.319-.427-9.252-12.914-16.673-28.256-16.673s-27.829 7.42-28.255 16.673zm-2.322 0c.21-5.645 4.046-10.387 9.386-13.629 5.535-3.36 13.033-5.364 21.191-5.364s15.657 2.003 21.191 5.364c5.34 3.242 9.176 7.984 9.386 13.629h.009v3.266c0 5.86-3.902 10.783-9.395 14.118-5.534 3.361-13.032 5.363-21.191 5.363-8.159 0-15.656-2.003-21.191-5.363-5.493-3.335-9.395-8.258-9.395-14.118V48.28h.009z"/><path d="M71.767 51.546c0 9.479-12.655 17.162-28.266 17.162-15.611 0-28.267-7.684-28.267-17.162v-2.717h56.533v2.717z" fill="#bebebe"/><path d="M71.767 48.769c0 9.479-12.655 17.163-28.266 17.163-15.611 0-28.267-7.684-28.267-17.163s12.655-17.162 28.267-17.162 28.266 7.684 28.266 17.163v-.001z" fill="#f5f3f3"/><path d="M19.583 43.92v.032c0 .78.113 1.545.33 2.287h-.33v1.005c0 .444.036.882.108 1.314 1.077 6.526 10.093 11.619 21.055 11.619s19.978-5.094 21.056-11.619c.071-.432.108-.871.108-1.314v-1.005h-.33c.212-.722.323-1.47.33-2.223v-.096c-.028-7.128-9.493-12.901-21.163-12.901S19.612 36.792 19.583 43.92zm-2.319 0v3.325c0 4.685 3.099 8.551 7.309 11.124 4.25 2.597 9.975 4.128 16.174 4.128s11.924-1.531 16.175-4.128c4.21-2.573 7.308-6.439 7.308-11.124v-3.22l.001-.072c0-4.685-3.099-8.551-7.309-11.125-4.25-2.597-9.975-4.129-16.174-4.129s-11.924 1.531-16.175 4.129c-4.201 2.567-7.294 6.422-7.308 11.092h-.001z"/><path d="M61.91 47.245c0 7.143-9.475 12.934-21.163 12.934s-21.164-5.791-21.164-12.934V44.21H61.91v3.035z" fill="#fedc90"/><path d="M61.91 43.952c0 7.143-9.475 12.934-21.163 12.934s-21.164-5.79-21.164-12.934c0-7.144 9.476-12.934 21.164-12.934S61.91 36.809 61.91 43.952z" fill="#d1884f"/><path d="M25.962 36.962v.032c0 .78.113 1.545.33 2.287h-.331v1.005c0 .444.037.882.108 1.314 1.078 6.526 10.094 11.619 21.056 11.619 10.962 0 19.978-5.093 21.056-11.619.071-.432.108-.871.108-1.314v-1.005h-.33a8.13 8.13 0 00.33-2.223v-.096c-.029-7.128-9.493-12.901-21.164-12.901-11.671 0-21.135 5.773-21.163 12.901zm-2.32 0v3.325c0 4.685 3.098 8.551 7.309 11.124 4.25 2.597 9.974 4.128 16.174 4.128 6.2 0 11.924-1.531 16.174-4.128 4.211-2.573 7.309-6.439 7.309-11.124v-3.292c0-4.685-3.098-8.551-7.308-11.125-4.251-2.598-9.975-4.129-16.175-4.129-6.2 0-11.924 1.531-16.174 4.129-4.201 2.567-7.294 6.422-7.309 11.092z"/><path d="M68.287 40.287c0 7.143-9.475 12.934-21.163 12.934S25.96 47.43 25.96 40.287v-3.035h42.327v3.035z" fill="#fedc90"/><path d="M68.287 36.994c0 7.143-9.475 12.934-21.163 12.934S25.96 44.137 25.96 36.994c0-7.143 9.475-12.934 21.164-12.934 11.689 0 21.163 5.791 21.163 12.934z" fill="#d1884f"/><path d="M19.583 30.004v.032c0 .781.113 1.545.33 2.287h-.33v1.005c0 .444.036.882.108 1.314 1.077 6.526 10.093 11.619 21.055 11.619s19.978-5.093 21.056-11.619c.071-.432.108-.871.108-1.314v-1.005h-.33c.212-.722.323-1.47.33-2.223v-.096c-.028-7.128-9.493-12.901-21.163-12.901s-21.135 5.773-21.164 12.901zm-2.319 0v3.325c0 4.685 3.099 8.551 7.309 11.124 4.25 2.597 9.975 4.129 16.174 4.129s11.924-1.531 16.175-4.129c4.21-2.573 7.308-6.439 7.308-11.124v-3.22l.001-.072c0-4.685-3.099-8.551-7.309-11.124-4.25-2.598-9.975-4.129-16.174-4.129s-11.924 1.531-16.175 4.129c-4.201 2.567-7.294 6.421-7.308 11.092l-.001-.001z"/><path d="M61.91 33.329c0 7.143-9.475 12.934-21.163 12.934s-21.164-5.791-21.164-12.934v-3.035H61.91v3.035z" fill="#fedc90"/><path d="M61.91 30.036c0 7.143-9.475 12.934-21.163 12.934s-21.164-5.791-21.164-12.934c0-7.143 9.476-12.934 21.164-12.934S61.91 22.893 61.91 30.036z" fill="#d1884f"/><path d="M24.588 30.841c0 2.385 1.733 4.521 4.467 5.958L27.16 40.08h.001-.001v8.303a1.99 1.99 0 001.988 1.988 1.99 1.99 0 001.988-1.988V41.78l2.038-3.53c1.303.276 2.702.426 4.158.426 7.038 0 12.743-3.508 12.743-7.835s-5.705-7.835-12.743-7.835-12.744 3.508-12.744 7.835z" fill="url(#b)"/><path d="M29.056 36.798l-.87-.503c-2.226-1.411-3.596-3.334-3.596-5.455 0-4.327 5.705-7.835 12.743-7.835s12.744 3.508 12.744 7.835-5.705 7.835-12.744 7.835a20.09 20.09 0 01-4.157-.426l-2.038 3.53v6.603a1.99 1.99 0 01-1.988 1.988 1.99 1.99 0 01-1.988-1.988v-8.303l1.894-3.281zm-3.923 3.316v8.268a4.02 4.02 0 004.017 4.017 4.02 4.02 0 004.018-4.017v-6.059l1.057-1.831c1.03.143 2.068.214 3.108.213 3.833 0 7.4-.951 10.074-2.595 2.642-1.624 4.699-4.137 4.699-7.269 0-3.132-2.057-5.645-4.699-7.269-2.674-1.645-6.241-2.595-10.074-2.595s-7.399.951-10.074 2.595c-2.641 1.624-4.699 4.137-4.699 7.269 0 2.749 1.575 5.013 3.762 6.634l-.903 1.565a2.02 2.02 0 00-.286 1.075v-.001z" fill="#633001"/><g fill="#9e7200"><path d="M28.571 27.54c0 2.242 2.856 4.059 6.378 4.059 3.522 0 6.378-1.817 6.378-4.059s-2.855-4.059-6.378-4.059-6.378 1.817-6.378 4.059z"/><path d="M28.57 25.8h12.756v1.739H28.57V25.8z"/></g><path d="M28.571 25.8c0 2.242 2.856 4.059 6.378 4.059 3.522 0 6.378-1.817 6.378-4.059s-2.855-4.059-6.378-4.059-6.378 1.817-6.378 4.059z" fill="#f0b90b"/><path d="M32.528 25.311l1.797-1.144a1.16 1.16 0 011.245 0l1.798 1.144a.58.58 0 010 .978l-1.798 1.144a1.16 1.16 0 01-1.245 0l-1.797-1.144a.58.58 0 010-.978z" fill="#9e7200"/><path d="M29.348 21.218c1.527-.971 3.512-1.506 5.6-1.506 2.088 0 4.073.535 5.599 1.506 1.503.956 2.808 2.527 2.808 4.582v1.74c0 2.055-1.305 3.626-2.808 4.582-1.526.972-3.512 1.506-5.599 1.506s-4.073-.535-5.6-1.506c-1.502-.956-2.808-2.527-2.808-4.582V25.8c0-2.055 1.306-3.626 2.808-4.582zm5.6.523c-3.523 0-6.378 1.817-6.378 4.059v1.74c0 2.242 2.855 4.059 6.378 4.059s6.378-1.817 6.378-4.059V25.8c0-2.242-2.856-4.059-6.378-4.059z" fill="#633001"/></g></svg>