<svg xmlns="http://www.w3.org/2000/svg" width="160" height="160" fill="none"><g clip-path="url(#clip0)"><path fill="#606063" d="M48.045 119.028c-3.178 12.144 15 27.421 40.602 34.121 25.603 6.7 48.934 2.287 52.112-9.858 3.179-12.145-15-27.421-40.602-34.122-25.602-6.7-48.934-2.286-52.112 9.859z"/><path fill="#606063" d="M136.924 149.273l15.422-16.285-109.354-28.619 5.72 21.818 88.212 23.086z"/><path fill="#606063" d="M49.934 108.293L8.072 97.338a3.304 3.304 0 00-4.062 2.486l-.469 2.129a8.258 8.258 0 005.746 9.7L51.1 123.892l-1.165-15.599z"/><path fill="url(#paint0_linear)" d="M43.203 98.71c-3.694 14.114 18.324 32.101 49.178 40.176 30.854 8.074 58.86 3.178 62.554-10.936 3.694-14.114-18.324-32.101-49.178-40.176-30.854-8.074-58.86-3.178-62.554 10.936z"/><path fill="#606063" fill-rule="evenodd" d="M127.673 123.286c7.098 5.22 11.246 10.866 11.865 15.871l2.977-.368c-.771-6.238-5.736-12.531-13.065-17.92-7.39-5.435-17.439-10.148-28.913-13.151-11.474-3.002-22.544-3.817-31.65-2.699-9.028 1.109-16.44 4.163-20.168 9.223l2.416 1.779c2.991-4.06 9.373-6.95 18.119-8.024 8.669-1.064 19.354-.299 30.523 2.624s20.859 7.49 27.896 12.665z" clip-rule="evenodd"/><path fill="#979797" fill-rule="evenodd" d="M56.734 118.739c-8.72-7.124-11.998-14.041-10.63-19.27 1.37-5.229 7.615-9.653 18.707-11.593 10.807-1.889 25.078-1.153 40.186 2.8 15.108 3.954 27.911 10.304 36.406 17.245 8.721 7.124 11.998 14.041 10.63 19.27-1.369 5.229-7.614 9.653-18.707 11.593-10.806 1.889-25.078 1.153-40.186-2.8-15.108-3.954-27.91-10.304-36.406-17.245zm35.647 20.147c-30.854-8.075-52.872-26.062-49.178-40.176 3.693-14.114 31.7-19.01 62.554-10.936 30.854 8.075 52.872 26.062 49.178 40.176-3.694 14.114-31.7 19.01-62.554 10.936z" clip-rule="evenodd"/><path fill="url(#paint1_linear)" fill-rule="evenodd" d="M45.167 124.049l-4.937-19.123 2.905-.75 4.937 19.123-2.905.75z" clip-rule="evenodd"/><path fill="url(#paint2_linear)" fill-rule="evenodd" d="M43.47 106.189a16.43 16.43 0 01-.33-1.26l-.143-.54c-.002-.009.005-.017.014-.014.008.002.016-.005.014-.013a13.388 13.388 0 01-.217-2.984v-.001c.035-.902.165-1.792.395-2.667 3.693-14.115 31.7-19.01 62.554-10.936 30.854 8.075 52.872 26.062 49.178 40.176a12.401 12.401 0 01-.963 2.519v.001a13.726 13.726 0 01-1.635 2.475l-.016.019c-.002.003-.003.005-.003.008 0 .005.004.01.009.011.005.001.008.006.009.01 0 .003-.001.007-.003.009l-.608.642c-.07.076-.141.151-.214.226l-1.236 1.305-.002.002-11.48 12.122c-6.807 9.031-27.596 11.752-50.146 5.85-22.302-5.837-38.971-18.182-40.797-29.295-.093-.569-.483-1.054-1.037-1.215L10.127 111.91a8.26 8.26 0 01-5.762-9.635l.459-2.172a3.304 3.304 0 014.066-2.514l34.249 8.931a.27.27 0 00.33-.331zm-3.658-3.636a15.574 15.574 0 01.488-4.603c2.326-8.885 11.93-13.966 23.478-15.984 11.833-2.069 26.992-1.215 42.738 2.906 15.746 4.12 29.38 10.802 38.683 18.402 9.078 7.417 14.963 16.551 12.638 25.436-.557 2.129-1.552 4.064-2.901 5.789a3.08 3.08 0 01-.425.566l-.588.621a26.355 26.355 0 01-.243.257l-.01.01-12.588 13.293c-4.171 5.406-12.026 8.46-21.098 9.556-9.3 1.124-20.517.28-32.096-2.751-11.453-2.997-21.548-7.685-29.079-13.141-7.079-5.13-12.32-11.262-13.742-17.657L9.285 114.789a11.259 11.259 0 01-7.855-13.134l.459-2.173a6.304 6.304 0 017.758-4.796l30.165 7.867z" clip-rule="evenodd"/><circle cx="57" cy="29" r="29" fill="#F0B90B"/><path fill="#FFFDFA" d="M46.185 29l-4.437 4.468L37.28 29l4.468-4.468L46.185 29zM57 18.185l7.641 7.642 4.468-4.468-7.641-7.61L57 9.28l-4.468 4.468-7.61 7.61 4.467 4.469L57 18.185zm15.252 6.348L67.815 29l4.468 4.468L76.72 29l-4.468-4.468zM57 39.814l-7.642-7.641-4.436 4.468 7.641 7.641L57 48.72l4.468-4.468 7.641-7.641-4.468-4.437L57 39.816zm0-6.347L61.468 29 57 24.532 52.532 29 57 33.468z"/><path fill="#191326" fill-rule="evenodd" d="M57 55c14.36 0 26-11.64 26-26S71.36 3 57 3 31 14.64 31 29s11.64 26 26 26zm0 3c16.016 0 29-12.984 29-29S73.016 0 57 0 28 12.984 28 29s12.984 29 29 29z" clip-rule="evenodd" opacity=".1"/><circle cx="106.5" cy="72.5" r="43.5" fill="#fff"/><path fill="#262262" d="M109.859 70.158c.231-.231.347-.462.347-.693 0-.23-.116-.577-.347-.693-.346-.346-1.039-.346-1.386 0-.231.231-.346.462-.346.693 0 .231.115.578.346.693.231.231.462.346.693.346.231 0 .462-.115.693-.346zM97.04 80.206c-.347.346-.347 1.04 0 1.386.23.23.461.346.692.346.578 0 1.04-.462 1.04-1.04 0-.23-.116-.577-.347-.692a.866.866 0 00-1.386 0zm15.014-12.589c.231 0 .577-.116.693-.347.231-.23.346-.462.346-.693 0-.23-.115-.577-.346-.693-.347-.346-1.04-.462-1.386 0-.231.231-.347.462-.347.693 0 .231.116.578.347.693.115.231.346.347.693.347zm-9.355 6.814c-.231.231-.347.462-.347.693 0 .578.462 1.04 1.04 1.04.577 0 1.039-.462 1.039-1.04 0-.23-.115-.577-.346-.693-.347-.346-.924-.346-1.386 0zM88.377 88.752c-.231.232-.346.463-.346.694 0 .577.462 1.039 1.039 1.039.231 0 .578-.115.693-.347.231-.115.231-.462.346-.693 0-.23-.115-.577-.346-.692-.347-.347-.924-.347-1.386 0zm35.111-32.569c.231 0 .577-.116.693-.347.346-.346.346-1.04 0-1.386-.347-.346-1.039-.346-1.386 0-.346.347-.346 1.04 0 1.386.116.231.347.347.693.347zM94.152 82.978c-.231.23-.347.462-.347.693 0 .23.116.577.347.693.346.346 1.04.346 1.386 0 .23-.231.346-.462.346-.693 0-.578-.462-1.04-1.04-1.04l-.692.347zm-2.887 2.887c-.231.232-.347.463-.347.694 0 .23.116.577.347.692.23.231.462.347.693.347.23 0 .577-.115.693-.347.23-.23.346-.462.346-.693 0-.23-.115-.577-.346-.693-.347-.462-.924-.462-1.386 0zm8.546-8.546c-.23.23-.346.462-.346.693 0 .23.115.462.346.693.231.23.462.346.693.346.231 0 .578-.115.693-.346.231-.231.347-.462.347-.693 0-.231-.116-.578-.347-.693-.346-.462-.924-.462-1.386 0zm15.823-12.936c.347-.346.347-1.04 0-1.386-.346-.346-1.039-.346-1.385 0-.347.347-.347 1.04 0 1.386.231.231.461.347.692.347.231 0 .462-.116.693-.347zm2.772-2.772c.231-.23.347-.462.347-.693 0-.23-.116-.577-.347-.693-.346-.346-1.039-.346-1.386 0-.231.231-.346.462-.346.693 0 .231.115.578.231.693.231.231.462.347.693.347.346-.116.693-.231.808-.347zm2.888-2.771c.231-.232.346-.463.346-.694-.115-.577-.577-.924-1.155-.924-.462 0-.808.462-.924.924 0 .231.116.578.347.693.346.347 1.039.347 1.386 0zm-.693 28.758c.577 0 1.039-.462 1.039-1.04 0-.23-.115-.577-.346-.693-.347-.346-1.04-.346-1.386 0-.231.231-.347.462-.347.693 0 .231.116.578.347.693.115.231.462.347.693.347zm-11.435-11.434c.578 0 1.04-.462 1.04-1.04 0-.23-.116-.577-.347-.693-.346-.346-1.039-.346-1.386 0-.231.231-.346.462-.346.693 0 .231.115.462.346.693.116.231.462.347.693.347zm-16.4-18.827c-.347-.346-1.04-.346-1.386 0-.231.231-.231.462-.347.694 0 .23.116.577.347.693.23.23.462.346.693.346.23 0 .577-.115.693-.346.23-.231.23-.462.23-.693 0-.347-.115-.578-.23-.694zm-3.58-1.154c.23 0 .577-.116.693-.347.346-.346.346-1.04 0-1.386-.347-.346-1.04-.346-1.386 0-.347.347-.347 1.04 0 1.386.115.231.346.347.693.347zm28.527 28.527c.231 0 .462-.115.693-.23.231-.232.347-.463.347-.694 0-.23-.116-.577-.347-.693-.346-.346-1.039-.346-1.386 0-.231.231-.231.462-.346.693 0 .231.115.578.346.693.231.116.462.231.693.231zM104.2 68.772c-.347-.346-1.039-.346-1.386 0-.231.231-.346.462-.346.693 0 .231.115.578.346.693.231.231.462.346.693.346.231 0 .577-.115.693-.346.231-.231.346-.462.346-.693-.115-.346-.231-.577-.346-.693zm18.595 19.981c-.231.23-.347.462-.347.693 0 .577.462 1.04 1.04 1.04.231 0 .577-.116.693-.347.231-.231.231-.462.231-.693 0-.231-.116-.578-.231-.693a.866.866 0 00-1.386 0zM95.538 60.11c-.347-.347-1.04-.347-1.386 0-.231.23-.347.462-.347.693 0 .23.116.577.231.692.231.231.462.347.693.347.578 0 1.04-.462 1.04-1.04.115-.23 0-.462-.231-.693zm5.775 5.774c-.347-.346-1.04-.462-1.386 0-.231.231-.347.462-.347.693 0 .578.462 1.04 1.04 1.04.231 0 .577-.116.693-.347.231-.23.346-.462.346-.693-.115-.23-.231-.577-.346-.693zm4.273 5.66c-.231.23-.231.462-.231.693 0 .23.115.577.231.693.231.23.462.23.693.23.231 0 .462-.115.693-.23.231-.116.346-.462.462-.693 0-.231-.116-.578-.347-.693-.231-.231-.462-.347-.693-.347a5.647 5.647 0 00-.808.347zm9.24 10.394c.577 0 1.039-.462 1.039-1.04 0-.577-.462-1.039-1.039-1.039-.578 0-1.04.462-1.04 1.04 0 .23.116.577.347.693.231.23.462.346.693.346zM98.425 62.997c-.346-.346-1.04-.346-1.386 0-.346.347-.346 1.04 0 1.386.231.231.462.347.693.347.231 0 .578-.116.693-.347.462-.346.462-.924 0-1.386zm13.629 16.053c.231 0 .577-.115.693-.346.231-.23.231-.462.231-.693 0-.23-.116-.577-.231-.692-.347-.347-1.04-.347-1.386 0-.231.23-.347.461-.347.692 0 .231.116.462.347.693.115.231.346.347.693.347zm-5.775 11.897a17.19 17.19 0 01-9.702-3.003l-6.12 6.122c4.503 3.58 10.047 5.543 15.822 5.428 5.659 0 11.203-1.963 15.708-5.428l-6.122-6.122c-2.887 1.964-6.121 3.003-9.586 3.003zm0-37.19c3.465 0 6.699.924 9.586 2.888l6.122-6.122c-9.24-7.392-22.291-7.392-31.415 0l6.12 6.122a17.334 17.334 0 019.587-2.888zm21.829 2.773l-6.121 6.12c1.963 2.888 3.002 6.353 2.887 9.818 0 3.35-1.039 6.699-2.887 9.47l6.121 6.122c3.58-4.505 5.428-9.933 5.544-15.708 0-5.775-1.964-11.318-5.544-15.823zM87.684 72.353c0-3.465 1.04-6.815 2.887-9.587l-6.12-6.121a25.334 25.334 0 000 31.415l6.12-6.121c-1.847-2.888-2.887-6.237-2.887-9.586z"/><path fill="#00AEEF" fill-rule="evenodd" d="M128.339 54.797c2.31 0 4.273-1.964 4.273-4.274s-1.963-4.273-4.273-4.273c-2.31 0-4.273 1.963-4.273 4.273 0 2.31 1.963 4.274 4.273 4.274zM84.22 46.134a4.263 4.263 0 00-4.274 4.274 4.263 4.263 0 004.273 4.273 4.263 4.263 0 004.274-4.273c0-2.31-1.964-4.274-4.274-4.274zm44.119 43.774c-2.31 0-4.273 1.963-4.273 4.273 0 2.31 1.963 4.273 4.273 4.273 2.31 0 4.273-1.963 4.273-4.273a4.263 4.263 0 00-4.273-4.273z" clip-rule="evenodd"/><path fill="#00AEEF" d="M84.22 98.339a4.273 4.273 0 100-8.547 4.273 4.273 0 000 8.547z"/><path fill="#191326" fill-rule="evenodd" d="M106.5 113.163c22.458 0 40.663-18.205 40.663-40.663S128.958 31.837 106.5 31.837 65.837 50.042 65.837 72.5s18.205 40.663 40.663 40.663zm0 2.837c24.024 0 43.5-19.476 43.5-43.5S130.524 29 106.5 29 63 48.476 63 72.5 82.476 116 106.5 116z" clip-rule="evenodd" opacity=".2"/></g><defs><linearGradient id="paint0_linear" x1="105.757" x2="92.381" y1="87.774" y2="138.886" gradientUnits="userSpaceOnUse"><stop stop-color="#404042"/><stop offset="1" stop-color="#48484B"/></linearGradient><linearGradient id="paint1_linear" x1="46.567" x2="41.735" y1="105.096" y2="123.129" gradientUnits="userSpaceOnUse"><stop stop-color="#404042"/><stop offset="1" stop-color="#48484B"/></linearGradient><linearGradient id="paint2_linear" x1="73.495" x2="89.09" y1="80.169" y2="164.62" gradientUnits="userSpaceOnUse"><stop stop-color="#404042"/><stop offset="1" stop-color="#48484B"/></linearGradient><clipPath id="clip0"><path fill="#fff" d="M0 0h160v160H0z"/></clipPath></defs></svg>