<svg xmlns="http://www.w3.org/2000/svg" viewBox="0 0 1988 1987.4"><circle cx="993.6" cy="993.6" r="993.6" fill="#ecb65c"/><path d="M1500.6 1048.9h-1014c-33.7 0-61.3 27.6-61.3 61.3s27.6 61.3 61.3 61.3h254.8l172.6 456c9.6 25.4 34.6 40.8 60.5 39.5 25.9 1.3 50.9-14.1 60.5-39.5l172.7-455.9h293c33.7 0 61.3-27.6 61.3-61.3s-27.6-61.4-61.4-61.4zm-526.1 392l-102-269.3h203.9l-101.9 269.3zM486.6 934.4h1014.1c33.7 0 61.3-27.6 61.3-61.3s-27.6-61.3-61.3-61.3h-156.8l126.4-333.9c11.9-31.5-4.1-67.1-35.6-79.1s-67.1 4.1-79.1 35.6l-142.9 377.3H736.2L593.4 434.5c-11.9-31.5-47.5-47.6-79.1-35.6-31.5 12-47.6 47.5-35.6 79.1l126.4 333.9H486.6c-33.7 0-61.3 27.6-61.3 61.3s27.5 61.2 61.3 61.2z" fill="#fff"/></svg>